<?xml version="1.0" encoding="utf-8" standalone="no"?>
<!DOCTYPE svg PUBLIC "-//W3C//DTD SVG 1.1//EN"
  "http://www.w3.org/Graphics/SVG/1.1/DTD/svg11.dtd">
<!-- Created with matplotlib (https://matplotlib.org/) -->
<svg height="345.6pt" version="1.1" viewBox="0 0 460.8 345.6" width="460.8pt" xmlns="http://www.w3.org/2000/svg" xmlns:xlink="http://www.w3.org/1999/xlink">
 <defs>
  <style type="text/css">
*{stroke-linecap:butt;stroke-linejoin:round;}
  </style>
 </defs>
 <g id="figure_1">
  <g id="patch_1">
   <path d="M 0 345.6 
L 460.8 345.6 
L 460.8 0 
L 0 0 
z
" style="fill:#ffffff;"/>
  </g>
  <g id="axes_1">
   <g id="patch_2">
    <path d="M 57.6 307.584 
L 414.72 307.584 
L 414.72 41.472 
L 57.6 41.472 
z
" style="fill:#ffffff;"/>
   </g>
   <g id="matplotlib.axis_1">
    <g id="xtick_1">
     <g id="line2d_1">
      <path clip-path="url(#pee7bb81c67)" d="M 73.832727 307.584 
L 73.832727 41.472 
" style="fill:none;stroke:#b0b0b0;stroke-linecap:square;stroke-width:0.8;"/>
     </g>
     <g id="line2d_2">
      <defs>
       <path d="M 0 0 
L 0 3.5 
" id="mea64cf9afd" style="stroke:#000000;stroke-width:0.8;"/>
      </defs>
      <g>
       <use style="stroke:#000000;stroke-width:0.8;" x="73.832727" xlink:href="#mea64cf9afd" y="307.584"/>
      </g>
     </g>
     <g id="text_1">
      <!-- 0 -->
      <defs>
       <path d="M 31.78125 66.40625 
Q 24.171875 66.40625 20.328125 58.90625 
Q 16.5 51.421875 16.5 36.375 
Q 16.5 21.390625 20.328125 13.890625 
Q 24.171875 6.390625 31.78125 6.390625 
Q 39.453125 6.390625 43.28125 13.890625 
Q 47.125 21.390625 47.125 36.375 
Q 47.125 51.421875 43.28125 58.90625 
Q 39.453125 66.40625 31.78125 66.40625 
z
M 31.78125 74.21875 
Q 44.046875 74.21875 50.515625 64.515625 
Q 56.984375 54.828125 56.984375 36.375 
Q 56.984375 17.96875 50.515625 8.265625 
Q 44.046875 -1.421875 31.78125 -1.421875 
Q 19.53125 -1.421875 13.0625 8.265625 
Q 6.59375 17.96875 6.59375 36.375 
Q 6.59375 54.828125 13.0625 64.515625 
Q 19.53125 74.21875 31.78125 74.21875 
z
" id="DejaVuSans-48"/>
      </defs>
      <g transform="translate(70.651477 322.182437)scale(0.1 -0.1)">
       <use xlink:href="#DejaVuSans-48"/>
      </g>
     </g>
    </g>
    <g id="xtick_2">
     <g id="line2d_3">
      <path clip-path="url(#pee7bb81c67)" d="M 114.618474 307.584 
L 114.618474 41.472 
" style="fill:none;stroke:#b0b0b0;stroke-linecap:square;stroke-width:0.8;"/>
     </g>
     <g id="line2d_4">
      <g>
       <use style="stroke:#000000;stroke-width:0.8;" x="114.618474" xlink:href="#mea64cf9afd" y="307.584"/>
      </g>
     </g>
     <g id="text_2">
      <!-- 25 -->
      <defs>
       <path d="M 19.1875 8.296875 
L 53.609375 8.296875 
L 53.609375 0 
L 7.328125 0 
L 7.328125 8.296875 
Q 12.9375 14.109375 22.625 23.890625 
Q 32.328125 33.6875 34.8125 36.53125 
Q 39.546875 41.84375 41.421875 45.53125 
Q 43.3125 49.21875 43.3125 52.78125 
Q 43.3125 58.59375 39.234375 62.25 
Q 35.15625 65.921875 28.609375 65.921875 
Q 23.96875 65.921875 18.8125 64.3125 
Q 13.671875 62.703125 7.8125 59.421875 
L 7.8125 69.390625 
Q 13.765625 71.78125 18.9375 73 
Q 24.125 74.21875 28.421875 74.21875 
Q 39.75 74.21875 46.484375 68.546875 
Q 53.21875 62.890625 53.21875 53.421875 
Q 53.21875 48.921875 51.53125 44.890625 
Q 49.859375 40.875 45.40625 35.40625 
Q 44.1875 33.984375 37.640625 27.21875 
Q 31.109375 20.453125 19.1875 8.296875 
z
" id="DejaVuSans-50"/>
       <path d="M 10.796875 72.90625 
L 49.515625 72.90625 
L 49.515625 64.59375 
L 19.828125 64.59375 
L 19.828125 46.734375 
Q 21.96875 47.46875 24.109375 47.828125 
Q 26.265625 48.1875 28.421875 48.1875 
Q 40.625 48.1875 47.75 41.5 
Q 54.890625 34.8125 54.890625 23.390625 
Q 54.890625 11.625 47.5625 5.09375 
Q 40.234375 -1.421875 26.90625 -1.421875 
Q 22.3125 -1.421875 17.546875 -0.640625 
Q 12.796875 0.140625 7.71875 1.703125 
L 7.71875 11.625 
Q 12.109375 9.234375 16.796875 8.0625 
Q 21.484375 6.890625 26.703125 6.890625 
Q 35.15625 6.890625 40.078125 11.328125 
Q 45.015625 15.765625 45.015625 23.390625 
Q 45.015625 31 40.078125 35.4375 
Q 35.15625 39.890625 26.703125 39.890625 
Q 22.75 39.890625 18.8125 39.015625 
Q 14.890625 38.140625 10.796875 36.28125 
z
" id="DejaVuSans-53"/>
      </defs>
      <g transform="translate(108.255974 322.182437)scale(0.1 -0.1)">
       <use xlink:href="#DejaVuSans-50"/>
       <use x="63.623047" xlink:href="#DejaVuSans-53"/>
      </g>
     </g>
    </g>
    <g id="xtick_3">
     <g id="line2d_5">
      <path clip-path="url(#pee7bb81c67)" d="M 155.404221 307.584 
L 155.404221 41.472 
" style="fill:none;stroke:#b0b0b0;stroke-linecap:square;stroke-width:0.8;"/>
     </g>
     <g id="line2d_6">
      <g>
       <use style="stroke:#000000;stroke-width:0.8;" x="155.404221" xlink:href="#mea64cf9afd" y="307.584"/>
      </g>
     </g>
     <g id="text_3">
      <!-- 50 -->
      <g transform="translate(149.041721 322.182437)scale(0.1 -0.1)">
       <use xlink:href="#DejaVuSans-53"/>
       <use x="63.623047" xlink:href="#DejaVuSans-48"/>
      </g>
     </g>
    </g>
    <g id="xtick_4">
     <g id="line2d_7">
      <path clip-path="url(#pee7bb81c67)" d="M 196.189968 307.584 
L 196.189968 41.472 
" style="fill:none;stroke:#b0b0b0;stroke-linecap:square;stroke-width:0.8;"/>
     </g>
     <g id="line2d_8">
      <g>
       <use style="stroke:#000000;stroke-width:0.8;" x="196.189968" xlink:href="#mea64cf9afd" y="307.584"/>
      </g>
     </g>
     <g id="text_4">
      <!-- 75 -->
      <defs>
       <path d="M 8.203125 72.90625 
L 55.078125 72.90625 
L 55.078125 68.703125 
L 28.609375 0 
L 18.3125 0 
L 43.21875 64.59375 
L 8.203125 64.59375 
z
" id="DejaVuSans-55"/>
      </defs>
      <g transform="translate(189.827468 322.182437)scale(0.1 -0.1)">
       <use xlink:href="#DejaVuSans-55"/>
       <use x="63.623047" xlink:href="#DejaVuSans-53"/>
      </g>
     </g>
    </g>
    <g id="xtick_5">
     <g id="line2d_9">
      <path clip-path="url(#pee7bb81c67)" d="M 236.975715 307.584 
L 236.975715 41.472 
" style="fill:none;stroke:#b0b0b0;stroke-linecap:square;stroke-width:0.8;"/>
     </g>
     <g id="line2d_10">
      <g>
       <use style="stroke:#000000;stroke-width:0.8;" x="236.975715" xlink:href="#mea64cf9afd" y="307.584"/>
      </g>
     </g>
     <g id="text_5">
      <!-- 100 -->
      <defs>
       <path d="M 12.40625 8.296875 
L 28.515625 8.296875 
L 28.515625 63.921875 
L 10.984375 60.40625 
L 10.984375 69.390625 
L 28.421875 72.90625 
L 38.28125 72.90625 
L 38.28125 8.296875 
L 54.390625 8.296875 
L 54.390625 0 
L 12.40625 0 
z
" id="DejaVuSans-49"/>
      </defs>
      <g transform="translate(227.431965 322.182437)scale(0.1 -0.1)">
       <use xlink:href="#DejaVuSans-49"/>
       <use x="63.623047" xlink:href="#DejaVuSans-48"/>
       <use x="127.246094" xlink:href="#DejaVuSans-48"/>
      </g>
     </g>
    </g>
    <g id="xtick_6">
     <g id="line2d_11">
      <path clip-path="url(#pee7bb81c67)" d="M 277.761462 307.584 
L 277.761462 41.472 
" style="fill:none;stroke:#b0b0b0;stroke-linecap:square;stroke-width:0.8;"/>
     </g>
     <g id="line2d_12">
      <g>
       <use style="stroke:#000000;stroke-width:0.8;" x="277.761462" xlink:href="#mea64cf9afd" y="307.584"/>
      </g>
     </g>
     <g id="text_6">
      <!-- 125 -->
      <g transform="translate(268.217712 322.182437)scale(0.1 -0.1)">
       <use xlink:href="#DejaVuSans-49"/>
       <use x="63.623047" xlink:href="#DejaVuSans-50"/>
       <use x="127.246094" xlink:href="#DejaVuSans-53"/>
      </g>
     </g>
    </g>
    <g id="xtick_7">
     <g id="line2d_13">
      <path clip-path="url(#pee7bb81c67)" d="M 318.547209 307.584 
L 318.547209 41.472 
" style="fill:none;stroke:#b0b0b0;stroke-linecap:square;stroke-width:0.8;"/>
     </g>
     <g id="line2d_14">
      <g>
       <use style="stroke:#000000;stroke-width:0.8;" x="318.547209" xlink:href="#mea64cf9afd" y="307.584"/>
      </g>
     </g>
     <g id="text_7">
      <!-- 150 -->
      <g transform="translate(309.003459 322.182437)scale(0.1 -0.1)">
       <use xlink:href="#DejaVuSans-49"/>
       <use x="63.623047" xlink:href="#DejaVuSans-53"/>
       <use x="127.246094" xlink:href="#DejaVuSans-48"/>
      </g>
     </g>
    </g>
    <g id="xtick_8">
     <g id="line2d_15">
      <path clip-path="url(#pee7bb81c67)" d="M 359.332956 307.584 
L 359.332956 41.472 
" style="fill:none;stroke:#b0b0b0;stroke-linecap:square;stroke-width:0.8;"/>
     </g>
     <g id="line2d_16">
      <g>
       <use style="stroke:#000000;stroke-width:0.8;" x="359.332956" xlink:href="#mea64cf9afd" y="307.584"/>
      </g>
     </g>
     <g id="text_8">
      <!-- 175 -->
      <g transform="translate(349.789206 322.182437)scale(0.1 -0.1)">
       <use xlink:href="#DejaVuSans-49"/>
       <use x="63.623047" xlink:href="#DejaVuSans-55"/>
       <use x="127.246094" xlink:href="#DejaVuSans-53"/>
      </g>
     </g>
    </g>
    <g id="xtick_9">
     <g id="line2d_17">
      <path clip-path="url(#pee7bb81c67)" d="M 400.118703 307.584 
L 400.118703 41.472 
" style="fill:none;stroke:#b0b0b0;stroke-linecap:square;stroke-width:0.8;"/>
     </g>
     <g id="line2d_18">
      <g>
       <use style="stroke:#000000;stroke-width:0.8;" x="400.118703" xlink:href="#mea64cf9afd" y="307.584"/>
      </g>
     </g>
     <g id="text_9">
      <!-- 200 -->
      <g transform="translate(390.574953 322.182437)scale(0.1 -0.1)">
       <use xlink:href="#DejaVuSans-50"/>
       <use x="63.623047" xlink:href="#DejaVuSans-48"/>
       <use x="127.246094" xlink:href="#DejaVuSans-48"/>
      </g>
     </g>
    </g>
    <g id="text_10">
     <!-- Generations -->
     <defs>
      <path d="M 59.515625 10.40625 
L 59.515625 29.984375 
L 43.40625 29.984375 
L 43.40625 38.09375 
L 69.28125 38.09375 
L 69.28125 6.78125 
Q 63.578125 2.734375 56.6875 0.65625 
Q 49.8125 -1.421875 42 -1.421875 
Q 24.90625 -1.421875 15.25 8.5625 
Q 5.609375 18.5625 5.609375 36.375 
Q 5.609375 54.25 15.25 64.234375 
Q 24.90625 74.21875 42 74.21875 
Q 49.125 74.21875 55.546875 72.453125 
Q 61.96875 70.703125 67.390625 67.28125 
L 67.390625 56.78125 
Q 61.921875 61.421875 55.765625 63.765625 
Q 49.609375 66.109375 42.828125 66.109375 
Q 29.4375 66.109375 22.71875 58.640625 
Q 16.015625 51.171875 16.015625 36.375 
Q 16.015625 21.625 22.71875 14.15625 
Q 29.4375 6.6875 42.828125 6.6875 
Q 48.046875 6.6875 52.140625 7.59375 
Q 56.25 8.5 59.515625 10.40625 
z
" id="DejaVuSans-71"/>
      <path d="M 56.203125 29.59375 
L 56.203125 25.203125 
L 14.890625 25.203125 
Q 15.484375 15.921875 20.484375 11.0625 
Q 25.484375 6.203125 34.421875 6.203125 
Q 39.59375 6.203125 44.453125 7.46875 
Q 49.3125 8.734375 54.109375 11.28125 
L 54.109375 2.78125 
Q 49.265625 0.734375 44.1875 -0.34375 
Q 39.109375 -1.421875 33.890625 -1.421875 
Q 20.796875 -1.421875 13.15625 6.1875 
Q 5.515625 13.8125 5.515625 26.8125 
Q 5.515625 40.234375 12.765625 48.109375 
Q 20.015625 56 32.328125 56 
Q 43.359375 56 49.78125 48.890625 
Q 56.203125 41.796875 56.203125 29.59375 
z
M 47.21875 32.234375 
Q 47.125 39.59375 43.09375 43.984375 
Q 39.0625 48.390625 32.421875 48.390625 
Q 24.90625 48.390625 20.390625 44.140625 
Q 15.875 39.890625 15.1875 32.171875 
z
" id="DejaVuSans-101"/>
      <path d="M 54.890625 33.015625 
L 54.890625 0 
L 45.90625 0 
L 45.90625 32.71875 
Q 45.90625 40.484375 42.875 44.328125 
Q 39.84375 48.1875 33.796875 48.1875 
Q 26.515625 48.1875 22.3125 43.546875 
Q 18.109375 38.921875 18.109375 30.90625 
L 18.109375 0 
L 9.078125 0 
L 9.078125 54.6875 
L 18.109375 54.6875 
L 18.109375 46.1875 
Q 21.34375 51.125 25.703125 53.5625 
Q 30.078125 56 35.796875 56 
Q 45.21875 56 50.046875 50.171875 
Q 54.890625 44.34375 54.890625 33.015625 
z
" id="DejaVuSans-110"/>
      <path d="M 41.109375 46.296875 
Q 39.59375 47.171875 37.8125 47.578125 
Q 36.03125 48 33.890625 48 
Q 26.265625 48 22.1875 43.046875 
Q 18.109375 38.09375 18.109375 28.8125 
L 18.109375 0 
L 9.078125 0 
L 9.078125 54.6875 
L 18.109375 54.6875 
L 18.109375 46.1875 
Q 20.953125 51.171875 25.484375 53.578125 
Q 30.03125 56 36.53125 56 
Q 37.453125 56 38.578125 55.875 
Q 39.703125 55.765625 41.0625 55.515625 
z
" id="DejaVuSans-114"/>
      <path d="M 34.28125 27.484375 
Q 23.390625 27.484375 19.1875 25 
Q 14.984375 22.515625 14.984375 16.5 
Q 14.984375 11.71875 18.140625 8.90625 
Q 21.296875 6.109375 26.703125 6.109375 
Q 34.1875 6.109375 38.703125 11.40625 
Q 43.21875 16.703125 43.21875 25.484375 
L 43.21875 27.484375 
z
M 52.203125 31.203125 
L 52.203125 0 
L 43.21875 0 
L 43.21875 8.296875 
Q 40.140625 3.328125 35.546875 0.953125 
Q 30.953125 -1.421875 24.3125 -1.421875 
Q 15.921875 -1.421875 10.953125 3.296875 
Q 6 8.015625 6 15.921875 
Q 6 25.140625 12.171875 29.828125 
Q 18.359375 34.515625 30.609375 34.515625 
L 43.21875 34.515625 
L 43.21875 35.40625 
Q 43.21875 41.609375 39.140625 45 
Q 35.0625 48.390625 27.6875 48.390625 
Q 23 48.390625 18.546875 47.265625 
Q 14.109375 46.140625 10.015625 43.890625 
L 10.015625 52.203125 
Q 14.9375 54.109375 19.578125 55.046875 
Q 24.21875 56 28.609375 56 
Q 40.484375 56 46.34375 49.84375 
Q 52.203125 43.703125 52.203125 31.203125 
z
" id="DejaVuSans-97"/>
      <path d="M 18.3125 70.21875 
L 18.3125 54.6875 
L 36.8125 54.6875 
L 36.8125 47.703125 
L 18.3125 47.703125 
L 18.3125 18.015625 
Q 18.3125 11.328125 20.140625 9.421875 
Q 21.96875 7.515625 27.59375 7.515625 
L 36.8125 7.515625 
L 36.8125 0 
L 27.59375 0 
Q 17.1875 0 13.234375 3.875 
Q 9.28125 7.765625 9.28125 18.015625 
L 9.28125 47.703125 
L 2.6875 47.703125 
L 2.6875 54.6875 
L 9.28125 54.6875 
L 9.28125 70.21875 
z
" id="DejaVuSans-116"/>
      <path d="M 9.421875 54.6875 
L 18.40625 54.6875 
L 18.40625 0 
L 9.421875 0 
z
M 9.421875 75.984375 
L 18.40625 75.984375 
L 18.40625 64.59375 
L 9.421875 64.59375 
z
" id="DejaVuSans-105"/>
      <path d="M 30.609375 48.390625 
Q 23.390625 48.390625 19.1875 42.75 
Q 14.984375 37.109375 14.984375 27.296875 
Q 14.984375 17.484375 19.15625 11.84375 
Q 23.34375 6.203125 30.609375 6.203125 
Q 37.796875 6.203125 41.984375 11.859375 
Q 46.1875 17.53125 46.1875 27.296875 
Q 46.1875 37.015625 41.984375 42.703125 
Q 37.796875 48.390625 30.609375 48.390625 
z
M 30.609375 56 
Q 42.328125 56 49.015625 48.375 
Q 55.71875 40.765625 55.71875 27.296875 
Q 55.71875 13.875 49.015625 6.21875 
Q 42.328125 -1.421875 30.609375 -1.421875 
Q 18.84375 -1.421875 12.171875 6.21875 
Q 5.515625 13.875 5.515625 27.296875 
Q 5.515625 40.765625 12.171875 48.375 
Q 18.84375 56 30.609375 56 
z
" id="DejaVuSans-111"/>
      <path d="M 44.28125 53.078125 
L 44.28125 44.578125 
Q 40.484375 46.53125 36.375 47.5 
Q 32.28125 48.484375 27.875 48.484375 
Q 21.1875 48.484375 17.84375 46.4375 
Q 14.5 44.390625 14.5 40.28125 
Q 14.5 37.15625 16.890625 35.375 
Q 19.28125 33.59375 26.515625 31.984375 
L 29.59375 31.296875 
Q 39.15625 29.25 43.1875 25.515625 
Q 47.21875 21.78125 47.21875 15.09375 
Q 47.21875 7.46875 41.1875 3.015625 
Q 35.15625 -1.421875 24.609375 -1.421875 
Q 20.21875 -1.421875 15.453125 -0.5625 
Q 10.6875 0.296875 5.421875 2 
L 5.421875 11.28125 
Q 10.40625 8.6875 15.234375 7.390625 
Q 20.0625 6.109375 24.8125 6.109375 
Q 31.15625 6.109375 34.5625 8.28125 
Q 37.984375 10.453125 37.984375 14.40625 
Q 37.984375 18.0625 35.515625 20.015625 
Q 33.0625 21.96875 24.703125 23.78125 
L 21.578125 24.515625 
Q 13.234375 26.265625 9.515625 29.90625 
Q 5.8125 33.546875 5.8125 39.890625 
Q 5.8125 47.609375 11.28125 51.796875 
Q 16.75 56 26.8125 56 
Q 31.78125 56 36.171875 55.265625 
Q 40.578125 54.546875 44.28125 53.078125 
z
" id="DejaVuSans-115"/>
     </defs>
     <g transform="translate(205.662344 335.860562)scale(0.1 -0.1)">
      <use xlink:href="#DejaVuSans-71"/>
      <use x="77.490234" xlink:href="#DejaVuSans-101"/>
      <use x="139.013672" xlink:href="#DejaVuSans-110"/>
      <use x="202.392578" xlink:href="#DejaVuSans-101"/>
      <use x="263.916016" xlink:href="#DejaVuSans-114"/>
      <use x="305.029297" xlink:href="#DejaVuSans-97"/>
      <use x="366.308594" xlink:href="#DejaVuSans-116"/>
      <use x="405.517578" xlink:href="#DejaVuSans-105"/>
      <use x="433.300781" xlink:href="#DejaVuSans-111"/>
      <use x="494.482422" xlink:href="#DejaVuSans-110"/>
      <use x="557.861328" xlink:href="#DejaVuSans-115"/>
     </g>
    </g>
   </g>
   <g id="matplotlib.axis_2">
    <g id="ytick_1">
     <g id="line2d_19">
      <path clip-path="url(#pee7bb81c67)" d="M 57.6 295.857483 
L 414.72 295.857483 
" style="fill:none;stroke:#b0b0b0;stroke-linecap:square;stroke-width:0.8;"/>
     </g>
     <g id="line2d_20">
      <defs>
       <path d="M 0 0 
L -3.5 0 
" id="ma288851be0" style="stroke:#000000;stroke-width:0.8;"/>
      </defs>
      <g>
       <use style="stroke:#000000;stroke-width:0.8;" x="57.6" xlink:href="#ma288851be0" y="295.857483"/>
      </g>
     </g>
     <g id="text_11">
      <!-- 55 -->
      <g transform="translate(37.875 299.656702)scale(0.1 -0.1)">
       <use xlink:href="#DejaVuSans-53"/>
       <use x="63.623047" xlink:href="#DejaVuSans-53"/>
      </g>
     </g>
    </g>
    <g id="ytick_2">
     <g id="line2d_21">
      <path clip-path="url(#pee7bb81c67)" d="M 57.6 239.669236 
L 414.72 239.669236 
" style="fill:none;stroke:#b0b0b0;stroke-linecap:square;stroke-width:0.8;"/>
     </g>
     <g id="line2d_22">
      <g>
       <use style="stroke:#000000;stroke-width:0.8;" x="57.6" xlink:href="#ma288851be0" y="239.669236"/>
      </g>
     </g>
     <g id="text_12">
      <!-- 60 -->
      <defs>
       <path d="M 33.015625 40.375 
Q 26.375 40.375 22.484375 35.828125 
Q 18.609375 31.296875 18.609375 23.390625 
Q 18.609375 15.53125 22.484375 10.953125 
Q 26.375 6.390625 33.015625 6.390625 
Q 39.65625 6.390625 43.53125 10.953125 
Q 47.40625 15.53125 47.40625 23.390625 
Q 47.40625 31.296875 43.53125 35.828125 
Q 39.65625 40.375 33.015625 40.375 
z
M 52.59375 71.296875 
L 52.59375 62.3125 
Q 48.875 64.0625 45.09375 64.984375 
Q 41.3125 65.921875 37.59375 65.921875 
Q 27.828125 65.921875 22.671875 59.328125 
Q 17.53125 52.734375 16.796875 39.40625 
Q 19.671875 43.65625 24.015625 45.921875 
Q 28.375 48.1875 33.59375 48.1875 
Q 44.578125 48.1875 50.953125 41.515625 
Q 57.328125 34.859375 57.328125 23.390625 
Q 57.328125 12.15625 50.6875 5.359375 
Q 44.046875 -1.421875 33.015625 -1.421875 
Q 20.359375 -1.421875 13.671875 8.265625 
Q 6.984375 17.96875 6.984375 36.375 
Q 6.984375 53.65625 15.1875 63.9375 
Q 23.390625 74.21875 37.203125 74.21875 
Q 40.921875 74.21875 44.703125 73.484375 
Q 48.484375 72.75 52.59375 71.296875 
z
" id="DejaVuSans-54"/>
      </defs>
      <g transform="translate(37.875 243.468454)scale(0.1 -0.1)">
       <use xlink:href="#DejaVuSans-54"/>
       <use x="63.623047" xlink:href="#DejaVuSans-48"/>
      </g>
     </g>
    </g>
    <g id="ytick_3">
     <g id="line2d_23">
      <path clip-path="url(#pee7bb81c67)" d="M 57.6 183.480989 
L 414.72 183.480989 
" style="fill:none;stroke:#b0b0b0;stroke-linecap:square;stroke-width:0.8;"/>
     </g>
     <g id="line2d_24">
      <g>
       <use style="stroke:#000000;stroke-width:0.8;" x="57.6" xlink:href="#ma288851be0" y="183.480989"/>
      </g>
     </g>
     <g id="text_13">
      <!-- 65 -->
      <g transform="translate(37.875 187.280207)scale(0.1 -0.1)">
       <use xlink:href="#DejaVuSans-54"/>
       <use x="63.623047" xlink:href="#DejaVuSans-53"/>
      </g>
     </g>
    </g>
    <g id="ytick_4">
     <g id="line2d_25">
      <path clip-path="url(#pee7bb81c67)" d="M 57.6 127.292741 
L 414.72 127.292741 
" style="fill:none;stroke:#b0b0b0;stroke-linecap:square;stroke-width:0.8;"/>
     </g>
     <g id="line2d_26">
      <g>
       <use style="stroke:#000000;stroke-width:0.8;" x="57.6" xlink:href="#ma288851be0" y="127.292741"/>
      </g>
     </g>
     <g id="text_14">
      <!-- 70 -->
      <g transform="translate(37.875 131.09196)scale(0.1 -0.1)">
       <use xlink:href="#DejaVuSans-55"/>
       <use x="63.623047" xlink:href="#DejaVuSans-48"/>
      </g>
     </g>
    </g>
    <g id="ytick_5">
     <g id="line2d_27">
      <path clip-path="url(#pee7bb81c67)" d="M 57.6 71.104494 
L 414.72 71.104494 
" style="fill:none;stroke:#b0b0b0;stroke-linecap:square;stroke-width:0.8;"/>
     </g>
     <g id="line2d_28">
      <g>
       <use style="stroke:#000000;stroke-width:0.8;" x="57.6" xlink:href="#ma288851be0" y="71.104494"/>
      </g>
     </g>
     <g id="text_15">
      <!-- 75 -->
      <g transform="translate(37.875 74.903713)scale(0.1 -0.1)">
       <use xlink:href="#DejaVuSans-55"/>
       <use x="63.623047" xlink:href="#DejaVuSans-53"/>
      </g>
     </g>
    </g>
    <g id="text_16">
     <!-- Fitness -->
     <defs>
      <path d="M 9.8125 72.90625 
L 51.703125 72.90625 
L 51.703125 64.59375 
L 19.671875 64.59375 
L 19.671875 43.109375 
L 48.578125 43.109375 
L 48.578125 34.8125 
L 19.671875 34.8125 
L 19.671875 0 
L 9.8125 0 
z
" id="DejaVuSans-70"/>
     </defs>
     <g transform="translate(31.795312 192.202219)rotate(-90)scale(0.1 -0.1)">
      <use xlink:href="#DejaVuSans-70"/>
      <use x="57.410156" xlink:href="#DejaVuSans-105"/>
      <use x="85.193359" xlink:href="#DejaVuSans-116"/>
      <use x="124.402344" xlink:href="#DejaVuSans-110"/>
      <use x="187.78125" xlink:href="#DejaVuSans-101"/>
      <use x="249.304688" xlink:href="#DejaVuSans-115"/>
      <use x="301.404297" xlink:href="#DejaVuSans-115"/>
     </g>
    </g>
   </g>
   <g id="line2d_29">
    <path clip-path="url(#pee7bb81c67)" d="M 73.832727 276.781293 
L 75.464157 257.584015 
L 77.095587 249.734772 
L 80.358447 238.230216 
L 85.252736 224.18321 
L 86.884166 217.302505 
L 88.515596 211.592349 
L 90.147026 199.941087 
L 91.778456 198.441645 
L 93.409886 194.284145 
L 95.041316 188.145132 
L 96.672746 186.891711 
L 98.304175 180.695678 
L 101.567035 171.831486 
L 103.198465 168.03638 
L 104.829895 167.600995 
L 106.461325 165.4695 
L 108.092755 166.319392 
L 109.724185 169.429537 
L 111.355614 163.404118 
L 112.987044 164.202216 
L 114.618474 162.563885 
L 116.249904 164.713409 
L 117.881334 160.003607 
L 119.512764 161.699773 
L 121.144194 164.315034 
L 122.775624 165.412041 
L 124.407053 162.350214 
L 126.038483 161.504134 
L 127.669913 158.191925 
L 129.301343 161.515069 
L 130.932773 156.418389 
L 132.564203 158.537799 
L 135.827063 164.347652 
L 137.458492 165.548415 
L 139.089922 166.20184 
L 140.721352 170.255413 
L 142.352782 169.967438 
L 143.984212 168.586551 
L 145.615642 165.206235 
L 147.247072 165.878963 
L 148.878502 277.140432 
L 150.509931 258.679295 
L 152.141361 247.669751 
L 153.772791 243.610322 
L 157.035651 231.148224 
L 158.667081 229.614731 
L 160.298511 223.159025 
L 161.929941 219.691595 
L 163.56137 213.050467 
L 165.1928 209.611722 
L 166.82423 202.654348 
L 168.45566 199.471582 
L 170.08709 192.356654 
L 171.71852 186.69893 
L 173.34995 187.954433 
L 174.98138 180.153807 
L 176.61281 175.760365 
L 178.244239 173.680958 
L 179.875669 172.99075 
L 181.507099 172.873808 
L 183.138529 172.378247 
L 184.769959 173.999372 
L 186.401389 174.696349 
L 188.032819 168.11983 
L 189.664249 165.105256 
L 191.295678 167.696999 
L 192.927108 167.504377 
L 194.558538 169.144646 
L 196.189968 173.494243 
L 197.821398 172.66786 
L 199.452828 169.099944 
L 201.084258 164.389176 
L 202.715688 167.279979 
L 204.347117 167.831351 
L 205.978547 166.752525 
L 207.609977 167.428979 
L 209.241407 163.712782 
L 210.872837 163.142422 
L 212.504267 158.755509 
L 214.135697 160.334069 
L 215.767127 156.767512 
L 217.398556 161.531342 
L 219.029986 158.930585 
L 220.661416 158.9359 
L 223.924276 164.989425 
L 225.555706 159.713734 
L 227.187136 160.367444 
L 228.818566 155.574193 
L 230.449995 155.186029 
L 232.081425 151.44038 
L 233.712855 153.667687 
L 235.344285 150.349019 
L 238.607145 153.537644 
L 240.238575 150.205114 
L 241.870005 155.169589 
L 243.501434 155.17513 
L 246.764294 149.471563 
L 248.395724 148.395856 
L 250.027154 152.126418 
L 251.658584 152.560294 
L 253.290014 148.806429 
L 254.921444 150.04751 
L 256.552873 150.26262 
L 258.184303 151.60549 
L 259.815733 149.380843 
L 261.447163 149.906946 
L 263.078593 151.201489 
L 264.710023 156.882728 
L 267.972883 149.825514 
L 269.604312 151.188015 
L 271.235742 154.302335 
L 272.867172 151.919054 
L 274.498602 151.497182 
L 276.130032 154.785278 
L 277.761462 152.243577 
L 279.392892 150.509225 
L 281.024322 155.556334 
L 282.655751 150.631591 
L 284.287181 154.879346 
L 285.918611 156.063263 
L 289.181471 149.594119 
L 290.812901 143.624155 
L 292.444331 143.597353 
L 294.075761 146.090225 
L 295.70719 145.874382 
L 297.33862 146.369867 
L 298.97005 143.159167 
L 300.60148 145.105417 
L 302.23291 146.352342 
L 303.86434 148.43867 
L 305.49577 153.600307 
L 308.75863 150.788176 
L 310.390059 148.76653 
L 312.021489 145.133313 
L 313.652919 150.891368 
L 315.284349 150.808698 
L 316.915779 148.532303 
L 318.547209 149.286398 
L 320.178639 151.414044 
L 321.810069 276.266557 
L 323.441498 258.865028 
L 325.072928 248.994512 
L 326.704358 241.66192 
L 328.335788 239.304732 
L 329.967218 232.782863 
L 331.598648 227.812618 
L 333.230078 220.577468 
L 334.861508 218.741247 
L 336.492937 208.690149 
L 338.124367 209.015733 
L 339.755797 202.965882 
L 341.387227 199.125216 
L 343.018657 197.304644 
L 344.650087 193.570948 
L 346.281517 186.617262 
L 347.912947 178.860371 
L 349.544376 177.275143 
L 351.175806 174.348368 
L 352.807236 177.502258 
L 354.438666 175.212795 
L 356.070096 172.04226 
L 357.701526 169.338615 
L 359.332956 168.004075 
L 360.964386 165.561468 
L 364.227245 162.800352 
L 365.858675 164.40808 
L 367.490105 159.429908 
L 369.121535 156.526101 
L 370.752965 158.700655 
L 372.384395 162.126165 
L 374.015825 161.271897 
L 375.647254 162.040497 
L 377.278684 161.535545 
L 378.910114 167.531204 
L 380.541544 165.223973 
L 382.172974 161.369607 
L 383.804404 159.508222 
L 385.435834 154.695372 
L 387.067264 155.791398 
L 388.698693 153.25021 
L 390.330123 154.385349 
L 391.961553 157.190133 
L 393.592983 151.693962 
L 395.224413 156.17133 
L 396.855843 153.989316 
L 398.487273 152.130364 
L 398.487273 152.130364 
" style="fill:none;stroke:#0000ff;stroke-linecap:square;stroke-width:1.5;"/>
   </g>
   <g id="line2d_30">
    <path clip-path="url(#pee7bb81c67)" d="M 73.832727 294.152923 
L 75.464157 272.15602 
L 77.095587 263.348172 
L 78.727017 260.855208 
L 80.358447 255.947568 
L 81.989877 254.257378 
L 83.621307 249.665776 
L 85.252736 246.772662 
L 86.884166 241.100112 
L 88.515596 238.53667 
L 90.147026 224.167476 
L 91.778456 226.100047 
L 93.409886 221.806832 
L 95.041316 216.433962 
L 96.672746 216.375786 
L 98.304175 209.519373 
L 99.935605 206.34221 
L 101.567035 200.936519 
L 103.198465 198.741482 
L 104.829895 200.791297 
L 106.461325 197.375995 
L 108.092755 198.712924 
L 109.724185 200.6192 
L 111.355614 196.917133 
L 112.987044 194.797672 
L 114.618474 193.498767 
L 116.249904 199.481531 
L 117.881334 191.637059 
L 119.512764 194.907352 
L 121.144194 197.383085 
L 122.775624 196.970193 
L 124.407053 195.445995 
L 126.038483 194.705127 
L 127.669913 190.057 
L 129.301343 196.563304 
L 130.932773 188.435142 
L 132.564203 190.136628 
L 134.195633 192.75555 
L 135.827063 196.764295 
L 137.458492 197.472208 
L 139.089922 195.767928 
L 140.721352 203.642105 
L 142.352782 203.241044 
L 143.984212 201.507607 
L 145.615642 200.625465 
L 147.247072 201.532878 
L 148.878502 295.488 
L 150.509931 273.226264 
L 152.141361 262.090797 
L 153.772791 258.205727 
L 155.404221 252.928982 
L 157.035651 248.179957 
L 158.667081 249.059621 
L 160.298511 242.570813 
L 161.929941 241.185656 
L 163.56137 237.159091 
L 165.1928 235.920556 
L 166.82423 229.280222 
L 168.45566 227.322702 
L 170.08709 219.197559 
L 171.71852 215.690789 
L 173.34995 217.703239 
L 174.98138 208.611884 
L 176.61281 206.07013 
L 178.244239 201.985891 
L 179.875669 202.475836 
L 181.507099 200.942978 
L 183.138529 203.956085 
L 186.401389 207.625678 
L 188.032819 202.412018 
L 189.664249 195.337185 
L 191.295678 199.886079 
L 192.927108 197.367474 
L 194.558538 199.873592 
L 196.189968 203.557399 
L 197.821398 203.074402 
L 199.452828 203.599784 
L 201.084258 195.027098 
L 202.715688 201.695669 
L 204.347117 202.088972 
L 205.978547 198.913388 
L 207.609977 201.045827 
L 209.241407 195.645684 
L 210.872837 196.765707 
L 212.504267 192.495227 
L 214.135697 195.514717 
L 215.767127 187.652577 
L 217.398556 194.454418 
L 219.029986 190.954817 
L 220.661416 192.479149 
L 223.924276 197.880131 
L 225.555706 193.626508 
L 227.187136 194.593788 
L 228.818566 189.805973 
L 230.449995 192.253921 
L 232.081425 186.579876 
L 233.712855 187.850725 
L 235.344285 184.930055 
L 236.975715 188.559604 
L 238.607145 189.654516 
L 240.238575 184.181638 
L 241.870005 191.051906 
L 243.501434 190.384233 
L 245.132864 186.451363 
L 246.764294 185.35213 
L 248.395724 183.018175 
L 250.027154 186.839765 
L 251.658584 192.820377 
L 253.290014 183.39489 
L 254.921444 184.76021 
L 256.552873 185.002535 
L 258.184303 187.493063 
L 259.815733 186.826952 
L 261.447163 185.671481 
L 263.078593 185.778089 
L 264.710023 192.656824 
L 266.341453 188.079352 
L 267.972883 186.944757 
L 269.604312 186.538996 
L 271.235742 191.606201 
L 272.867172 185.871086 
L 274.498602 187.297028 
L 276.130032 190.062454 
L 277.761462 186.998941 
L 279.392892 186.948833 
L 281.024322 193.218636 
L 282.655751 185.487631 
L 284.287181 191.317175 
L 285.918611 193.520337 
L 287.550041 190.453716 
L 289.181471 183.627816 
L 290.812901 178.012072 
L 292.444331 176.875586 
L 294.075761 179.408357 
L 295.70719 180.761336 
L 297.33862 181.386539 
L 298.97005 177.067674 
L 300.60148 180.610569 
L 302.23291 182.513612 
L 303.86434 179.74935 
L 305.49577 191.639361 
L 307.1272 189.184063 
L 308.75863 184.357859 
L 310.390059 183.327295 
L 312.021489 175.872166 
L 313.652919 187.292173 
L 315.284349 185.590271 
L 316.915779 185.406133 
L 318.547209 183.35875 
L 320.178639 187.022764 
L 321.810069 294.024432 
L 323.441498 273.811263 
L 325.072928 264.187387 
L 326.704358 256.084594 
L 328.335788 254.977234 
L 329.967218 250.349286 
L 331.598648 248.323437 
L 333.230078 242.093939 
L 334.861508 241.607796 
L 336.492937 230.34684 
L 338.124367 235.048714 
L 339.755797 227.209872 
L 341.387227 225.725894 
L 343.018657 225.446475 
L 344.650087 224.438344 
L 347.912947 208.65181 
L 349.544376 207.109762 
L 351.175806 204.393979 
L 352.807236 208.584106 
L 354.438666 206.588982 
L 356.070096 203.306653 
L 357.701526 199.215481 
L 359.332956 202.019394 
L 360.964386 197.988118 
L 362.595815 196.122187 
L 364.227245 196.11037 
L 365.858675 198.006557 
L 367.490105 189.960096 
L 369.121535 188.187938 
L 370.752965 190.41065 
L 372.384395 194.766048 
L 374.015825 192.358673 
L 375.647254 194.32038 
L 377.278684 194.078058 
L 378.910114 200.569211 
L 380.541544 197.90346 
L 382.172974 193.900126 
L 383.804404 194.082481 
L 385.435834 188.632056 
L 387.067264 189.797557 
L 388.698693 184.892985 
L 390.330123 185.159573 
L 391.961553 194.437188 
L 393.592983 188.162995 
L 395.224413 190.260087 
L 396.855843 189.399752 
L 398.487273 187.932353 
L 398.487273 187.932353 
" style="fill:none;stroke:#008000;stroke-dasharray:9.6,2.4,1.5,2.4;stroke-dashoffset:0;stroke-width:1.5;"/>
   </g>
   <g id="line2d_31">
    <path clip-path="url(#pee7bb81c67)" d="M 73.832727 259.409663 
L 75.464157 243.01201 
L 77.095587 236.121372 
L 78.727017 226.939634 
L 80.358447 220.512864 
L 81.989877 212.766118 
L 83.621307 208.031905 
L 85.252736 201.593758 
L 86.884166 193.504899 
L 90.147026 175.714698 
L 91.778456 170.783243 
L 93.409886 166.761457 
L 95.041316 159.856301 
L 96.672746 157.407636 
L 99.935605 146.088506 
L 101.567035 142.726452 
L 103.198465 137.331278 
L 104.829895 134.410693 
L 106.461325 133.563005 
L 108.092755 133.925861 
L 109.724185 138.239875 
L 111.355614 129.891103 
L 112.987044 133.606761 
L 114.618474 131.629003 
L 117.881334 128.370154 
L 119.512764 128.492195 
L 122.775624 133.853889 
L 124.407053 129.254433 
L 126.038483 128.30314 
L 127.669913 126.326851 
L 129.301343 126.466835 
L 130.932773 124.401636 
L 132.564203 126.93897 
L 134.195633 129.95468 
L 135.827063 131.931009 
L 137.458492 133.624621 
L 139.089922 136.635751 
L 140.721352 136.868721 
L 142.352782 136.693832 
L 143.984212 135.665494 
L 145.615642 129.787004 
L 147.247072 130.225047 
L 148.878502 258.792863 
L 150.509931 244.132326 
L 152.141361 233.248704 
L 153.772791 229.014916 
L 157.035651 214.11649 
L 158.667081 210.169841 
L 160.298511 203.747238 
L 161.929941 198.197534 
L 163.56137 188.941844 
L 165.1928 183.302888 
L 166.82423 176.028474 
L 168.45566 171.620462 
L 170.08709 165.515749 
L 171.71852 157.707071 
L 173.34995 158.205627 
L 176.61281 145.4506 
L 178.244239 145.376025 
L 179.875669 143.505664 
L 181.507099 144.804638 
L 183.138529 140.800409 
L 184.769959 142.133323 
L 186.401389 141.76702 
L 188.032819 133.827642 
L 189.664249 134.873327 
L 191.295678 135.507919 
L 192.927108 137.641279 
L 194.558538 138.4157 
L 196.189968 143.431086 
L 197.821398 142.261317 
L 199.452828 134.600105 
L 202.715688 132.864288 
L 204.347117 133.573731 
L 205.978547 134.591661 
L 207.609977 133.81213 
L 209.241407 131.779879 
L 210.872837 129.519137 
L 212.504267 125.015792 
L 214.135697 125.153421 
L 215.767127 125.882447 
L 217.398556 128.608266 
L 219.029986 126.906352 
L 220.661416 125.392652 
L 222.292846 128.932385 
L 223.924276 132.098718 
L 225.555706 125.80096 
L 227.187136 126.141099 
L 228.818566 121.342413 
L 230.449995 118.118137 
L 232.081425 116.300885 
L 233.712855 119.484649 
L 235.344285 115.767983 
L 236.975715 115.28063 
L 238.607145 117.420772 
L 240.238575 116.22859 
L 241.870005 119.287271 
L 243.501434 119.966028 
L 245.132864 118.384322 
L 246.764294 113.590996 
L 248.395724 113.773537 
L 250.027154 117.413071 
L 251.658584 112.30021 
L 253.290014 114.217968 
L 254.921444 115.33481 
L 258.184303 115.717917 
L 259.815733 111.934733 
L 261.447163 114.14241 
L 263.078593 116.624889 
L 264.710023 121.108632 
L 266.341453 118.553543 
L 267.972883 112.706272 
L 269.604312 115.837034 
L 271.235742 116.998469 
L 272.867172 117.967021 
L 274.498602 115.697335 
L 276.130032 119.508102 
L 277.761462 117.488212 
L 279.392892 114.069616 
L 281.024322 117.894031 
L 282.655751 115.77555 
L 284.287181 118.441516 
L 285.918611 118.606188 
L 287.550041 115.381398 
L 289.181471 115.560421 
L 290.812901 109.236238 
L 292.444331 110.319121 
L 294.075761 112.772093 
L 295.70719 110.987429 
L 297.33862 111.353194 
L 298.97005 109.25066 
L 300.60148 109.600265 
L 302.23291 110.191072 
L 303.86434 117.127991 
L 305.49577 115.561253 
L 307.1272 115.132668 
L 308.75863 117.218493 
L 310.390059 114.205766 
L 313.652919 114.490563 
L 315.284349 116.027125 
L 316.915779 111.658474 
L 318.547209 115.214046 
L 320.178639 115.805323 
L 321.810069 258.508682 
L 323.441498 243.918792 
L 325.072928 233.801637 
L 326.704358 227.239245 
L 328.335788 223.63223 
L 331.598648 207.301799 
L 333.230078 199.060997 
L 334.861508 195.874699 
L 336.492937 187.033458 
L 339.755797 178.721892 
L 341.387227 172.524539 
L 343.018657 169.162814 
L 346.281517 156.678262 
L 347.912947 149.068932 
L 349.544376 147.440523 
L 351.175806 144.302758 
L 352.807236 146.42041 
L 354.438666 143.836608 
L 356.070096 140.777868 
L 357.701526 139.461749 
L 359.332956 133.988755 
L 362.595815 132.330657 
L 364.227245 129.490333 
L 365.858675 130.809603 
L 367.490105 128.89972 
L 369.121535 124.864264 
L 370.752965 126.990659 
L 372.384395 129.486281 
L 374.015825 130.185122 
L 375.647254 129.760614 
L 377.278684 128.993031 
L 378.910114 134.493197 
L 380.541544 132.544487 
L 383.804404 124.933963 
L 385.435834 120.758688 
L 387.067264 121.785239 
L 388.698693 121.607435 
L 390.330123 123.611124 
L 391.961553 119.943078 
L 393.592983 115.224929 
L 395.224413 122.082573 
L 396.855843 118.57888 
L 398.487273 116.328375 
L 398.487273 116.328375 
" style="fill:none;stroke:#008000;stroke-dasharray:9.6,2.4,1.5,2.4;stroke-dashoffset:0;stroke-width:1.5;"/>
   </g>
   <g id="line2d_32">
    <path clip-path="url(#pee7bb81c67)" d="M 73.832727 238.241953 
L 75.464157 217.540858 
L 77.095587 212.635097 
L 78.727017 196.228881 
L 80.358447 192.574641 
L 81.989877 177.434465 
L 83.621307 177.434465 
L 85.252736 170.51653 
L 86.884166 155.655634 
L 88.515596 147.942712 
L 90.147026 135.171172 
L 91.778456 129.887209 
L 93.409886 129.887209 
L 95.041316 111.170912 
L 96.672746 111.170912 
L 98.304175 108.245922 
L 99.935605 100.561645 
L 101.567035 100.561645 
L 103.198465 77.909533 
L 112.987044 77.909533 
L 114.618474 77.693766 
L 147.247072 77.693766 
L 148.878502 234.092031 
L 150.509931 224.968382 
L 152.141361 214.95719 
L 153.772791 203.942081 
L 155.404221 191.602911 
L 157.035651 181.718687 
L 158.667081 181.718687 
L 160.298511 166.747725 
L 161.929941 166.747725 
L 163.56137 152.993515 
L 165.1928 148.223904 
L 166.82423 135.164106 
L 168.45566 127.282192 
L 170.08709 127.282192 
L 171.71852 123.418689 
L 173.34995 116.742003 
L 174.98138 115.664552 
L 176.61281 112.823175 
L 178.244239 110.837362 
L 179.875669 110.837362 
L 181.507099 104.552163 
L 183.138529 93.278995 
L 184.769959 87.177601 
L 186.401389 87.177601 
L 188.032819 84.185808 
L 194.558538 84.185808 
L 196.189968 81.47557 
L 197.821398 81.47557 
L 199.452828 75.58303 
L 202.715688 75.58303 
L 204.347117 74.296534 
L 227.187136 74.296534 
L 228.818566 69.670582 
L 230.449995 67.64144 
L 245.132864 67.64144 
L 246.764294 64.402897 
L 248.395724 63.635211 
L 250.027154 63.635211 
L 251.658584 63.305092 
L 254.921444 63.305092 
L 256.552873 59.339769 
L 285.918611 59.339769 
L 287.550041 53.568 
L 320.178639 53.568 
L 321.810069 233.329402 
L 323.441498 222.038862 
L 325.072928 207.05019 
L 326.704358 206.855824 
L 328.335788 190.120793 
L 329.967218 182.773304 
L 331.598648 182.773304 
L 333.230078 167.279962 
L 334.861508 165.900601 
L 336.492937 155.190207 
L 338.124367 127.973039 
L 341.387227 127.973039 
L 343.018657 115.384347 
L 344.650087 115.384347 
L 346.281517 111.731033 
L 347.912947 109.162138 
L 349.544376 98.596154 
L 356.070096 98.596154 
L 357.701526 97.022974 
L 359.332956 84.018802 
L 360.964386 80.922061 
L 365.858675 80.917675 
L 369.121535 69.144577 
L 385.435834 69.144577 
L 387.067264 63.476183 
L 388.698693 55.371257 
L 391.961553 55.371257 
L 393.592983 54.237767 
L 398.487273 54.237767 
L 398.487273 54.237767 
" style="fill:none;stroke:#ff0000;stroke-linecap:square;stroke-width:1.5;"/>
   </g>
   <g id="patch_3">
    <path d="M 57.6 307.584 
L 57.6 41.472 
" style="fill:none;stroke:#000000;stroke-linecap:square;stroke-linejoin:miter;stroke-width:0.8;"/>
   </g>
   <g id="patch_4">
    <path d="M 414.72 307.584 
L 414.72 41.472 
" style="fill:none;stroke:#000000;stroke-linecap:square;stroke-linejoin:miter;stroke-width:0.8;"/>
   </g>
   <g id="patch_5">
    <path d="M 57.6 307.584 
L 414.72 307.584 
" style="fill:none;stroke:#000000;stroke-linecap:square;stroke-linejoin:miter;stroke-width:0.8;"/>
   </g>
   <g id="patch_6">
    <path d="M 57.6 41.472 
L 414.72 41.472 
" style="fill:none;stroke:#000000;stroke-linecap:square;stroke-linejoin:miter;stroke-width:0.8;"/>
   </g>
   <g id="text_17">
    <!-- Population's average and best fitness -->
    <defs>
     <path d="M 19.671875 64.796875 
L 19.671875 37.40625 
L 32.078125 37.40625 
Q 38.96875 37.40625 42.71875 40.96875 
Q 46.484375 44.53125 46.484375 51.125 
Q 46.484375 57.671875 42.71875 61.234375 
Q 38.96875 64.796875 32.078125 64.796875 
z
M 9.8125 72.90625 
L 32.078125 72.90625 
Q 44.34375 72.90625 50.609375 67.359375 
Q 56.890625 61.8125 56.890625 51.125 
Q 56.890625 40.328125 50.609375 34.8125 
Q 44.34375 29.296875 32.078125 29.296875 
L 19.671875 29.296875 
L 19.671875 0 
L 9.8125 0 
z
" id="DejaVuSans-80"/>
     <path d="M 18.109375 8.203125 
L 18.109375 -20.796875 
L 9.078125 -20.796875 
L 9.078125 54.6875 
L 18.109375 54.6875 
L 18.109375 46.390625 
Q 20.953125 51.265625 25.265625 53.625 
Q 29.59375 56 35.59375 56 
Q 45.5625 56 51.78125 48.09375 
Q 58.015625 40.1875 58.015625 27.296875 
Q 58.015625 14.40625 51.78125 6.484375 
Q 45.5625 -1.421875 35.59375 -1.421875 
Q 29.59375 -1.421875 25.265625 0.953125 
Q 20.953125 3.328125 18.109375 8.203125 
z
M 48.6875 27.296875 
Q 48.6875 37.203125 44.609375 42.84375 
Q 40.53125 48.484375 33.40625 48.484375 
Q 26.265625 48.484375 22.1875 42.84375 
Q 18.109375 37.203125 18.109375 27.296875 
Q 18.109375 17.390625 22.1875 11.75 
Q 26.265625 6.109375 33.40625 6.109375 
Q 40.53125 6.109375 44.609375 11.75 
Q 48.6875 17.390625 48.6875 27.296875 
z
" id="DejaVuSans-112"/>
     <path d="M 8.5 21.578125 
L 8.5 54.6875 
L 17.484375 54.6875 
L 17.484375 21.921875 
Q 17.484375 14.15625 20.5 10.265625 
Q 23.53125 6.390625 29.59375 6.390625 
Q 36.859375 6.390625 41.078125 11.03125 
Q 45.3125 15.671875 45.3125 23.6875 
L 45.3125 54.6875 
L 54.296875 54.6875 
L 54.296875 0 
L 45.3125 0 
L 45.3125 8.40625 
Q 42.046875 3.421875 37.71875 1 
Q 33.40625 -1.421875 27.6875 -1.421875 
Q 18.265625 -1.421875 13.375 4.4375 
Q 8.5 10.296875 8.5 21.578125 
z
M 31.109375 56 
z
" id="DejaVuSans-117"/>
     <path d="M 9.421875 75.984375 
L 18.40625 75.984375 
L 18.40625 0 
L 9.421875 0 
z
" id="DejaVuSans-108"/>
     <path d="M 17.921875 72.90625 
L 17.921875 45.796875 
L 9.625 45.796875 
L 9.625 72.90625 
z
" id="DejaVuSans-39"/>
     <path id="DejaVuSans-32"/>
     <path d="M 2.984375 54.6875 
L 12.5 54.6875 
L 29.59375 8.796875 
L 46.6875 54.6875 
L 56.203125 54.6875 
L 35.6875 0 
L 23.484375 0 
z
" id="DejaVuSans-118"/>
     <path d="M 45.40625 27.984375 
Q 45.40625 37.75 41.375 43.109375 
Q 37.359375 48.484375 30.078125 48.484375 
Q 22.859375 48.484375 18.828125 43.109375 
Q 14.796875 37.75 14.796875 27.984375 
Q 14.796875 18.265625 18.828125 12.890625 
Q 22.859375 7.515625 30.078125 7.515625 
Q 37.359375 7.515625 41.375 12.890625 
Q 45.40625 18.265625 45.40625 27.984375 
z
M 54.390625 6.78125 
Q 54.390625 -7.171875 48.1875 -13.984375 
Q 42 -20.796875 29.203125 -20.796875 
Q 24.46875 -20.796875 20.265625 -20.09375 
Q 16.0625 -19.390625 12.109375 -17.921875 
L 12.109375 -9.1875 
Q 16.0625 -11.328125 19.921875 -12.34375 
Q 23.78125 -13.375 27.78125 -13.375 
Q 36.625 -13.375 41.015625 -8.765625 
Q 45.40625 -4.15625 45.40625 5.171875 
L 45.40625 9.625 
Q 42.625 4.78125 38.28125 2.390625 
Q 33.9375 0 27.875 0 
Q 17.828125 0 11.671875 7.65625 
Q 5.515625 15.328125 5.515625 27.984375 
Q 5.515625 40.671875 11.671875 48.328125 
Q 17.828125 56 27.875 56 
Q 33.9375 56 38.28125 53.609375 
Q 42.625 51.21875 45.40625 46.390625 
L 45.40625 54.6875 
L 54.390625 54.6875 
z
" id="DejaVuSans-103"/>
     <path d="M 45.40625 46.390625 
L 45.40625 75.984375 
L 54.390625 75.984375 
L 54.390625 0 
L 45.40625 0 
L 45.40625 8.203125 
Q 42.578125 3.328125 38.25 0.953125 
Q 33.9375 -1.421875 27.875 -1.421875 
Q 17.96875 -1.421875 11.734375 6.484375 
Q 5.515625 14.40625 5.515625 27.296875 
Q 5.515625 40.1875 11.734375 48.09375 
Q 17.96875 56 27.875 56 
Q 33.9375 56 38.25 53.625 
Q 42.578125 51.265625 45.40625 46.390625 
z
M 14.796875 27.296875 
Q 14.796875 17.390625 18.875 11.75 
Q 22.953125 6.109375 30.078125 6.109375 
Q 37.203125 6.109375 41.296875 11.75 
Q 45.40625 17.390625 45.40625 27.296875 
Q 45.40625 37.203125 41.296875 42.84375 
Q 37.203125 48.484375 30.078125 48.484375 
Q 22.953125 48.484375 18.875 42.84375 
Q 14.796875 37.203125 14.796875 27.296875 
z
" id="DejaVuSans-100"/>
     <path d="M 48.6875 27.296875 
Q 48.6875 37.203125 44.609375 42.84375 
Q 40.53125 48.484375 33.40625 48.484375 
Q 26.265625 48.484375 22.1875 42.84375 
Q 18.109375 37.203125 18.109375 27.296875 
Q 18.109375 17.390625 22.1875 11.75 
Q 26.265625 6.109375 33.40625 6.109375 
Q 40.53125 6.109375 44.609375 11.75 
Q 48.6875 17.390625 48.6875 27.296875 
z
M 18.109375 46.390625 
Q 20.953125 51.265625 25.265625 53.625 
Q 29.59375 56 35.59375 56 
Q 45.5625 56 51.78125 48.09375 
Q 58.015625 40.1875 58.015625 27.296875 
Q 58.015625 14.40625 51.78125 6.484375 
Q 45.5625 -1.421875 35.59375 -1.421875 
Q 29.59375 -1.421875 25.265625 0.953125 
Q 20.953125 3.328125 18.109375 8.203125 
L 18.109375 0 
L 9.078125 0 
L 9.078125 75.984375 
L 18.109375 75.984375 
z
" id="DejaVuSans-98"/>
     <path d="M 37.109375 75.984375 
L 37.109375 68.5 
L 28.515625 68.5 
Q 23.6875 68.5 21.796875 66.546875 
Q 19.921875 64.59375 19.921875 59.515625 
L 19.921875 54.6875 
L 34.71875 54.6875 
L 34.71875 47.703125 
L 19.921875 47.703125 
L 19.921875 0 
L 10.890625 0 
L 10.890625 47.703125 
L 2.296875 47.703125 
L 2.296875 54.6875 
L 10.890625 54.6875 
L 10.890625 58.5 
Q 10.890625 67.625 15.140625 71.796875 
Q 19.390625 75.984375 28.609375 75.984375 
z
" id="DejaVuSans-102"/>
    </defs>
    <g transform="translate(123.315 35.472)scale(0.12 -0.12)">
     <use xlink:href="#DejaVuSans-80"/>
     <use x="60.255859" xlink:href="#DejaVuSans-111"/>
     <use x="121.4375" xlink:href="#DejaVuSans-112"/>
     <use x="184.914062" xlink:href="#DejaVuSans-117"/>
     <use x="248.292969" xlink:href="#DejaVuSans-108"/>
     <use x="276.076172" xlink:href="#DejaVuSans-97"/>
     <use x="337.355469" xlink:href="#DejaVuSans-116"/>
     <use x="376.564453" xlink:href="#DejaVuSans-105"/>
     <use x="404.347656" xlink:href="#DejaVuSans-111"/>
     <use x="465.529297" xlink:href="#DejaVuSans-110"/>
     <use x="528.908203" xlink:href="#DejaVuSans-39"/>
     <use x="556.398438" xlink:href="#DejaVuSans-115"/>
     <use x="608.498047" xlink:href="#DejaVuSans-32"/>
     <use x="640.285156" xlink:href="#DejaVuSans-97"/>
     <use x="701.564453" xlink:href="#DejaVuSans-118"/>
     <use x="760.744141" xlink:href="#DejaVuSans-101"/>
     <use x="822.267578" xlink:href="#DejaVuSans-114"/>
     <use x="863.380859" xlink:href="#DejaVuSans-97"/>
     <use x="924.660156" xlink:href="#DejaVuSans-103"/>
     <use x="988.136719" xlink:href="#DejaVuSans-101"/>
     <use x="1049.660156" xlink:href="#DejaVuSans-32"/>
     <use x="1081.447266" xlink:href="#DejaVuSans-97"/>
     <use x="1142.726562" xlink:href="#DejaVuSans-110"/>
     <use x="1206.105469" xlink:href="#DejaVuSans-100"/>
     <use x="1269.582031" xlink:href="#DejaVuSans-32"/>
     <use x="1301.369141" xlink:href="#DejaVuSans-98"/>
     <use x="1364.845703" xlink:href="#DejaVuSans-101"/>
     <use x="1426.369141" xlink:href="#DejaVuSans-115"/>
     <use x="1478.46875" xlink:href="#DejaVuSans-116"/>
     <use x="1517.677734" xlink:href="#DejaVuSans-32"/>
     <use x="1549.464844" xlink:href="#DejaVuSans-102"/>
     <use x="1584.669922" xlink:href="#DejaVuSans-105"/>
     <use x="1612.453125" xlink:href="#DejaVuSans-116"/>
     <use x="1651.662109" xlink:href="#DejaVuSans-110"/>
     <use x="1715.041016" xlink:href="#DejaVuSans-101"/>
     <use x="1776.564453" xlink:href="#DejaVuSans-115"/>
     <use x="1828.664062" xlink:href="#DejaVuSans-115"/>
    </g>
   </g>
   <g id="legend_1">
    <g id="patch_7">
     <path d="M 199.689687 302.584 
L 272.630313 302.584 
Q 274.630313 302.584 274.630313 300.584 
L 274.630313 242.8715 
Q 274.630313 240.8715 272.630313 240.8715 
L 199.689687 240.8715 
Q 197.689687 240.8715 197.689687 242.8715 
L 197.689687 300.584 
Q 197.689687 302.584 199.689687 302.584 
z
" style="fill:#ffffff;opacity:0.8;stroke:#cccccc;stroke-linejoin:miter;"/>
    </g>
    <g id="line2d_33">
     <path d="M 201.689687 248.969937 
L 221.689687 248.969937 
" style="fill:none;stroke:#0000ff;stroke-linecap:square;stroke-width:1.5;"/>
    </g>
    <g id="line2d_34"/>
    <g id="text_18">
     <!-- average -->
     <g transform="translate(229.689687 252.469937)scale(0.1 -0.1)">
      <use xlink:href="#DejaVuSans-97"/>
      <use x="61.279297" xlink:href="#DejaVuSans-118"/>
      <use x="120.458984" xlink:href="#DejaVuSans-101"/>
      <use x="181.982422" xlink:href="#DejaVuSans-114"/>
      <use x="223.095703" xlink:href="#DejaVuSans-97"/>
      <use x="284.375" xlink:href="#DejaVuSans-103"/>
      <use x="347.851562" xlink:href="#DejaVuSans-101"/>
     </g>
    </g>
    <g id="line2d_35">
     <path d="M 201.689687 263.648062 
L 221.689687 263.648062 
" style="fill:none;stroke:#008000;stroke-dasharray:9.6,2.4,1.5,2.4;stroke-dashoffset:0;stroke-width:1.5;"/>
    </g>
    <g id="line2d_36"/>
    <g id="text_19">
     <!-- -1 sd -->
     <defs>
      <path d="M 4.890625 31.390625 
L 31.203125 31.390625 
L 31.203125 23.390625 
L 4.890625 23.390625 
z
" id="DejaVuSans-45"/>
     </defs>
     <g transform="translate(229.689687 267.148062)scale(0.1 -0.1)">
      <use xlink:href="#DejaVuSans-45"/>
      <use x="36.083984" xlink:href="#DejaVuSans-49"/>
      <use x="99.707031" xlink:href="#DejaVuSans-32"/>
      <use x="131.494141" xlink:href="#DejaVuSans-115"/>
      <use x="183.59375" xlink:href="#DejaVuSans-100"/>
     </g>
    </g>
    <g id="line2d_37">
     <path d="M 201.689687 278.326187 
L 221.689687 278.326187 
" style="fill:none;stroke:#008000;stroke-dasharray:9.6,2.4,1.5,2.4;stroke-dashoffset:0;stroke-width:1.5;"/>
    </g>
    <g id="line2d_38"/>
    <g id="text_20">
     <!-- +1 sd -->
     <defs>
      <path d="M 46 62.703125 
L 46 35.5 
L 73.1875 35.5 
L 73.1875 27.203125 
L 46 27.203125 
L 46 0 
L 37.796875 0 
L 37.796875 27.203125 
L 10.59375 27.203125 
L 10.59375 35.5 
L 37.796875 35.5 
L 37.796875 62.703125 
z
" id="DejaVuSans-43"/>
     </defs>
     <g transform="translate(229.689687 281.826187)scale(0.1 -0.1)">
      <use xlink:href="#DejaVuSans-43"/>
      <use x="83.789062" xlink:href="#DejaVuSans-49"/>
      <use x="147.412109" xlink:href="#DejaVuSans-32"/>
      <use x="179.199219" xlink:href="#DejaVuSans-115"/>
      <use x="231.298828" xlink:href="#DejaVuSans-100"/>
     </g>
    </g>
    <g id="line2d_39">
     <path d="M 201.689687 293.004312 
L 221.689687 293.004312 
" style="fill:none;stroke:#ff0000;stroke-linecap:square;stroke-width:1.5;"/>
    </g>
    <g id="line2d_40"/>
    <g id="text_21">
     <!-- best -->
     <g transform="translate(229.689687 296.504312)scale(0.1 -0.1)">
      <use xlink:href="#DejaVuSans-98"/>
      <use x="63.476562" xlink:href="#DejaVuSans-101"/>
      <use x="125" xlink:href="#DejaVuSans-115"/>
      <use x="177.099609" xlink:href="#DejaVuSans-116"/>
     </g>
    </g>
   </g>
  </g>
 </g>
 <defs>
  <clipPath id="pee7bb81c67">
   <rect height="266.112" width="357.12" x="57.6" y="41.472"/>
  </clipPath>
 </defs>
</svg>
