<?xml version="1.0" encoding="UTF-8" standalone="no"?>
<!DOCTYPE svg PUBLIC "-//W3C//DTD SVG 1.1//EN"
 "http://www.w3.org/Graphics/SVG/1.1/DTD/svg11.dtd">
<!-- Generated by graphviz version 2.38.0 (20140413.2041)
 -->
<!-- Title: %3 Pages: 1 -->
<svg width="2456pt" height="120pt"
 viewBox="0.00 0.00 2456.00 119.98" xmlns="http://www.w3.org/2000/svg" xmlns:xlink="http://www.w3.org/1999/xlink">
<g id="graph0" class="graph" transform="scale(1 1) rotate(0) translate(4 115.983)">
<title>%3</title>
<polygon fill="white" stroke="none" points="-4,4 -4,-115.983 2452,-115.983 2452,4 -4,4"/>
<!-- input -->
<g id="node1" class="node"><title>input</title>
<polygon fill="lightgray" stroke="black" points="878.5,-111.983 842.5,-111.983 842.5,-93.9828 878.5,-93.9828 878.5,-111.983"/>
<text text-anchor="middle" x="860.5" y="-100.783" font-family="Times New Roman,serif" font-size="9.00">input</text>
</g>
<!-- 2 -->
<g id="node56" class="node"><title>2</title>
<ellipse fill="lightblue" stroke="black" cx="682.5" cy="-28.9914" rx="14.7" ry="14.7"/>
<text text-anchor="middle" x="682.5" y="-26.7914" font-family="Times New Roman,serif" font-size="9.00">2</text>
</g>
<!-- input&#45;&gt;2 -->
<g id="edge81" class="edge"><title>input&#45;&gt;2</title>
<path fill="none" stroke="red" stroke-width="0.255631" stroke-dasharray="1,5" d="M842.465,-96.2164C818.43,-88.3648 774.718,-73.5021 738.5,-57.9828 726.992,-53.0517 714.503,-46.891 704.245,-41.6057"/>
<polygon fill="red" stroke="red" stroke-width="0.255631" points="705.682,-38.4076 695.199,-36.8752 702.438,-44.6107 705.682,-38.4076"/>
</g>
<!-- 4 -->
<g id="node58" class="node"><title>4</title>
<ellipse fill="lightblue" stroke="black" cx="1471.5" cy="-28.9914" rx="14.7" ry="14.7"/>
<text text-anchor="middle" x="1471.5" y="-26.7914" font-family="Times New Roman,serif" font-size="9.00">4</text>
</g>
<!-- input&#45;&gt;4 -->
<g id="edge139" class="edge"><title>input&#45;&gt;4</title>
<path fill="none" stroke="red" stroke-width="0.17672" stroke-dasharray="1,5" d="M878.767,-96.2844C881.987,-95.4175 885.325,-94.6059 888.5,-93.9828 1101.78,-52.1206 1364.72,-35.5789 1446.22,-31.2373"/>
<polygon fill="red" stroke="red" stroke-width="0.17672" points="1446.69,-34.7179 1456.49,-30.7043 1446.33,-27.7273 1446.69,-34.7179"/>
</g>
<!-- 6 -->
<g id="node60" class="node"><title>6</title>
<ellipse fill="lightblue" stroke="black" cx="1061.5" cy="-28.9914" rx="14.7" ry="14.7"/>
<text text-anchor="middle" x="1061.5" y="-26.7914" font-family="Times New Roman,serif" font-size="9.00">6</text>
</g>
<!-- input&#45;&gt;6 -->
<g id="edge34" class="edge"><title>input&#45;&gt;6</title>
<path fill="none" stroke="red" stroke-width="0.328109" d="M878.544,-96.709C881.85,-95.7767 885.273,-94.8331 888.5,-93.9828 954.378,-76.621 979.403,-93.5657 1037.5,-57.9828 1041.08,-55.7887 1044.41,-52.88 1047.37,-49.7674"/>
<polygon fill="red" stroke="red" stroke-width="0.328109" points="1050.21,-51.8232 1053.92,-41.9005 1044.83,-47.3415 1050.21,-51.8232"/>
</g>
<!-- &#45;2 -->
<g id="node2" class="node"><title>&#45;2</title>
<polygon fill="lightgray" stroke="black" points="1942.5,-111.983 1918.5,-111.983 1918.5,-93.9828 1942.5,-93.9828 1942.5,-111.983"/>
<text text-anchor="middle" x="1930.5" y="-100.783" font-family="Times New Roman,serif" font-size="9.00">&#45;2</text>
</g>
<!-- output -->
<g id="node54" class="node"><title>output</title>
<ellipse fill="lightblue" stroke="black" cx="1600.5" cy="-28.9914" rx="28.9828" ry="28.9828"/>
<text text-anchor="middle" x="1600.5" y="-26.7914" font-family="Times New Roman,serif" font-size="9.00">output</text>
</g>
<!-- &#45;2&#45;&gt;output -->
<g id="edge149" class="edge"><title>&#45;2&#45;&gt;output</title>
<path fill="none" stroke="red" stroke-width="0.134278" stroke-dasharray="1,5" d="M1918.22,-96.7589C1915.39,-95.7114 1912.37,-94.7106 1909.5,-93.9828 1791.72,-64.1553 1751.18,-103.442 1638.5,-57.9828 1635.79,-56.8906 1633.1,-55.5604 1630.48,-54.0794"/>
<polygon fill="red" stroke="red" stroke-width="0.134278" points="1632.19,-51.0187 1621.88,-48.5909 1628.42,-56.92 1632.19,-51.0187"/>
</g>
<!-- &#45;2&#45;&gt;4 -->
<g id="edge98" class="edge"><title>&#45;2&#45;&gt;4</title>
<path fill="none" stroke="red" stroke-width="0.103366" stroke-dasharray="1,5" d="M1918.23,-96.6977C1915.41,-95.6533 1912.38,-94.6693 1909.5,-93.9828 1758.66,-58.0799 1714.43,-88.9223 1562.5,-57.9828 1538.97,-53.1905 1512.83,-44.8216 1494.63,-38.4795"/>
<polygon fill="red" stroke="red" stroke-width="0.103366" points="1495.75,-35.1631 1485.16,-35.1112 1493.41,-41.7587 1495.75,-35.1631"/>
</g>
<!-- &#45;2&#45;&gt;6 -->
<g id="edge44" class="edge"><title>&#45;2&#45;&gt;6</title>
<path fill="none" stroke="green" stroke-width="0.212895" d="M1918.25,-96.6375C1915.42,-95.5963 1912.39,-94.6288 1909.5,-93.9828 1899.16,-91.6753 1225.64,-42.0616 1086.48,-31.8278"/>
<polygon fill="green" stroke="green" stroke-width="0.212895" points="1086.61,-28.3276 1076.38,-31.0847 1086.1,-35.3087 1086.61,-28.3276"/>
</g>
<!-- &#45;3 -->
<g id="node3" class="node"><title>&#45;3</title>
<polygon fill="lightgray" stroke="black" points="2173.5,-111.983 2149.5,-111.983 2149.5,-93.9828 2173.5,-93.9828 2173.5,-111.983"/>
<text text-anchor="middle" x="2161.5" y="-100.783" font-family="Times New Roman,serif" font-size="9.00">&#45;3</text>
</g>
<!-- 5 -->
<g id="node59" class="node"><title>5</title>
<ellipse fill="lightblue" stroke="black" cx="1662.5" cy="-28.9914" rx="14.7" ry="14.7"/>
<text text-anchor="middle" x="1662.5" y="-26.7914" font-family="Times New Roman,serif" font-size="9.00">5</text>
</g>
<!-- &#45;3&#45;&gt;5 -->
<g id="edge115" class="edge"><title>&#45;3&#45;&gt;5</title>
<path fill="none" stroke="red" stroke-width="0.565931" stroke-dasharray="1,5" d="M2149.22,-96.7611C2146.39,-95.7135 2143.37,-94.7121 2140.5,-93.9828 1971.03,-50.9746 1759.97,-35.5516 1687.95,-31.328"/>
<polygon fill="red" stroke="red" stroke-width="0.565931" points="1687.79,-27.8137 1677.61,-30.7438 1687.39,-34.8025 1687.79,-27.8137"/>
</g>
<!-- &#45;3&#45;&gt;6 -->
<g id="edge165" class="edge"><title>&#45;3&#45;&gt;6</title>
<path fill="none" stroke="green" stroke-width="0.468007" d="M2149.26,-96.5872C2146.43,-95.5486 2143.4,-94.5949 2140.5,-93.9828 1838.73,-30.312 1755.32,-77.1371 1447.5,-57.9828 1311.14,-49.4975 1147.86,-36.8315 1086.47,-31.98"/>
<polygon fill="green" stroke="green" stroke-width="0.468007" points="1086.46,-28.4688 1076.22,-31.1678 1085.91,-35.4469 1086.46,-28.4688"/>
</g>
<!-- &#45;4 -->
<g id="node4" class="node"><title>&#45;4</title>
<polygon fill="lightgray" stroke="black" points="2263.5,-111.983 2239.5,-111.983 2239.5,-93.9828 2263.5,-93.9828 2263.5,-111.983"/>
<text text-anchor="middle" x="2251.5" y="-100.783" font-family="Times New Roman,serif" font-size="9.00">&#45;4</text>
</g>
<!-- &#45;4&#45;&gt;output -->
<g id="edge119" class="edge"><title>&#45;4&#45;&gt;output</title>
<path fill="none" stroke="red" stroke-width="0.286857" stroke-dasharray="1,5" d="M2239.25,-96.6062C2236.43,-95.5666 2233.4,-94.6077 2230.5,-93.9828 2101.66,-66.2042 1762.41,-102.905 1638.5,-57.9828 1635.76,-56.9878 1633.04,-55.7277 1630.4,-54.2956"/>
<polygon fill="red" stroke="red" stroke-width="0.286857" points="1632.09,-51.229 1621.76,-48.8985 1628.38,-57.1656 1632.09,-51.229"/>
</g>
<!-- &#45;4&#45;&gt;4 -->
<g id="edge129" class="edge"><title>&#45;4&#45;&gt;4</title>
<path fill="none" stroke="red" stroke-width="0.242028" d="M2239.26,-96.5914C2236.43,-95.5526 2233.4,-94.5977 2230.5,-93.9828 1939.64,-32.3206 1855.22,-110.078 1562.5,-57.9828 1538.86,-53.7748 1512.74,-45.3269 1494.57,-38.8073"/>
<polygon fill="red" stroke="red" stroke-width="0.242028" points="1495.71,-35.4972 1485.12,-35.3306 1493.29,-42.067 1495.71,-35.4972"/>
</g>
<!-- &#45;4&#45;&gt;5 -->
<g id="edge142" class="edge"><title>&#45;4&#45;&gt;5</title>
<path fill="none" stroke="green" stroke-width="0.350916" stroke-dasharray="1,5" d="M2239.23,-96.7165C2236.4,-95.6712 2233.38,-94.682 2230.5,-93.9828 2025.11,-44.1372 1768.33,-32.9385 1687.83,-30.5824"/>
<polygon fill="green" stroke="green" stroke-width="0.350916" points="1687.75,-27.0792 1677.66,-30.3055 1687.56,-34.0766 1687.75,-27.0792"/>
</g>
<!-- &#45;5 -->
<g id="node5" class="node"><title>&#45;5</title>
<polygon fill="lightgray" stroke="black" points="2400.5,-111.983 2376.5,-111.983 2376.5,-93.9828 2400.5,-93.9828 2400.5,-111.983"/>
<text text-anchor="middle" x="2388.5" y="-100.783" font-family="Times New Roman,serif" font-size="9.00">&#45;5</text>
</g>
<!-- &#45;5&#45;&gt;output -->
<g id="edge147" class="edge"><title>&#45;5&#45;&gt;output</title>
<path fill="none" stroke="red" stroke-width="0.27304" stroke-dasharray="1,5" d="M2376.26,-96.5817C2373.43,-95.5434 2370.4,-94.5912 2367.5,-93.9828 2208.75,-60.701 1791.3,-112.396 1638.5,-57.9828 1635.75,-57.0035 1633.03,-55.7547 1630.38,-54.3304"/>
<polygon fill="red" stroke="red" stroke-width="0.27304" points="1632.08,-51.263 1621.74,-48.948 1628.38,-57.2051 1632.08,-51.263"/>
</g>
<!-- &#45;5&#45;&gt;5 -->
<g id="edge109" class="edge"><title>&#45;5&#45;&gt;5</title>
<path fill="none" stroke="red" stroke-width="0.715702" d="M2376.24,-96.6701C2373.41,-95.6272 2370.39,-94.6508 2367.5,-93.9828 2106.88,-33.7171 1779.81,-29.6717 1687.67,-29.812"/>
<polygon fill="red" stroke="red" stroke-width="0.715702" points="1687.61,-26.3121 1677.62,-29.8464 1687.64,-33.3121 1687.61,-26.3121"/>
</g>
<!-- &#45;6 -->
<g id="node6" class="node"><title>&#45;6</title>
<polygon fill="lightgray" stroke="black" points="1344.5,-111.983 1320.5,-111.983 1320.5,-93.9828 1344.5,-93.9828 1344.5,-111.983"/>
<text text-anchor="middle" x="1332.5" y="-100.783" font-family="Times New Roman,serif" font-size="9.00">&#45;6</text>
</g>
<!-- &#45;6&#45;&gt;output -->
<g id="edge148" class="edge"><title>&#45;6&#45;&gt;output</title>
<path fill="none" stroke="green" stroke-width="0.434395" d="M1344.53,-97.365C1347.75,-96.197 1351.24,-94.9896 1354.5,-93.9828 1416.3,-74.908 1432.92,-74.313 1495.5,-57.9828 1517.83,-52.1556 1542.8,-45.5057 1562.78,-40.1501"/>
<polygon fill="green" stroke="green" stroke-width="0.434395" points="1563.69,-43.5288 1572.44,-37.5566 1561.88,-36.768 1563.69,-43.5288"/>
</g>
<!-- 1 -->
<g id="node55" class="node"><title>1</title>
<ellipse fill="lightblue" stroke="black" cx="762.5" cy="-28.9914" rx="14.7" ry="14.7"/>
<text text-anchor="middle" x="762.5" y="-26.7914" font-family="Times New Roman,serif" font-size="9.00">1</text>
</g>
<!-- &#45;6&#45;&gt;1 -->
<g id="edge49" class="edge"><title>&#45;6&#45;&gt;1</title>
<path fill="none" stroke="red" stroke-width="0.292929" d="M1320.23,-96.7022C1317.41,-95.6576 1314.38,-94.6724 1311.5,-93.9828 1163.71,-58.6402 1122.38,-76.0702 971.5,-57.9828 904.718,-49.9768 826.144,-39.0448 787.1,-33.5104"/>
<polygon fill="red" stroke="red" stroke-width="0.292929" points="787.572,-30.0424 777.179,-32.0994 786.586,-36.9726 787.572,-30.0424"/>
</g>
<!-- &#45;6&#45;&gt;4 -->
<g id="edge143" class="edge"><title>&#45;6&#45;&gt;4</title>
<path fill="none" stroke="red" stroke-width="0.195881" d="M1344.84,-95.594C1368.35,-83.4127 1419.9,-56.717 1449.47,-41.3994"/>
<polygon fill="red" stroke="red" stroke-width="0.195881" points="1451.32,-44.3853 1458.59,-36.6783 1448.1,-38.1695 1451.32,-44.3853"/>
</g>
<!-- &#45;7 -->
<g id="node7" class="node"><title>&#45;7</title>
<polygon fill="lightgray" stroke="black" points="1900.5,-111.983 1876.5,-111.983 1876.5,-93.9828 1900.5,-93.9828 1900.5,-111.983"/>
<text text-anchor="middle" x="1888.5" y="-100.783" font-family="Times New Roman,serif" font-size="9.00">&#45;7</text>
</g>
<!-- &#45;7&#45;&gt;output -->
<g id="edge146" class="edge"><title>&#45;7&#45;&gt;output</title>
<path fill="none" stroke="red" stroke-width="0.190427" d="M1876.2,-96.8097C1873.38,-95.7596 1870.37,-94.7449 1867.5,-93.9828 1767.93,-67.5009 1733.58,-97.6671 1638.5,-57.9828 1635.96,-56.9245 1633.44,-55.6632 1630.97,-54.2703"/>
<polygon fill="red" stroke="red" stroke-width="0.190427" points="1632.64,-51.1861 1622.33,-48.7769 1628.89,-57.0942 1632.64,-51.1861"/>
</g>
<!-- 3 -->
<g id="node57" class="node"><title>3</title>
<ellipse fill="lightblue" stroke="black" cx="995.5" cy="-28.9914" rx="14.7" ry="14.7"/>
<text text-anchor="middle" x="995.5" y="-26.7914" font-family="Times New Roman,serif" font-size="9.00">3</text>
</g>
<!-- &#45;7&#45;&gt;3 -->
<g id="edge90" class="edge"><title>&#45;7&#45;&gt;3</title>
<path fill="none" stroke="green" stroke-width="0.107662" d="M1876.26,-96.5688C1873.43,-95.5312 1870.4,-94.5825 1867.5,-93.9828 1686.7,-56.6424 1213,-115.286 1037.5,-57.9828 1029.48,-55.3649 1021.56,-50.7587 1014.79,-46.0294"/>
<polygon fill="green" stroke="green" stroke-width="0.107662" points="1016.46,-42.9092 1006.37,-39.6792 1012.25,-48.4967 1016.46,-42.9092"/>
</g>
<!-- &#45;7&#45;&gt;5 -->
<g id="edge50" class="edge"><title>&#45;7&#45;&gt;5</title>
<path fill="none" stroke="red" stroke-width="0.424782" stroke-dasharray="1,5" d="M1876.11,-97.118C1873.29,-96.0519 1870.3,-94.9527 1867.5,-93.9828 1802.45,-71.4621 1724.59,-48.139 1686.24,-36.8863"/>
<polygon fill="red" stroke="red" stroke-width="0.424782" points="1687.1,-33.4898 1676.52,-34.0432 1685.13,-40.2086 1687.1,-33.4898"/>
</g>
<!-- &#45;7&#45;&gt;6 -->
<g id="edge69" class="edge"><title>&#45;7&#45;&gt;6</title>
<path fill="none" stroke="red" stroke-width="0.328884" stroke-dasharray="1,5" d="M1876.24,-96.6459C1873.42,-95.6043 1870.39,-94.6345 1867.5,-93.9828 1828.46,-85.1858 1219.09,-41.2613 1086.74,-31.7922"/>
<polygon fill="red" stroke="red" stroke-width="0.328884" points="1086.63,-28.2758 1076.41,-31.0538 1086.13,-35.2579 1086.63,-28.2758"/>
</g>
<!-- &#45;8 -->
<g id="node8" class="node"><title>&#45;8</title>
<polygon fill="lightgray" stroke="black" points="1575.5,-111.983 1551.5,-111.983 1551.5,-93.9828 1575.5,-93.9828 1575.5,-111.983"/>
<text text-anchor="middle" x="1563.5" y="-100.783" font-family="Times New Roman,serif" font-size="9.00">&#45;8</text>
</g>
<!-- &#45;8&#45;&gt;1 -->
<g id="edge145" class="edge"><title>&#45;8&#45;&gt;1</title>
<path fill="none" stroke="green" stroke-width="0.315001" stroke-dasharray="1,5" d="M1551.25,-96.611C1548.43,-95.5712 1545.4,-94.6109 1542.5,-93.9828 1293.99,-40.1122 1224.56,-82.8754 971.5,-57.9828 904.563,-51.3984 826.056,-39.8476 787.063,-33.8503"/>
<polygon fill="green" stroke="green" stroke-width="0.315001" points="787.573,-30.3877 777.155,-32.3148 786.501,-37.3051 787.573,-30.3877"/>
</g>
<!-- &#45;8&#45;&gt;4 -->
<g id="edge118" class="edge"><title>&#45;8&#45;&gt;4</title>
<path fill="none" stroke="green" stroke-width="0.304916" stroke-dasharray="1,5" d="M1552.95,-93.7244C1537.8,-81.8741 1509.65,-59.8468 1490.75,-45.0519"/>
<polygon fill="green" stroke="green" stroke-width="0.304916" points="1492.82,-42.232 1482.79,-38.8257 1488.51,-47.7448 1492.82,-42.232"/>
</g>
<!-- &#45;8&#45;&gt;5 -->
<g id="edge47" class="edge"><title>&#45;8&#45;&gt;5</title>
<path fill="none" stroke="green" stroke-width="0.2859" d="M1575.72,-96.3886C1591.26,-88.9383 1618.46,-74.7331 1638.5,-57.9828 1641.67,-55.3333 1644.77,-52.241 1647.62,-49.0974"/>
<polygon fill="green" stroke="green" stroke-width="0.2859" points="1650.35,-51.2919 1654.15,-41.4004 1645.01,-46.7658 1650.35,-51.2919"/>
</g>
<!-- &#45;8&#45;&gt;6 -->
<g id="edge75" class="edge"><title>&#45;8&#45;&gt;6</title>
<path fill="none" stroke="green" stroke-width="0.215801" d="M1551.22,-96.7593C1548.39,-95.7118 1545.37,-94.7109 1542.5,-93.9828 1371.58,-50.6811 1158.62,-35.4102 1086.61,-31.2799"/>
<polygon fill="green" stroke="green" stroke-width="0.215801" points="1086.47,-27.7669 1076.3,-30.71 1086.09,-34.7562 1086.47,-27.7669"/>
</g>
<!-- &#45;9 -->
<g id="node9" class="node"><title>&#45;9</title>
<polygon fill="lightgray" stroke="black" points="447.5,-111.983 423.5,-111.983 423.5,-93.9828 447.5,-93.9828 447.5,-111.983"/>
<text text-anchor="middle" x="435.5" y="-100.783" font-family="Times New Roman,serif" font-size="9.00">&#45;9</text>
</g>
<!-- &#45;9&#45;&gt;2 -->
<g id="edge140" class="edge"><title>&#45;9&#45;&gt;2</title>
<path fill="none" stroke="green" stroke-width="0.19415" d="M447.55,-97.4247C450.767,-96.2563 454.252,-95.0337 457.5,-93.9828 530.012,-70.5206 617.123,-47.0692 658.463,-36.2208"/>
<polygon fill="green" stroke="green" stroke-width="0.19415" points="659.387,-39.5968 668.178,-33.6826 657.618,-32.8241 659.387,-39.5968"/>
</g>
<!-- &#45;9&#45;&gt;3 -->
<g id="edge10" class="edge"><title>&#45;9&#45;&gt;3</title>
<path fill="none" stroke="green" stroke-width="0.100992" stroke-dasharray="1,5" d="M447.907,-96.8842C450.998,-95.7783 454.333,-94.7204 457.5,-93.9828 600.759,-60.6088 640.482,-75.7471 786.5,-57.9828 853.268,-49.8599 931.848,-38.9789 970.896,-33.4824"/>
<polygon fill="green" stroke="green" stroke-width="0.100992" points="971.406,-36.9452 980.819,-32.0817 970.428,-30.014 971.406,-36.9452"/>
</g>
<!-- &#45;9&#45;&gt;6 -->
<g id="edge107" class="edge"><title>&#45;9&#45;&gt;6</title>
<path fill="none" stroke="red" stroke-width="0.315475" d="M447.884,-96.7784C450.975,-95.6757 454.317,-94.6458 457.5,-93.9828 583.923,-67.6466 921.902,-115.545 1037.5,-57.9828 1041.43,-56.0246 1044.98,-53.1049 1048.07,-49.8798"/>
<polygon fill="red" stroke="red" stroke-width="0.315475" points="1050.8,-52.0718 1054.4,-42.1091 1045.37,-47.6491 1050.8,-52.0718"/>
</g>
<!-- &#45;10 -->
<g id="node10" class="node"><title>&#45;10</title>
<polygon fill="lightgray" stroke="black" points="1067,-111.983 1038,-111.983 1038,-93.9828 1067,-93.9828 1067,-111.983"/>
<text text-anchor="middle" x="1052.5" y="-100.783" font-family="Times New Roman,serif" font-size="9.00">&#45;10</text>
</g>
<!-- &#45;10&#45;&gt;output -->
<g id="edge111" class="edge"><title>&#45;10&#45;&gt;output</title>
<path fill="none" stroke="green" stroke-width="0.147149" stroke-dasharray="1,5" d="M1067.07,-96.5168C1070.15,-95.5353 1073.4,-94.6226 1076.5,-93.9828 1259.54,-56.1669 1311.39,-90.1784 1495.5,-57.9828 1518.39,-53.9795 1543.57,-47.3475 1563.53,-41.5436"/>
<polygon fill="green" stroke="green" stroke-width="0.147149" points="1564.57,-44.886 1573.16,-38.6894 1562.58,-38.1744 1564.57,-44.886"/>
</g>
<!-- &#45;10&#45;&gt;1 -->
<g id="edge125" class="edge"><title>&#45;10&#45;&gt;1</title>
<path fill="none" stroke="green" stroke-width="0.418508" stroke-dasharray="1,5" d="M1037.97,-96.6839C1035.17,-95.7343 1032.26,-94.791 1029.5,-93.9828 941.228,-68.1227 834.325,-44.8891 787.034,-35.0159"/>
<polygon fill="green" stroke="green" stroke-width="0.418508" points="787.607,-31.5604 777.105,-32.957 786.186,-38.4146 787.607,-31.5604"/>
</g>
<!-- &#45;10&#45;&gt;2 -->
<g id="edge152" class="edge"><title>&#45;10&#45;&gt;2</title>
<path fill="none" stroke="red" stroke-width="0.138115" stroke-dasharray="1,5" d="M1037.54,-96.2688C1034.89,-95.4037 1032.14,-94.5967 1029.5,-93.9828 902.58,-64.411 863.254,-95.6604 738.5,-57.9828 726.515,-54.363 713.978,-48.3337 703.812,-42.796"/>
<polygon fill="red" stroke="red" stroke-width="0.138115" points="705.312,-39.6229 694.887,-37.732 701.857,-45.7111 705.312,-39.6229"/>
</g>
<!-- &#45;10&#45;&gt;4 -->
<g id="edge108" class="edge"><title>&#45;10&#45;&gt;4</title>
<path fill="none" stroke="green" stroke-width="0.181487" stroke-dasharray="1,5" d="M1067.11,-96.6958C1070.19,-95.7013 1073.43,-94.7381 1076.5,-93.9828 1214.28,-60.0939 1383.63,-39.5485 1446.48,-32.6255"/>
<polygon fill="green" stroke="green" stroke-width="0.181487" points="1447.06,-36.0838 1456.62,-31.5259 1446.3,-29.1246 1447.06,-36.0838"/>
</g>
<!-- &#45;10&#45;&gt;6 -->
<g id="edge97" class="edge"><title>&#45;10&#45;&gt;6</title>
<path fill="none" stroke="green" stroke-width="0.452068" stroke-dasharray="1,5" d="M1053.53,-93.7244C1054.73,-84.1074 1056.77,-67.7878 1058.49,-54.0707"/>
<polygon fill="green" stroke="green" stroke-width="0.452068" points="1062.01,-54.1624 1059.77,-43.8055 1055.06,-53.294 1062.01,-54.1624"/>
</g>
<!-- &#45;11 -->
<g id="node11" class="node"><title>&#45;11</title>
<polygon fill="lightgray" stroke="black" points="824,-111.983 795,-111.983 795,-93.9828 824,-93.9828 824,-111.983"/>
<text text-anchor="middle" x="809.5" y="-100.783" font-family="Times New Roman,serif" font-size="9.00">&#45;11</text>
</g>
<!-- &#45;11&#45;&gt;2 -->
<g id="edge99" class="edge"><title>&#45;11&#45;&gt;2</title>
<path fill="none" stroke="red" stroke-width="0.189593" stroke-dasharray="1,5" d="M794.931,-93.7244C772.631,-81.0832 729.901,-56.8613 704.022,-42.1915"/>
<polygon fill="red" stroke="red" stroke-width="0.189593" points="705.432,-38.9675 695.007,-37.0809 701.98,-45.0572 705.432,-38.9675"/>
</g>
<!-- &#45;11&#45;&gt;3 -->
<g id="edge95" class="edge"><title>&#45;11&#45;&gt;3</title>
<path fill="none" stroke="green" stroke-width="0.266469" stroke-dasharray="1,5" d="M824.095,-96.3337C856.327,-83.8582 933.793,-53.8752 972.573,-38.8653"/>
<polygon fill="green" stroke="green" stroke-width="0.266469" points="973.92,-42.0968 981.983,-35.2232 971.394,-35.5688 973.92,-42.0968"/>
</g>
<!-- &#45;11&#45;&gt;4 -->
<g id="edge93" class="edge"><title>&#45;11&#45;&gt;4</title>
<path fill="none" stroke="red" stroke-width="0.389858" stroke-dasharray="1,5" d="M824.08,-96.551C827.156,-95.567 830.408,-94.6446 833.5,-93.9828 954.15,-68.1589 1344.23,-39.0766 1446.67,-31.7416"/>
<polygon fill="red" stroke="red" stroke-width="0.389858" points="1446.97,-35.2292 1456.7,-31.0276 1446.47,-28.2469 1446.97,-35.2292"/>
</g>
<!-- &#45;11&#45;&gt;6 -->
<g id="edge7" class="edge"><title>&#45;11&#45;&gt;6</title>
<path fill="none" stroke="green" stroke-width="0.157474" stroke-dasharray="1,5" d="M824.122,-96.7292C827.195,-95.7323 830.435,-94.7596 833.5,-93.9828 922.746,-71.3645 957.526,-103.597 1037.5,-57.9828 1041.15,-55.9015 1044.5,-53.0478 1047.48,-49.9546"/>
<polygon fill="green" stroke="green" stroke-width="0.157474" points="1050.33,-52.0028 1054.03,-42.0752 1044.94,-47.5283 1050.33,-52.0028"/>
</g>
<!-- &#45;12 -->
<g id="node12" class="node"><title>&#45;12</title>
<polygon fill="lightgray" stroke="black" points="2358,-111.983 2329,-111.983 2329,-93.9828 2358,-93.9828 2358,-111.983"/>
<text text-anchor="middle" x="2343.5" y="-100.783" font-family="Times New Roman,serif" font-size="9.00">&#45;12</text>
</g>
<!-- &#45;12&#45;&gt;output -->
<g id="edge77" class="edge"><title>&#45;12&#45;&gt;output</title>
<path fill="none" stroke="red" stroke-width="0.219443" d="M2328.57,-96.1118C2325.92,-95.2641 2323.16,-94.5037 2320.5,-93.9828 2171.57,-64.7636 1781.38,-109.139 1638.5,-57.9828 1635.75,-56.9988 1633.03,-55.7467 1630.39,-54.32"/>
<polygon fill="red" stroke="red" stroke-width="0.219443" points="1632.08,-51.2529 1621.75,-48.9333 1628.38,-57.1933 1632.08,-51.2529"/>
</g>
<!-- &#45;13 -->
<g id="node13" class="node"><title>&#45;13</title>
<polygon fill="lightgray" stroke="black" points="973,-111.983 944,-111.983 944,-93.9828 973,-93.9828 973,-111.983"/>
<text text-anchor="middle" x="958.5" y="-100.783" font-family="Times New Roman,serif" font-size="9.00">&#45;13</text>
</g>
<!-- &#45;13&#45;&gt;2 -->
<g id="edge74" class="edge"><title>&#45;13&#45;&gt;2</title>
<path fill="none" stroke="green" stroke-width="0.183765" stroke-dasharray="1,5" d="M943.509,-96.3966C940.862,-95.5173 938.116,-94.6724 935.5,-93.9828 849.435,-71.2955 822.927,-86.1613 738.5,-57.9828 726.624,-54.0191 714.098,-47.9553 703.911,-42.4838"/>
<polygon fill="green" stroke="green" stroke-width="0.183765" points="705.399,-39.3067 694.958,-37.5072 701.998,-45.425 705.399,-39.3067"/>
</g>
<!-- &#45;13&#45;&gt;3 -->
<g id="edge131" class="edge"><title>&#45;13&#45;&gt;3</title>
<path fill="none" stroke="red" stroke-width="0.213335" stroke-dasharray="1,5" d="M962.744,-93.7244C967.988,-83.5216 977.109,-65.775 984.397,-51.5954"/>
<polygon fill="red" stroke="red" stroke-width="0.213335" points="987.621,-52.9791 989.079,-42.4851 981.395,-49.7793 987.621,-52.9791"/>
</g>
<!-- &#45;13&#45;&gt;5 -->
<g id="edge48" class="edge"><title>&#45;13&#45;&gt;5</title>
<path fill="none" stroke="green" stroke-width="0.3502" d="M973.058,-96.4426C976.136,-95.4664 979.394,-94.5747 982.5,-93.9828 1125.92,-66.6556 1507.58,-122.591 1638.5,-57.9828 1642.44,-56.0388 1645.99,-53.1255 1649.08,-49.9024"/>
<polygon fill="green" stroke="green" stroke-width="0.3502" points="1651.81,-52.0931 1655.41,-42.1297 1646.38,-47.6716 1651.81,-52.0931"/>
</g>
<!-- &#45;14 -->
<g id="node14" class="node"><title>&#45;14</title>
<polygon fill="lightgray" stroke="black" points="1439,-111.983 1410,-111.983 1410,-93.9828 1439,-93.9828 1439,-111.983"/>
<text text-anchor="middle" x="1424.5" y="-100.783" font-family="Times New Roman,serif" font-size="9.00">&#45;14</text>
</g>
<!-- &#45;14&#45;&gt;output -->
<g id="edge2" class="edge"><title>&#45;14&#45;&gt;output</title>
<path fill="none" stroke="red" stroke-width="0.36494" stroke-dasharray="1,5" d="M1439.2,-95.9686C1466.55,-84.7845 1525.93,-60.4922 1564.51,-44.7108"/>
<polygon fill="red" stroke="red" stroke-width="0.36494" points="1565.91,-47.9205 1573.84,-40.8951 1563.26,-41.4416 1565.91,-47.9205"/>
</g>
<!-- &#45;14&#45;&gt;2 -->
<g id="edge12" class="edge"><title>&#45;14&#45;&gt;2</title>
<path fill="none" stroke="red" stroke-width="0.249152" stroke-dasharray="1,5" d="M1409.57,-96.1152C1406.92,-95.2672 1404.15,-94.5057 1401.5,-93.9828 1111.96,-36.9494 1023.77,-133.529 738.5,-57.9828 726.397,-54.7776 713.848,-48.7898 703.705,-43.1723"/>
<polygon fill="red" stroke="red" stroke-width="0.249152" points="705.215,-40.0015 694.81,-38.0028 701.697,-46.0537 705.215,-40.0015"/>
</g>
<!-- &#45;14&#45;&gt;3 -->
<g id="edge141" class="edge"><title>&#45;14&#45;&gt;3</title>
<path fill="none" stroke="green" stroke-width="0.148119" stroke-dasharray="1,5" d="M1409.55,-96.2143C1406.9,-95.3552 1404.14,-94.5644 1401.5,-93.9828 1242.73,-59.0361 1190.59,-112.69 1037.5,-57.9828 1029.56,-55.1445 1021.65,-50.4837 1014.88,-45.772"/>
<polygon fill="green" stroke="green" stroke-width="0.148119" points="1016.55,-42.6539 1006.44,-39.4818 1012.36,-48.2655 1016.55,-42.6539"/>
</g>
<!-- &#45;14&#45;&gt;5 -->
<g id="edge1" class="edge"><title>&#45;14&#45;&gt;5</title>
<path fill="none" stroke="green" stroke-width="0.17715" d="M1439.13,-96.7591C1442.2,-95.76 1445.44,-94.7789 1448.5,-93.9828 1531.68,-72.3445 1564.11,-101.033 1638.5,-57.9828 1642.14,-55.8785 1645.48,-53.0137 1648.45,-49.9165"/>
<polygon fill="green" stroke="green" stroke-width="0.17715" points="1651.3,-51.9663 1655.01,-42.0397 1645.92,-47.4904 1651.3,-51.9663"/>
</g>
<!-- &#45;15 -->
<g id="node15" class="node"><title>&#45;15</title>
<polygon fill="lightgray" stroke="black" points="1392,-111.983 1363,-111.983 1363,-93.9828 1392,-93.9828 1392,-111.983"/>
<text text-anchor="middle" x="1377.5" y="-100.783" font-family="Times New Roman,serif" font-size="9.00">&#45;15</text>
</g>
<!-- &#45;15&#45;&gt;output -->
<g id="edge22" class="edge"><title>&#45;15&#45;&gt;output</title>
<path fill="none" stroke="red" stroke-width="0.181035" d="M1392.21,-97.0503C1395.28,-96.0301 1398.49,-94.9668 1401.5,-93.9828 1457.94,-75.5036 1523.53,-54.5032 1563.52,-41.7547"/>
<polygon fill="red" stroke="red" stroke-width="0.181035" points="1564.64,-45.0687 1573.11,-38.6978 1562.52,-38.3991 1564.64,-45.0687"/>
</g>
<!-- &#45;15&#45;&gt;1 -->
<g id="edge52" class="edge"><title>&#45;15&#45;&gt;1</title>
<path fill="none" stroke="green" stroke-width="0.161619" stroke-dasharray="1,5" d="M1362.92,-96.5366C1359.85,-95.5537 1356.59,-94.6353 1353.5,-93.9828 1186.64,-58.7916 1140.93,-77.3049 971.5,-57.9828 904.673,-50.3618 826.118,-39.2622 787.089,-33.6024"/>
<polygon fill="green" stroke="green" stroke-width="0.161619" points="787.572,-30.1359 777.172,-32.1578 786.563,-37.0628 787.572,-30.1359"/>
</g>
<!-- &#45;15&#45;&gt;4 -->
<g id="edge45" class="edge"><title>&#45;15&#45;&gt;4</title>
<path fill="none" stroke="green" stroke-width="0.567157" d="M1388.28,-93.7244C1403.76,-81.8741 1432.52,-59.8468 1451.84,-45.0519"/>
<polygon fill="green" stroke="green" stroke-width="0.567157" points="1454.15,-47.6847 1459.96,-38.8257 1449.9,-42.1273 1454.15,-47.6847"/>
</g>
<!-- &#45;16 -->
<g id="node16" class="node"><title>&#45;16</title>
<polygon fill="lightgray" stroke="black" points="311,-111.983 282,-111.983 282,-93.9828 311,-93.9828 311,-111.983"/>
<text text-anchor="middle" x="296.5" y="-100.783" font-family="Times New Roman,serif" font-size="9.00">&#45;16</text>
</g>
<!-- &#45;16&#45;&gt;1 -->
<g id="edge91" class="edge"><title>&#45;16&#45;&gt;1</title>
<path fill="none" stroke="green" stroke-width="0.13991" d="M311.442,-96.1921C314.095,-95.3355 316.855,-94.5513 319.5,-93.9828 496.176,-56.0123 555.487,-121.941 724.5,-57.9828 731.503,-55.3328 738.347,-51.0085 744.255,-46.5426"/>
<polygon fill="green" stroke="green" stroke-width="0.13991" points="746.631,-49.121 752.149,-40.0768 742.195,-43.7057 746.631,-49.121"/>
</g>
<!-- &#45;16&#45;&gt;2 -->
<g id="edge163" class="edge"><title>&#45;16&#45;&gt;2</title>
<path fill="none" stroke="red" stroke-width="0.374797" stroke-dasharray="1,5" d="M311.488,-96.3828C314.135,-95.505 316.881,-94.6643 319.5,-93.9828 444.587,-61.4273 598.26,-40.4086 657.542,-32.9879"/>
<polygon fill="red" stroke="red" stroke-width="0.374797" points="658.299,-36.4212 667.795,-31.7232 657.442,-29.4739 658.299,-36.4212"/>
</g>
<!-- &#45;16&#45;&gt;6 -->
<g id="edge79" class="edge"><title>&#45;16&#45;&gt;6</title>
<path fill="none" stroke="green" stroke-width="0.350456" stroke-dasharray="1,5" d="M311.425,-96.1059C314.079,-95.2589 316.844,-94.5002 319.5,-93.9828 476.308,-63.4323 894.072,-128.341 1037.5,-57.9828 1041.44,-56.0481 1045,-53.1392 1048.09,-49.9174"/>
<polygon fill="green" stroke="green" stroke-width="0.350456" points="1050.82,-52.1072 1054.42,-42.1433 1045.39,-47.6865 1050.82,-52.1072"/>
</g>
<!-- &#45;17 -->
<g id="node17" class="node"><title>&#45;17</title>
<polygon fill="lightgray" stroke="black" points="1533,-111.983 1504,-111.983 1504,-93.9828 1533,-93.9828 1533,-111.983"/>
<text text-anchor="middle" x="1518.5" y="-100.783" font-family="Times New Roman,serif" font-size="9.00">&#45;17</text>
</g>
<!-- &#45;17&#45;&gt;output -->
<g id="edge25" class="edge"><title>&#45;17&#45;&gt;output</title>
<path fill="none" stroke="red" stroke-width="0.465586" d="M1527.91,-93.7244C1538.44,-84.4779 1556.03,-69.0353 1571.25,-55.667"/>
<polygon fill="red" stroke="red" stroke-width="0.465586" points="1573.75,-58.137 1578.95,-48.9092 1569.13,-52.8766 1573.75,-58.137"/>
</g>
<!-- &#45;17&#45;&gt;2 -->
<g id="edge110" class="edge"><title>&#45;17&#45;&gt;2</title>
<path fill="none" stroke="red" stroke-width="0.282226" stroke-dasharray="1,5" d="M1503.58,-96.1001C1500.92,-95.2538 1498.16,-94.4968 1495.5,-93.9828 1164.81,-29.9972 1064.39,-143.115 738.5,-57.9828 726.387,-54.8184 713.837,-48.8346 703.695,-43.2092"/>
<polygon fill="red" stroke="red" stroke-width="0.282226" points="705.206,-40.0386 694.803,-38.0294 701.682,-46.0872 705.206,-40.0386"/>
</g>
<!-- &#45;17&#45;&gt;3 -->
<g id="edge72" class="edge"><title>&#45;17&#45;&gt;3</title>
<path fill="none" stroke="red" stroke-width="0.257934" d="M1503.56,-96.1693C1500.91,-95.3153 1498.15,-94.5378 1495.5,-93.9828 1295.66,-52.1001 1230.46,-124.755 1037.5,-57.9828 1029.53,-55.2246 1021.62,-50.5837 1014.84,-45.8656"/>
<polygon fill="red" stroke="red" stroke-width="0.257934" points="1016.52,-42.7469 1006.41,-39.5535 1012.32,-48.3497 1016.52,-42.7469"/>
</g>
<!-- &#45;17&#45;&gt;4 -->
<g id="edge76" class="edge"><title>&#45;17&#45;&gt;4</title>
<path fill="none" stroke="green" stroke-width="0.281644" stroke-dasharray="1,5" d="M1513.11,-93.7244C1506.3,-83.3023 1494.36,-65.0087 1485.01,-50.6861"/>
<polygon fill="green" stroke="green" stroke-width="0.281644" points="1487.72,-48.4304 1479.32,-41.9702 1481.86,-52.2571 1487.72,-48.4304"/>
</g>
<!-- &#45;17&#45;&gt;5 -->
<g id="edge51" class="edge"><title>&#45;17&#45;&gt;5</title>
<path fill="none" stroke="red" stroke-width="0.252865" stroke-dasharray="1,5" d="M1533.25,-97.0416C1563.3,-86.9108 1629.52,-64.214 1638.5,-57.9828 1641.89,-55.6274 1645.1,-52.6809 1648,-49.5909"/>
<polygon fill="red" stroke="red" stroke-width="0.252865" points="1650.74,-51.7721 1654.51,-41.8692 1645.39,-47.2621 1650.74,-51.7721"/>
</g>
<!-- &#45;18 -->
<g id="node18" class="node"><title>&#45;18</title>
<polygon fill="lightgray" stroke="black" points="76,-111.983 47,-111.983 47,-93.9828 76,-93.9828 76,-111.983"/>
<text text-anchor="middle" x="61.5" y="-100.783" font-family="Times New Roman,serif" font-size="9.00">&#45;18</text>
</g>
<!-- &#45;18&#45;&gt;1 -->
<g id="edge32" class="edge"><title>&#45;18&#45;&gt;1</title>
<path fill="none" stroke="green" stroke-width="0.320293" d="M76.4273,-96.1196C79.0812,-95.271 81.8458,-94.5083 84.5,-93.9828 224.235,-66.3165 590.472,-106.23 724.5,-57.9828 731.545,-55.4469 738.402,-51.1551 744.307,-46.684"/>
<polygon fill="green" stroke="green" stroke-width="0.320293" points="746.698,-49.249 752.19,-40.1887 742.247,-43.8466 746.698,-49.249"/>
</g>
<!-- &#45;18&#45;&gt;2 -->
<g id="edge39" class="edge"><title>&#45;18&#45;&gt;2</title>
<path fill="none" stroke="green" stroke-width="0.354207" d="M76.451,-96.2322C79.1023,-95.3711 81.8599,-94.575 84.5,-93.9828 302.683,-45.0393 574.313,-33.201 657.281,-30.6386"/>
<polygon fill="green" stroke="green" stroke-width="0.354207" points="657.608,-34.1306 667.502,-30.3413 657.405,-27.1336 657.608,-34.1306"/>
</g>
<!-- &#45;19 -->
<g id="node19" class="node"><title>&#45;19</title>
<polygon fill="lightgray" stroke="black" points="358,-111.983 329,-111.983 329,-93.9828 358,-93.9828 358,-111.983"/>
<text text-anchor="middle" x="343.5" y="-100.783" font-family="Times New Roman,serif" font-size="9.00">&#45;19</text>
</g>
<!-- &#45;19&#45;&gt;1 -->
<g id="edge4" class="edge"><title>&#45;19&#45;&gt;1</title>
<path fill="none" stroke="red" stroke-width="0.17496" d="M358.448,-96.2179C361.1,-95.3585 363.858,-94.5666 366.5,-93.9828 522.647,-59.4784 575.267,-115.445 724.5,-57.9828 731.487,-55.2924 738.328,-50.9565 744.236,-46.4924"/>
<polygon fill="red" stroke="red" stroke-width="0.17496" points="746.606,-49.0756 752.134,-40.0372 742.176,-43.6556 746.606,-49.0756"/>
</g>
<!-- &#45;19&#45;&gt;2 -->
<g id="edge156" class="edge"><title>&#45;19&#45;&gt;2</title>
<path fill="none" stroke="green" stroke-width="0.545844" stroke-dasharray="1,5" d="M358.008,-96.6046C360.805,-95.6623 363.727,-94.742 366.5,-93.9828 473.576,-64.663 604.413,-42.3642 657.922,-33.8062"/>
<polygon fill="green" stroke="green" stroke-width="0.545844" points="658.517,-37.2556 667.847,-32.2353 657.423,-30.3417 658.517,-37.2556"/>
</g>
<!-- &#45;19&#45;&gt;3 -->
<g id="edge57" class="edge"><title>&#45;19&#45;&gt;3</title>
<path fill="none" stroke="green" stroke-width="0.239356" stroke-dasharray="1,5" d="M358.441,-96.1851C361.093,-95.3293 363.854,-94.5471 366.5,-93.9828 549.73,-54.9054 600.267,-78.4235 786.5,-57.9828 853.358,-50.6444 931.9,-39.4218 970.918,-33.67"/>
<polygon fill="green" stroke="green" stroke-width="0.239356" points="971.454,-37.1289 980.833,-32.2006 970.428,-30.2046 971.454,-37.1289"/>
</g>
<!-- &#45;19&#45;&gt;6 -->
<g id="edge23" class="edge"><title>&#45;19&#45;&gt;6</title>
<path fill="none" stroke="green" stroke-width="0.151248" stroke-dasharray="1,5" d="M358.426,-96.1138C361.08,-95.2659 363.845,-94.5048 366.5,-93.9828 513.02,-65.1703 903.552,-123.982 1037.5,-57.9828 1041.44,-56.0412 1044.99,-53.1291 1048.08,-49.9063"/>
<polygon fill="green" stroke="green" stroke-width="0.151248" points="1050.81,-52.0968 1054.42,-42.1332 1045.39,-47.6754 1050.81,-52.0968"/>
</g>
<!-- &#45;20 -->
<g id="node20" class="node"><title>&#45;20</title>
<polygon fill="lightgray" stroke="black" points="683,-111.983 654,-111.983 654,-93.9828 683,-93.9828 683,-111.983"/>
<text text-anchor="middle" x="668.5" y="-100.783" font-family="Times New Roman,serif" font-size="9.00">&#45;20</text>
</g>
<!-- &#45;20&#45;&gt;output -->
<g id="edge9" class="edge"><title>&#45;20&#45;&gt;output</title>
<path fill="none" stroke="red" stroke-width="0.255023" stroke-dasharray="1,5" d="M683.054,-96.4184C686.132,-95.444 689.391,-94.5591 692.5,-93.9828 1043.76,-28.8737 1142.41,-112.31 1495.5,-57.9828 1518.47,-54.4486 1543.65,-47.8342 1563.59,-41.9223"/>
<polygon fill="red" stroke="red" stroke-width="0.255023" points="1564.66,-45.2556 1573.21,-39.0043 1562.63,-38.5569 1564.66,-45.2556"/>
</g>
<!-- &#45;20&#45;&gt;1 -->
<g id="edge113" class="edge"><title>&#45;20&#45;&gt;1</title>
<path fill="none" stroke="green" stroke-width="0.168695" stroke-dasharray="1,5" d="M679.283,-93.7244C694.756,-81.8741 723.517,-59.8468 742.835,-45.0519"/>
<polygon fill="green" stroke="green" stroke-width="0.168695" points="745.154,-47.6847 750.965,-38.8257 740.898,-42.1273 745.154,-47.6847"/>
</g>
<!-- &#45;20&#45;&gt;2 -->
<g id="edge54" class="edge"><title>&#45;20&#45;&gt;2</title>
<path fill="none" stroke="red" stroke-width="0.408572" d="M670.106,-93.7244C671.995,-84.0121 675.213,-67.464 677.896,-53.664"/>
<polygon fill="red" stroke="red" stroke-width="0.408572" points="681.34,-54.2897 679.814,-43.8055 674.469,-52.9534 681.34,-54.2897"/>
</g>
<!-- &#45;20&#45;&gt;3 -->
<g id="edge15" class="edge"><title>&#45;20&#45;&gt;3</title>
<path fill="none" stroke="green" stroke-width="0.179142" d="M683.143,-96.8086C686.214,-95.8059 689.448,-94.8108 692.5,-93.9828 794.714,-66.2499 919.032,-43.3073 970.915,-34.2037"/>
<polygon fill="green" stroke="green" stroke-width="0.179142" points="971.601,-37.6371 980.853,-32.4744 970.401,-30.7407 971.601,-37.6371"/>
</g>
<!-- &#45;20&#45;&gt;6 -->
<g id="edge123" class="edge"><title>&#45;20&#45;&gt;6</title>
<path fill="none" stroke="green" stroke-width="0.161419" stroke-dasharray="1,5" d="M683.082,-96.5606C686.158,-95.5759 689.409,-94.6508 692.5,-93.9828 843.186,-61.4141 900.969,-129.583 1037.5,-57.9828 1041.22,-56.0317 1044.61,-53.2416 1047.6,-50.1707"/>
<polygon fill="green" stroke="green" stroke-width="0.161419" points="1050.45,-52.21 1054.14,-42.2769 1045.06,-47.7436 1050.45,-52.21"/>
</g>
<!-- &#45;21 -->
<g id="node21" class="node"><title>&#45;21</title>
<polygon fill="lightgray" stroke="black" points="1208,-111.983 1179,-111.983 1179,-93.9828 1208,-93.9828 1208,-111.983"/>
<text text-anchor="middle" x="1193.5" y="-100.783" font-family="Times New Roman,serif" font-size="9.00">&#45;21</text>
</g>
<!-- &#45;21&#45;&gt;output -->
<g id="edge158" class="edge"><title>&#45;21&#45;&gt;output</title>
<path fill="none" stroke="red" stroke-width="0.29874" stroke-dasharray="1,5" d="M1208.1,-96.6199C1211.17,-95.6309 1214.42,-94.6891 1217.5,-93.9828 1338.94,-66.1544 1373.27,-82.0811 1495.5,-57.9828 1518.14,-53.5187 1543.12,-46.9292 1563.03,-41.265"/>
<polygon fill="red" stroke="red" stroke-width="0.29874" points="1564.02,-44.6235 1572.66,-38.488 1562.08,-37.8979 1564.02,-44.6235"/>
</g>
<!-- &#45;21&#45;&gt;1 -->
<g id="edge103" class="edge"><title>&#45;21&#45;&gt;1</title>
<path fill="none" stroke="red" stroke-width="0.289609" d="M1178.52,-96.3409C1175.87,-95.4678 1173.12,-94.6395 1170.5,-93.9828 1096.58,-75.4891 864.158,-43.5932 787.385,-33.298"/>
<polygon fill="red" stroke="red" stroke-width="0.289609" points="787.601,-29.7958 777.225,-31.94 786.673,-36.7341 787.601,-29.7958"/>
</g>
<!-- &#45;21&#45;&gt;2 -->
<g id="edge172" class="edge"><title>&#45;21&#45;&gt;2</title>
<path fill="none" stroke="red" stroke-width="0.370828" d="M1178.56,-96.1798C1175.91,-95.3246 1173.15,-94.544 1170.5,-93.9828 982.025,-54.0197 924.013,-109.991 738.5,-57.9828 726.445,-54.6031 713.901,-48.5978 703.748,-43.0139"/>
<polygon fill="red" stroke="red" stroke-width="0.370828" points="705.254,-39.8425 694.841,-37.8888 701.763,-45.9098 705.254,-39.8425"/>
</g>
<!-- &#45;21&#45;&gt;3 -->
<g id="edge36" class="edge"><title>&#45;21&#45;&gt;3</title>
<path fill="none" stroke="red" stroke-width="0.254859" stroke-dasharray="1,5" d="M1178.95,-96.7487C1176.16,-95.7932 1173.25,-94.8311 1170.5,-93.9828 1111.99,-75.9125 1093.26,-83.294 1037.5,-57.9828 1029.82,-54.4968 1021.98,-49.6752 1015.18,-45.0152"/>
<polygon fill="red" stroke="red" stroke-width="0.254859" points="1016.84,-41.8955 1006.67,-38.9014 1012.75,-47.5797 1016.84,-41.8955"/>
</g>
<!-- &#45;21&#45;&gt;5 -->
<g id="edge43" class="edge"><title>&#45;21&#45;&gt;5</title>
<path fill="none" stroke="red" stroke-width="0.171176" d="M1208.07,-96.5158C1211.15,-95.5344 1214.4,-94.6219 1217.5,-93.9828 1309.46,-75.0039 1554.94,-100.814 1638.5,-57.9828 1642.41,-55.9789 1645.95,-53.038 1649.03,-49.8063"/>
<polygon fill="red" stroke="red" stroke-width="0.171176" points="1651.76,-52.0025 1655.37,-42.0423 1646.33,-47.5762 1651.76,-52.0025"/>
</g>
<!-- &#45;22 -->
<g id="node22" class="node"><title>&#45;22</title>
<polygon fill="lightgray" stroke="black" points="1114,-111.983 1085,-111.983 1085,-93.9828 1114,-93.9828 1114,-111.983"/>
<text text-anchor="middle" x="1099.5" y="-100.783" font-family="Times New Roman,serif" font-size="9.00">&#45;22</text>
</g>
<!-- &#45;22&#45;&gt;output -->
<g id="edge55" class="edge"><title>&#45;22&#45;&gt;output</title>
<path fill="none" stroke="red" stroke-width="0.378947" d="M1114.08,-96.5426C1117.15,-95.5592 1120.41,-94.6392 1123.5,-93.9828 1285.99,-59.5006 1332.03,-87.4754 1495.5,-57.9828 1518.37,-53.8564 1543.54,-47.2197 1563.51,-41.4441"/>
<polygon fill="red" stroke="red" stroke-width="0.378947" points="1564.54,-44.7889 1573.14,-38.6068 1562.56,-38.0739 1564.54,-44.7889"/>
</g>
<!-- &#45;22&#45;&gt;2 -->
<g id="edge71" class="edge"><title>&#45;22&#45;&gt;2</title>
<path fill="none" stroke="green" stroke-width="0.252622" d="M1084.55,-96.2311C1081.9,-95.3701 1079.14,-94.5743 1076.5,-93.9828 929.083,-60.9521 883.486,-100.431 738.5,-57.9828 726.485,-54.4649 713.944,-48.4458 703.784,-42.8884"/>
<polygon fill="green" stroke="green" stroke-width="0.252622" points="705.287,-39.7162 694.867,-37.7985 701.817,-45.7955 705.287,-39.7162"/>
</g>
<!-- &#45;22&#45;&gt;3 -->
<g id="edge85" class="edge"><title>&#45;22&#45;&gt;3</title>
<path fill="none" stroke="green" stroke-width="0.221925" stroke-dasharray="1,5" d="M1087.57,-93.7244C1070.02,-81.5734 1037.01,-58.7225 1015.65,-43.94"/>
<polygon fill="green" stroke="green" stroke-width="0.221925" points="1017.51,-40.9673 1007.29,-38.1534 1013.52,-46.7229 1017.51,-40.9673"/>
</g>
<!-- &#45;22&#45;&gt;4 -->
<g id="edge128" class="edge"><title>&#45;22&#45;&gt;4</title>
<path fill="none" stroke="red" stroke-width="0.373834" stroke-dasharray="1,5" d="M1114.13,-96.7463C1117.2,-95.7481 1120.44,-94.7706 1123.5,-93.9828 1243.11,-63.2129 1389.48,-41.306 1446.81,-33.3183"/>
<polygon fill="red" stroke="red" stroke-width="0.373834" points="1447.32,-36.7804 1456.75,-31.9487 1446.37,-29.8459 1447.32,-36.7804"/>
</g>
<!-- &#45;23 -->
<g id="node23" class="node"><title>&#45;23</title>
<polygon fill="lightgray" stroke="black" points="2037,-111.983 2008,-111.983 2008,-93.9828 2037,-93.9828 2037,-111.983"/>
<text text-anchor="middle" x="2022.5" y="-100.783" font-family="Times New Roman,serif" font-size="9.00">&#45;23</text>
</g>
<!-- &#45;23&#45;&gt;4 -->
<g id="edge159" class="edge"><title>&#45;23&#45;&gt;4</title>
<path fill="none" stroke="green" stroke-width="0.141833" stroke-dasharray="1,5" d="M2007.56,-96.1777C2004.91,-95.3227 2002.15,-94.5427 1999.5,-93.9828 1808.84,-53.6506 1753.86,-94.8457 1562.5,-57.9828 1538.92,-53.44 1512.79,-45.0374 1494.6,-38.6194"/>
<polygon fill="green" stroke="green" stroke-width="0.141833" points="1495.73,-35.306 1485.14,-35.2048 1493.36,-41.8906 1495.73,-35.306"/>
</g>
<!-- &#45;23&#45;&gt;5 -->
<g id="edge18" class="edge"><title>&#45;23&#45;&gt;5</title>
<path fill="none" stroke="green" stroke-width="0.235288" stroke-dasharray="1,5" d="M2008,-96.5774C2005.2,-95.6376 2002.28,-94.7251 1999.5,-93.9828 1884.35,-63.2018 1743.25,-41.4354 1687.17,-33.4038"/>
<polygon fill="green" stroke="green" stroke-width="0.235288" points="1687.52,-29.9176 1677.12,-31.9821 1686.54,-36.8485 1687.52,-29.9176"/>
</g>
<!-- &#45;23&#45;&gt;6 -->
<g id="edge28" class="edge"><title>&#45;23&#45;&gt;6</title>
<path fill="none" stroke="green" stroke-width="0.345469" d="M2007.57,-96.1396C2004.92,-95.2888 2002.15,-94.5201 1999.5,-93.9828 1758.54,-45.1556 1692.77,-74.8738 1447.5,-57.9828 1311.2,-48.5961 1147.89,-36.4607 1086.47,-31.8656"/>
<polygon fill="green" stroke="green" stroke-width="0.345469" points="1086.46,-28.3545 1076.22,-31.0977 1085.93,-35.3349 1086.46,-28.3545"/>
</g>
<!-- &#45;24 -->
<g id="node24" class="node"><title>&#45;24</title>
<polygon fill="lightgray" stroke="black" points="1623,-111.983 1594,-111.983 1594,-93.9828 1623,-93.9828 1623,-111.983"/>
<text text-anchor="middle" x="1608.5" y="-100.783" font-family="Times New Roman,serif" font-size="9.00">&#45;24</text>
</g>
<!-- &#45;24&#45;&gt;output -->
<g id="edge21" class="edge"><title>&#45;24&#45;&gt;output</title>
<path fill="none" stroke="green" stroke-width="0.424117" d="M1607.58,-93.7244C1606.86,-87.2553 1605.81,-77.7535 1604.73,-68.0511"/>
<polygon fill="green" stroke="green" stroke-width="0.424117" points="1608.19,-67.5384 1603.61,-57.9862 1601.24,-68.3116 1608.19,-67.5384"/>
</g>
<!-- &#45;24&#45;&gt;2 -->
<g id="edge120" class="edge"><title>&#45;24&#45;&gt;2</title>
<path fill="none" stroke="green" stroke-width="0.357978" stroke-dasharray="1,5" d="M1593.95,-96.413C1590.87,-95.439 1587.61,-94.5556 1584.5,-93.9828 1399.44,-59.8988 920.679,-105.088 738.5,-57.9828 726.379,-54.8486 713.828,-48.8679 703.688,-43.2367"/>
<polygon fill="green" stroke="green" stroke-width="0.357978" points="705.199,-40.0661 694.798,-38.0492 701.671,-46.1121 705.199,-40.0661"/>
</g>
<!-- &#45;24&#45;&gt;3 -->
<g id="edge67" class="edge"><title>&#45;24&#45;&gt;3</title>
<path fill="none" stroke="red" stroke-width="0.12274" stroke-dasharray="1,5" d="M1593.94,-96.4688C1590.86,-95.4907 1587.6,-94.5916 1584.5,-93.9828 1345.42,-47.0765 1268.24,-136.191 1037.5,-57.9828 1029.51,-55.2754 1021.59,-50.647 1014.82,-45.9249"/>
<polygon fill="red" stroke="red" stroke-width="0.12274" points="1016.5,-42.8057 1006.4,-39.599 1012.29,-48.4029 1016.5,-42.8057"/>
</g>
<!-- &#45;24&#45;&gt;4 -->
<g id="edge94" class="edge"><title>&#45;24&#45;&gt;4</title>
<path fill="none" stroke="green" stroke-width="0.343421" d="M1593.84,-94.2784C1569.76,-81.6239 1521.69,-56.3673 1493.51,-41.5575"/>
<polygon fill="green" stroke="green" stroke-width="0.343421" points="1494.92,-38.346 1484.44,-36.7925 1491.67,-44.5425 1494.92,-38.346"/>
</g>
<!-- &#45;24&#45;&gt;5 -->
<g id="edge31" class="edge"><title>&#45;24&#45;&gt;5</title>
<path fill="none" stroke="green" stroke-width="0.154761" d="M1614.69,-93.7244C1622.68,-83.0807 1636.82,-64.2272 1647.66,-49.778"/>
<polygon fill="green" stroke="green" stroke-width="0.154761" points="1650.69,-51.5631 1653.9,-41.4633 1645.09,-47.3628 1650.69,-51.5631"/>
</g>
<!-- &#45;25 -->
<g id="node25" class="node"><title>&#45;25</title>
<polygon fill="lightgray" stroke="black" points="777,-111.983 748,-111.983 748,-93.9828 777,-93.9828 777,-111.983"/>
<text text-anchor="middle" x="762.5" y="-100.783" font-family="Times New Roman,serif" font-size="9.00">&#45;25</text>
</g>
<!-- &#45;25&#45;&gt;1 -->
<g id="edge136" class="edge"><title>&#45;25&#45;&gt;1</title>
<path fill="none" stroke="green" stroke-width="0.211694" stroke-dasharray="1,5" d="M762.5,-93.7244C762.5,-84.1657 762.5,-67.9854 762.5,-54.3204"/>
<polygon fill="green" stroke="green" stroke-width="0.211694" points="766,-54.075 762.5,-44.0751 759,-54.0751 766,-54.075"/>
</g>
<!-- &#45;25&#45;&gt;3 -->
<g id="edge61" class="edge"><title>&#45;25&#45;&gt;3</title>
<path fill="none" stroke="green" stroke-width="0.139907" stroke-dasharray="1,5" d="M777.204,-97.0177C780.272,-95.9998 783.488,-94.9457 786.5,-93.9828 853.239,-72.6463 932.429,-48.7991 971.392,-37.1623"/>
<polygon fill="green" stroke="green" stroke-width="0.139907" points="972.688,-40.4281 981.271,-34.2162 970.688,-33.7201 972.688,-40.4281"/>
</g>
<!-- &#45;25&#45;&gt;4 -->
<g id="edge133" class="edge"><title>&#45;25&#45;&gt;4</title>
<path fill="none" stroke="red" stroke-width="0.239025" stroke-dasharray="1,5" d="M777.077,-96.5347C780.153,-95.5518 783.406,-94.6341 786.5,-93.9828 916.742,-66.5698 1339.36,-38.3887 1446.59,-31.5524"/>
<polygon fill="red" stroke="red" stroke-width="0.239025" points="1447,-35.0333 1456.76,-30.9078 1446.56,-28.0474 1447,-35.0333"/>
</g>
<!-- &#45;26 -->
<g id="node26" class="node"><title>&#45;26</title>
<polygon fill="lightgray" stroke="black" points="2084,-111.983 2055,-111.983 2055,-93.9828 2084,-93.9828 2084,-111.983"/>
<text text-anchor="middle" x="2069.5" y="-100.783" font-family="Times New Roman,serif" font-size="9.00">&#45;26</text>
</g>
<!-- &#45;26&#45;&gt;output -->
<g id="edge88" class="edge"><title>&#45;26&#45;&gt;output</title>
<path fill="none" stroke="green" stroke-width="0.102905" d="M2054.56,-96.1907C2051.91,-95.3343 2049.15,-94.5504 2046.5,-93.9828 1868.51,-55.7909 1808.78,-122.356 1638.5,-57.9828 1635.77,-56.9505 1633.06,-55.6635 1630.43,-54.2126"/>
<polygon fill="green" stroke="green" stroke-width="0.102905" points="1632.13,-51.1481 1621.8,-48.7804 1628.4,-57.0712 1632.13,-51.1481"/>
</g>
<!-- &#45;26&#45;&gt;3 -->
<g id="edge16" class="edge"><title>&#45;26&#45;&gt;3</title>
<path fill="none" stroke="green" stroke-width="0.324922" d="M2054.58,-96.0735C2051.93,-95.2301 2049.16,-94.481 2046.5,-93.9828 1825.97,-52.6674 1251.05,-126.804 1037.5,-57.9828 1029.47,-55.3957 1021.54,-50.7972 1014.78,-46.0654"/>
<polygon fill="green" stroke="green" stroke-width="0.324922" points="1016.45,-42.9448 1006.36,-39.7068 1012.23,-48.529 1016.45,-42.9448"/>
</g>
<!-- &#45;26&#45;&gt;4 -->
<g id="edge60" class="edge"><title>&#45;26&#45;&gt;4</title>
<path fill="none" stroke="green" stroke-width="0.519209" stroke-dasharray="1,5" d="M2054.56,-96.1599C2051.91,-95.3069 2049.15,-94.5322 2046.5,-93.9828 1835.29,-50.1799 1774.47,-97.9425 1562.5,-57.9828 1538.9,-53.5338 1512.78,-45.1185 1494.59,-38.672"/>
<polygon fill="green" stroke="green" stroke-width="0.519209" points="1495.73,-35.3596 1485.13,-35.2401 1493.34,-41.9401 1495.73,-35.3596"/>
</g>
<!-- &#45;26&#45;&gt;5 -->
<g id="edge112" class="edge"><title>&#45;26&#45;&gt;5</title>
<path fill="none" stroke="green" stroke-width="0.266122" d="M2054.52,-96.3621C2051.87,-95.4866 2049.12,-94.652 2046.5,-93.9828 1913.34,-59.9906 1749.44,-39.625 1687.65,-32.6852"/>
<polygon fill="green" stroke="green" stroke-width="0.266122" points="1687.66,-29.1646 1677.34,-31.5454 1686.89,-36.1223 1687.66,-29.1646"/>
</g>
<!-- &#45;27 -->
<g id="node27" class="node"><title>&#45;27</title>
<polygon fill="lightgray" stroke="black" points="217,-111.983 188,-111.983 188,-93.9828 217,-93.9828 217,-111.983"/>
<text text-anchor="middle" x="202.5" y="-100.783" font-family="Times New Roman,serif" font-size="9.00">&#45;27</text>
</g>
<!-- &#45;27&#45;&gt;2 -->
<g id="edge66" class="edge"><title>&#45;27&#45;&gt;2</title>
<path fill="none" stroke="red" stroke-width="0.101584" stroke-dasharray="1,5" d="M217.468,-96.3045C220.117,-95.4354 222.87,-94.6178 225.5,-93.9828 387.424,-54.884 587.79,-37.084 657.334,-31.7774"/>
<polygon fill="red" stroke="red" stroke-width="0.101584" points="657.991,-35.2383 667.704,-31.0058 657.471,-28.2576 657.991,-35.2383"/>
</g>
<!-- &#45;27&#45;&gt;3 -->
<g id="edge154" class="edge"><title>&#45;27&#45;&gt;3</title>
<path fill="none" stroke="red" stroke-width="0.401754" d="M217.431,-96.1372C220.084,-95.2867 222.848,-94.5187 225.5,-93.9828 470.395,-44.4905 537.868,-82.5803 786.5,-57.9828 853.433,-51.361 931.942,-39.8264 970.936,-33.8414"/>
<polygon fill="red" stroke="red" stroke-width="0.401754" points="971.496,-37.2964 980.844,-32.3091 970.427,-30.3786 971.496,-37.2964"/>
</g>
<!-- &#45;28 -->
<g id="node28" class="node"><title>&#45;28</title>
<polygon fill="lightgray" stroke="black" points="405,-111.983 376,-111.983 376,-93.9828 405,-93.9828 405,-111.983"/>
<text text-anchor="middle" x="390.5" y="-100.783" font-family="Times New Roman,serif" font-size="9.00">&#45;28</text>
</g>
<!-- &#45;28&#45;&gt;1 -->
<g id="edge8" class="edge"><title>&#45;28&#45;&gt;1</title>
<path fill="none" stroke="red" stroke-width="0.126347" d="M405.088,-96.5885C408.164,-95.6017 411.413,-94.6688 414.5,-93.9828 549.9,-63.8921 595.448,-108.818 724.5,-57.9828 731.466,-55.2387 738.301,-50.8874 744.21,-46.4258"/>
<polygon fill="red" stroke="red" stroke-width="0.126347" points="746.573,-49.0152 752.113,-39.9845 742.151,-43.589 746.573,-49.0152"/>
</g>
<!-- &#45;28&#45;&gt;2 -->
<g id="edge106" class="edge"><title>&#45;28&#45;&gt;2</title>
<path fill="none" stroke="green" stroke-width="0.133321" stroke-dasharray="1,5" d="M405.16,-96.8705C408.23,-95.8634 411.459,-94.8508 414.5,-93.9828 503.476,-68.5835 611,-45.0331 658.244,-35.0386"/>
<polygon fill="green" stroke="green" stroke-width="0.133321" points="659.084,-38.4386 668.15,-32.9554 657.643,-31.5885 659.084,-38.4386"/>
</g>
<!-- &#45;28&#45;&gt;3 -->
<g id="edge105" class="edge"><title>&#45;28&#45;&gt;3</title>
<path fill="none" stroke="green" stroke-width="0.480704" d="M405.078,-96.5426C408.155,-95.5592 411.407,-94.6392 414.5,-93.9828 576.987,-59.5006 621.488,-77.0108 786.5,-57.9828 853.317,-50.2779 931.876,-39.2149 970.908,-33.5824"/>
<polygon fill="green" stroke="green" stroke-width="0.480704" points="971.432,-37.0432 980.827,-32.145 970.428,-30.1155 971.432,-37.0432"/>
</g>
<!-- &#45;28&#45;&gt;4 -->
<g id="edge42" class="edge"><title>&#45;28&#45;&gt;4</title>
<path fill="none" stroke="red" stroke-width="0.169189" stroke-dasharray="1,5" d="M405.058,-96.4396C408.136,-95.4637 411.393,-94.5728 414.5,-93.9828 707.907,-38.2618 787.441,-76.7838 1085.5,-57.9828 1221.86,-49.3817 1385.13,-36.7839 1446.53,-31.9653"/>
<polygon fill="red" stroke="red" stroke-width="0.169189" points="1447.09,-35.4325 1456.78,-31.1588 1446.54,-28.4541 1447.09,-35.4325"/>
</g>
<!-- &#45;29 -->
<g id="node29" class="node"><title>&#45;29</title>
<polygon fill="lightgray" stroke="black" points="926,-111.983 897,-111.983 897,-93.9828 926,-93.9828 926,-111.983"/>
<text text-anchor="middle" x="911.5" y="-100.783" font-family="Times New Roman,serif" font-size="9.00">&#45;29</text>
</g>
<!-- &#45;29&#45;&gt;output -->
<g id="edge170" class="edge"><title>&#45;29&#45;&gt;output</title>
<path fill="none" stroke="red" stroke-width="0.335494" d="M926.063,-96.4651C929.14,-95.4874 932.396,-94.5892 935.5,-93.9828 1180.27,-46.1527 1249.38,-98.2985 1495.5,-57.9828 1518.43,-54.226 1543.61,-47.6032 1563.56,-41.7426"/>
<polygon fill="red" stroke="red" stroke-width="0.335494" points="1564.61,-45.0803 1573.19,-38.8549 1562.6,-38.3754 1564.61,-45.0803"/>
</g>
<!-- &#45;29&#45;&gt;2 -->
<g id="edge161" class="edge"><title>&#45;29&#45;&gt;2</title>
<path fill="none" stroke="green" stroke-width="0.259459" d="M896.838,-96.8768C893.768,-95.8692 890.54,-94.8549 887.5,-93.9828 822.014,-75.194 802.49,-81.3625 738.5,-57.9828 726.74,-53.6862 714.226,-47.5892 704.016,-42.1817"/>
<polygon fill="green" stroke="green" stroke-width="0.259459" points="705.49,-38.999 695.034,-37.2898 702.142,-45.1464 705.49,-38.999"/>
</g>
<!-- &#45;30 -->
<g id="node30" class="node"><title>&#45;30</title>
<polygon fill="lightgray" stroke="black" points="29,-111.983 0,-111.983 0,-93.9828 29,-93.9828 29,-111.983"/>
<text text-anchor="middle" x="14.5" y="-100.783" font-family="Times New Roman,serif" font-size="9.00">&#45;30</text>
</g>
<!-- &#45;30&#45;&gt;1 -->
<g id="edge41" class="edge"><title>&#45;30&#45;&gt;1</title>
<path fill="none" stroke="red" stroke-width="0.11658" stroke-dasharray="1,5" d="M29.4256,-96.111C32.0797,-95.2634 34.8448,-94.5032 37.5,-93.9828 187.522,-64.5787 580.561,-109.486 724.5,-57.9828 731.549,-55.4604 738.408,-51.1725 744.313,-46.7008"/>
<polygon fill="red" stroke="red" stroke-width="0.11658" points="746.706,-49.2641 752.195,-40.202 742.253,-43.8633 746.706,-49.2641"/>
</g>
<!-- &#45;30&#45;&gt;2 -->
<g id="edge40" class="edge"><title>&#45;30&#45;&gt;2</title>
<path fill="none" stroke="green" stroke-width="0.421821" stroke-dasharray="1,5" d="M29.4472,-96.215C32.0989,-95.3558 34.8576,-94.5648 37.5,-93.9828 274.621,-41.751 570.237,-32.1071 657.29,-30.3659"/>
<polygon fill="green" stroke="green" stroke-width="0.421821" points="657.359,-33.8653 667.294,-30.1832 657.231,-26.8665 657.359,-33.8653"/>
</g>
<!-- &#45;31 -->
<g id="node31" class="node"><title>&#45;31</title>
<polygon fill="lightgray" stroke="black" points="2448,-111.983 2419,-111.983 2419,-93.9828 2448,-93.9828 2448,-111.983"/>
<text text-anchor="middle" x="2433.5" y="-100.783" font-family="Times New Roman,serif" font-size="9.00">&#45;31</text>
</g>
<!-- &#45;32 -->
<g id="node32" class="node"><title>&#45;32</title>
<polygon fill="lightgray" stroke="black" points="1858,-111.983 1829,-111.983 1829,-93.9828 1858,-93.9828 1858,-111.983"/>
<text text-anchor="middle" x="1843.5" y="-100.783" font-family="Times New Roman,serif" font-size="9.00">&#45;32</text>
</g>
<!-- &#45;32&#45;&gt;3 -->
<g id="edge87" class="edge"><title>&#45;32&#45;&gt;3</title>
<path fill="none" stroke="red" stroke-width="0.141402" stroke-dasharray="1,5" d="M1828.58,-96.0966C1825.92,-95.2506 1823.16,-94.4947 1820.5,-93.9828 1649.46,-61.0283 1203.01,-112.263 1037.5,-57.9828 1029.49,-55.3545 1021.56,-50.7457 1014.79,-46.0173"/>
<polygon fill="red" stroke="red" stroke-width="0.141402" points="1016.47,-42.8972 1006.38,-39.6699 1012.25,-48.4858 1016.47,-42.8972"/>
</g>
<!-- &#45;32&#45;&gt;4 -->
<g id="edge162" class="edge"><title>&#45;32&#45;&gt;4</title>
<path fill="none" stroke="green" stroke-width="0.218159" d="M1828.53,-96.3034C1825.88,-95.4344 1823.13,-94.6172 1820.5,-93.9828 1707.95,-66.8347 1675.52,-83.0823 1562.5,-57.9828 1539.06,-52.7764 1512.91,-44.4634 1494.68,-38.2471"/>
<polygon fill="green" stroke="green" stroke-width="0.218159" points="1495.79,-34.9255 1485.19,-34.9557 1493.49,-41.539 1495.79,-34.9255"/>
</g>
<!-- &#45;32&#45;&gt;5 -->
<g id="edge160" class="edge"><title>&#45;32&#45;&gt;5</title>
<path fill="none" stroke="red" stroke-width="0.281165" stroke-dasharray="1,5" d="M1828.99,-96.2131C1797.71,-83.7697 1723.67,-54.3193 1685.75,-39.2394"/>
<polygon fill="red" stroke="red" stroke-width="0.281165" points="1686.67,-35.8369 1676.08,-35.3932 1684.08,-42.3413 1686.67,-35.8369"/>
</g>
<!-- &#45;33 -->
<g id="node33" class="node"><title>&#45;33</title>
<polygon fill="lightgray" stroke="black" points="589,-111.983 560,-111.983 560,-93.9828 589,-93.9828 589,-111.983"/>
<text text-anchor="middle" x="574.5" y="-100.783" font-family="Times New Roman,serif" font-size="9.00">&#45;33</text>
</g>
<!-- &#45;33&#45;&gt;1 -->
<g id="edge130" class="edge"><title>&#45;33&#45;&gt;1</title>
<path fill="none" stroke="red" stroke-width="0.155109" d="M589.191,-96.9737C592.259,-95.959 595.479,-94.9173 598.5,-93.9828 654.139,-76.77 672.225,-83.6606 724.5,-57.9828 731.22,-54.6818 737.984,-50.1711 743.905,-45.7348"/>
<polygon fill="red" stroke="red" stroke-width="0.155109" points="746.197,-48.3846 751.872,-39.4381 741.856,-42.8927 746.197,-48.3846"/>
</g>
<!-- &#45;33&#45;&gt;2 -->
<g id="edge150" class="edge"><title>&#45;33&#45;&gt;2</title>
<path fill="none" stroke="green" stroke-width="0.203834" d="M586.889,-93.7244C605.296,-81.4542 640.072,-58.2733 662.223,-43.5075"/>
<polygon fill="green" stroke="green" stroke-width="0.203834" points="664.205,-46.3929 670.585,-37.934 660.322,-40.5683 664.205,-46.3929"/>
</g>
<!-- &#45;33&#45;&gt;3 -->
<g id="edge164" class="edge"><title>&#45;33&#45;&gt;3</title>
<path fill="none" stroke="green" stroke-width="0.151552" stroke-dasharray="1,5" d="M589.113,-96.6939C592.187,-95.6996 595.429,-94.7368 598.5,-93.9828 670.391,-76.3302 895.613,-44.0106 970.792,-33.4383"/>
<polygon fill="green" stroke="green" stroke-width="0.151552" points="971.342,-36.8954 980.759,-32.0405 970.37,-29.9633 971.342,-36.8954"/>
</g>
<!-- &#45;33&#45;&gt;5 -->
<g id="edge102" class="edge"><title>&#45;33&#45;&gt;5</title>
<path fill="none" stroke="red" stroke-width="0.18091" d="M589.049,-96.3938C592.128,-95.4212 595.388,-94.5432 598.5,-93.9828 712.294,-73.49 1534.3,-108.099 1638.5,-57.9828 1642.46,-56.0787 1646.02,-53.184 1649.11,-49.9666"/>
<polygon fill="red" stroke="red" stroke-width="0.18091" points="1651.84,-52.1536 1655.44,-42.1881 1646.42,-47.7352 1651.84,-52.1536"/>
</g>
<!-- &#45;34 -->
<g id="node34" class="node"><title>&#45;34</title>
<polygon fill="lightgray" stroke="black" points="636,-111.983 607,-111.983 607,-93.9828 636,-93.9828 636,-111.983"/>
<text text-anchor="middle" x="621.5" y="-100.783" font-family="Times New Roman,serif" font-size="9.00">&#45;34</text>
</g>
<!-- &#45;34&#45;&gt;1 -->
<g id="edge65" class="edge"><title>&#45;34&#45;&gt;1</title>
<path fill="none" stroke="green" stroke-width="0.122805" stroke-dasharray="1,5" d="M636.336,-96.8783C656.82,-89.5586 694.619,-75.0635 724.5,-57.9828 730.904,-54.3217 737.504,-49.7737 743.37,-45.4154"/>
<polygon fill="green" stroke="green" stroke-width="0.122805" points="745.538,-48.163 751.33,-39.2912 741.27,-42.6151 745.538,-48.163"/>
</g>
<!-- &#45;34&#45;&gt;3 -->
<g id="edge59" class="edge"><title>&#45;34&#45;&gt;3</title>
<path fill="none" stroke="red" stroke-width="0.149126" stroke-dasharray="1,5" d="M636.126,-96.7439C639.199,-95.7459 642.437,-94.7691 645.5,-93.9828 765.786,-63.103 913.002,-41.2588 970.666,-33.3031"/>
<polygon fill="red" stroke="red" stroke-width="0.149126" points="971.232,-36.7583 980.668,-31.9392 970.287,-29.8225 971.232,-36.7583"/>
</g>
<!-- &#45;34&#45;&gt;6 -->
<g id="edge84" class="edge"><title>&#45;34&#45;&gt;6</title>
<path fill="none" stroke="red" stroke-width="0.132069" stroke-dasharray="1,5" d="M636.076,-96.5309C639.153,-95.5483 642.405,-94.6316 645.5,-93.9828 731.116,-76.0326 959.779,-98.1295 1037.5,-57.9828 1041.4,-55.9667 1044.94,-53.02 1048.02,-49.7866"/>
<polygon fill="red" stroke="red" stroke-width="0.132069" points="1050.75,-51.9839 1054.36,-42.0244 1045.32,-47.5566 1050.75,-51.9839"/>
</g>
<!-- &#45;35 -->
<g id="node35" class="node"><title>&#45;35</title>
<polygon fill="lightgray" stroke="black" points="1764,-111.983 1735,-111.983 1735,-93.9828 1764,-93.9828 1764,-111.983"/>
<text text-anchor="middle" x="1749.5" y="-100.783" font-family="Times New Roman,serif" font-size="9.00">&#45;35</text>
</g>
<!-- &#45;35&#45;&gt;output -->
<g id="edge13" class="edge"><title>&#45;35&#45;&gt;output</title>
<path fill="none" stroke="green" stroke-width="0.493383" d="M1734.61,-96.6208C1708.52,-87.1426 1655.72,-67.5301 1638.5,-57.9828 1636.18,-56.6967 1633.84,-55.2882 1631.52,-53.8089"/>
<polygon fill="green" stroke="green" stroke-width="0.493383" points="1633.01,-50.5881 1622.77,-47.861 1629.07,-56.3773 1633.01,-50.5881"/>
</g>
<!-- &#45;35&#45;&gt;3 -->
<g id="edge100" class="edge"><title>&#45;35&#45;&gt;3</title>
<path fill="none" stroke="green" stroke-width="0.379222" d="M1734.57,-96.1106C1731.92,-95.2631 1729.16,-94.503 1726.5,-93.9828 1576.04,-64.5047 1183.04,-106.217 1037.5,-57.9828 1029.49,-55.3294 1021.57,-50.7145 1014.8,-45.988"/>
<polygon fill="green" stroke="green" stroke-width="0.379222" points="1016.48,-42.8682 1006.38,-39.6474 1012.26,-48.4596 1016.48,-42.8682"/>
</g>
<!-- &#45;35&#45;&gt;4 -->
<g id="edge138" class="edge"><title>&#45;35&#45;&gt;4</title>
<path fill="none" stroke="green" stroke-width="0.218088" d="M1734.98,-96.6411C1732.19,-95.6955 1729.27,-94.7645 1726.5,-93.9828 1654.69,-73.6892 1634.67,-76.9687 1562.5,-57.9828 1539.27,-51.8727 1513.1,-43.6817 1494.81,-37.7401"/>
<polygon fill="green" stroke="green" stroke-width="0.218088" points="1495.87,-34.4047 1485.27,-34.6163 1493.69,-41.0566 1495.87,-34.4047"/>
</g>
<!-- &#45;36 -->
<g id="node36" class="node"><title>&#45;36</title>
<polygon fill="lightgray" stroke="black" points="2221,-111.983 2192,-111.983 2192,-93.9828 2221,-93.9828 2221,-111.983"/>
<text text-anchor="middle" x="2206.5" y="-100.783" font-family="Times New Roman,serif" font-size="9.00">&#45;36</text>
</g>
<!-- &#45;36&#45;&gt;output -->
<g id="edge92" class="edge"><title>&#45;36&#45;&gt;output</title>
<path fill="none" stroke="green" stroke-width="0.17725" d="M2191.94,-96.4697C2188.86,-95.4915 2185.6,-94.5921 2182.5,-93.9828 1944.73,-47.2897 1866.08,-141.178 1638.5,-57.9828 1635.76,-56.9805 1633.04,-55.7151 1630.4,-54.2793"/>
<polygon fill="green" stroke="green" stroke-width="0.17725" points="1632.1,-51.2131 1621.77,-48.8753 1628.39,-57.147 1632.1,-51.2131"/>
</g>
<!-- &#45;37 -->
<g id="node37" class="node"><title>&#45;37</title>
<polygon fill="lightgray" stroke="black" points="1486,-111.983 1457,-111.983 1457,-93.9828 1486,-93.9828 1486,-111.983"/>
<text text-anchor="middle" x="1471.5" y="-100.783" font-family="Times New Roman,serif" font-size="9.00">&#45;37</text>
</g>
<!-- &#45;37&#45;&gt;1 -->
<g id="edge11" class="edge"><title>&#45;37&#45;&gt;1</title>
<path fill="none" stroke="green" stroke-width="0.369603" d="M1456.56,-96.1624C1453.91,-95.3091 1451.15,-94.5336 1448.5,-93.9828 1240.35,-50.6969 1182.95,-80.103 971.5,-57.9828 904.605,-50.9847 826.08,-39.614 787.073,-33.7514"/>
<polygon fill="green" stroke="green" stroke-width="0.369603" points="787.573,-30.2872 777.162,-32.2521 786.526,-37.2085 787.573,-30.2872"/>
</g>
<!-- &#45;37&#45;&gt;3 -->
<g id="edge37" class="edge"><title>&#45;37&#45;&gt;3</title>
<path fill="none" stroke="green" stroke-width="0.423432" d="M1456.56,-96.1893C1453.91,-95.333 1451.15,-94.5496 1448.5,-93.9828 1269.2,-55.5695 1210.51,-118.72 1037.5,-57.9828 1029.54,-55.1891 1021.63,-50.5393 1014.86,-45.824"/>
<polygon fill="green" stroke="green" stroke-width="0.423432" points="1016.53,-42.7056 1006.43,-39.5217 1012.34,-48.3123 1016.53,-42.7056"/>
</g>
<!-- &#45;37&#45;&gt;4 -->
<g id="edge166" class="edge"><title>&#45;37&#45;&gt;4</title>
<path fill="none" stroke="green" stroke-width="0.245173" d="M1471.5,-93.7244C1471.5,-84.1657 1471.5,-67.9854 1471.5,-54.3204"/>
<polygon fill="green" stroke="green" stroke-width="0.245173" points="1475,-54.075 1471.5,-44.0751 1468,-54.0751 1475,-54.075"/>
</g>
<!-- &#45;37&#45;&gt;5 -->
<g id="edge127" class="edge"><title>&#45;37&#45;&gt;5</title>
<path fill="none" stroke="red" stroke-width="0.172754" d="M1486.17,-96.8993C1489.24,-95.8901 1492.46,-94.8694 1495.5,-93.9828 1558.41,-75.6072 1582.78,-92.48 1638.5,-57.9828 1642.07,-55.7716 1645.39,-52.8546 1648.35,-49.739"/>
<polygon fill="red" stroke="red" stroke-width="0.172754" points="1651.19,-51.7959 1654.91,-41.8741 1645.81,-47.3132 1651.19,-51.7959"/>
</g>
<!-- &#45;38 -->
<g id="node38" class="node"><title>&#45;38</title>
<polygon fill="lightgray" stroke="black" points="1717,-111.983 1688,-111.983 1688,-93.9828 1717,-93.9828 1717,-111.983"/>
<text text-anchor="middle" x="1702.5" y="-100.783" font-family="Times New Roman,serif" font-size="9.00">&#45;38</text>
</g>
<!-- &#45;38&#45;&gt;3 -->
<g id="edge19" class="edge"><title>&#45;38&#45;&gt;3</title>
<path fill="none" stroke="green" stroke-width="0.114952" d="M1687.57,-96.1192C1684.92,-95.2707 1682.15,-94.508 1679.5,-93.9828 1539.33,-66.2425 1173.05,-103.194 1037.5,-57.9828 1029.5,-55.3142 1021.58,-50.6954 1014.81,-45.9702"/>
<polygon fill="green" stroke="green" stroke-width="0.114952" points="1016.48,-42.8506 1006.39,-39.6338 1012.27,-48.4436 1016.48,-42.8506"/>
</g>
<!-- &#45;38&#45;&gt;4 -->
<g id="edge135" class="edge"><title>&#45;38&#45;&gt;4</title>
<path fill="none" stroke="red" stroke-width="0.214718" d="M1687.93,-96.8244C1685.14,-95.8618 1682.23,-94.8778 1679.5,-93.9828 1678.37,-93.6123 1550.07,-54.1553 1495.56,-37.3913"/>
<polygon fill="red" stroke="red" stroke-width="0.214718" points="1496.29,-33.9535 1485.7,-34.3594 1494.23,-40.6442 1496.29,-33.9535"/>
</g>
<!-- &#45;38&#45;&gt;5 -->
<g id="edge83" class="edge"><title>&#45;38&#45;&gt;5</title>
<path fill="none" stroke="green" stroke-width="0.253367" d="M1697.91,-93.7244C1692.21,-83.4616 1682.27,-65.566 1674.36,-51.3455"/>
<polygon fill="green" stroke="green" stroke-width="0.253367" points="1677.21,-49.2681 1669.3,-42.2267 1671.1,-52.6679 1677.21,-49.2681"/>
</g>
<!-- &#45;38&#45;&gt;6 -->
<g id="edge27" class="edge"><title>&#45;38&#45;&gt;6</title>
<path fill="none" stroke="red" stroke-width="0.567448" stroke-dasharray="1,5" d="M1687.55,-96.2245C1684.9,-95.3643 1682.14,-94.5705 1679.5,-93.9828 1563.17,-68.0969 1187.23,-39.2224 1086.52,-31.8043"/>
<polygon fill="red" stroke="red" stroke-width="0.567448" points="1086.61,-28.3016 1076.38,-31.0618 1086.1,-35.2829 1086.61,-28.3016"/>
</g>
<!-- &#45;39 -->
<g id="node39" class="node"><title>&#45;39</title>
<polygon fill="lightgray" stroke="black" points="542,-111.983 513,-111.983 513,-93.9828 542,-93.9828 542,-111.983"/>
<text text-anchor="middle" x="527.5" y="-100.783" font-family="Times New Roman,serif" font-size="9.00">&#45;39</text>
</g>
<!-- &#45;39&#45;&gt;output -->
<g id="edge24" class="edge"><title>&#45;39&#45;&gt;output</title>
<path fill="none" stroke="red" stroke-width="0.518802" d="M542.051,-96.4023C545.129,-95.4291 548.389,-94.5487 551.5,-93.9828 964.582,-18.8426 1080.31,-120.444 1495.5,-57.9828 1518.48,-54.5254 1543.66,-47.9138 1563.6,-41.9843"/>
<polygon fill="red" stroke="red" stroke-width="0.518802" points="1564.67,-45.3161 1573.22,-39.0558 1562.63,-38.6194 1564.67,-45.3161"/>
</g>
<!-- &#45;39&#45;&gt;1 -->
<g id="edge62" class="edge"><title>&#45;39&#45;&gt;1</title>
<path fill="none" stroke="red" stroke-width="0.455637" d="M542.141,-96.8015C545.213,-95.7994 548.447,-94.8063 551.5,-93.9828 627.326,-73.5304 652.79,-90.0082 724.5,-57.9828 731.336,-54.9296 738.134,-50.4899 744.049,-46.0424"/>
<polygon fill="red" stroke="red" stroke-width="0.455637" points="746.372,-48.6662 751.986,-39.6813 741.994,-43.2039 746.372,-48.6662"/>
</g>
<!-- &#45;39&#45;&gt;2 -->
<g id="edge86" class="edge"><title>&#45;39&#45;&gt;2</title>
<path fill="none" stroke="red" stroke-width="0.138866" d="M542.082,-95.21C569.264,-82.585 627.834,-55.3815 660.079,-40.4051"/>
<polygon fill="red" stroke="red" stroke-width="0.138866" points="661.582,-43.5662 669.177,-36.1794 658.633,-37.2176 661.582,-43.5662"/>
</g>
<!-- &#45;39&#45;&gt;3 -->
<g id="edge17" class="edge"><title>&#45;39&#45;&gt;3</title>
<path fill="none" stroke="red" stroke-width="0.198949" d="M542.103,-96.6542C545.178,-95.6627 548.423,-94.7112 551.5,-93.9828 592.653,-84.2408 883.612,-44.9623 970.842,-33.2827"/>
<polygon fill="red" stroke="red" stroke-width="0.198949" points="971.433,-36.7349 980.881,-31.9401 970.505,-29.7967 971.433,-36.7349"/>
</g>
<!-- &#45;40 -->
<g id="node40" class="node"><title>&#45;40</title>
<polygon fill="lightgray" stroke="black" points="730,-111.983 701,-111.983 701,-93.9828 730,-93.9828 730,-111.983"/>
<text text-anchor="middle" x="715.5" y="-100.783" font-family="Times New Roman,serif" font-size="9.00">&#45;40</text>
</g>
<!-- &#45;40&#45;&gt;1 -->
<g id="edge126" class="edge"><title>&#45;40&#45;&gt;1</title>
<path fill="none" stroke="red" stroke-width="0.157223" d="M720.891,-93.7244C727.696,-83.3023 739.639,-65.0087 748.989,-50.6861"/>
<polygon fill="red" stroke="red" stroke-width="0.157223" points="752.144,-52.2571 754.68,-41.9702 746.282,-48.4304 752.144,-52.2571"/>
</g>
<!-- &#45;40&#45;&gt;6 -->
<g id="edge122" class="edge"><title>&#45;40&#45;&gt;6</title>
<path fill="none" stroke="green" stroke-width="0.173015" stroke-dasharray="1,5" d="M730.091,-96.5995C733.166,-95.612 736.415,-94.6759 739.5,-93.9828 869.663,-64.7409 919.861,-120.9 1037.5,-57.9828 1041.2,-56.0016 1044.59,-53.1967 1047.57,-50.1206"/>
<polygon fill="green" stroke="green" stroke-width="0.173015" points="1050.42,-52.162 1054.11,-42.2301 1045.03,-47.6938 1050.42,-52.162"/>
</g>
<!-- &#45;41 -->
<g id="node41" class="node"><title>&#45;41</title>
<polygon fill="lightgray" stroke="black" points="2131,-111.983 2102,-111.983 2102,-93.9828 2131,-93.9828 2131,-111.983"/>
<text text-anchor="middle" x="2116.5" y="-100.783" font-family="Times New Roman,serif" font-size="9.00">&#45;41</text>
</g>
<!-- &#45;41&#45;&gt;output -->
<g id="edge26" class="edge"><title>&#45;41&#45;&gt;output</title>
<path fill="none" stroke="red" stroke-width="0.199554" d="M2101.56,-96.1705C2098.91,-95.3163 2096.15,-94.5384 2093.5,-93.9828 1894.97,-52.3216 1828.57,-128.858 1638.5,-57.9828 1635.76,-56.9629 1633.06,-55.6848 1630.42,-54.2401"/>
<polygon fill="red" stroke="red" stroke-width="0.199554" points="1632.12,-51.1749 1621.79,-48.8195 1628.39,-57.1025 1632.12,-51.1749"/>
</g>
<!-- &#45;41&#45;&gt;4 -->
<g id="edge144" class="edge"><title>&#45;41&#45;&gt;4</title>
<path fill="none" stroke="red" stroke-width="0.209402" d="M2101.57,-96.1453C2098.91,-95.2939 2096.15,-94.5235 2093.5,-93.9828 1861.73,-46.7075 1795.09,-101.041 1562.5,-57.9828 1538.89,-53.6111 1512.76,-45.1853 1494.59,-38.7154"/>
<polygon fill="red" stroke="red" stroke-width="0.209402" points="1495.72,-35.4038 1485.13,-35.2691 1493.33,-41.9809 1495.72,-35.4038"/>
</g>
<!-- &#45;41&#45;&gt;5 -->
<g id="edge155" class="edge"><title>&#45;41&#45;&gt;5</title>
<path fill="none" stroke="red" stroke-width="0.421012" stroke-dasharray="1,5" d="M2101.53,-96.3228C2098.88,-95.4517 2096.13,-94.6287 2093.5,-93.9828 1941.77,-56.6803 1754.31,-37.9143 1687.55,-32.0564"/>
<polygon fill="red" stroke="red" stroke-width="0.421012" points="1687.47,-28.5366 1677.2,-31.1682 1686.87,-35.5109 1687.47,-28.5366"/>
</g>
<!-- &#45;41&#45;&gt;6 -->
<g id="edge53" class="edge"><title>&#45;41&#45;&gt;6</title>
<path fill="none" stroke="red" stroke-width="0.189256" stroke-dasharray="1,5" d="M2101.57,-96.1184C2098.92,-95.27 2096.15,-94.5076 2093.5,-93.9828 1811.4,-38.2065 1734.47,-76.3824 1447.5,-57.9828 1311.15,-49.2406 1147.87,-36.7258 1086.47,-31.9474"/>
<polygon fill="red" stroke="red" stroke-width="0.189256" points="1086.46,-28.4362 1076.22,-31.1478 1085.92,-35.415 1086.46,-28.4362"/>
</g>
<!-- &#45;42 -->
<g id="node42" class="node"><title>&#45;42</title>
<polygon fill="lightgray" stroke="black" points="1990,-111.983 1961,-111.983 1961,-93.9828 1990,-93.9828 1990,-111.983"/>
<text text-anchor="middle" x="1975.5" y="-100.783" font-family="Times New Roman,serif" font-size="9.00">&#45;42</text>
</g>
<!-- &#45;42&#45;&gt;output -->
<g id="edge104" class="edge"><title>&#45;42&#45;&gt;output</title>
<path fill="none" stroke="red" stroke-width="0.327299" stroke-dasharray="1,5" d="M1960.91,-96.5858C1957.84,-95.5993 1954.59,-94.6671 1951.5,-93.9828 1814.79,-63.6798 1768.81,-109.232 1638.5,-57.9828 1635.78,-56.9144 1633.09,-55.6013 1630.46,-54.1323"/>
<polygon fill="red" stroke="red" stroke-width="0.327299" points="1632.16,-51.07 1621.85,-48.6662 1628.41,-56.9801 1632.16,-51.07"/>
</g>
<!-- &#45;42&#45;&gt;1 -->
<g id="edge20" class="edge"><title>&#45;42&#45;&gt;1</title>
<path fill="none" stroke="red" stroke-width="0.361265" d="M1960.95,-96.399C1957.87,-95.426 1954.61,-94.5465 1951.5,-93.9828 1522.63,-16.2812 1405.78,-94.9541 971.5,-57.9828 904.483,-52.2774 826.01,-40.3438 787.044,-34.0605"/>
<polygon fill="red" stroke="red" stroke-width="0.361265" points="787.576,-30.6011 777.143,-32.448 786.45,-37.51 787.576,-30.6011"/>
</g>
<!-- &#45;42&#45;&gt;5 -->
<g id="edge73" class="edge"><title>&#45;42&#45;&gt;5</title>
<path fill="none" stroke="green" stroke-width="0.333268" stroke-dasharray="1,5" d="M1960.85,-96.8317C1957.78,-95.8273 1954.55,-94.8257 1951.5,-93.9828 1854.6,-67.1823 1737.02,-43.971 1686.96,-34.5159"/>
<polygon fill="green" stroke="green" stroke-width="0.333268" points="1687.54,-31.0638 1677.07,-32.6608 1686.25,-37.9439 1687.54,-31.0638"/>
</g>
<!-- &#45;43 -->
<g id="node43" class="node"><title>&#45;43</title>
<polygon fill="lightgray" stroke="black" points="495,-111.983 466,-111.983 466,-93.9828 495,-93.9828 495,-111.983"/>
<text text-anchor="middle" x="480.5" y="-100.783" font-family="Times New Roman,serif" font-size="9.00">&#45;43</text>
</g>
<!-- &#45;43&#45;&gt;2 -->
<g id="edge33" class="edge"><title>&#45;43&#45;&gt;2</title>
<path fill="none" stroke="green" stroke-width="0.129568" stroke-dasharray="1,5" d="M495.027,-96.8053C529.626,-84.4746 617.146,-53.2831 659.216,-38.2895"/>
<polygon fill="green" stroke="green" stroke-width="0.129568" points="660.396,-41.5848 668.641,-34.9308 658.046,-34.9911 660.396,-41.5848"/>
</g>
<!-- &#45;43&#45;&gt;4 -->
<g id="edge3" class="edge"><title>&#45;43&#45;&gt;4</title>
<path fill="none" stroke="red" stroke-width="0.272332" stroke-dasharray="1,5" d="M495.062,-96.4596C498.139,-95.4822 501.396,-94.5856 504.5,-93.9828 758.472,-44.6602 827.365,-75.3391 1085.5,-57.9828 1221.82,-48.817 1385.12,-36.5516 1446.53,-31.8936"/>
<polygon fill="red" stroke="red" stroke-width="0.272332" points="1447.07,-35.3624 1456.78,-31.1149 1446.54,-28.3825 1447.07,-35.3624"/>
</g>
<!-- &#45;44 -->
<g id="node44" class="node"><title>&#45;44</title>
<polygon fill="lightgray" stroke="black" points="2311,-111.983 2282,-111.983 2282,-93.9828 2311,-93.9828 2311,-111.983"/>
<text text-anchor="middle" x="2296.5" y="-100.783" font-family="Times New Roman,serif" font-size="9.00">&#45;44</text>
</g>
<!-- &#45;44&#45;&gt;output -->
<g id="edge58" class="edge"><title>&#45;44&#45;&gt;output</title>
<path fill="none" stroke="red" stroke-width="0.139529" d="M2281.94,-96.4471C2278.86,-95.4707 2275.61,-94.5776 2272.5,-93.9828 2133.9,-67.4377 1771.26,-105.814 1638.5,-57.9828 1635.75,-56.9933 1633.04,-55.7372 1630.39,-54.3078"/>
<polygon fill="red" stroke="red" stroke-width="0.139529" points="1632.09,-51.241 1621.75,-48.9159 1628.38,-57.1795 1632.09,-51.241"/>
</g>
<!-- &#45;45 -->
<g id="node45" class="node"><title>&#45;45</title>
<polygon fill="lightgray" stroke="black" points="1255,-111.983 1226,-111.983 1226,-93.9828 1255,-93.9828 1255,-111.983"/>
<text text-anchor="middle" x="1240.5" y="-100.783" font-family="Times New Roman,serif" font-size="9.00">&#45;45</text>
</g>
<!-- &#45;45&#45;&gt;output -->
<g id="edge63" class="edge"><title>&#45;45&#45;&gt;output</title>
<path fill="none" stroke="green" stroke-width="0.316038" stroke-dasharray="1,5" d="M1255.11,-96.6815C1258.18,-95.6881 1261.43,-94.7288 1264.5,-93.9828 1365.47,-69.4682 1393.82,-79.3953 1495.5,-57.9828 1518.08,-53.2267 1543.06,-46.6243 1562.99,-41.0262"/>
<polygon fill="green" stroke="green" stroke-width="0.316038" points="1563.96,-44.3895 1572.62,-38.2885 1562.04,-37.6562 1563.96,-44.3895"/>
</g>
<!-- &#45;45&#45;&gt;1 -->
<g id="edge96" class="edge"><title>&#45;45&#45;&gt;1</title>
<path fill="none" stroke="red" stroke-width="0.107986" stroke-dasharray="1,5" d="M1225.53,-96.3058C1222.88,-95.4366 1220.13,-94.6186 1217.5,-93.9828 1196.29,-88.8542 878.808,-45.7264 787.12,-33.3184"/>
<polygon fill="red" stroke="red" stroke-width="0.107986" points="787.472,-29.8342 777.093,-31.9622 786.534,-36.7711 787.472,-29.8342"/>
</g>
<!-- &#45;45&#45;&gt;2 -->
<g id="edge30" class="edge"><title>&#45;45&#45;&gt;2</title>
<path fill="none" stroke="red" stroke-width="0.347949" d="M1225.56,-96.1617C1222.91,-95.3085 1220.15,-94.5332 1217.5,-93.9828 1008.48,-50.5492 944.296,-114.777 738.5,-57.9828 726.431,-54.6521 713.886,-48.6517 703.736,-43.0584"/>
<polygon fill="red" stroke="red" stroke-width="0.347949" points="705.243,-39.8872 694.832,-37.9208 701.744,-45.9503 705.243,-39.8872"/>
</g>
<!-- &#45;45&#45;&gt;3 -->
<g id="edge114" class="edge"><title>&#45;45&#45;&gt;3</title>
<path fill="none" stroke="red" stroke-width="0.350627" d="M1225.99,-96.5992C1223.2,-95.6574 1220.27,-94.7387 1217.5,-93.9828 1138.79,-72.5311 1112.88,-89.1984 1037.5,-57.9828 1029.71,-54.7557 1021.84,-49.9985 1015.05,-45.3178"/>
<polygon fill="red" stroke="red" stroke-width="0.350627" points="1016.72,-42.2002 1006.57,-39.1334 1012.59,-47.855 1016.72,-42.2002"/>
</g>
<!-- &#45;45&#45;&gt;4 -->
<g id="edge168" class="edge"><title>&#45;45&#45;&gt;4</title>
<path fill="none" stroke="green" stroke-width="0.64077" stroke-dasharray="1,5" d="M1255.21,-97.024C1258.27,-96.0057 1261.49,-94.9498 1264.5,-93.9828 1330.63,-72.7435 1409.05,-48.8533 1447.63,-37.185"/>
<polygon fill="green" stroke="green" stroke-width="0.64077" points="1448.85,-40.4723 1457.41,-34.2304 1446.83,-33.7713 1448.85,-40.4723"/>
</g>
<!-- &#45;45&#45;&gt;5 -->
<g id="edge14" class="edge"><title>&#45;45&#45;&gt;5</title>
<path fill="none" stroke="red" stroke-width="0.329546" d="M1255.08,-96.5414C1258.15,-95.5581 1261.41,-94.6384 1264.5,-93.9828 1346.18,-76.6708 1564.4,-96.4643 1638.5,-57.9828 1642.4,-55.9581 1645.93,-53.0075 1649.01,-49.7729"/>
<polygon fill="red" stroke="red" stroke-width="0.329546" points="1651.74,-51.971 1655.35,-42.0119 1646.32,-47.5429 1651.74,-51.971"/>
</g>
<!-- &#45;46 -->
<g id="node46" class="node"><title>&#45;46</title>
<polygon fill="lightgray" stroke="black" points="1670,-111.983 1641,-111.983 1641,-93.9828 1670,-93.9828 1670,-111.983"/>
<text text-anchor="middle" x="1655.5" y="-100.783" font-family="Times New Roman,serif" font-size="9.00">&#45;46</text>
</g>
<!-- &#45;46&#45;&gt;output -->
<g id="edge134" class="edge"><title>&#45;46&#45;&gt;output</title>
<path fill="none" stroke="green" stroke-width="0.210643" d="M1649.19,-93.7244C1643,-85.6222 1633.18,-72.7627 1623.97,-60.71"/>
<polygon fill="green" stroke="green" stroke-width="0.210643" points="1626.6,-58.3847 1617.74,-52.5631 1621.03,-62.6343 1626.6,-58.3847"/>
</g>
<!-- &#45;46&#45;&gt;2 -->
<g id="edge89" class="edge"><title>&#45;46&#45;&gt;2</title>
<path fill="none" stroke="red" stroke-width="0.100423" d="M1640.58,-96.0838C1637.92,-95.2393 1635.16,-94.4871 1632.5,-93.9828 1437.16,-56.9222 931.054,-107.537 738.5,-57.9828 726.375,-54.8624 713.824,-48.8831 703.685,-43.2493"/>
<polygon fill="red" stroke="red" stroke-width="0.100423" points="705.196,-40.0786 694.796,-38.0582 701.666,-46.1234 705.196,-40.0786"/>
</g>
<!-- &#45;46&#45;&gt;3 -->
<g id="edge35" class="edge"><title>&#45;46&#45;&gt;3</title>
<path fill="none" stroke="red" stroke-width="0.223206" stroke-dasharray="1,5" d="M1640.57,-96.129C1637.92,-95.2795 1635.15,-94.5139 1632.5,-93.9828 1372.73,-41.9772 1288.63,-142.362 1037.5,-57.9828 1029.51,-55.2965 1021.59,-50.6734 1014.81,-45.9495"/>
<polygon fill="red" stroke="red" stroke-width="0.223206" points="1016.49,-42.8301 1006.39,-39.6179 1012.28,-48.4251 1016.49,-42.8301"/>
</g>
<!-- &#45;46&#45;&gt;4 -->
<g id="edge46" class="edge"><title>&#45;46&#45;&gt;4</title>
<path fill="none" stroke="red" stroke-width="0.137928" d="M1640.75,-96.2131C1608.81,-83.7166 1533.03,-54.0673 1494.64,-39.0468"/>
<polygon fill="red" stroke="red" stroke-width="0.137928" points="1495.89,-35.7775 1485.31,-35.3932 1493.34,-42.2963 1495.89,-35.7775"/>
</g>
<!-- &#45;46&#45;&gt;5 -->
<g id="edge173" class="edge"><title>&#45;46&#45;&gt;5</title>
<path fill="none" stroke="red" stroke-width="0.462091" stroke-dasharray="1,5" d="M1656.3,-93.7244C1657.24,-84.1074 1658.82,-67.7878 1660.16,-54.0707"/>
<polygon fill="red" stroke="red" stroke-width="0.462091" points="1663.67,-54.0973 1661.16,-43.8055 1656.71,-53.4198 1663.67,-54.0973"/>
</g>
<!-- &#45;47 -->
<g id="node47" class="node"><title>&#45;47</title>
<polygon fill="lightgray" stroke="black" points="1811,-111.983 1782,-111.983 1782,-93.9828 1811,-93.9828 1811,-111.983"/>
<text text-anchor="middle" x="1796.5" y="-100.783" font-family="Times New Roman,serif" font-size="9.00">&#45;47</text>
</g>
<!-- &#45;47&#45;&gt;output -->
<g id="edge167" class="edge"><title>&#45;47&#45;&gt;output</title>
<path fill="none" stroke="red" stroke-width="0.519871" stroke-dasharray="1,5" d="M1781.95,-96.7404C1779.16,-95.7856 1776.25,-94.8259 1773.5,-93.9828 1714.13,-75.7702 1694.48,-84.8663 1638.5,-57.9828 1636.02,-56.7933 1633.54,-55.4352 1631.1,-53.973"/>
<polygon fill="red" stroke="red" stroke-width="0.519871" points="1632.8,-50.9013 1622.52,-48.3379 1628.96,-56.7526 1632.8,-50.9013"/>
</g>
<!-- &#45;47&#45;&gt;3 -->
<g id="edge80" class="edge"><title>&#45;47&#45;&gt;3</title>
<path fill="none" stroke="red" stroke-width="0.317276" stroke-dasharray="1,5" d="M1781.58,-96.1032C1778.92,-95.2565 1776.16,-94.4986 1773.5,-93.9828 1612.75,-62.7666 1193.02,-109.24 1037.5,-57.9828 1029.49,-55.3428 1021.57,-50.7311 1014.8,-46.0036"/>
<polygon fill="red" stroke="red" stroke-width="0.317276" points="1016.47,-42.8836 1006.38,-39.6594 1012.26,-48.4735 1016.47,-42.8836"/>
</g>
<!-- &#45;47&#45;&gt;4 -->
<g id="edge171" class="edge"><title>&#45;47&#45;&gt;4</title>
<path fill="none" stroke="red" stroke-width="0.148807" d="M1781.52,-96.3706C1778.87,-95.4942 1776.12,-94.657 1773.5,-93.9828 1681.37,-70.2748 1655.05,-80.0136 1562.5,-57.9828 1539.14,-52.4212 1512.98,-44.1562 1494.73,-38.0478"/>
<polygon fill="red" stroke="red" stroke-width="0.148807" points="1495.82,-34.7211 1485.22,-34.8223 1493.57,-41.3499 1495.82,-34.7211"/>
</g>
<!-- &#45;48 -->
<g id="node48" class="node"><title>&#45;48</title>
<polygon fill="lightgray" stroke="black" points="1302,-111.983 1273,-111.983 1273,-93.9828 1302,-93.9828 1302,-111.983"/>
<text text-anchor="middle" x="1287.5" y="-100.783" font-family="Times New Roman,serif" font-size="9.00">&#45;48</text>
</g>
<!-- &#45;48&#45;&gt;output -->
<g id="edge121" class="edge"><title>&#45;48&#45;&gt;output</title>
<path fill="none" stroke="green" stroke-width="0.251833" stroke-dasharray="1,5" d="M1302.13,-96.7732C1305.21,-95.7731 1308.44,-94.788 1311.5,-93.9828 1392.08,-72.7636 1414.31,-76.7256 1495.5,-57.9828 1517.99,-52.7917 1542.96,-46.17 1562.91,-40.6703"/>
<polygon fill="green" stroke="green" stroke-width="0.251833" points="1563.85,-44.0403 1572.55,-37.9912 1561.98,-37.2957 1563.85,-44.0403"/>
</g>
<!-- &#45;48&#45;&gt;1 -->
<g id="edge5" class="edge"><title>&#45;48&#45;&gt;1</title>
<path fill="none" stroke="green" stroke-width="0.18398" stroke-dasharray="1,5" d="M1272.54,-96.267C1269.89,-95.4021 1267.14,-94.5956 1264.5,-93.9828 1136.71,-64.264 1101.63,-74.6912 971.5,-57.9828 904.788,-49.4173 826.183,-38.7289 787.117,-33.3766"/>
<polygon fill="green" stroke="green" stroke-width="0.18398" points="787.572,-29.9064 777.189,-32.0147 786.621,-36.8414 787.572,-29.9064"/>
</g>
<!-- &#45;48&#45;&gt;2 -->
<g id="edge68" class="edge"><title>&#45;48&#45;&gt;2</title>
<path fill="none" stroke="red" stroke-width="0.413984" stroke-dasharray="1,5" d="M1272.57,-96.1467C1269.91,-95.2952 1267.15,-94.5244 1264.5,-93.9828 1034.92,-47.077 964.588,-119.565 738.5,-57.9828 726.42,-54.6925 713.874,-48.6961 703.726,-43.095"/>
<polygon fill="red" stroke="red" stroke-width="0.413984" points="705.234,-39.924 694.825,-37.9472 701.729,-45.9835 705.234,-39.924"/>
</g>
<!-- &#45;48&#45;&gt;4 -->
<g id="edge116" class="edge"><title>&#45;48&#45;&gt;4</title>
<path fill="none" stroke="red" stroke-width="0.268649" d="M1302.25,-96.2131C1334.19,-83.7166 1409.97,-54.0673 1448.36,-39.0468"/>
<polygon fill="red" stroke="red" stroke-width="0.268649" points="1449.66,-42.2963 1457.69,-35.3932 1447.11,-35.7775 1449.66,-42.2963"/>
</g>
<!-- &#45;48&#45;&gt;5 -->
<g id="edge151" class="edge"><title>&#45;48&#45;&gt;5</title>
<path fill="none" stroke="green" stroke-width="0.510798" d="M1302.09,-96.5742C1305.16,-95.5885 1308.41,-94.6596 1311.5,-93.9828 1454.32,-62.6889 1509.21,-126.256 1638.5,-57.9828 1642.21,-56.0212 1645.6,-53.2259 1648.59,-50.1532"/>
<polygon fill="green" stroke="green" stroke-width="0.510798" points="1651.44,-52.1932 1655.13,-42.2605 1646.05,-47.7261 1651.44,-52.1932"/>
</g>
<!-- &#45;48&#45;&gt;6 -->
<g id="edge82" class="edge"><title>&#45;48&#45;&gt;6</title>
<path fill="none" stroke="red" stroke-width="0.218581" d="M1272.92,-96.8396C1270.13,-95.8757 1267.23,-94.8872 1264.5,-93.9828 1200.06,-72.6229 1123.55,-48.9623 1085.49,-37.3052"/>
<polygon fill="red" stroke="red" stroke-width="0.218581" points="1086.41,-33.9245 1075.82,-34.3475 1084.36,-40.6186 1086.41,-33.9245"/>
</g>
<!-- &#45;49 -->
<g id="node49" class="node"><title>&#45;49</title>
<polygon fill="lightgray" stroke="black" points="264,-111.983 235,-111.983 235,-93.9828 264,-93.9828 264,-111.983"/>
<text text-anchor="middle" x="249.5" y="-100.783" font-family="Times New Roman,serif" font-size="9.00">&#45;49</text>
</g>
<!-- &#45;49&#45;&gt;2 -->
<g id="edge56" class="edge"><title>&#45;49&#45;&gt;2</title>
<path fill="none" stroke="red" stroke-width="0.353107" d="M264.476,-96.3393C267.125,-95.4663 269.875,-94.6385 272.5,-93.9828 416.207,-58.0859 593.547,-38.5726 657.798,-32.2812"/>
<polygon fill="red" stroke="red" stroke-width="0.353107" points="658.165,-35.7621 667.785,-31.3214 657.496,-28.7942 658.165,-35.7621"/>
</g>
<!-- &#45;49&#45;&gt;3 -->
<g id="edge169" class="edge"><title>&#45;49&#45;&gt;3</title>
<path fill="none" stroke="green" stroke-width="0.61313" stroke-dasharray="1,5" d="M264.433,-96.1503C267.087,-95.2983 269.849,-94.5265 272.5,-93.9828 496.833,-47.9637 558.675,-81.1939 786.5,-57.9828 853.414,-51.1655 931.931,-39.716 970.931,-33.7946"/>
<polygon fill="green" stroke="green" stroke-width="0.61313" points="971.485,-37.2507 980.841,-32.2795 970.427,-30.3311 971.485,-37.2507"/>
</g>
<!-- &#45;50 -->
<g id="node50" class="node"><title>&#45;50</title>
<polygon fill="lightgray" stroke="black" points="1161,-111.983 1132,-111.983 1132,-93.9828 1161,-93.9828 1161,-111.983"/>
<text text-anchor="middle" x="1146.5" y="-100.783" font-family="Times New Roman,serif" font-size="9.00">&#45;50</text>
</g>
<!-- &#45;50&#45;&gt;output -->
<g id="edge153" class="edge"><title>&#45;50&#45;&gt;output</title>
<path fill="none" stroke="red" stroke-width="0.294142" d="M1161.09,-96.5758C1164.16,-95.59 1167.41,-94.6606 1170.5,-93.9828 1312.45,-62.8305 1352.66,-84.7757 1495.5,-57.9828 1518.18,-53.7279 1543.16,-47.1477 1563.07,-41.436"/>
<polygon fill="red" stroke="red" stroke-width="0.294142" points="1564.07,-44.791 1572.69,-38.6309 1562.11,-38.071 1564.07,-44.791"/>
</g>
<!-- &#45;50&#45;&gt;2 -->
<g id="edge6" class="edge"><title>&#45;50&#45;&gt;2</title>
<path fill="none" stroke="red" stroke-width="0.261658" stroke-dasharray="1,5" d="M1131.56,-96.2024C1128.9,-95.3446 1126.14,-94.5573 1123.5,-93.9828 955.562,-57.4876 903.741,-105.209 738.5,-57.9828 726.462,-54.5423 713.92,-48.5309 703.764,-42.9587"/>
<polygon fill="red" stroke="red" stroke-width="0.261658" points="705.268,-39.787 694.852,-37.8491 701.787,-45.8596 705.268,-39.787"/>
</g>
<!-- &#45;50&#45;&gt;3 -->
<g id="edge78" class="edge"><title>&#45;50&#45;&gt;3</title>
<path fill="none" stroke="green" stroke-width="0.141372" stroke-dasharray="1,5" d="M1131.92,-96.5219C1106.38,-86.887 1054.64,-67.0342 1037.5,-57.9828 1030.15,-54.1013 1022.48,-49.2522 1015.73,-44.6859"/>
<polygon fill="green" stroke="green" stroke-width="0.141372" points="1017.43,-41.6036 1007.23,-38.7517 1013.43,-47.3443 1017.43,-41.6036"/>
</g>
<!-- &#45;50&#45;&gt;4 -->
<g id="edge132" class="edge"><title>&#45;50&#45;&gt;4</title>
<path fill="none" stroke="red" stroke-width="0.139865" stroke-dasharray="1,5" d="M1161.14,-96.8117C1164.22,-95.8088 1167.45,-94.8129 1170.5,-93.9828 1272.05,-66.3569 1395.54,-43.3566 1447.08,-34.2208"/>
<polygon fill="red" stroke="red" stroke-width="0.139865" points="1447.71,-37.664 1456.95,-32.4851 1446.5,-30.7698 1447.71,-37.664"/>
</g>
<!-- &#45;51 -->
<g id="node51" class="node"><title>&#45;51</title>
<polygon fill="lightgray" stroke="black" points="123,-111.983 94,-111.983 94,-93.9828 123,-93.9828 123,-111.983"/>
<text text-anchor="middle" x="108.5" y="-100.783" font-family="Times New Roman,serif" font-size="9.00">&#45;51</text>
</g>
<!-- &#45;51&#45;&gt;2 -->
<g id="edge124" class="edge"><title>&#45;51&#45;&gt;2</title>
<path fill="none" stroke="green" stroke-width="0.31218" d="M123.456,-96.2522C126.106,-95.389 128.863,-94.5869 131.5,-93.9828 330.574,-48.3825 577.944,-34.4189 656.979,-30.9693"/>
<polygon fill="green" stroke="green" stroke-width="0.31218" points="657.548,-34.4487 667.393,-30.5342 657.256,-27.4548 657.548,-34.4487"/>
</g>
<!-- &#45;51&#45;&gt;3 -->
<g id="edge137" class="edge"><title>&#45;51&#45;&gt;3</title>
<path fill="none" stroke="red" stroke-width="0.278638" d="M123.427,-96.1167C126.081,-95.2685 128.845,-94.5066 131.5,-93.9828 417.535,-37.541 496.237,-85.3546 786.5,-57.9828 853.463,-51.6681 931.959,-39.9999 970.943,-33.9148"/>
<polygon fill="red" stroke="red" stroke-width="0.278638" points="971.514,-37.3681 980.849,-32.3557 970.426,-30.4532 971.514,-37.3681"/>
</g>
<!-- &#45;52 -->
<g id="node52" class="node"><title>&#45;52</title>
<polygon fill="lightgray" stroke="black" points="1020,-111.983 991,-111.983 991,-93.9828 1020,-93.9828 1020,-111.983"/>
<text text-anchor="middle" x="1005.5" y="-100.783" font-family="Times New Roman,serif" font-size="9.00">&#45;52</text>
</g>
<!-- &#45;52&#45;&gt;1 -->
<g id="edge29" class="edge"><title>&#45;52&#45;&gt;1</title>
<path fill="none" stroke="red" stroke-width="0.190289" d="M990.937,-96.7903C988.145,-95.8309 985.239,-94.8567 982.5,-93.9828 911.71,-71.3928 827.087,-47.697 786.513,-36.538"/>
<polygon fill="red" stroke="red" stroke-width="0.190289" points="787.302,-33.1252 776.733,-33.8565 785.452,-39.8761 787.302,-33.1252"/>
</g>
<!-- &#45;52&#45;&gt;3 -->
<g id="edge101" class="edge"><title>&#45;52&#45;&gt;3</title>
<path fill="none" stroke="red" stroke-width="0.133004" d="M1004.35,-93.7244C1003.02,-84.1074 1000.75,-67.7878 998.845,-54.0707"/>
<polygon fill="red" stroke="red" stroke-width="0.133004" points="1002.26,-53.2288 997.419,-43.8055 995.328,-54.192 1002.26,-53.2288"/>
</g>
<!-- &#45;52&#45;&gt;4 -->
<g id="edge70" class="edge"><title>&#45;52&#45;&gt;4</title>
<path fill="none" stroke="red" stroke-width="0.228087" stroke-dasharray="1,5" d="M1020.1,-96.6557C1023.18,-95.6641 1026.42,-94.7122 1029.5,-93.9828 1185.65,-56.9646 1378.23,-37.9752 1446.26,-32.06"/>
<polygon fill="red" stroke="red" stroke-width="0.228087" points="1446.77,-35.5294 1456.44,-31.1928 1446.18,-28.5547 1446.77,-35.5294"/>
</g>
<!-- &#45;52&#45;&gt;6 -->
<g id="edge174" class="edge"><title>&#45;52&#45;&gt;6</title>
<path fill="none" stroke="red" stroke-width="0.185392" d="M1011.92,-93.7244C1020.33,-82.9186 1035.32,-63.6508 1046.62,-49.1207"/>
<polygon fill="red" stroke="red" stroke-width="0.185392" points="1049.39,-51.255 1052.77,-41.2129 1043.87,-46.9571 1049.39,-51.255"/>
</g>
<!-- &#45;53 -->
<g id="node53" class="node"><title>&#45;53</title>
<polygon fill="lightgray" stroke="black" points="170,-111.983 141,-111.983 141,-93.9828 170,-93.9828 170,-111.983"/>
<text text-anchor="middle" x="155.5" y="-100.783" font-family="Times New Roman,serif" font-size="9.00">&#45;53</text>
</g>
<!-- &#45;53&#45;&gt;2 -->
<g id="edge64" class="edge"><title>&#45;53&#45;&gt;2</title>
<path fill="none" stroke="green" stroke-width="0.338427" stroke-dasharray="1,5" d="M170.461,-96.276C173.111,-95.4101 175.866,-94.601 178.5,-93.9828 359.005,-51.6208 582.898,-35.6817 657.218,-31.335"/>
<polygon fill="green" stroke="green" stroke-width="0.338427" points="657.669,-34.8152 667.455,-30.7553 657.273,-27.8264 657.669,-34.8152"/>
</g>
<!-- &#45;53&#45;&gt;3 -->
<g id="edge38" class="edge"><title>&#45;53&#45;&gt;3</title>
<path fill="none" stroke="red" stroke-width="0.109846" d="M170.429,-96.1262C173.082,-95.2769 175.847,-94.5122 178.5,-93.9828 443.963,-41.0162 517.055,-83.9672 786.5,-57.9828 853.449,-51.5264 931.951,-39.9198 970.94,-33.8809"/>
<polygon fill="red" stroke="red" stroke-width="0.109846" points="971.506,-37.335 980.847,-32.3342 970.426,-30.4188 971.506,-37.335"/>
</g>
<!-- 2&#45;&gt;2 -->
<g id="edge117" class="edge"><title>2&#45;&gt;2</title>
<path fill="none" stroke="red" stroke-width="0.210947" d="M693.267,-39.7195C703.789,-45.6456 715.349,-42.0695 715.349,-28.9914 715.349,-20.0002 709.885,-15.5002 703.051,-15.4914"/>
<polygon fill="red" stroke="red" stroke-width="0.210947" points="701.934,-12.17 693.267,-18.2632 703.842,-18.9049 701.934,-12.17"/>
</g>
<!-- 3&#45;&gt;3 -->
<g id="edge157" class="edge"><title>3&#45;&gt;3</title>
<path fill="none" stroke="green" stroke-width="0.10021" d="M1006.27,-39.7195C1016.79,-45.6456 1028.35,-42.0695 1028.35,-28.9914 1028.35,-20.0002 1022.89,-15.5002 1016.05,-15.4914"/>
<polygon fill="green" stroke="green" stroke-width="0.10021" points="1014.93,-12.17 1006.27,-18.2632 1016.84,-18.9049 1014.93,-12.17"/>
</g>
</g>
</svg>
