<?xml version="1.0" encoding="UTF-8" standalone="no"?>
<!DOCTYPE svg PUBLIC "-//W3C//DTD SVG 1.1//EN"
 "http://www.w3.org/Graphics/SVG/1.1/DTD/svg11.dtd">
<!-- Generated by graphviz version 2.38.0 (20140413.2041)
 -->
<!-- Title: %3 Pages: 1 -->
<svg width="2456pt" height="120pt"
 viewBox="0.00 0.00 2455.50 119.98" xmlns="http://www.w3.org/2000/svg" xmlns:xlink="http://www.w3.org/1999/xlink">
<g id="graph0" class="graph" transform="scale(1 1) rotate(0) translate(4 115.983)">
<title>%3</title>
<polygon fill="white" stroke="none" points="-4,4 -4,-115.983 2451.5,-115.983 2451.5,4 -4,4"/>
<!-- input -->
<g id="node1" class="node"><title>input</title>
<polygon fill="lightgray" stroke="black" points="964,-111.983 928,-111.983 928,-93.9828 964,-93.9828 964,-111.983"/>
<text text-anchor="middle" x="946" y="-100.783" font-family="Times New Roman,serif" font-size="9.00">input</text>
</g>
<!-- output -->
<g id="node54" class="node"><title>output</title>
<ellipse fill="lightblue" stroke="black" cx="994" cy="-28.9914" rx="28.9828" ry="28.9828"/>
<text text-anchor="middle" x="994" y="-26.7914" font-family="Times New Roman,serif" font-size="9.00">output</text>
</g>
<!-- input&#45;&gt;output -->
<g id="edge51" class="edge"><title>input&#45;&gt;output</title>
<path fill="none" stroke="red" stroke-width="0.119999" d="M951.506,-93.7244C956.738,-85.8784 964.943,-73.5713 972.755,-61.8557"/>
<polygon fill="red" stroke="red" stroke-width="0.119999" points="975.689,-63.7636 978.325,-53.5018 969.865,-59.8804 975.689,-63.7636"/>
</g>
<!-- 1 -->
<g id="node55" class="node"><title>1</title>
<ellipse fill="lightblue" stroke="black" cx="848" cy="-28.9914" rx="14.7" ry="14.7"/>
<text text-anchor="middle" x="848" y="-26.7914" font-family="Times New Roman,serif" font-size="9.00">1</text>
</g>
<!-- input&#45;&gt;1 -->
<g id="edge50" class="edge"><title>input&#45;&gt;1</title>
<path fill="none" stroke="red" stroke-width="0.237033" d="M934.758,-93.7244C918.466,-81.7563 888.044,-59.4082 867.904,-44.6131"/>
<polygon fill="red" stroke="red" stroke-width="0.237033" points="869.849,-41.6989 859.718,-38.5993 865.705,-47.3403 869.849,-41.6989"/>
</g>
<!-- 2 -->
<g id="node56" class="node"><title>2</title>
<ellipse fill="lightblue" stroke="black" cx="1271" cy="-28.9914" rx="14.7" ry="14.7"/>
<text text-anchor="middle" x="1271" y="-26.7914" font-family="Times New Roman,serif" font-size="9.00">2</text>
</g>
<!-- input&#45;&gt;2 -->
<g id="edge164" class="edge"><title>input&#45;&gt;2</title>
<path fill="none" stroke="green" stroke-width="0.312278" d="M964.247,-96.3703C967.165,-95.5326 970.158,-94.7079 973,-93.9828 1073.55,-68.3301 1194.93,-44.4274 1246.21,-34.6475"/>
<polygon fill="green" stroke="green" stroke-width="0.312278" points="1247.16,-38.03 1256.33,-32.7277 1245.86,-31.1527 1247.16,-38.03"/>
</g>
<!-- 3 -->
<g id="node57" class="node"><title>3</title>
<ellipse fill="lightblue" stroke="black" cx="613" cy="-28.9914" rx="14.7" ry="14.7"/>
<text text-anchor="middle" x="613" y="-26.7914" font-family="Times New Roman,serif" font-size="9.00">3</text>
</g>
<!-- input&#45;&gt;3 -->
<g id="edge185" class="edge"><title>input&#45;&gt;3</title>
<path fill="none" stroke="red" stroke-width="0.858926" d="M927.756,-96.3569C924.838,-95.5209 921.844,-94.7002 919,-93.9828 815.088,-67.7701 689.428,-43.9239 637.388,-34.3881"/>
<polygon fill="red" stroke="red" stroke-width="0.858926" points="637.9,-30.9239 627.435,-32.5747 636.645,-37.8105 637.9,-30.9239"/>
</g>
<!-- 4 -->
<g id="node58" class="node"><title>4</title>
<ellipse fill="lightblue" stroke="black" cx="1411" cy="-28.9914" rx="14.7" ry="14.7"/>
<text text-anchor="middle" x="1411" y="-26.7914" font-family="Times New Roman,serif" font-size="9.00">4</text>
</g>
<!-- input&#45;&gt;4 -->
<g id="edge137" class="edge"><title>input&#45;&gt;4</title>
<path fill="none" stroke="red" stroke-width="0.210428" d="M964.187,-96.1036C967.112,-95.3004 970.123,-94.5562 973,-93.9828 1122.02,-64.2746 1163.83,-86.9575 1313,-57.9828 1338.91,-52.9493 1367.91,-44.2762 1387.59,-37.915"/>
<polygon fill="red" stroke="red" stroke-width="0.210428" points="1388.82,-41.194 1397.23,-34.7438 1386.63,-34.5447 1388.82,-41.194"/>
</g>
<!-- 6 -->
<g id="node60" class="node"><title>6</title>
<ellipse fill="lightblue" stroke="black" cx="1713" cy="-28.9914" rx="14.7" ry="14.7"/>
<text text-anchor="middle" x="1713" y="-26.7914" font-family="Times New Roman,serif" font-size="9.00">6</text>
</g>
<!-- input&#45;&gt;6 -->
<g id="edge24" class="edge"><title>input&#45;&gt;6</title>
<path fill="none" stroke="green" stroke-width="0.60888" stroke-dasharray="1,5" d="M964.163,-95.9727C967.091,-95.1863 970.109,-94.4818 973,-93.9828 1265.99,-43.4038 1350.36,-120.635 1641,-57.9828 1658.3,-54.2532 1676.9,-46.9303 1690.86,-40.71"/>
<polygon fill="green" stroke="green" stroke-width="0.60888" points="1692.5,-43.8067 1700.12,-36.4426 1689.57,-37.4493 1692.5,-43.8067"/>
</g>
<!-- &#45;2 -->
<g id="node2" class="node"><title>&#45;2</title>
<polygon fill="lightgray" stroke="black" points="2306,-111.983 2282,-111.983 2282,-93.9828 2306,-93.9828 2306,-111.983"/>
<text text-anchor="middle" x="2294" y="-100.783" font-family="Times New Roman,serif" font-size="9.00">&#45;2</text>
</g>
<!-- &#45;2&#45;&gt;2 -->
<g id="edge135" class="edge"><title>&#45;2&#45;&gt;2</title>
<path fill="none" stroke="red" stroke-width="0.418865" d="M2281.76,-96.5629C2278.94,-95.5256 2275.9,-94.5785 2273,-93.9828 1886.93,-14.8007 1777.32,-112.467 1387,-57.9828 1354.62,-53.4624 1318.07,-43.8765 1294.81,-37.1892"/>
<polygon fill="red" stroke="red" stroke-width="0.418865" points="1295.69,-33.8022 1285.11,-34.3492 1293.73,-40.5198 1295.69,-33.8022"/>
</g>
<!-- 5 -->
<g id="node59" class="node"><title>5</title>
<ellipse fill="lightblue" stroke="black" cx="1599" cy="-28.9914" rx="14.7" ry="14.7"/>
<text text-anchor="middle" x="1599" y="-26.7914" font-family="Times New Roman,serif" font-size="9.00">5</text>
</g>
<!-- &#45;2&#45;&gt;5 -->
<g id="edge128" class="edge"><title>&#45;2&#45;&gt;5</title>
<path fill="none" stroke="red" stroke-width="0.539482" d="M2281.75,-96.608C2278.93,-95.5683 2275.9,-94.6089 2273,-93.9828 2018.82,-39.0682 1944.77,-104.935 1689,-57.9828 1665.72,-53.7101 1640.03,-45.3321 1622.07,-38.8505"/>
<polygon fill="red" stroke="red" stroke-width="0.539482" points="1623.06,-35.4857 1612.47,-35.2988 1620.63,-42.0509 1623.06,-35.4857"/>
</g>
<!-- &#45;2&#45;&gt;6 -->
<g id="edge186" class="edge"><title>&#45;2&#45;&gt;6</title>
<path fill="none" stroke="green" stroke-width="0.339764" d="M2281.73,-96.7199C2278.9,-95.6744 2275.88,-94.6843 2273,-93.9828 2070.5,-44.6694 1817.34,-33.1174 1737.97,-30.6275"/>
<polygon fill="green" stroke="green" stroke-width="0.339764" points="1738.05,-27.1283 1727.95,-30.3333 1737.84,-34.1253 1738.05,-27.1283"/>
</g>
<!-- &#45;3 -->
<g id="node3" class="node"><title>&#45;3</title>
<polygon fill="lightgray" stroke="black" points="208,-111.983 184,-111.983 184,-93.9828 208,-93.9828 208,-111.983"/>
<text text-anchor="middle" x="196" y="-100.783" font-family="Times New Roman,serif" font-size="9.00">&#45;3</text>
</g>
<!-- &#45;3&#45;&gt;2 -->
<g id="edge160" class="edge"><title>&#45;3&#45;&gt;2</title>
<path fill="none" stroke="red" stroke-width="0.189556" stroke-dasharray="1,5" d="M208.24,-96.5685C211.066,-95.5309 214.096,-94.5822 217,-93.9828 398.457,-56.5218 865.379,-73.637 1050,-57.9828 1121.48,-51.9217 1205.4,-39.9481 1246.21,-33.8124"/>
<polygon fill="red" stroke="red" stroke-width="0.189556" points="1246.94,-37.2415 1256.3,-32.281 1245.89,-30.3207 1246.94,-37.2415"/>
</g>
<!-- &#45;3&#45;&gt;3 -->
<g id="edge87" class="edge"><title>&#45;3&#45;&gt;3</title>
<path fill="none" stroke="red" stroke-width="0.502257" d="M208.299,-96.8188C211.122,-95.7682 214.136,-94.751 217,-93.9828 354.377,-57.1292 524.604,-38.3496 587.827,-32.2619"/>
<polygon fill="red" stroke="red" stroke-width="0.502257" points="588.399,-35.7236 598.027,-31.3015 587.743,-28.7544 588.399,-35.7236"/>
</g>
<!-- &#45;4 -->
<g id="node4" class="node"><title>&#45;4</title>
<polygon fill="lightgray" stroke="black" points="24,-111.983 0,-111.983 0,-93.9828 24,-93.9828 24,-111.983"/>
<text text-anchor="middle" x="12" y="-100.783" font-family="Times New Roman,serif" font-size="9.00">&#45;4</text>
</g>
<!-- &#45;4&#45;&gt;1 -->
<g id="edge139" class="edge"><title>&#45;4&#45;&gt;1</title>
<path fill="none" stroke="red" stroke-width="0.304154" d="M24.247,-96.6036C27.0727,-95.5642 30.1011,-94.6059 33,-93.9828 295.914,-37.4619 369.31,-83.6822 637,-57.9828 704.75,-51.4785 784.233,-39.8442 823.496,-33.8284"/>
<polygon fill="red" stroke="red" stroke-width="0.304154" points="824.112,-37.2749 833.46,-32.2896 823.043,-30.3569 824.112,-37.2749"/>
</g>
<!-- &#45;4&#45;&gt;3 -->
<g id="edge163" class="edge"><title>&#45;4&#45;&gt;3</title>
<path fill="none" stroke="red" stroke-width="0.400156" d="M24.2716,-96.7116C27.096,-95.6665 30.1178,-94.6787 33,-93.9828 243.205,-43.225 506.117,-32.6225 587.689,-30.5004"/>
<polygon fill="red" stroke="red" stroke-width="0.400156" points="588.058,-33.9926 597.971,-30.2539 587.89,-26.9947 588.058,-33.9926"/>
</g>
<!-- &#45;5 -->
<g id="node5" class="node"><title>&#45;5</title>
<polygon fill="lightgray" stroke="black" points="345,-111.983 321,-111.983 321,-93.9828 345,-93.9828 345,-111.983"/>
<text text-anchor="middle" x="333" y="-100.783" font-family="Times New Roman,serif" font-size="9.00">&#45;5</text>
</g>
<!-- &#45;5&#45;&gt;output -->
<g id="edge81" class="edge"><title>&#45;5&#45;&gt;output</title>
<path fill="none" stroke="red" stroke-width="0.422901" d="M345.251,-96.6198C348.076,-95.5795 351.104,-94.6169 354,-93.9828 587.235,-42.9226 654.483,-97.1972 890,-57.9828 912.46,-54.2431 937.085,-47.7276 956.732,-41.9232"/>
<polygon fill="red" stroke="red" stroke-width="0.422901" points="957.953,-45.2109 966.516,-38.9712 955.931,-38.5093 957.953,-45.2109"/>
</g>
<!-- &#45;5&#45;&gt;1 -->
<g id="edge131" class="edge"><title>&#45;5&#45;&gt;1</title>
<path fill="none" stroke="red" stroke-width="0.541173" d="M345.28,-96.7471C348.104,-95.7002 351.124,-94.7027 354,-93.9828 476.997,-63.1975 511.266,-74.3199 637,-57.9828 704.494,-49.213 784.089,-38.5731 823.435,-33.2936"/>
<polygon fill="red" stroke="red" stroke-width="0.541173" points="823.977,-36.7523 833.422,-31.9526 823.046,-29.8146 823.977,-36.7523"/>
</g>
<!-- &#45;5&#45;&gt;3 -->
<g id="edge100" class="edge"><title>&#45;5&#45;&gt;3</title>
<path fill="none" stroke="red" stroke-width="0.120242" d="M345.349,-96.992C348.17,-95.9324 351.17,-94.8678 354,-93.9828 438.92,-67.4254 542.232,-44.6922 588.517,-34.998"/>
<polygon fill="red" stroke="red" stroke-width="0.120242" points="589.432,-38.383 598.511,-32.9226 588.008,-31.5292 589.432,-38.383"/>
</g>
<!-- &#45;5&#45;&gt;6 -->
<g id="edge102" class="edge"><title>&#45;5&#45;&gt;6</title>
<path fill="none" stroke="red" stroke-width="0.300999" d="M345.233,-96.5357C348.059,-95.4997 351.092,-94.5601 354,-93.9828 634.635,-38.2711 1360.56,-114.649 1641,-57.9828 1658.35,-54.4774 1676.94,-47.1475 1690.89,-40.8678"/>
<polygon fill="red" stroke="red" stroke-width="0.300999" points="1692.56,-43.9517 1700.14,-36.5505 1689.6,-37.6086 1692.56,-43.9517"/>
</g>
<!-- &#45;6 -->
<g id="node6" class="node"><title>&#45;6</title>
<polygon fill="lightgray" stroke="black" points="2075,-111.983 2051,-111.983 2051,-93.9828 2075,-93.9828 2075,-111.983"/>
<text text-anchor="middle" x="2063" y="-100.783" font-family="Times New Roman,serif" font-size="9.00">&#45;6</text>
</g>
<!-- &#45;6&#45;&gt;4 -->
<g id="edge44" class="edge"><title>&#45;6&#45;&gt;4</title>
<path fill="none" stroke="green" stroke-width="0.398778" d="M2050.74,-96.641C2047.92,-95.5996 2044.89,-94.6311 2042,-93.9828 1838.87,-48.4607 1781.6,-83.5218 1575,-57.9828 1525.25,-51.8333 1467.59,-41.1582 1435.6,-34.9191"/>
<polygon fill="green" stroke="green" stroke-width="0.398778" points="1435.9,-31.4109 1425.41,-32.9119 1434.55,-38.2789 1435.9,-31.4109"/>
</g>
<!-- &#45;6&#45;&gt;5 -->
<g id="edge19" class="edge"><title>&#45;6&#45;&gt;5</title>
<path fill="none" stroke="green" stroke-width="0.183169" d="M2050.73,-96.6939C2047.91,-95.6498 2044.89,-94.6668 2042,-93.9828 1888.55,-57.5995 1843.51,-89.5579 1689,-57.9828 1665.95,-53.2721 1640.4,-45.0232 1622.43,-38.6964"/>
<polygon fill="green" stroke="green" stroke-width="0.183169" points="1623.4,-35.3246 1612.8,-35.2346 1621.03,-41.9118 1623.4,-35.3246"/>
</g>
<!-- &#45;7 -->
<g id="node7" class="node"><title>&#45;7</title>
<polygon fill="lightgray" stroke="black" points="1703,-111.983 1679,-111.983 1679,-93.9828 1703,-93.9828 1703,-111.983"/>
<text text-anchor="middle" x="1691" y="-100.783" font-family="Times New Roman,serif" font-size="9.00">&#45;7</text>
</g>
<!-- &#45;7&#45;&gt;output -->
<g id="edge95" class="edge"><title>&#45;7&#45;&gt;output</title>
<path fill="none" stroke="green" stroke-width="0.641564" d="M1678.74,-96.6581C1675.92,-95.6158 1672.89,-94.6427 1670,-93.9828 1486.05,-51.9901 1434.78,-76.3585 1247,-57.9828 1171.04,-50.5493 1082.41,-40.4051 1032.79,-34.5913"/>
<polygon fill="green" stroke="green" stroke-width="0.641564" points="1033.15,-31.1098 1022.81,-33.419 1032.33,-38.062 1033.15,-31.1098"/>
</g>
<!-- &#45;7&#45;&gt;1 -->
<g id="edge46" class="edge"><title>&#45;7&#45;&gt;1</title>
<path fill="none" stroke="red" stroke-width="0.707461" d="M1678.76,-96.5839C1675.93,-95.5455 1672.9,-94.5927 1670,-93.9828 1359.06,-28.6246 1270.07,-106.089 956,-57.9828 926.383,-53.4464 893.126,-44.1721 871.441,-37.542"/>
<polygon fill="red" stroke="red" stroke-width="0.707461" points="872.38,-34.1688 861.792,-34.5319 870.296,-40.8512 872.38,-34.1688"/>
</g>
<!-- &#45;7&#45;&gt;2 -->
<g id="edge155" class="edge"><title>&#45;7&#45;&gt;2</title>
<path fill="none" stroke="red" stroke-width="0.479588" d="M1678.72,-96.7471C1675.9,-95.7002 1672.88,-94.7027 1670,-93.9828 1547,-63.1975 1511.71,-80.8884 1387,-57.9828 1354.84,-52.0758 1318.24,-42.813 1294.91,-36.5774"/>
<polygon fill="red" stroke="red" stroke-width="0.479588" points="1295.75,-33.1789 1285.18,-33.9484 1293.92,-39.9364 1295.75,-33.1789"/>
</g>
<!-- &#45;7&#45;&gt;4 -->
<g id="edge71" class="edge"><title>&#45;7&#45;&gt;4</title>
<path fill="none" stroke="red" stroke-width="0.204471" d="M1678.65,-96.992C1675.83,-95.9324 1672.83,-94.8678 1670,-93.9828 1585.08,-67.4254 1481.77,-44.6922 1435.48,-34.998"/>
<polygon fill="red" stroke="red" stroke-width="0.204471" points="1435.99,-31.5292 1425.49,-32.9226 1434.57,-38.383 1435.99,-31.5292"/>
</g>
<!-- &#45;7&#45;&gt;5 -->
<g id="edge134" class="edge"><title>&#45;7&#45;&gt;5</title>
<path fill="none" stroke="green" stroke-width="0.161238" stroke-dasharray="1,5" d="M1680.45,-93.7244C1665.3,-81.8741 1637.15,-59.8468 1618.25,-45.0519"/>
<polygon fill="green" stroke="green" stroke-width="0.161238" points="1620.32,-42.232 1610.29,-38.8257 1616.01,-47.7448 1620.32,-42.232"/>
</g>
<!-- &#45;7&#45;&gt;6 -->
<g id="edge27" class="edge"><title>&#45;7&#45;&gt;6</title>
<path fill="none" stroke="green" stroke-width="0.16662" d="M1693.52,-93.7244C1696.51,-83.9533 1701.61,-67.2632 1705.84,-53.4134"/>
<polygon fill="green" stroke="green" stroke-width="0.16662" points="1709.28,-54.124 1708.86,-43.5377 1702.59,-52.0782 1709.28,-54.124"/>
</g>
<!-- &#45;8 -->
<g id="node8" class="node"><title>&#45;8</title>
<polygon fill="lightgray" stroke="black" points="1237,-111.983 1213,-111.983 1213,-93.9828 1237,-93.9828 1237,-111.983"/>
<text text-anchor="middle" x="1225" y="-100.783" font-family="Times New Roman,serif" font-size="9.00">&#45;8</text>
</g>
<!-- &#45;8&#45;&gt;output -->
<g id="edge53" class="edge"><title>&#45;8&#45;&gt;output</title>
<path fill="none" stroke="green" stroke-width="0.324646" d="M1212.61,-97.1039C1209.8,-96.0385 1206.81,-94.9432 1204,-93.9828 1144.21,-73.5096 1073.76,-52.7094 1031.55,-40.5963"/>
<polygon fill="green" stroke="green" stroke-width="0.324646" points="1032.29,-37.166 1021.71,-37.7823 1030.36,-43.8964 1032.29,-37.166"/>
</g>
<!-- &#45;8&#45;&gt;1 -->
<g id="edge14" class="edge"><title>&#45;8&#45;&gt;1</title>
<path fill="none" stroke="red" stroke-width="0.342578" d="M1212.71,-96.7847C1209.89,-95.7358 1206.87,-94.728 1204,-93.9828 1096.2,-65.9889 1065.18,-79.9874 956,-57.9828 926.792,-52.0961 893.69,-43.177 871.92,-36.9954"/>
<polygon fill="red" stroke="red" stroke-width="0.342578" points="872.787,-33.6031 862.21,-34.2059 870.855,-40.331 872.787,-33.6031"/>
</g>
<!-- &#45;8&#45;&gt;2 -->
<g id="edge126" class="edge"><title>&#45;8&#45;&gt;2</title>
<path fill="none" stroke="red" stroke-width="0.777069" d="M1230.28,-93.7244C1236.94,-83.3023 1248.63,-65.0087 1257.78,-50.6861"/>
<polygon fill="red" stroke="red" stroke-width="0.777069" points="1260.91,-52.2814 1263.35,-41.9702 1255.01,-48.5124 1260.91,-52.2814"/>
</g>
<!-- &#45;8&#45;&gt;4 -->
<g id="edge132" class="edge"><title>&#45;8&#45;&gt;4</title>
<path fill="none" stroke="red" stroke-width="0.482432" d="M1237.2,-97.2592C1267.84,-85.4033 1348.35,-54.2393 1388.11,-38.8495"/>
<polygon fill="red" stroke="red" stroke-width="0.482432" points="1389.45,-42.086 1397.51,-35.2123 1386.92,-35.5579 1389.45,-42.086"/>
</g>
<!-- &#45;8&#45;&gt;5 -->
<g id="edge103" class="edge"><title>&#45;8&#45;&gt;5</title>
<path fill="none" stroke="red" stroke-width="0.328439" d="M1237.44,-97.0274C1240.53,-95.9171 1243.86,-94.8214 1247,-93.9828 1336.8,-70.0089 1361.58,-74.7336 1453,-57.9828 1495.77,-50.1462 1545.48,-40.5009 1574.47,-34.8217"/>
<polygon fill="red" stroke="red" stroke-width="0.328439" points="1575.37,-38.2119 1584.51,-32.8513 1574.02,-31.3429 1575.37,-38.2119"/>
</g>
<!-- &#45;9 -->
<g id="node9" class="node"><title>&#45;9</title>
<polygon fill="lightgray" stroke="black" points="1006,-111.983 982,-111.983 982,-93.9828 1006,-93.9828 1006,-111.983"/>
<text text-anchor="middle" x="994" y="-100.783" font-family="Times New Roman,serif" font-size="9.00">&#45;9</text>
</g>
<!-- &#45;9&#45;&gt;output -->
<g id="edge184" class="edge"><title>&#45;9&#45;&gt;output</title>
<path fill="none" stroke="green" stroke-width="0.324134" d="M994,-93.7244C994,-87.2553 994,-77.7535 994,-68.0511"/>
<polygon fill="green" stroke="green" stroke-width="0.324134" points="997.5,-67.9861 994,-57.9862 990.5,-67.9862 997.5,-67.9861"/>
</g>
<!-- &#45;9&#45;&gt;1 -->
<g id="edge161" class="edge"><title>&#45;9&#45;&gt;1</title>
<path fill="none" stroke="green" stroke-width="0.184248" d="M981.803,-95.9686C957.314,-83.8932 901.835,-56.537 870.55,-41.1108"/>
<polygon fill="green" stroke="green" stroke-width="0.184248" points="871.83,-37.8394 861.313,-36.556 868.734,-44.1177 871.83,-37.8394"/>
</g>
<!-- &#45;9&#45;&gt;2 -->
<g id="edge142" class="edge"><title>&#45;9&#45;&gt;2</title>
<path fill="none" stroke="green" stroke-width="0.269644" d="M1006.03,-97.3559C1009.25,-96.188 1012.74,-94.9829 1016,-93.9828 1099.63,-68.3577 1200.95,-45.2384 1246.61,-35.233"/>
<polygon fill="green" stroke="green" stroke-width="0.269644" points="1247.45,-38.6314 1256.48,-33.0849 1245.96,-31.7915 1247.45,-38.6314"/>
</g>
<!-- &#45;9&#45;&gt;5 -->
<g id="edge138" class="edge"><title>&#45;9&#45;&gt;5</title>
<path fill="none" stroke="green" stroke-width="0.32746" d="M1006.39,-96.824C1009.48,-95.7199 1012.82,-94.6779 1016,-93.9828 1206.37,-52.3137 1259.91,-84.3679 1453,-57.9828 1496.08,-52.0957 1545.69,-41.8339 1574.58,-35.5053"/>
<polygon fill="green" stroke="green" stroke-width="0.32746" points="1575.57,-38.8701 1584.58,-33.2897 1574.06,-32.0359 1575.57,-38.8701"/>
</g>
<!-- &#45;10 -->
<g id="node10" class="node"><title>&#45;10</title>
<polygon fill="lightgray" stroke="black" points="674.5,-111.983 645.5,-111.983 645.5,-93.9828 674.5,-93.9828 674.5,-111.983"/>
<text text-anchor="middle" x="660" y="-100.783" font-family="Times New Roman,serif" font-size="9.00">&#45;10</text>
</g>
<!-- &#45;10&#45;&gt;1 -->
<g id="edge10" class="edge"><title>&#45;10&#45;&gt;1</title>
<path fill="none" stroke="red" stroke-width="0.31933" d="M674.752,-96.3337C707.331,-83.8582 785.629,-53.8752 824.827,-38.8653"/>
<polygon fill="red" stroke="red" stroke-width="0.31933" points="826.25,-42.0679 834.338,-35.2232 823.747,-35.5308 826.25,-42.0679"/>
</g>
<!-- &#45;10&#45;&gt;2 -->
<g id="edge116" class="edge"><title>&#45;10&#45;&gt;2</title>
<path fill="none" stroke="green" stroke-width="0.27506" d="M674.579,-96.5464C677.656,-95.5627 680.907,-94.6416 684,-93.9828 843.864,-59.926 887.573,-76.2537 1050,-57.9828 1121.29,-49.9637 1205.3,-38.8695 1246.17,-33.3668"/>
<polygon fill="green" stroke="green" stroke-width="0.27506" points="1246.83,-36.8084 1256.28,-32.0009 1245.9,-29.8714 1246.83,-36.8084"/>
</g>
<!-- &#45;11 -->
<g id="node11" class="node"><title>&#45;11</title>
<polygon fill="lightgray" stroke="black" points="1053.5,-111.983 1024.5,-111.983 1024.5,-93.9828 1053.5,-93.9828 1053.5,-111.983"/>
<text text-anchor="middle" x="1039" y="-100.783" font-family="Times New Roman,serif" font-size="9.00">&#45;11</text>
</g>
<!-- &#45;11&#45;&gt;2 -->
<g id="edge26" class="edge"><title>&#45;11&#45;&gt;2</title>
<path fill="none" stroke="green" stroke-width="0.10943" stroke-dasharray="1,5" d="M1053.71,-97.0208C1056.77,-96.0028 1059.99,-94.9478 1063,-93.9828 1129.43,-72.6949 1208.24,-48.8262 1247.01,-37.1736"/>
<polygon fill="green" stroke="green" stroke-width="0.10943" points="1248.27,-40.4502 1256.84,-34.2233 1246.26,-33.7456 1248.27,-40.4502"/>
</g>
<!-- &#45;12 -->
<g id="node12" class="node"><title>&#45;12</title>
<polygon fill="lightgray" stroke="black" points="1519.5,-111.983 1490.5,-111.983 1490.5,-93.9828 1519.5,-93.9828 1519.5,-111.983"/>
<text text-anchor="middle" x="1505" y="-100.783" font-family="Times New Roman,serif" font-size="9.00">&#45;12</text>
</g>
<!-- &#45;12&#45;&gt;2 -->
<g id="edge34" class="edge"><title>&#45;12&#45;&gt;2</title>
<path fill="none" stroke="red" stroke-width="0.667575" d="M1490.43,-96.8155C1487.64,-95.8538 1484.73,-94.8723 1482,-93.9828 1414.48,-72.0111 1334.03,-48.2832 1294.83,-36.8798"/>
<polygon fill="red" stroke="red" stroke-width="0.667575" points="1295.72,-33.4912 1285.14,-34.0649 1293.76,-40.2137 1295.72,-33.4912"/>
</g>
<!-- &#45;12&#45;&gt;4 -->
<g id="edge18" class="edge"><title>&#45;12&#45;&gt;4</title>
<path fill="none" stroke="green" stroke-width="0.168927" d="M1494.22,-93.7244C1478.74,-81.8741 1449.98,-59.8468 1430.66,-45.0519"/>
<polygon fill="green" stroke="green" stroke-width="0.168927" points="1432.6,-42.1273 1422.54,-38.8257 1428.35,-47.6847 1432.6,-42.1273"/>
</g>
<!-- &#45;13 -->
<g id="node13" class="node"><title>&#45;13</title>
<polygon fill="lightgray" stroke="black" points="2263.5,-111.983 2234.5,-111.983 2234.5,-93.9828 2263.5,-93.9828 2263.5,-111.983"/>
<text text-anchor="middle" x="2249" y="-100.783" font-family="Times New Roman,serif" font-size="9.00">&#45;13</text>
</g>
<!-- &#45;13&#45;&gt;2 -->
<g id="edge111" class="edge"><title>&#45;13&#45;&gt;2</title>
<path fill="none" stroke="red" stroke-width="0.25278" d="M2234.08,-96.0897C2231.42,-95.2445 2228.66,-94.4906 2226,-93.9828 1859.4,-23.931 1756.59,-110.002 1387,-57.9828 1354.62,-53.4256 1318.08,-43.8483 1294.81,-37.1729"/>
<polygon fill="red" stroke="red" stroke-width="0.25278" points="1295.7,-33.7857 1285.12,-34.3385 1293.73,-40.5044 1295.7,-33.7857"/>
</g>
<!-- &#45;13&#45;&gt;4 -->
<g id="edge83" class="edge"><title>&#45;13&#45;&gt;4</title>
<path fill="none" stroke="green" stroke-width="0.175434" d="M2234.07,-96.1174C2231.42,-95.2691 2228.65,-94.507 2226,-93.9828 1941.72,-37.8368 1862.96,-90.412 1575,-57.9828 1525.19,-52.3732 1467.55,-41.506 1435.58,-35.0871"/>
<polygon fill="green" stroke="green" stroke-width="0.175434" points="1435.9,-31.5798 1425.4,-33.0181 1434.5,-38.4396 1435.9,-31.5798"/>
</g>
<!-- &#45;13&#45;&gt;5 -->
<g id="edge3" class="edge"><title>&#45;13&#45;&gt;5</title>
<path fill="none" stroke="red" stroke-width="0.376311" d="M2234.07,-96.1436C2231.41,-95.2924 2228.65,-94.5225 2226,-93.9828 1991.61,-46.2642 1924.15,-101.803 1689,-57.9828 1665.74,-53.6476 1640.04,-45.2777 1622.07,-38.815"/>
<polygon fill="red" stroke="red" stroke-width="0.376311" points="1623.06,-35.4497 1612.47,-35.2752 1620.64,-42.0177 1623.06,-35.4497"/>
</g>
<!-- &#45;13&#45;&gt;6 -->
<g id="edge180" class="edge"><title>&#45;13&#45;&gt;6</title>
<path fill="none" stroke="red" stroke-width="0.114902" d="M2234.04,-96.2711C2231.39,-95.4057 2228.63,-94.5981 2226,-93.9828 2041.86,-50.9805 1813.35,-35.417 1738.22,-31.2545"/>
<polygon fill="red" stroke="red" stroke-width="0.114902" points="1738.06,-27.7412 1727.89,-30.7015 1737.69,-34.7311 1738.06,-27.7412"/>
</g>
<!-- &#45;14 -->
<g id="node14" class="node"><title>&#45;14</title>
<polygon fill="lightgray" stroke="black" points="1472.5,-111.983 1443.5,-111.983 1443.5,-93.9828 1472.5,-93.9828 1472.5,-111.983"/>
<text text-anchor="middle" x="1458" y="-100.783" font-family="Times New Roman,serif" font-size="9.00">&#45;14</text>
</g>
<!-- &#45;14&#45;&gt;output -->
<g id="edge146" class="edge"><title>&#45;14&#45;&gt;output</title>
<path fill="none" stroke="red" stroke-width="0.444357" d="M1443.03,-96.3155C1440.38,-95.4452 1437.63,-94.6244 1435,-93.9828 1289.1,-58.3696 1110.9,-39.9716 1033.27,-33.1581"/>
<polygon fill="red" stroke="red" stroke-width="0.444357" points="1033.26,-29.6445 1023,-32.273 1032.66,-36.6187 1033.26,-29.6445"/>
</g>
<!-- &#45;14&#45;&gt;2 -->
<g id="edge47" class="edge"><title>&#45;14&#45;&gt;2</title>
<path fill="none" stroke="green" stroke-width="0.965492" stroke-dasharray="1,5" d="M1443.33,-96.3337C1410.92,-83.8582 1333.04,-53.8752 1294.05,-38.8653"/>
<polygon fill="green" stroke="green" stroke-width="0.965492" points="1295.18,-35.5497 1284.59,-35.2232 1292.66,-42.0823 1295.18,-35.5497"/>
</g>
<!-- &#45;14&#45;&gt;3 -->
<g id="edge49" class="edge"><title>&#45;14&#45;&gt;3</title>
<path fill="none" stroke="red" stroke-width="0.231236" d="M1443.07,-96.1255C1440.42,-95.2763 1437.65,-94.5118 1435,-93.9828 1168.22,-40.7944 1094.79,-83.8869 824,-57.9828 756.248,-51.5015 676.766,-39.8571 637.504,-33.8339"/>
<polygon fill="red" stroke="red" stroke-width="0.231236" points="637.957,-30.3624 627.539,-32.293 636.887,-37.2802 637.957,-30.3624"/>
</g>
<!-- &#45;14&#45;&gt;4 -->
<g id="edge174" class="edge"><title>&#45;14&#45;&gt;4</title>
<path fill="none" stroke="red" stroke-width="0.18625" d="M1452.61,-93.7244C1445.8,-83.3023 1433.86,-65.0087 1424.51,-50.6861"/>
<polygon fill="red" stroke="red" stroke-width="0.18625" points="1427.22,-48.4304 1418.82,-41.9702 1421.36,-52.2571 1427.22,-48.4304"/>
</g>
<!-- &#45;14&#45;&gt;5 -->
<g id="edge108" class="edge"><title>&#45;14&#45;&gt;5</title>
<path fill="none" stroke="green" stroke-width="0.638461" d="M1472.56,-94.5496C1497.34,-81.8972 1547.86,-56.1047 1576.98,-41.2361"/>
<polygon fill="green" stroke="green" stroke-width="0.638461" points="1578.65,-44.3118 1585.96,-36.6472 1575.47,-38.0774 1578.65,-44.3118"/>
</g>
<!-- &#45;14&#45;&gt;6 -->
<g id="edge127" class="edge"><title>&#45;14&#45;&gt;6</title>
<path fill="none" stroke="red" stroke-width="0.23882" d="M1472.65,-96.8429C1475.72,-95.8377 1478.95,-94.833 1482,-93.9828 1551.79,-74.5027 1571.71,-79.1679 1641,-57.9828 1657.82,-52.8394 1676.31,-45.6184 1690.34,-39.799"/>
<polygon fill="red" stroke="red" stroke-width="0.23882" points="1691.82,-42.9709 1699.67,-35.8591 1689.1,-36.5213 1691.82,-42.9709"/>
</g>
<!-- &#45;15 -->
<g id="node15" class="node"><title>&#45;15</title>
<polygon fill="lightgray" stroke="black" points="2169.5,-111.983 2140.5,-111.983 2140.5,-93.9828 2169.5,-93.9828 2169.5,-111.983"/>
<text text-anchor="middle" x="2155" y="-100.783" font-family="Times New Roman,serif" font-size="9.00">&#45;15</text>
</g>
<!-- &#45;15&#45;&gt;3 -->
<g id="edge136" class="edge"><title>&#45;15&#45;&gt;3</title>
<path fill="none" stroke="red" stroke-width="0.667653" d="M2140.08,-96.0553C2137.43,-95.2139 2134.66,-94.4702 2132,-93.9828 1845.98,-41.6029 1113.85,-81.1341 824,-57.9828 756.155,-52.5638 676.714,-40.4531 637.482,-34.0847"/>
<polygon fill="red" stroke="red" stroke-width="0.667653" points="637.96,-30.6165 627.525,-32.4511 636.827,-37.5241 637.96,-30.6165"/>
</g>
<!-- &#45;15&#45;&gt;5 -->
<g id="edge2" class="edge"><title>&#45;15&#45;&gt;5</title>
<path fill="none" stroke="green" stroke-width="0.264393" d="M2140.06,-96.1752C2137.41,-95.3205 2134.65,-94.5413 2132,-93.9828 1938.72,-53.2076 1882.93,-95.5434 1689,-57.9828 1665.9,-53.5092 1640.36,-45.231 1622.4,-38.833"/>
<polygon fill="green" stroke="green" stroke-width="0.264393" points="1623.38,-35.4632 1612.79,-35.3262 1620.98,-42.0398 1623.38,-35.4632"/>
</g>
<!-- &#45;15&#45;&gt;6 -->
<g id="edge21" class="edge"><title>&#45;15&#45;&gt;6</title>
<path fill="none" stroke="red" stroke-width="0.275389" stroke-dasharray="1,5" d="M2140.03,-96.332C2137.38,-95.4599 2134.63,-94.6342 2132,-93.9828 1985.15,-57.5568 1803.91,-38.3644 1738.25,-32.2197"/>
<polygon fill="red" stroke="red" stroke-width="0.275389" points="1738.32,-28.7116 1728.04,-31.2834 1737.68,-35.6823 1738.32,-28.7116"/>
</g>
<!-- &#45;16 -->
<g id="node16" class="node"><title>&#45;16</title>
<polygon fill="lightgray" stroke="black" points="533.5,-111.983 504.5,-111.983 504.5,-93.9828 533.5,-93.9828 533.5,-111.983"/>
<text text-anchor="middle" x="519" y="-100.783" font-family="Times New Roman,serif" font-size="9.00">&#45;16</text>
</g>
<!-- &#45;16&#45;&gt;output -->
<g id="edge121" class="edge"><title>&#45;16&#45;&gt;output</title>
<path fill="none" stroke="red" stroke-width="0.115308" d="M533.582,-96.5592C536.658,-95.5746 539.909,-94.6499 543,-93.9828 694.56,-61.2724 737.543,-86.2212 890,-57.9828 912.389,-53.8359 937.01,-47.3006 956.673,-41.5874"/>
<polygon fill="red" stroke="red" stroke-width="0.115308" points="957.869,-44.8837 966.466,-38.6917 955.884,-38.171 957.869,-44.8837"/>
</g>
<!-- &#45;16&#45;&gt;1 -->
<g id="edge114" class="edge"><title>&#45;16&#45;&gt;1</title>
<path fill="none" stroke="green" stroke-width="0.298738" d="M533.642,-96.8054C536.714,-95.803 539.948,-94.8088 543,-93.9828 645.879,-66.1428 771.023,-43.2579 823.251,-34.1867"/>
<polygon fill="green" stroke="green" stroke-width="0.298738" points="823.995,-37.6103 833.255,-32.4638 822.807,-30.7119 823.995,-37.6103"/>
</g>
<!-- &#45;16&#45;&gt;2 -->
<g id="edge162" class="edge"><title>&#45;16&#45;&gt;2</title>
<path fill="none" stroke="red" stroke-width="0.127524" d="M533.566,-96.4812C536.643,-95.5023 539.898,-94.5996 543,-93.9828 764.561,-49.9185 825.193,-80.1838 1050,-57.9828 1121.39,-50.9324 1205.35,-39.4031 1246.19,-33.5872"/>
<polygon fill="red" stroke="red" stroke-width="0.127524" points="1246.89,-37.0229 1256.29,-32.1395 1245.89,-30.0937 1246.89,-37.0229"/>
</g>
<!-- &#45;17 -->
<g id="node17" class="node"><title>&#45;17</title>
<polygon fill="lightgray" stroke="black" points="1284.5,-111.983 1255.5,-111.983 1255.5,-93.9828 1284.5,-93.9828 1284.5,-111.983"/>
<text text-anchor="middle" x="1270" y="-100.783" font-family="Times New Roman,serif" font-size="9.00">&#45;17</text>
</g>
<!-- &#45;17&#45;&gt;output -->
<g id="edge124" class="edge"><title>&#45;17&#45;&gt;output</title>
<path fill="none" stroke="green" stroke-width="0.238296" d="M1255.33,-96.9042C1252.26,-95.8946 1249.03,-94.8725 1246,-93.9828 1170.78,-71.9289 1081.66,-50.3508 1032.1,-38.7503"/>
<polygon fill="green" stroke="green" stroke-width="0.238296" points="1032.68,-35.2914 1022.15,-36.4297 1031.09,-42.1086 1032.68,-35.2914"/>
</g>
<!-- &#45;17&#45;&gt;4 -->
<g id="edge85" class="edge"><title>&#45;17&#45;&gt;4</title>
<path fill="none" stroke="red" stroke-width="0.20275" stroke-dasharray="1,5" d="M1284.56,-94.5496C1309.34,-81.8972 1359.86,-56.1047 1388.98,-41.2361"/>
<polygon fill="red" stroke="red" stroke-width="0.20275" points="1390.65,-44.3118 1397.96,-36.6472 1387.47,-38.0774 1390.65,-44.3118"/>
</g>
<!-- &#45;18 -->
<g id="node18" class="node"><title>&#45;18</title>
<polygon fill="lightgray" stroke="black" points="2447.5,-111.983 2418.5,-111.983 2418.5,-93.9828 2447.5,-93.9828 2447.5,-111.983"/>
<text text-anchor="middle" x="2433" y="-100.783" font-family="Times New Roman,serif" font-size="9.00">&#45;18</text>
</g>
<!-- &#45;19 -->
<g id="node19" class="node"><title>&#45;19</title>
<polygon fill="lightgray" stroke="black" points="909.5,-111.983 880.5,-111.983 880.5,-93.9828 909.5,-93.9828 909.5,-111.983"/>
<text text-anchor="middle" x="895" y="-100.783" font-family="Times New Roman,serif" font-size="9.00">&#45;19</text>
</g>
<!-- &#45;19&#45;&gt;output -->
<g id="edge20" class="edge"><title>&#45;19&#45;&gt;output</title>
<path fill="none" stroke="red" stroke-width="0.355739" d="M906.357,-93.7244C919.983,-83.8154 943.395,-66.7906 962.595,-52.8286"/>
<polygon fill="red" stroke="red" stroke-width="0.355739" points="964.767,-55.5765 970.797,-46.8645 960.651,-49.9151 964.767,-55.5765"/>
</g>
<!-- &#45;19&#45;&gt;1 -->
<g id="edge33" class="edge"><title>&#45;19&#45;&gt;1</title>
<path fill="none" stroke="red" stroke-width="0.151815" d="M889.609,-93.7244C882.804,-83.3023 870.861,-65.0087 861.511,-50.6861"/>
<polygon fill="red" stroke="red" stroke-width="0.151815" points="864.218,-48.4304 855.82,-41.9702 858.356,-52.2571 864.218,-48.4304"/>
</g>
<!-- &#45;19&#45;&gt;2 -->
<g id="edge61" class="edge"><title>&#45;19&#45;&gt;2</title>
<path fill="none" stroke="green" stroke-width="0.514794" d="M909.625,-96.7415C912.698,-95.7437 915.937,-94.7675 919,-93.9828 1040.25,-62.9206 1188.72,-41.1099 1246.43,-33.2326"/>
<polygon fill="green" stroke="green" stroke-width="0.514794" points="1246.98,-36.6898 1256.42,-31.8844 1246.05,-29.7526 1246.98,-36.6898"/>
</g>
<!-- &#45;19&#45;&gt;3 -->
<g id="edge32" class="edge"><title>&#45;19&#45;&gt;3</title>
<path fill="none" stroke="green" stroke-width="0.212367" stroke-dasharray="1,5" d="M880.465,-96.6995C877.671,-95.7485 874.756,-94.8006 872,-93.9828 786.701,-68.6698 683.578,-45.3135 637.412,-35.2306"/>
<polygon fill="green" stroke="green" stroke-width="0.212367" points="637.96,-31.7682 627.445,-33.0674 636.475,-38.6089 637.96,-31.7682"/>
</g>
<!-- &#45;19&#45;&gt;4 -->
<g id="edge157" class="edge"><title>&#45;19&#45;&gt;4</title>
<path fill="none" stroke="green" stroke-width="0.1189" d="M909.576,-96.5298C912.652,-95.5473 915.905,-94.6309 919,-93.9828 1091.11,-57.9405 1140.15,-90.2706 1313,-57.9828 1338.95,-53.1356 1367.94,-44.4317 1387.61,-38.0123"/>
<polygon fill="green" stroke="green" stroke-width="0.1189" points="1388.86,-41.2859 1397.24,-34.8082 1386.65,-34.6437 1388.86,-41.2859"/>
</g>
<!-- &#45;19&#45;&gt;6 -->
<g id="edge79" class="edge"><title>&#45;19&#45;&gt;6</title>
<path fill="none" stroke="red" stroke-width="0.259943" d="M909.556,-96.4305C912.634,-95.4553 915.892,-94.5669 919,-93.9828 1234.76,-34.635 1326.79,-125.054 1641,-57.9828 1658.31,-54.288 1676.91,-46.964 1690.86,-40.7345"/>
<polygon fill="red" stroke="red" stroke-width="0.259943" points="1692.51,-43.8292 1700.12,-36.4593 1689.58,-37.4741 1692.51,-43.8292"/>
</g>
<!-- &#45;20 -->
<g id="node20" class="node"><title>&#45;20</title>
<polygon fill="lightgray" stroke="black" points="862.5,-111.983 833.5,-111.983 833.5,-93.9828 862.5,-93.9828 862.5,-111.983"/>
<text text-anchor="middle" x="848" y="-100.783" font-family="Times New Roman,serif" font-size="9.00">&#45;20</text>
</g>
<!-- &#45;20&#45;&gt;1 -->
<g id="edge183" class="edge"><title>&#45;20&#45;&gt;1</title>
<path fill="none" stroke="green" stroke-width="0.262761" d="M848,-93.7244C848,-84.1657 848,-67.9854 848,-54.3204"/>
<polygon fill="green" stroke="green" stroke-width="0.262761" points="851.5,-54.075 848,-44.0751 844.5,-54.0751 851.5,-54.075"/>
</g>
<!-- &#45;20&#45;&gt;3 -->
<g id="edge149" class="edge"><title>&#45;20&#45;&gt;3</title>
<path fill="none" stroke="red" stroke-width="0.43252" d="M833.43,-96.8126C830.639,-95.8511 827.734,-94.8705 825,-93.9828 757.171,-71.9601 676.333,-48.2552 636.95,-36.8682"/>
<polygon fill="red" stroke="red" stroke-width="0.43252" points="637.783,-33.4659 627.205,-34.0576 635.843,-40.1917 637.783,-33.4659"/>
</g>
<!-- &#45;20&#45;&gt;4 -->
<g id="edge57" class="edge"><title>&#45;20&#45;&gt;4</title>
<path fill="none" stroke="red" stroke-width="0.38418" d="M862.571,-96.5066C865.648,-95.5258 868.902,-94.616 872,-93.9828 1064.67,-54.6055 1119.52,-93.1574 1313,-57.9828 1338.97,-53.2611 1367.96,-44.5364 1387.62,-38.0779"/>
<polygon fill="red" stroke="red" stroke-width="0.38418" points="1388.88,-41.3476 1397.25,-34.8516 1386.65,-34.7104 1388.88,-41.3476"/>
</g>
<!-- &#45;20&#45;&gt;5 -->
<g id="edge12" class="edge"><title>&#45;20&#45;&gt;5</title>
<path fill="none" stroke="red" stroke-width="0.155912" d="M862.562,-96.4596C865.639,-95.4822 868.896,-94.5856 872,-93.9828 1125.97,-44.6602 1196.32,-90.4059 1453,-57.9828 1496.14,-52.5335 1545.73,-42.1333 1574.6,-35.6589"/>
<polygon fill="red" stroke="red" stroke-width="0.155912" points="1575.62,-39.0171 1584.59,-33.3882 1574.07,-32.1912 1575.62,-39.0171"/>
</g>
<!-- &#45;21 -->
<g id="node21" class="node"><title>&#45;21</title>
<polygon fill="lightgray" stroke="black" points="721.5,-111.983 692.5,-111.983 692.5,-93.9828 721.5,-93.9828 721.5,-111.983"/>
<text text-anchor="middle" x="707" y="-100.783" font-family="Times New Roman,serif" font-size="9.00">&#45;21</text>
</g>
<!-- &#45;21&#45;&gt;2 -->
<g id="edge93" class="edge"><title>&#45;21&#45;&gt;2</title>
<path fill="none" stroke="red" stroke-width="0.272147" d="M721.587,-96.5807C724.662,-95.5946 727.912,-94.6638 731,-93.9828 870.33,-63.2552 908.334,-74.9472 1050,-57.9828 1121.23,-49.453 1205.27,-38.5882 1246.15,-33.2506"/>
<polygon fill="red" stroke="red" stroke-width="0.272147" points="1246.8,-36.6951 1256.27,-31.9279 1245.9,-29.7542 1246.8,-36.6951"/>
</g>
<!-- &#45;21&#45;&gt;3 -->
<g id="edge147" class="edge"><title>&#45;21&#45;&gt;3</title>
<path fill="none" stroke="red" stroke-width="0.257103" d="M696.217,-93.7244C680.744,-81.8741 651.983,-59.8468 632.665,-45.0519"/>
<polygon fill="red" stroke="red" stroke-width="0.257103" points="634.602,-42.1273 624.535,-38.8257 630.346,-47.6847 634.602,-42.1273"/>
</g>
<!-- &#45;21&#45;&gt;4 -->
<g id="edge94" class="edge"><title>&#45;21&#45;&gt;4</title>
<path fill="none" stroke="red" stroke-width="0.368526" d="M721.561,-96.4593C724.639,-95.482 727.896,-94.5855 731,-93.9828 985.411,-44.5891 1057.57,-101.828 1313,-57.9828 1339.02,-53.5168 1367.99,-44.7498 1387.64,-38.2114"/>
<polygon fill="red" stroke="red" stroke-width="0.368526" points="1388.92,-41.4733 1397.26,-34.94 1386.67,-34.8461 1388.92,-41.4733"/>
</g>
<!-- &#45;22 -->
<g id="node22" class="node"><title>&#45;22</title>
<polygon fill="lightgray" stroke="black" points="486.5,-111.983 457.5,-111.983 457.5,-93.9828 486.5,-93.9828 486.5,-111.983"/>
<text text-anchor="middle" x="472" y="-100.783" font-family="Times New Roman,serif" font-size="9.00">&#45;22</text>
</g>
<!-- &#45;22&#45;&gt;output -->
<g id="edge42" class="edge"><title>&#45;22&#45;&gt;output</title>
<path fill="none" stroke="green" stroke-width="0.236093" d="M486.576,-96.5298C489.652,-95.5473 492.905,-94.6309 496,-93.9828 668.107,-57.9405 716.907,-88.9473 890,-57.9828 912.414,-53.9732 937.036,-47.4446 956.694,-41.7006"/>
<polygon fill="green" stroke="green" stroke-width="0.236093" points="957.898,-44.9941 966.484,-38.786 955.901,-38.2851 957.898,-44.9941"/>
</g>
<!-- &#45;22&#45;&gt;1 -->
<g id="edge101" class="edge"><title>&#45;22&#45;&gt;1</title>
<path fill="none" stroke="red" stroke-width="0.266514" d="M486.625,-96.7415C489.698,-95.7437 492.937,-94.7675 496,-93.9828 617.249,-62.9206 765.72,-41.1099 823.428,-33.2326"/>
<polygon fill="red" stroke="red" stroke-width="0.266514" points="823.981,-36.6898 833.423,-31.8844 823.045,-29.7526 823.981,-36.6898"/>
</g>
<!-- &#45;22&#45;&gt;2 -->
<g id="edge36" class="edge"><title>&#45;22&#45;&gt;2</title>
<path fill="none" stroke="red" stroke-width="0.447531" stroke-dasharray="1,5" d="M486.563,-96.4668C489.64,-95.4889 492.897,-94.5903 496,-93.9828 738.145,-46.5791 804.381,-81.4957 1050,-57.9828 1121.41,-51.1465 1205.37,-39.5211 1246.19,-33.6359"/>
<polygon fill="red" stroke="red" stroke-width="0.447531" points="1246.9,-37.0703 1256.29,-32.1701 1245.89,-30.1429 1246.9,-37.0703"/>
</g>
<!-- &#45;22&#45;&gt;3 -->
<g id="edge7" class="edge"><title>&#45;22&#45;&gt;3</title>
<path fill="none" stroke="red" stroke-width="0.579011" d="M486.558,-94.5496C511.339,-81.8972 561.855,-56.1047 590.977,-41.2361"/>
<polygon fill="red" stroke="red" stroke-width="0.579011" points="592.649,-44.3118 599.964,-36.6472 589.466,-38.0774 592.649,-44.3118"/>
</g>
<!-- &#45;22&#45;&gt;5 -->
<g id="edge56" class="edge"><title>&#45;22&#45;&gt;5</title>
<path fill="none" stroke="green" stroke-width="0.29977" d="M486.551,-96.4011C489.629,-95.4279 492.889,-94.5479 496,-93.9828 914.782,-17.9177 1030.11,-106.193 1453,-57.9828 1496.2,-53.0577 1545.77,-42.4917 1574.62,-35.8427"/>
<polygon fill="green" stroke="green" stroke-width="0.29977" points="1575.67,-39.1927 1584.61,-33.506 1574.07,-32.3769 1575.67,-39.1927"/>
</g>
<!-- &#45;23 -->
<g id="node23" class="node"><title>&#45;23</title>
<polygon fill="lightgray" stroke="black" points="118.5,-111.983 89.5,-111.983 89.5,-93.9828 118.5,-93.9828 118.5,-111.983"/>
<text text-anchor="middle" x="104" y="-100.783" font-family="Times New Roman,serif" font-size="9.00">&#45;23</text>
</g>
<!-- &#45;23&#45;&gt;output -->
<g id="edge151" class="edge"><title>&#45;23&#45;&gt;output</title>
<path fill="none" stroke="green" stroke-width="0.180255" stroke-dasharray="1,5" d="M118.923,-96.0993C121.578,-95.253 124.343,-94.4963 127,-93.9828 460.318,-29.5533 554.583,-110.404 890,-57.9828 912.496,-54.4669 937.123,-47.9623 956.762,-42.1078"/>
<polygon fill="green" stroke="green" stroke-width="0.180255" points="957.997,-45.3905 966.54,-39.1248 955.954,-38.6951 957.997,-45.3905"/>
</g>
<!-- &#45;23&#45;&gt;3 -->
<g id="edge178" class="edge"><title>&#45;23&#45;&gt;3</title>
<path fill="none" stroke="green" stroke-width="0.326838" d="M118.964,-96.2862C121.613,-95.4192 124.367,-94.607 127,-93.9828 300.317,-52.8845 515.097,-36.2141 587.687,-31.4998"/>
<polygon fill="green" stroke="green" stroke-width="0.326838" points="588.328,-34.9664 598.088,-30.844 587.888,-27.9803 588.328,-34.9664"/>
</g>
<!-- &#45;24 -->
<g id="node24" class="node"><title>&#45;24</title>
<polygon fill="lightgray" stroke="black" points="165.5,-111.983 136.5,-111.983 136.5,-93.9828 165.5,-93.9828 165.5,-111.983"/>
<text text-anchor="middle" x="151" y="-100.783" font-family="Times New Roman,serif" font-size="9.00">&#45;24</text>
</g>
<!-- &#45;24&#45;&gt;output -->
<g id="edge6" class="edge"><title>&#45;24&#45;&gt;output</title>
<path fill="none" stroke="red" stroke-width="0.21067" d="M165.556,-96.4317C168.634,-95.4563 171.892,-94.5676 175,-93.9828 487.691,-35.1328 575.714,-107.61 890,-57.9828 912.491,-54.4314 937.117,-47.925 956.758,-42.0785"/>
<polygon fill="red" stroke="red" stroke-width="0.21067" points="957.99,-45.362 966.537,-39.1004 955.951,-38.6656 957.99,-45.362"/>
</g>
<!-- &#45;24&#45;&gt;1 -->
<g id="edge177" class="edge"><title>&#45;24&#45;&gt;1</title>
<path fill="none" stroke="red" stroke-width="0.666926" d="M165.569,-96.4977C168.646,-95.5176 171.901,-94.6103 175,-93.9828 376.86,-53.1146 432.175,-79.5331 637,-57.9828 704.688,-50.8611 784.198,-39.4978 823.481,-33.6827"/>
<polygon fill="red" stroke="red" stroke-width="0.666926" points="824.076,-37.1328 833.451,-32.1978 823.045,-30.2092 824.076,-37.1328"/>
</g>
<!-- &#45;24&#45;&gt;3 -->
<g id="edge52" class="edge"><title>&#45;24&#45;&gt;3</title>
<path fill="none" stroke="red" stroke-width="0.115279" d="M165.605,-96.6588C168.679,-95.667 171.923,-94.7142 175,-93.9828 329.747,-57.1925 520.579,-38.0625 587.991,-32.0851"/>
<polygon fill="red" stroke="red" stroke-width="0.115279" points="588.415,-35.5615 598.074,-31.2083 587.809,-28.5878 588.415,-35.5615"/>
</g>
<!-- &#45;25 -->
<g id="node25" class="node"><title>&#45;25</title>
<polygon fill="lightgray" stroke="black" points="1750.5,-111.983 1721.5,-111.983 1721.5,-93.9828 1750.5,-93.9828 1750.5,-111.983"/>
<text text-anchor="middle" x="1736" y="-100.783" font-family="Times New Roman,serif" font-size="9.00">&#45;25</text>
</g>
<!-- &#45;25&#45;&gt;output -->
<g id="edge148" class="edge"><title>&#45;25&#45;&gt;output</title>
<path fill="none" stroke="red" stroke-width="0.315853" d="M1721.43,-96.4965C1718.35,-95.5165 1715.1,-94.6095 1712,-93.9828 1508.83,-52.9015 1453.38,-77.3826 1247,-57.9828 1171.01,-50.8394 1082.4,-40.5938 1032.78,-34.6834"/>
<polygon fill="red" stroke="red" stroke-width="0.315853" points="1033.15,-31.2026 1022.8,-33.4907 1032.32,-38.1531 1033.15,-31.2026"/>
</g>
<!-- &#45;25&#45;&gt;2 -->
<g id="edge75" class="edge"><title>&#45;25&#45;&gt;2</title>
<path fill="none" stroke="green" stroke-width="0.113646" d="M1721.41,-96.5758C1718.34,-95.59 1715.09,-94.6606 1712,-93.9828 1570.05,-62.8305 1530.14,-83.0779 1387,-57.9828 1354.79,-52.3366 1318.21,-43.0131 1294.88,-36.6925"/>
<polygon fill="green" stroke="green" stroke-width="0.113646" points="1295.73,-33.2964 1285.16,-34.0238 1293.88,-40.0466 1295.73,-33.2964"/>
</g>
<!-- &#45;25&#45;&gt;4 -->
<g id="edge39" class="edge"><title>&#45;25&#45;&gt;4</title>
<path fill="none" stroke="red" stroke-width="0.166662" d="M1721.36,-96.8117C1718.28,-95.8088 1715.05,-94.8129 1712,-93.9828 1610.45,-66.3569 1486.96,-43.3566 1435.42,-34.2208"/>
<polygon fill="red" stroke="red" stroke-width="0.166662" points="1436,-30.7698 1425.55,-32.4851 1434.79,-37.664 1436,-30.7698"/>
</g>
<!-- &#45;25&#45;&gt;6 -->
<g id="edge15" class="edge"><title>&#45;25&#45;&gt;6</title>
<path fill="none" stroke="green" stroke-width="0.262017" d="M1733.36,-93.7244C1730.22,-83.8944 1724.84,-67.0618 1720.4,-53.1634"/>
<polygon fill="green" stroke="green" stroke-width="0.262017" points="1723.62,-51.7322 1717.24,-43.2717 1716.95,-53.8626 1723.62,-51.7322"/>
</g>
<!-- &#45;26 -->
<g id="node26" class="node"><title>&#45;26</title>
<polygon fill="lightgray" stroke="black" points="1938.5,-111.983 1909.5,-111.983 1909.5,-93.9828 1938.5,-93.9828 1938.5,-111.983"/>
<text text-anchor="middle" x="1924" y="-100.783" font-family="Times New Roman,serif" font-size="9.00">&#45;26</text>
</g>
<!-- &#45;26&#45;&gt;output -->
<g id="edge98" class="edge"><title>&#45;26&#45;&gt;output</title>
<path fill="none" stroke="red" stroke-width="0.79563" d="M1909.07,-96.1169C1906.42,-95.2686 1903.65,-94.5067 1901,-93.9828 1615.4,-37.615 1537.11,-81.9979 1247,-57.9828 1170.93,-51.6862 1082.35,-41.1448 1032.76,-34.9523"/>
<polygon fill="red" stroke="red" stroke-width="0.79563" points="1033.14,-31.4735 1022.79,-33.7 1032.27,-38.4189 1033.14,-31.4735"/>
</g>
<!-- &#45;26&#45;&gt;2 -->
<g id="edge145" class="edge"><title>&#45;26&#45;&gt;2</title>
<path fill="none" stroke="red" stroke-width="0.214923" d="M1909.07,-96.1503C1906.41,-95.2983 1903.65,-94.5265 1901,-93.9828 1676.67,-47.9637 1613.32,-92.9634 1387,-57.9828 1354.69,-52.9882 1318.13,-43.5128 1294.84,-36.98"/>
<polygon fill="red" stroke="red" stroke-width="0.214923" points="1295.71,-33.5895 1285.13,-34.2121 1293.79,-40.321 1295.71,-33.5895"/>
</g>
<!-- &#45;26&#45;&gt;5 -->
<g id="edge181" class="edge"><title>&#45;26&#45;&gt;5</title>
<path fill="none" stroke="green" stroke-width="0.259896" stroke-dasharray="1,5" d="M1909.02,-96.3689C1906.37,-95.4927 1903.62,-94.656 1901,-93.9828 1808.43,-70.2018 1781.95,-80.2237 1689,-57.9828 1666.12,-52.5076 1640.55,-44.3529 1622.53,-38.2556"/>
<polygon fill="green" stroke="green" stroke-width="0.259896" points="1623.46,-34.876 1612.87,-34.9392 1621.19,-41.4967 1623.46,-34.876"/>
</g>
<!-- &#45;26&#45;&gt;6 -->
<g id="edge133" class="edge"><title>&#45;26&#45;&gt;6</title>
<path fill="none" stroke="green" stroke-width="0.102691" d="M1909.4,-96.8897C1906.62,-95.9211 1903.72,-94.9182 1901,-93.9828 1841.95,-73.6642 1772.35,-50.0649 1736.69,-37.9978"/>
<polygon fill="green" stroke="green" stroke-width="0.102691" points="1737.76,-34.6643 1727.16,-34.7757 1735.51,-41.2953 1737.76,-34.6643"/>
</g>
<!-- &#45;27 -->
<g id="node27" class="node"><title>&#45;27</title>
<polygon fill="lightgray" stroke="black" points="2216.5,-111.983 2187.5,-111.983 2187.5,-93.9828 2216.5,-93.9828 2216.5,-111.983"/>
<text text-anchor="middle" x="2202" y="-100.783" font-family="Times New Roman,serif" font-size="9.00">&#45;27</text>
</g>
<!-- &#45;27&#45;&gt;1 -->
<g id="edge5" class="edge"><title>&#45;27&#45;&gt;1</title>
<path fill="none" stroke="red" stroke-width="0.761355" d="M2187.08,-96.0595C2184.43,-95.2177 2181.66,-94.4727 2179,-93.9828 1911.6,-44.7486 1225.18,-96.3313 956,-57.9828 926.337,-53.7568 893.089,-44.4178 871.419,-37.6878"/>
<polygon fill="red" stroke="red" stroke-width="0.761355" points="872.368,-34.3169 861.778,-34.6274 870.25,-40.9889 872.368,-34.3169"/>
</g>
<!-- &#45;27&#45;&gt;5 -->
<g id="edge54" class="edge"><title>&#45;27&#45;&gt;5</title>
<path fill="none" stroke="red" stroke-width="0.100338" stroke-dasharray="1,5" d="M2187.06,-96.1579C2184.41,-95.3051 2181.65,-94.531 2179,-93.9828 1965.16,-49.7367 1903.54,-98.6726 1689,-57.9828 1665.75,-53.5732 1640.05,-45.2129 1622.08,-38.7727"/>
<polygon fill="red" stroke="red" stroke-width="0.100338" points="1623.07,-35.4069 1612.48,-35.2471 1620.66,-41.9783 1623.07,-35.4069"/>
</g>
<!-- &#45;27&#45;&gt;6 -->
<g id="edge150" class="edge"><title>&#45;27&#45;&gt;6</title>
<path fill="none" stroke="green" stroke-width="0.2834" d="M2187.03,-96.2986C2184.38,-95.4301 2181.63,-94.6144 2179,-93.9828 2013.55,-54.2659 1808.74,-36.8106 1738.23,-31.6889"/>
<polygon fill="green" stroke="green" stroke-width="0.2834" points="1738.31,-28.1863 1728.09,-30.9713 1737.82,-35.1688 1738.31,-28.1863"/>
</g>
<!-- &#45;28 -->
<g id="node28" class="node"><title>&#45;28</title>
<polygon fill="lightgray" stroke="black" points="255.5,-111.983 226.5,-111.983 226.5,-93.9828 255.5,-93.9828 255.5,-111.983"/>
<text text-anchor="middle" x="241" y="-100.783" font-family="Times New Roman,serif" font-size="9.00">&#45;28</text>
</g>
<!-- &#45;28&#45;&gt;output -->
<g id="edge28" class="edge"><title>&#45;28&#45;&gt;output</title>
<path fill="none" stroke="red" stroke-width="0.201216" d="M255.928,-96.1224C258.582,-95.2735 261.346,-94.5099 264,-93.9828 537.341,-39.6853 614.886,-102.432 890,-57.9828 912.478,-54.3511 937.103,-47.8409 956.747,-42.0123"/>
<polygon fill="red" stroke="red" stroke-width="0.201216" points="957.974,-45.2976 966.528,-39.0454 955.942,-38.599 957.974,-45.2976"/>
</g>
<!-- &#45;28&#45;&gt;1 -->
<g id="edge25" class="edge"><title>&#45;28&#45;&gt;1</title>
<path fill="none" stroke="red" stroke-width="0.252322" d="M255.946,-96.209C258.598,-95.3505 261.357,-94.5613 264,-93.9828 426.697,-58.3726 471.534,-76.937 637,-57.9828 704.619,-50.237 784.159,-39.1476 823.465,-33.5353"/>
<polygon fill="red" stroke="red" stroke-width="0.252322" points="824.039,-36.9889 833.441,-32.1049 823.045,-30.0598 824.039,-36.9889"/>
</g>
<!-- &#45;28&#45;&gt;3 -->
<g id="edge13" class="edge"><title>&#45;28&#45;&gt;3</title>
<path fill="none" stroke="green" stroke-width="0.221614" d="M255.991,-96.3979C258.638,-95.5185 261.384,-94.6732 264,-93.9828 383.743,-62.3798 530.652,-40.9483 588.209,-33.2031"/>
<polygon fill="green" stroke="green" stroke-width="0.221614" points="588.741,-36.6633 598.193,-31.8771 587.819,-29.7242 588.741,-36.6633"/>
</g>
<!-- &#45;28&#45;&gt;4 -->
<g id="edge86" class="edge"><title>&#45;28&#45;&gt;4</title>
<path fill="none" stroke="green" stroke-width="0.206641" d="M255.918,-96.0705C258.573,-95.2274 261.34,-94.4792 264,-93.9828 722.578,-8.39201 852.187,-130.582 1313,-57.9828 1339.08,-53.8746 1368.04,-45.0483 1387.67,-38.3983"/>
<polygon fill="green" stroke="green" stroke-width="0.206641" points="1388.98,-41.6487 1397.28,-35.0636 1386.69,-35.0355 1388.98,-41.6487"/>
</g>
<!-- &#45;29 -->
<g id="node29" class="node"><title>&#45;29</title>
<polygon fill="lightgray" stroke="black" points="1797.5,-111.983 1768.5,-111.983 1768.5,-93.9828 1797.5,-93.9828 1797.5,-111.983"/>
<text text-anchor="middle" x="1783" y="-100.783" font-family="Times New Roman,serif" font-size="9.00">&#45;29</text>
</g>
<!-- &#45;29&#45;&gt;2 -->
<g id="edge167" class="edge"><title>&#45;29&#45;&gt;2</title>
<path fill="none" stroke="red" stroke-width="0.251768" d="M1768.05,-96.209C1765.4,-95.3505 1762.64,-94.5613 1760,-93.9828 1597.3,-58.3726 1551.24,-85.5847 1387,-57.9828 1354.76,-52.5639 1318.18,-43.1874 1294.87,-36.7928"/>
<polygon fill="red" stroke="red" stroke-width="0.251768" points="1295.73,-33.3987 1285.15,-34.0895 1293.85,-40.1424 1295.73,-33.3987"/>
</g>
<!-- &#45;29&#45;&gt;4 -->
<g id="edge159" class="edge"><title>&#45;29&#45;&gt;4</title>
<path fill="none" stroke="red" stroke-width="0.167476" d="M1768.01,-96.3979C1765.36,-95.5185 1762.62,-94.6732 1760,-93.9828 1728.49,-85.6657 1510.56,-47.3661 1435.97,-34.3414"/>
<polygon fill="red" stroke="red" stroke-width="0.167476" points="1436.12,-30.8137 1425.66,-32.5428 1434.91,-37.7095 1436.12,-30.8137"/>
</g>
<!-- &#45;29&#45;&gt;5 -->
<g id="edge175" class="edge"><title>&#45;29&#45;&gt;5</title>
<path fill="none" stroke="red" stroke-width="0.190947" d="M1768.25,-96.2131C1736.31,-83.7166 1660.53,-54.0673 1622.14,-39.0468"/>
<polygon fill="red" stroke="red" stroke-width="0.190947" points="1623.39,-35.7775 1612.81,-35.3932 1620.84,-42.2963 1623.39,-35.7775"/>
</g>
<!-- &#45;30 -->
<g id="node30" class="node"><title>&#45;30</title>
<polygon fill="lightgray" stroke="black" points="2122.5,-111.983 2093.5,-111.983 2093.5,-93.9828 2122.5,-93.9828 2122.5,-111.983"/>
<text text-anchor="middle" x="2108" y="-100.783" font-family="Times New Roman,serif" font-size="9.00">&#45;30</text>
</g>
<!-- &#45;30&#45;&gt;output -->
<g id="edge179" class="edge"><title>&#45;30&#45;&gt;output</title>
<path fill="none" stroke="green" stroke-width="0.515636" d="M2093.45,-96.4141C2090.37,-95.44 2087.11,-94.5563 2084,-93.9828 1717.83,-26.4551 1618.25,-86.4716 1247,-57.9828 1170.9,-52.1429 1082.32,-41.442 1032.75,-35.0973"/>
<polygon fill="green" stroke="green" stroke-width="0.515636" points="1033.14,-31.6196 1022.78,-33.8129 1032.25,-38.5622 1033.14,-31.6196"/>
</g>
<!-- &#45;30&#45;&gt;4 -->
<g id="edge173" class="edge"><title>&#45;30&#45;&gt;4</title>
<path fill="none" stroke="green" stroke-width="0.441139" d="M2093.43,-96.4805C2090.36,-95.5016 2087.1,-94.5992 2084,-93.9828 1861.56,-49.7765 1800.16,-85.0936 1575,-57.9828 1525.23,-51.9907 1467.58,-41.2596 1435.6,-34.9681"/>
<polygon fill="green" stroke="green" stroke-width="0.441139" points="1435.9,-31.4601 1425.41,-32.9429 1434.53,-38.3258 1435.9,-31.4601"/>
</g>
<!-- &#45;30&#45;&gt;5 -->
<g id="edge77" class="edge"><title>&#45;30&#45;&gt;5</title>
<path fill="none" stroke="green" stroke-width="0.431358" d="M2093.42,-96.5292C2090.35,-95.5468 2087.1,-94.6306 2084,-93.9828 1911.46,-57.8696 1861.9,-92.3498 1689,-57.9828 1665.92,-53.396 1640.38,-45.1318 1622.42,-38.7678"/>
<polygon fill="green" stroke="green" stroke-width="0.431358" points="1623.39,-35.3971 1612.79,-35.2825 1621,-41.9787 1623.39,-35.3971"/>
</g>
<!-- &#45;30&#45;&gt;6 -->
<g id="edge73" class="edge"><title>&#45;30&#45;&gt;6</title>
<path fill="none" stroke="green" stroke-width="0.368372" d="M2093.38,-96.7201C2090.31,-95.7238 2087.07,-94.7537 2084,-93.9828 1955.4,-61.6557 1797.63,-40.3778 1737.69,-32.9386"/>
<polygon fill="green" stroke="green" stroke-width="0.368372" points="1738.01,-29.4525 1727.66,-31.7111 1737.16,-36.4006 1738.01,-29.4525"/>
</g>
<!-- &#45;31 -->
<g id="node31" class="node"><title>&#45;31</title>
<polygon fill="lightgray" stroke="black" points="2400.5,-111.983 2371.5,-111.983 2371.5,-93.9828 2400.5,-93.9828 2400.5,-111.983"/>
<text text-anchor="middle" x="2386" y="-100.783" font-family="Times New Roman,serif" font-size="9.00">&#45;31</text>
</g>
<!-- &#45;31&#45;&gt;6 -->
<g id="edge69" class="edge"><title>&#45;31&#45;&gt;6</title>
<path fill="none" stroke="red" stroke-width="0.114943" d="M2371.05,-96.2133C2368.4,-95.3543 2365.64,-94.5638 2363,-93.9828 2123.75,-41.3772 1825.42,-31.9868 1738.09,-30.3369"/>
<polygon fill="red" stroke="red" stroke-width="0.114943" points="1737.9,-26.8333 1727.85,-30.1616 1737.78,-33.8323 1737.9,-26.8333"/>
</g>
<!-- &#45;32 -->
<g id="node32" class="node"><title>&#45;32</title>
<polygon fill="lightgray" stroke="black" points="1891.5,-111.983 1862.5,-111.983 1862.5,-93.9828 1891.5,-93.9828 1891.5,-111.983"/>
<text text-anchor="middle" x="1877" y="-100.783" font-family="Times New Roman,serif" font-size="9.00">&#45;32</text>
</g>
<!-- &#45;32&#45;&gt;output -->
<g id="edge106" class="edge"><title>&#45;32&#45;&gt;output</title>
<path fill="none" stroke="red" stroke-width="0.196439" d="M1862.07,-96.1264C1859.42,-95.2771 1856.65,-94.5123 1854,-93.9828 1588.97,-41.0901 1516.28,-80.8495 1247,-57.9828 1170.95,-51.5246 1082.36,-41.0397 1032.76,-34.901"/>
<polygon fill="red" stroke="red" stroke-width="0.196439" points="1033.15,-31.4218 1022.79,-33.6601 1032.28,-38.3682 1033.15,-31.4218"/>
</g>
<!-- &#45;32&#45;&gt;4 -->
<g id="edge72" class="edge"><title>&#45;32&#45;&gt;4</title>
<path fill="none" stroke="red" stroke-width="0.147911" d="M1862.04,-96.2805C1859.39,-95.4141 1856.63,-94.6036 1854,-93.9828 1732.31,-65.293 1698.65,-76.5043 1575,-57.9828 1525.43,-50.5573 1467.7,-40.3362 1435.66,-34.5219"/>
<polygon fill="red" stroke="red" stroke-width="0.147911" points="1435.91,-31.0112 1425.45,-32.6609 1434.66,-37.8977 1435.91,-31.0112"/>
</g>
<!-- &#45;32&#45;&gt;6 -->
<g id="edge112" class="edge"><title>&#45;32&#45;&gt;6</title>
<path fill="none" stroke="red" stroke-width="0.237961" d="M1862.45,-95.594C1833.76,-83.0032 1769.76,-54.906 1735.56,-39.8944"/>
<polygon fill="red" stroke="red" stroke-width="0.237961" points="1736.93,-36.6736 1726.37,-35.8589 1734.12,-43.0833 1736.93,-36.6736"/>
</g>
<!-- &#45;33 -->
<g id="node33" class="node"><title>&#45;33</title>
<polygon fill="lightgray" stroke="black" points="1425.5,-111.983 1396.5,-111.983 1396.5,-93.9828 1425.5,-93.9828 1425.5,-111.983"/>
<text text-anchor="middle" x="1411" y="-100.783" font-family="Times New Roman,serif" font-size="9.00">&#45;33</text>
</g>
<!-- &#45;33&#45;&gt;2 -->
<g id="edge63" class="edge"><title>&#45;33&#45;&gt;2</title>
<path fill="none" stroke="green" stroke-width="0.411964" d="M1396.28,-94.4145C1371.66,-81.7556 1322,-56.2183 1293.15,-41.3805"/>
<polygon fill="green" stroke="green" stroke-width="0.411964" points="1294.38,-38.0776 1283.88,-36.6171 1291.18,-44.3027 1294.38,-38.0776"/>
</g>
<!-- &#45;33&#45;&gt;4 -->
<g id="edge70" class="edge"><title>&#45;33&#45;&gt;4</title>
<path fill="none" stroke="red" stroke-width="0.580895" d="M1411,-93.7244C1411,-84.1657 1411,-67.9854 1411,-54.3204"/>
<polygon fill="red" stroke="red" stroke-width="0.580895" points="1414.5,-54.075 1411,-44.0751 1407.5,-54.0751 1414.5,-54.075"/>
</g>
<!-- &#45;34 -->
<g id="node34" class="node"><title>&#45;34</title>
<polygon fill="lightgray" stroke="black" points="1844.5,-111.983 1815.5,-111.983 1815.5,-93.9828 1844.5,-93.9828 1844.5,-111.983"/>
<text text-anchor="middle" x="1830" y="-100.783" font-family="Times New Roman,serif" font-size="9.00">&#45;34</text>
</g>
<!-- &#45;34&#45;&gt;1 -->
<g id="edge41" class="edge"><title>&#45;34&#45;&gt;1</title>
<path fill="none" stroke="green" stroke-width="0.147008" d="M1815.08,-96.0884C1812.42,-95.2433 1809.66,-94.4898 1807,-93.9828 1435.15,-23.0432 1330.43,-113.782 956,-57.9828 926.365,-53.5663 893.111,-44.2671 871.432,-37.5983"/>
<polygon fill="green" stroke="green" stroke-width="0.147008" points="872.376,-34.2261 861.786,-34.5688 870.278,-40.9044 872.376,-34.2261"/>
</g>
<!-- &#45;34&#45;&gt;2 -->
<g id="edge23" class="edge"><title>&#45;34&#45;&gt;2</title>
<path fill="none" stroke="green" stroke-width="0.182393" d="M1815.06,-96.1851C1812.41,-95.3293 1809.65,-94.5471 1807,-93.9828 1623.77,-54.9054 1571.92,-88.0424 1387,-57.9828 1354.73,-52.7367 1318.16,-43.3199 1294.85,-36.869"/>
<polygon fill="green" stroke="green" stroke-width="0.182393" points="1295.72,-33.4764 1285.15,-34.1394 1293.82,-40.2152 1295.72,-33.4764"/>
</g>
<!-- &#45;34&#45;&gt;4 -->
<g id="edge129" class="edge"><title>&#45;34&#45;&gt;4</title>
<path fill="none" stroke="green" stroke-width="0.400756" d="M1815.02,-96.3373C1812.38,-95.4646 1809.63,-94.6373 1807,-93.9828 1705.75,-68.7399 1677.99,-74.7611 1575,-57.9828 1525.53,-49.9228 1467.77,-39.9275 1435.69,-34.3244"/>
<polygon fill="green" stroke="green" stroke-width="0.400756" points="1435.92,-30.8122 1425.47,-32.5361 1434.71,-37.7075 1435.92,-30.8122"/>
</g>
<!-- &#45;34&#45;&gt;5 -->
<g id="edge104" class="edge"><title>&#45;34&#45;&gt;5</title>
<path fill="none" stroke="green" stroke-width="0.743043" d="M1815.43,-96.8192C1812.64,-95.8571 1809.73,-94.8746 1807,-93.9828 1754.87,-76.9731 1741.4,-74.1247 1689,-57.9828 1666.52,-51.0564 1640.9,-43.0806 1622.76,-37.4191"/>
<polygon fill="green" stroke="green" stroke-width="0.743043" points="1623.61,-34.0189 1613.02,-34.3785 1621.52,-40.7006 1623.61,-34.0189"/>
</g>
<!-- &#45;34&#45;&gt;6 -->
<g id="edge78" class="edge"><title>&#45;34&#45;&gt;6</title>
<path fill="none" stroke="green" stroke-width="0.647485" d="M1816.58,-93.7244C1796.34,-81.2693 1757.82,-57.572 1733.89,-42.8456"/>
<polygon fill="green" stroke="green" stroke-width="0.647485" points="1735.56,-39.7622 1725.21,-37.5025 1731.89,-45.724 1735.56,-39.7622"/>
</g>
<!-- &#45;35 -->
<g id="node35" class="node"><title>&#45;35</title>
<polygon fill="lightgray" stroke="black" points="439.5,-111.983 410.5,-111.983 410.5,-93.9828 439.5,-93.9828 439.5,-111.983"/>
<text text-anchor="middle" x="425" y="-100.783" font-family="Times New Roman,serif" font-size="9.00">&#45;35</text>
</g>
<!-- &#45;35&#45;&gt;3 -->
<g id="edge188" class="edge"><title>&#45;35&#45;&gt;3</title>
<path fill="none" stroke="green" stroke-width="0.188593" d="M439.752,-96.3337C472.331,-83.8582 550.629,-53.8752 589.827,-38.8653"/>
<polygon fill="green" stroke="green" stroke-width="0.188593" points="591.25,-42.0679 599.338,-35.2232 588.747,-35.5308 591.25,-42.0679"/>
</g>
<!-- &#45;35&#45;&gt;4 -->
<g id="edge67" class="edge"><title>&#45;35&#45;&gt;4</title>
<path fill="none" stroke="green" stroke-width="0.172382" d="M439.921,-96.0868C442.576,-95.2419 445.342,-94.4889 448,-93.9828 825.986,-22.0074 933.132,-119.249 1313,-57.9828 1339.06,-53.7796 1368.03,-44.9691 1387.67,-38.3486"/>
<polygon fill="green" stroke="green" stroke-width="0.172382" points="1388.97,-41.6022 1397.28,-35.0308 1386.68,-34.9853 1388.97,-41.6022"/>
</g>
<!-- &#45;36 -->
<g id="node36" class="node"><title>&#45;36</title>
<polygon fill="lightgray" stroke="black" points="580.5,-111.983 551.5,-111.983 551.5,-93.9828 580.5,-93.9828 580.5,-111.983"/>
<text text-anchor="middle" x="566" y="-100.783" font-family="Times New Roman,serif" font-size="9.00">&#45;36</text>
</g>
<!-- &#45;36&#45;&gt;output -->
<g id="edge43" class="edge"><title>&#45;36&#45;&gt;output</title>
<path fill="none" stroke="green" stroke-width="0.230009" d="M580.59,-96.5976C583.666,-95.6102 586.914,-94.6747 590,-93.9828 721.036,-64.5994 758.157,-83.4993 890,-57.9828 912.355,-53.6563 936.974,-47.1123 956.645,-41.4393"/>
<polygon fill="green" stroke="green" stroke-width="0.230009" points="957.831,-44.7392 966.443,-38.5685 955.862,-38.0217 957.831,-44.7392"/>
</g>
<!-- &#45;36&#45;&gt;1 -->
<g id="edge169" class="edge"><title>&#45;36&#45;&gt;1</title>
<path fill="none" stroke="green" stroke-width="0.847777" d="M580.666,-96.8911C583.736,-95.8825 586.963,-94.8641 590,-93.9828 675.139,-69.2758 777.779,-45.616 823.714,-35.3439"/>
<polygon fill="green" stroke="green" stroke-width="0.847777" points="824.629,-38.726 833.631,-33.1379 823.109,-31.8931 824.629,-38.726"/>
</g>
<!-- &#45;36&#45;&gt;2 -->
<g id="edge38" class="edge"><title>&#45;36&#45;&gt;2</title>
<path fill="none" stroke="red" stroke-width="0.253062" d="M580.569,-96.4985C583.646,-95.5183 586.901,-94.6108 590,-93.9828 790.985,-53.2566 845.997,-78.8726 1050,-57.9828 1121.37,-50.6749 1205.34,-39.2613 1246.18,-33.5286"/>
<polygon fill="red" stroke="red" stroke-width="0.253062" points="1246.87,-36.9659 1256.29,-32.1026 1245.89,-30.0346 1246.87,-36.9659"/>
</g>
<!-- &#45;36&#45;&gt;3 -->
<g id="edge152" class="edge"><title>&#45;36&#45;&gt;3</title>
<path fill="none" stroke="red" stroke-width="0.299469" d="M571.391,-93.7244C578.196,-83.3023 590.139,-65.0087 599.489,-50.6861"/>
<polygon fill="red" stroke="red" stroke-width="0.299469" points="602.644,-52.2571 605.18,-41.9702 596.782,-48.4304 602.644,-52.2571"/>
</g>
<!-- &#45;36&#45;&gt;5 -->
<g id="edge166" class="edge"><title>&#45;36&#45;&gt;5</title>
<path fill="none" stroke="green" stroke-width="0.148832" d="M580.552,-96.4109C583.631,-95.4371 586.89,-94.5542 590,-93.9828 967.568,-24.6055 1071.67,-102.245 1453,-57.9828 1496.19,-52.9693 1545.77,-42.4313 1574.62,-35.8117"/>
<polygon fill="green" stroke="green" stroke-width="0.148832" points="1575.66,-39.1631 1584.6,-33.4862 1574.07,-32.3456 1575.66,-39.1631"/>
</g>
<!-- &#45;37 -->
<g id="node37" class="node"><title>&#45;37</title>
<polygon fill="lightgray" stroke="black" points="1613.5,-111.983 1584.5,-111.983 1584.5,-93.9828 1613.5,-93.9828 1613.5,-111.983"/>
<text text-anchor="middle" x="1599" y="-100.783" font-family="Times New Roman,serif" font-size="9.00">&#45;37</text>
</g>
<!-- &#45;37&#45;&gt;1 -->
<g id="edge156" class="edge"><title>&#45;37&#45;&gt;1</title>
<path fill="none" stroke="red" stroke-width="0.138888" d="M1584.07,-96.1236C1581.42,-95.2746 1578.65,-94.5107 1576,-93.9828 1305.28,-40.129 1228.68,-100.813 956,-57.9828 926.401,-53.3335 893.14,-44.0828 871.449,-37.4889"/>
<polygon fill="red" stroke="red" stroke-width="0.138888" points="872.385,-34.1149 861.797,-34.4972 870.313,-40.801 872.385,-34.1149"/>
</g>
<!-- &#45;37&#45;&gt;6 -->
<g id="edge122" class="edge"><title>&#45;37&#45;&gt;6</title>
<path fill="none" stroke="red" stroke-width="0.448291" d="M1612.08,-93.7244C1631.7,-81.3345 1668.93,-57.8198 1692.28,-43.0776"/>
<polygon fill="red" stroke="red" stroke-width="0.448291" points="1694.18,-46.0159 1700.77,-37.7171 1690.44,-40.0973 1694.18,-46.0159"/>
</g>
<!-- &#45;38 -->
<g id="node38" class="node"><title>&#45;38</title>
<polygon fill="lightgray" stroke="black" points="1194.5,-111.983 1165.5,-111.983 1165.5,-93.9828 1194.5,-93.9828 1194.5,-111.983"/>
<text text-anchor="middle" x="1180" y="-100.783" font-family="Times New Roman,serif" font-size="9.00">&#45;38</text>
</g>
<!-- &#45;38&#45;&gt;1 -->
<g id="edge55" class="edge"><title>&#45;38&#45;&gt;1</title>
<path fill="none" stroke="green" stroke-width="0.24639" stroke-dasharray="1,5" d="M1165.01,-96.3888C1162.36,-95.5104 1159.62,-94.6678 1157,-93.9828 1069.2,-71.0041 1044.66,-77.3816 956,-57.9828 926.893,-51.6139 893.771,-42.7922 871.968,-36.765"/>
<polygon fill="green" stroke="green" stroke-width="0.24639" points="872.814,-33.3675 862.242,-34.0537 870.935,-40.1104 872.814,-33.3675"/>
</g>
<!-- &#45;38&#45;&gt;3 -->
<g id="edge11" class="edge"><title>&#45;38&#45;&gt;3</title>
<path fill="none" stroke="green" stroke-width="0.24194" d="M1165.05,-96.2346C1162.4,-95.3733 1159.64,-94.5764 1157,-93.9828 1011.77,-61.3203 971.796,-75.7724 824,-57.9828 756.427,-49.8492 676.866,-38.93 637.546,-33.4438"/>
<polygon fill="green" stroke="green" stroke-width="0.24194" points="637.954,-29.9669 627.566,-32.0473 636.984,-36.8994 637.954,-29.9669"/>
</g>
<!-- &#45;38&#45;&gt;5 -->
<g id="edge59" class="edge"><title>&#45;38&#45;&gt;5</title>
<path fill="none" stroke="green" stroke-width="0.410923" d="M1194.6,-96.6553C1197.68,-95.6637 1200.92,-94.7119 1204,-93.9828 1312.8,-68.2007 1342.73,-76.5148 1453,-57.9828 1495.88,-50.7763 1545.55,-40.9318 1574.51,-35.0427"/>
<polygon fill="green" stroke="green" stroke-width="0.410923" points="1575.44,-38.4253 1584.53,-32.993 1574.04,-31.5671 1575.44,-38.4253"/>
</g>
<!-- &#45;38&#45;&gt;6 -->
<g id="edge89" class="edge"><title>&#45;38&#45;&gt;6</title>
<path fill="none" stroke="green" stroke-width="0.144368" d="M1194.57,-96.5084C1197.65,-95.5275 1200.9,-94.6171 1204,-93.9828 1394.92,-54.8894 1451.1,-101.745 1641,-57.9828 1658.14,-54.0325 1676.62,-46.7821 1690.56,-40.6502"/>
<polygon fill="green" stroke="green" stroke-width="0.144368" points="1692.17,-43.7644 1699.83,-36.4461 1689.28,-37.3896 1692.17,-43.7644"/>
</g>
<!-- &#45;39 -->
<g id="node39" class="node"><title>&#45;39</title>
<polygon fill="lightgray" stroke="black" points="2032.5,-111.983 2003.5,-111.983 2003.5,-93.9828 2032.5,-93.9828 2032.5,-111.983"/>
<text text-anchor="middle" x="2018" y="-100.783" font-family="Times New Roman,serif" font-size="9.00">&#45;39</text>
</g>
<!-- &#45;39&#45;&gt;output -->
<g id="edge165" class="edge"><title>&#45;39&#45;&gt;output</title>
<path fill="none" stroke="green" stroke-width="0.300408" d="M2003.08,-96.1014C2000.42,-95.2549 1997.66,-94.4975 1995,-93.9828 1668.25,-30.6629 1578.79,-84.2955 1247,-57.9828 1170.91,-51.9486 1082.33,-41.3156 1032.75,-35.0356"/>
<polygon fill="green" stroke="green" stroke-width="0.300408" points="1033.14,-31.5574 1022.78,-33.7649 1032.26,-38.5012 1033.14,-31.5574"/>
</g>
<!-- &#45;39&#45;&gt;4 -->
<g id="edge105" class="edge"><title>&#45;39&#45;&gt;4</title>
<path fill="none" stroke="green" stroke-width="0.294859" d="M2003.06,-96.1851C2000.41,-95.3293 1997.65,-94.5471 1995,-93.9828 1811.77,-54.9054 1760.84,-81.7641 1575,-57.9828 1525.28,-51.6202 1467.61,-41.0209 1435.61,-34.8528"/>
<polygon fill="green" stroke="green" stroke-width="0.294859" points="1435.9,-31.3442 1425.42,-32.87 1434.57,-38.2154 1435.9,-31.3442"/>
</g>
<!-- &#45;39&#45;&gt;6 -->
<g id="edge158" class="edge"><title>&#45;39&#45;&gt;6</title>
<path fill="none" stroke="green" stroke-width="0.392549" d="M2003.48,-96.6569C2000.68,-95.7098 1997.76,-94.7743 1995,-93.9828 1901,-67.0604 1786.8,-44.063 1737.55,-34.6021"/>
<polygon fill="green" stroke="green" stroke-width="0.392549" points="1738,-31.1259 1727.52,-32.6919 1736.69,-38.0022 1738,-31.1259"/>
</g>
<!-- &#45;40 -->
<g id="node40" class="node"><title>&#45;40</title>
<polygon fill="lightgray" stroke="black" points="1660.5,-111.983 1631.5,-111.983 1631.5,-93.9828 1660.5,-93.9828 1660.5,-111.983"/>
<text text-anchor="middle" x="1646" y="-100.783" font-family="Times New Roman,serif" font-size="9.00">&#45;40</text>
</g>
<!-- &#45;40&#45;&gt;1 -->
<g id="edge113" class="edge"><title>&#45;40&#45;&gt;1</title>
<path fill="none" stroke="red" stroke-width="0.38145" d="M1631.07,-96.1145C1628.42,-95.2665 1625.65,-94.5053 1623,-93.9828 1331.71,-36.6536 1249.37,-103.451 956,-57.9828 926.391,-53.3939 893.132,-44.1306 871.445,-37.5173"/>
<polygon fill="red" stroke="red" stroke-width="0.38145" points="872.383,-34.1437 861.794,-34.5158 870.304,-40.8279 872.383,-34.1437"/>
</g>
<!-- &#45;40&#45;&gt;6 -->
<g id="edge74" class="edge"><title>&#45;40&#45;&gt;6</title>
<path fill="none" stroke="green" stroke-width="0.414551" d="M1653.69,-93.7244C1664.01,-82.6306 1682.64,-62.6179 1696.27,-47.9694"/>
<polygon fill="green" stroke="green" stroke-width="0.414551" points="1698.99,-50.1788 1703.24,-40.474 1693.87,-45.4098 1698.99,-50.1788"/>
</g>
<!-- &#45;41 -->
<g id="node41" class="node"><title>&#45;41</title>
<polygon fill="lightgray" stroke="black" points="1331.5,-111.983 1302.5,-111.983 1302.5,-93.9828 1331.5,-93.9828 1331.5,-111.983"/>
<text text-anchor="middle" x="1317" y="-100.783" font-family="Times New Roman,serif" font-size="9.00">&#45;41</text>
</g>
<!-- &#45;41&#45;&gt;1 -->
<g id="edge68" class="edge"><title>&#45;41&#45;&gt;1</title>
<path fill="none" stroke="red" stroke-width="0.212207" d="M1302.05,-96.2311C1299.4,-95.3701 1296.64,-94.5743 1294,-93.9828 1146.58,-60.9521 1104.64,-85.0074 956,-57.9828 926.685,-52.6527 893.605,-43.6214 871.869,-37.2614"/>
<polygon fill="red" stroke="red" stroke-width="0.212207" points="872.759,-33.8747 862.176,-34.3818 870.765,-40.5848 872.759,-33.8747"/>
</g>
<!-- &#45;41&#45;&gt;2 -->
<g id="edge82" class="edge"><title>&#45;41&#45;&gt;2</title>
<path fill="none" stroke="green" stroke-width="0.324253" d="M1311.72,-93.7244C1305.06,-83.3023 1293.37,-65.0087 1284.22,-50.6861"/>
<polygon fill="green" stroke="green" stroke-width="0.324253" points="1286.99,-48.5124 1278.65,-41.9702 1281.09,-52.2814 1286.99,-48.5124"/>
</g>
<!-- &#45;41&#45;&gt;3 -->
<g id="edge120" class="edge"><title>&#45;41&#45;&gt;3</title>
<path fill="none" stroke="green" stroke-width="0.279404" d="M1302.06,-96.1649C1299.41,-95.3113 1296.65,-94.5351 1294,-93.9828 1088.91,-51.2139 1032.37,-79.7667 824,-57.9828 756.308,-50.9057 676.8,-39.5228 637.518,-33.6932"/>
<polygon fill="green" stroke="green" stroke-width="0.279404" points="637.955,-30.2198 627.548,-32.2044 636.921,-37.1431 637.955,-30.2198"/>
</g>
<!-- &#45;41&#45;&gt;4 -->
<g id="edge141" class="edge"><title>&#45;41&#45;&gt;4</title>
<path fill="none" stroke="green" stroke-width="0.213579" d="M1327.78,-93.7244C1343.26,-81.8741 1372.02,-59.8468 1391.34,-45.0519"/>
<polygon fill="green" stroke="green" stroke-width="0.213579" points="1393.65,-47.6847 1399.46,-38.8257 1389.4,-42.1273 1393.65,-47.6847"/>
</g>
<!-- &#45;41&#45;&gt;5 -->
<g id="edge90" class="edge"><title>&#45;41&#45;&gt;5</title>
<path fill="none" stroke="green" stroke-width="0.301203" d="M1331.67,-96.8911C1334.74,-95.8825 1337.96,-94.8641 1341,-93.9828 1426.14,-69.2758 1528.78,-45.616 1574.71,-35.3439"/>
<polygon fill="green" stroke="green" stroke-width="0.301203" points="1575.63,-38.726 1584.63,-33.1379 1574.11,-31.8931 1575.63,-38.726"/>
</g>
<!-- &#45;41&#45;&gt;6 -->
<g id="edge29" class="edge"><title>&#45;41&#45;&gt;6</title>
<path fill="none" stroke="green" stroke-width="0.293692" d="M1331.59,-96.5976C1334.67,-95.6102 1337.91,-94.6747 1341,-93.9828 1472.04,-64.5994 1510.72,-90.5697 1641,-57.9828 1658.07,-53.7141 1676.54,-46.4716 1690.51,-40.4231"/>
<polygon fill="green" stroke="green" stroke-width="0.293692" points="1692.08,-43.5539 1699.79,-36.2895 1689.23,-37.159 1692.08,-43.5539"/>
</g>
<!-- &#45;42 -->
<g id="node42" class="node"><title>&#45;42</title>
<polygon fill="lightgray" stroke="black" points="1985.5,-111.983 1956.5,-111.983 1956.5,-93.9828 1985.5,-93.9828 1985.5,-111.983"/>
<text text-anchor="middle" x="1971" y="-100.783" font-family="Times New Roman,serif" font-size="9.00">&#45;42</text>
</g>
<!-- &#45;42&#45;&gt;output -->
<g id="edge154" class="edge"><title>&#45;42&#45;&gt;output</title>
<path fill="none" stroke="green" stroke-width="0.436713" d="M1956.07,-96.1086C1953.42,-95.2613 1950.66,-94.5018 1948,-93.9828 1641.83,-34.1392 1557.95,-83.1466 1247,-57.9828 1170.92,-51.8262 1082.34,-41.2359 1032.75,-34.9968"/>
<polygon fill="green" stroke="green" stroke-width="0.436713" points="1033.14,-31.5182 1022.78,-33.7346 1032.26,-38.4628 1033.14,-31.5182"/>
</g>
<!-- &#45;42&#45;&gt;2 -->
<g id="edge143" class="edge"><title>&#45;42&#45;&gt;2</title>
<path fill="none" stroke="green" stroke-width="0.380556" d="M1956.07,-96.1372C1953.42,-95.2867 1950.65,-94.5187 1948,-93.9828 1703.1,-44.4905 1634.02,-95.4257 1387,-57.9828 1354.67,-53.0826 1318.11,-43.5852 1294.83,-37.0216"/>
<polygon fill="green" stroke="green" stroke-width="0.380556" points="1295.71,-33.6319 1285.13,-34.2394 1293.78,-40.3606 1295.71,-33.6319"/>
</g>
<!-- &#45;42&#45;&gt;4 -->
<g id="edge66" class="edge"><title>&#45;42&#45;&gt;4</title>
<path fill="none" stroke="green" stroke-width="0.282121" d="M1956.05,-96.209C1953.4,-95.3505 1950.64,-94.5613 1948,-93.9828 1785.3,-58.3726 1740.09,-80.0079 1575,-57.9828 1525.32,-51.354 1467.63,-40.8494 1435.62,-34.7699"/>
<polygon fill="green" stroke="green" stroke-width="0.282121" points="1435.91,-31.2608 1425.43,-32.8176 1434.59,-38.1359 1435.91,-31.2608"/>
</g>
<!-- &#45;42&#45;&gt;5 -->
<g id="edge40" class="edge"><title>&#45;42&#45;&gt;5</title>
<path fill="none" stroke="red" stroke-width="0.293021" d="M1956.03,-96.3022C1953.38,-95.4334 1950.63,-94.6165 1948,-93.9828 1835.02,-66.7613 1802.42,-83.3247 1689,-57.9828 1666.04,-52.8525 1640.48,-44.6553 1622.48,-38.4545"/>
<polygon fill="red" stroke="red" stroke-width="0.293021" points="1623.43,-35.0787 1612.84,-35.0725 1621.12,-41.6843 1623.43,-35.0787"/>
</g>
<!-- &#45;42&#45;&gt;6 -->
<g id="edge171" class="edge"><title>&#45;42&#45;&gt;6</title>
<path fill="none" stroke="red" stroke-width="0.280859" d="M1956.45,-96.7521C1953.66,-95.7962 1950.75,-94.8331 1948,-93.9828 1871.67,-70.3449 1779.97,-46.7336 1737.19,-35.9916"/>
<polygon fill="red" stroke="red" stroke-width="0.280859" points="1737.96,-32.5758 1727.41,-33.5456 1736.26,-39.3668 1737.96,-32.5758"/>
</g>
<!-- &#45;43 -->
<g id="node43" class="node"><title>&#45;43</title>
<polygon fill="lightgray" stroke="black" points="71.5,-111.983 42.5,-111.983 42.5,-93.9828 71.5,-93.9828 71.5,-111.983"/>
<text text-anchor="middle" x="57" y="-100.783" font-family="Times New Roman,serif" font-size="9.00">&#45;43</text>
</g>
<!-- &#45;43&#45;&gt;output -->
<g id="edge37" class="edge"><title>&#45;43&#45;&gt;output</title>
<path fill="none" stroke="green" stroke-width="0.534734" d="M71.9221,-96.0932C74.5766,-95.2476 77.3427,-94.4926 80,-93.9828 433.899,-26.0765 533.891,-113.14 890,-57.9828 912.501,-54.4976 937.128,-47.9945 956.766,-42.1332"/>
<polygon fill="green" stroke="green" stroke-width="0.534734" points="958.003,-45.4152 966.544,-39.1459 955.957,-38.7206 958.003,-45.4152"/>
</g>
<!-- &#45;43&#45;&gt;3 -->
<g id="edge65" class="edge"><title>&#45;43&#45;&gt;3</title>
<path fill="none" stroke="red" stroke-width="0.496297" d="M71.9576,-96.2608C74.6081,-95.3966 77.3637,-94.592 80,-93.9828 272.14,-49.5795 510.785,-34.8615 587.795,-31.0916"/>
<polygon fill="red" stroke="red" stroke-width="0.496297" points="588.136,-34.5795 597.96,-30.6125 587.806,-27.5873 588.136,-34.5795"/>
</g>
<!-- &#45;44 -->
<g id="node44" class="node"><title>&#45;44</title>
<polygon fill="lightgray" stroke="black" points="1147.5,-111.983 1118.5,-111.983 1118.5,-93.9828 1147.5,-93.9828 1147.5,-111.983"/>
<text text-anchor="middle" x="1133" y="-100.783" font-family="Times New Roman,serif" font-size="9.00">&#45;44</text>
</g>
<!-- &#45;44&#45;&gt;output -->
<g id="edge109" class="edge"><title>&#45;44&#45;&gt;output</title>
<path fill="none" stroke="red" stroke-width="0.191511" d="M1118.39,-94.4145C1097.19,-83.4367 1057.3,-62.7738 1028.39,-47.8026"/>
<polygon fill="red" stroke="red" stroke-width="0.191511" points="1029.92,-44.6525 1019.43,-43.1613 1026.7,-50.8683 1029.92,-44.6525"/>
</g>
<!-- &#45;44&#45;&gt;3 -->
<g id="edge9" class="edge"><title>&#45;44&#45;&gt;3</title>
<path fill="none" stroke="green" stroke-width="0.235691" d="M1118.04,-96.2736C1115.39,-95.4079 1112.63,-94.5995 1110,-93.9828 985.259,-64.7786 951.057,-74.4069 824,-57.9828 756.5,-49.2574 676.908,-38.598 637.563,-33.304"/>
<polygon fill="green" stroke="green" stroke-width="0.235691" points="637.954,-29.8252 627.577,-31.9592 637.02,-36.7626 637.954,-29.8252"/>
</g>
<!-- &#45;44&#45;&gt;4 -->
<g id="edge1" class="edge"><title>&#45;44&#45;&gt;4</title>
<path fill="none" stroke="green" stroke-width="0.126979" d="M1147.65,-96.8526C1150.73,-95.8468 1153.96,-94.8393 1157,-93.9828 1225.5,-74.7104 1244.1,-75.7598 1313,-57.9828 1338.42,-51.4252 1367.28,-43.0687 1387.07,-37.1999"/>
<polygon fill="green" stroke="green" stroke-width="0.126979" points="1388.2,-40.5145 1396.78,-34.3015 1386.2,-33.8067 1388.2,-40.5145"/>
</g>
<!-- &#45;44&#45;&gt;6 -->
<g id="edge96" class="edge"><title>&#45;44&#45;&gt;6</title>
<path fill="none" stroke="red" stroke-width="0.391191" d="M1147.57,-96.4893C1150.64,-95.5097 1153.9,-94.6048 1157,-93.9828 1368.49,-51.5523 1430.61,-105.585 1641,-57.9828 1658.26,-54.0769 1676.86,-46.7595 1690.83,-40.5858"/>
<polygon fill="red" stroke="red" stroke-width="0.391191" points="1692.45,-43.6924 1700.1,-36.3577 1689.55,-37.3238 1692.45,-43.6924"/>
</g>
<!-- &#45;45 -->
<g id="node45" class="node"><title>&#45;45</title>
<polygon fill="lightgray" stroke="black" points="815.5,-111.983 786.5,-111.983 786.5,-93.9828 815.5,-93.9828 815.5,-111.983"/>
<text text-anchor="middle" x="801" y="-100.783" font-family="Times New Roman,serif" font-size="9.00">&#45;45</text>
</g>
<!-- &#45;45&#45;&gt;output -->
<g id="edge144" class="edge"><title>&#45;45&#45;&gt;output</title>
<path fill="none" stroke="green" stroke-width="0.766519" d="M815.506,-96.5717C845.354,-85.438 914.438,-59.6689 957.375,-43.6529"/>
<polygon fill="green" stroke="green" stroke-width="0.766519" points="958.756,-46.8735 966.902,-40.0992 956.309,-40.3149 958.756,-46.8735"/>
</g>
<!-- &#45;45&#45;&gt;1 -->
<g id="edge76" class="edge"><title>&#45;45&#45;&gt;1</title>
<path fill="none" stroke="green" stroke-width="0.587673" d="M806.391,-93.7244C813.196,-83.3023 825.139,-65.0087 834.489,-50.6861"/>
<polygon fill="green" stroke="green" stroke-width="0.587673" points="837.644,-52.2571 840.18,-41.9702 831.782,-48.4304 837.644,-52.2571"/>
</g>
<!-- &#45;45&#45;&gt;4 -->
<g id="edge123" class="edge"><title>&#45;45&#45;&gt;4</title>
<path fill="none" stroke="green" stroke-width="0.104362" d="M815.567,-96.4878C818.644,-95.5084 821.899,-94.6039 825,-93.9828 1038.24,-51.2682 1098.88,-96.0461 1313,-57.9828 1338.99,-53.3626 1367.97,-44.6211 1387.63,-38.1309"/>
<polygon fill="green" stroke="green" stroke-width="0.104362" points="1388.9,-41.3976 1397.25,-34.8867 1386.66,-34.7643 1388.9,-41.3976"/>
</g>
<!-- &#45;46 -->
<g id="node46" class="node"><title>&#45;46</title>
<polygon fill="lightgray" stroke="black" points="1378.5,-111.983 1349.5,-111.983 1349.5,-93.9828 1378.5,-93.9828 1378.5,-111.983"/>
<text text-anchor="middle" x="1364" y="-100.783" font-family="Times New Roman,serif" font-size="9.00">&#45;46</text>
</g>
<!-- &#45;46&#45;&gt;output -->
<g id="edge30" class="edge"><title>&#45;46&#45;&gt;output</title>
<path fill="none" stroke="green" stroke-width="0.192029" d="M1349.01,-96.4002C1346.36,-95.5205 1343.62,-94.6746 1341,-93.9828 1230.76,-64.8287 1097.38,-44.2398 1032.79,-35.1737"/>
<polygon fill="green" stroke="green" stroke-width="0.192029" points="1033.05,-31.6756 1022.66,-33.7672 1032.09,-38.6091 1033.05,-31.6756"/>
</g>
<!-- &#45;46&#45;&gt;1 -->
<g id="edge4" class="edge"><title>&#45;46&#45;&gt;1</title>
<path fill="none" stroke="green" stroke-width="0.267236" d="M1349.06,-96.2024C1346.4,-95.3446 1343.64,-94.5573 1341,-93.9828 1173.06,-57.4876 1125.28,-87.6367 956,-57.9828 926.651,-52.8415 893.578,-43.7721 871.853,-37.3516"/>
<polygon fill="green" stroke="green" stroke-width="0.267236" points="872.75,-33.9666 862.165,-34.4414 870.736,-40.6706 872.75,-33.9666"/>
</g>
<!-- &#45;46&#45;&gt;2 -->
<g id="edge140" class="edge"><title>&#45;46&#45;&gt;2</title>
<path fill="none" stroke="red" stroke-width="0.431375" stroke-dasharray="1,5" d="M1353.33,-93.7244C1338.02,-81.8741 1309.57,-59.8468 1290.46,-45.0519"/>
<polygon fill="red" stroke="red" stroke-width="0.431375" points="1292.46,-42.1793 1282.41,-38.8257 1288.18,-47.7147 1292.46,-42.1793"/>
</g>
<!-- &#45;46&#45;&gt;5 -->
<g id="edge48" class="edge"><title>&#45;46&#45;&gt;5</title>
<path fill="none" stroke="green" stroke-width="0.552079" d="M1378.7,-97.0115C1381.77,-95.9941 1384.99,-94.9417 1388,-93.9828 1455.66,-72.4499 1536.05,-48.525 1575.2,-36.9796"/>
<polygon fill="green" stroke="green" stroke-width="0.552079" points="1576.28,-40.3097 1584.88,-34.1276 1574.3,-33.5947 1576.28,-40.3097"/>
</g>
<!-- &#45;46&#45;&gt;6 -->
<g id="edge31" class="edge"><title>&#45;46&#45;&gt;6</title>
<path fill="none" stroke="red" stroke-width="0.369948" d="M1378.6,-96.6499C1381.68,-95.6587 1384.92,-94.7084 1388,-93.9828 1498.55,-67.9187 1531.13,-86.7491 1641,-57.9828 1658.02,-53.5274 1676.5,-46.2894 1690.47,-40.2899"/>
<polygon fill="red" stroke="red" stroke-width="0.369948" points="1692.03,-43.43 1699.77,-36.1976 1689.21,-37.0233 1692.03,-43.43"/>
</g>
<!-- &#45;47 -->
<g id="node47" class="node"><title>&#45;47</title>
<polygon fill="lightgray" stroke="black" points="627.5,-111.983 598.5,-111.983 598.5,-93.9828 627.5,-93.9828 627.5,-111.983"/>
<text text-anchor="middle" x="613" y="-100.783" font-family="Times New Roman,serif" font-size="9.00">&#45;47</text>
</g>
<!-- &#45;47&#45;&gt;output -->
<g id="edge8" class="edge"><title>&#45;47&#45;&gt;output</title>
<path fill="none" stroke="red" stroke-width="0.18969" d="M627.602,-96.6499C630.677,-95.6587 633.922,-94.7084 637,-93.9828 747.546,-67.9187 778.735,-80.7841 890,-57.9828 912.306,-53.4117 936.923,-46.8557 956.605,-41.2375"/>
<polygon fill="red" stroke="red" stroke-width="0.18969" points="957.777,-44.5422 966.41,-38.4005 955.831,-37.8181 957.777,-44.5422"/>
</g>
<!-- &#45;47&#45;&gt;1 -->
<g id="edge97" class="edge"><title>&#45;47&#45;&gt;1</title>
<path fill="none" stroke="red" stroke-width="0.455348" d="M627.702,-97.0115C630.77,-95.9941 633.987,-94.9417 637,-93.9828 704.662,-72.4499 785.05,-48.525 824.198,-36.9796"/>
<polygon fill="red" stroke="red" stroke-width="0.455348" points="825.28,-40.3097 833.884,-34.1276 823.302,-33.5947 825.28,-40.3097"/>
</g>
<!-- &#45;47&#45;&gt;2 -->
<g id="edge125" class="edge"><title>&#45;47&#45;&gt;2</title>
<path fill="none" stroke="green" stroke-width="0.243163" d="M627.574,-96.5198C630.65,-95.538 633.904,-94.6245 637,-93.9828 817.418,-56.5926 866.792,-77.5625 1050,-57.9828 1121.33,-50.3594 1205.32,-39.0875 1246.18,-33.4568"/>
<polygon fill="green" stroke="green" stroke-width="0.243163" points="1246.86,-36.8961 1256.28,-32.0575 1245.9,-29.9622 1246.86,-36.8961"/>
</g>
<!-- &#45;47&#45;&gt;3 -->
<g id="edge170" class="edge"><title>&#45;47&#45;&gt;3</title>
<path fill="none" stroke="green" stroke-width="0.161506" d="M613,-93.7244C613,-84.1657 613,-67.9854 613,-54.3204"/>
<polygon fill="green" stroke="green" stroke-width="0.161506" points="616.5,-54.075 613,-44.0751 609.5,-54.0751 616.5,-54.075"/>
</g>
<!-- &#45;47&#45;&gt;5 -->
<g id="edge64" class="edge"><title>&#45;47&#45;&gt;5</title>
<path fill="none" stroke="green" stroke-width="0.301033" d="M627.553,-96.4167C630.632,-95.4425 633.89,-94.558 637,-93.9828 993.963,-27.949 1092.45,-100.271 1453,-57.9828 1496.19,-52.9175 1545.76,-42.3959 1574.62,-35.7935"/>
<polygon fill="green" stroke="green" stroke-width="0.301033" points="1575.65,-39.1458 1584.6,-33.4745 1574.07,-32.3272 1575.65,-39.1458"/>
</g>
<!-- &#45;48 -->
<g id="node48" class="node"><title>&#45;48</title>
<polygon fill="lightgray" stroke="black" points="1566.5,-111.983 1537.5,-111.983 1537.5,-93.9828 1566.5,-93.9828 1566.5,-111.983"/>
<text text-anchor="middle" x="1552" y="-100.783" font-family="Times New Roman,serif" font-size="9.00">&#45;48</text>
</g>
<!-- &#45;48&#45;&gt;output -->
<g id="edge168" class="edge"><title>&#45;48&#45;&gt;output</title>
<path fill="none" stroke="red" stroke-width="0.714814" d="M1537.04,-96.2599C1534.39,-95.3957 1531.64,-94.5914 1529,-93.9828 1504.78,-88.3911 1151.86,-47.9593 1032.85,-34.4062"/>
<polygon fill="red" stroke="red" stroke-width="0.714814" points="1033.06,-30.9077 1022.73,-33.2542 1032.27,-37.8628 1033.06,-30.9077"/>
</g>
<!-- &#45;48&#45;&gt;3 -->
<g id="edge88" class="edge"><title>&#45;48&#45;&gt;3</title>
<path fill="none" stroke="green" stroke-width="0.165043" d="M1537.08,-96.108C1534.42,-95.2607 1531.66,-94.5014 1529,-93.9828 1221.08,-33.8434 1136.43,-86.636 824,-57.9828 756.223,-51.7669 676.752,-40.006 637.498,-33.8965"/>
<polygon fill="green" stroke="green" stroke-width="0.165043" points="637.957,-30.4259 627.536,-32.3325 636.872,-37.3412 637.957,-30.4259"/>
</g>
<!-- &#45;48&#45;&gt;4 -->
<g id="edge119" class="edge"><title>&#45;48&#45;&gt;4</title>
<path fill="none" stroke="green" stroke-width="0.413175" stroke-dasharray="1,5" d="M1537.44,-94.5496C1512.66,-81.8972 1462.14,-56.1047 1433.02,-41.2361"/>
<polygon fill="green" stroke="green" stroke-width="0.413175" points="1434.53,-38.0774 1424.04,-36.6472 1431.35,-44.3118 1434.53,-38.0774"/>
</g>
<!-- &#45;48&#45;&gt;5 -->
<g id="edge91" class="edge"><title>&#45;48&#45;&gt;5</title>
<path fill="none" stroke="red" stroke-width="0.255654" stroke-dasharray="1,5" d="M1557.39,-93.7244C1564.2,-83.3023 1576.14,-65.0087 1585.49,-50.6861"/>
<polygon fill="red" stroke="red" stroke-width="0.255654" points="1588.64,-52.2571 1591.18,-41.9702 1582.78,-48.4304 1588.64,-52.2571"/>
</g>
<!-- &#45;48&#45;&gt;6 -->
<g id="edge182" class="edge"><title>&#45;48&#45;&gt;6</title>
<path fill="none" stroke="red" stroke-width="0.173805" stroke-dasharray="1,5" d="M1566.57,-95.467C1594.63,-82.9202 1656.36,-55.3186 1690.01,-40.2694"/>
<polygon fill="red" stroke="red" stroke-width="0.173805" points="1691.79,-43.3097 1699.49,-36.0325 1688.93,-36.9194 1691.79,-43.3097"/>
</g>
<!-- &#45;49 -->
<g id="node49" class="node"><title>&#45;49</title>
<polygon fill="lightgray" stroke="black" points="2353.5,-111.983 2324.5,-111.983 2324.5,-93.9828 2353.5,-93.9828 2353.5,-111.983"/>
<text text-anchor="middle" x="2339" y="-100.783" font-family="Times New Roman,serif" font-size="9.00">&#45;49</text>
</g>
<!-- &#45;49&#45;&gt;4 -->
<g id="edge17" class="edge"><title>&#45;49&#45;&gt;4</title>
<path fill="none" stroke="green" stroke-width="0.130593" d="M2324.44,-96.4276C2321.37,-95.4526 2318.11,-94.565 2315,-93.9828 1991.35,-33.3548 1902.33,-93.7474 1575,-57.9828 1525.17,-52.5384 1467.54,-41.6125 1435.58,-35.1386"/>
<polygon fill="green" stroke="green" stroke-width="0.130593" points="1435.9,-31.6315 1425.4,-33.0506 1434.49,-38.4887 1435.9,-31.6315"/>
</g>
<!-- &#45;49&#45;&gt;5 -->
<g id="edge172" class="edge"><title>&#45;49&#45;&gt;5</title>
<path fill="none" stroke="green" stroke-width="0.380077" d="M2324.44,-96.4489C2321.36,-95.4723 2318.11,-94.5787 2315,-93.9828 2041.31,-41.4613 1963.2,-107.735 1689,-57.9828 1665.72,-53.7581 1640.02,-45.3738 1622.06,-38.8777"/>
<polygon fill="green" stroke="green" stroke-width="0.380077" points="1623.06,-35.5132 1612.46,-35.3169 1620.62,-42.0763 1623.06,-35.5132"/>
</g>
<!-- &#45;49&#45;&gt;6 -->
<g id="edge107" class="edge"><title>&#45;49&#45;&gt;6</title>
<path fill="none" stroke="green" stroke-width="0.120878" d="M2324.42,-96.5652C2321.34,-95.5802 2318.09,-94.6538 2315,-93.9828 2094.82,-46.1712 1821.25,-33.5612 1738.11,-30.7245"/>
<polygon fill="green" stroke="green" stroke-width="0.120878" points="1738.19,-27.2255 1728.08,-30.3992 1737.96,-34.2218 1738.19,-27.2255"/>
</g>
<!-- &#45;50 -->
<g id="node50" class="node"><title>&#45;50</title>
<polygon fill="lightgray" stroke="black" points="392.5,-111.983 363.5,-111.983 363.5,-93.9828 392.5,-93.9828 392.5,-111.983"/>
<text text-anchor="middle" x="378" y="-100.783" font-family="Times New Roman,serif" font-size="9.00">&#45;50</text>
</g>
<!-- &#45;50&#45;&gt;output -->
<g id="edge60" class="edge"><title>&#45;50&#45;&gt;output</title>
<path fill="none" stroke="red" stroke-width="0.152812" d="M392.935,-96.1583C395.588,-95.3054 398.35,-94.5312 401,-93.9828 614.398,-49.8106 675.154,-94.465 890,-57.9828 912.448,-54.1709 937.072,-47.6519 956.722,-41.8637"/>
<polygon fill="red" stroke="red" stroke-width="0.152812" points="957.939,-45.1529 966.507,-38.9217 955.923,-38.4494 957.939,-45.1529"/>
</g>
<!-- &#45;50&#45;&gt;3 -->
<g id="edge45" class="edge"><title>&#45;50&#45;&gt;3</title>
<path fill="none" stroke="green" stroke-width="0.212598" d="M392.57,-96.8126C395.361,-95.8511 398.266,-94.8705 401,-93.9828 468.829,-71.9601 549.667,-48.2552 589.05,-36.8682"/>
<polygon fill="green" stroke="green" stroke-width="0.212598" points="590.157,-40.1917 598.795,-34.0576 588.217,-33.4659 590.157,-40.1917"/>
</g>
<!-- &#45;50&#45;&gt;4 -->
<g id="edge176" class="edge"><title>&#45;50&#45;&gt;4</title>
<path fill="none" stroke="green" stroke-width="0.631889" d="M392.92,-96.082C395.575,-95.2377 398.341,-94.486 401,-93.9828 799.57,-18.5299 912.457,-122.144 1313,-57.9828 1339.07,-53.8075 1368.03,-44.9923 1387.67,-38.3632"/>
<polygon fill="green" stroke="green" stroke-width="0.631889" points="1388.97,-41.6158 1397.28,-35.0404 1386.68,-35 1388.97,-41.6158"/>
</g>
<!-- &#45;51 -->
<g id="node51" class="node"><title>&#45;51</title>
<polygon fill="lightgray" stroke="black" points="302.5,-111.983 273.5,-111.983 273.5,-93.9828 302.5,-93.9828 302.5,-111.983"/>
<text text-anchor="middle" x="288" y="-100.783" font-family="Times New Roman,serif" font-size="9.00">&#45;51</text>
</g>
<!-- &#45;51&#45;&gt;1 -->
<g id="edge153" class="edge"><title>&#45;51&#45;&gt;1</title>
<path fill="none" stroke="green" stroke-width="0.376715" d="M302.586,-96.5758C305.661,-95.59 308.911,-94.6606 312,-93.9828 453.95,-62.8305 492.737,-75.5397 637,-57.9828 704.563,-49.7603 784.128,-38.8802 823.452,-33.4228"/>
<polygon fill="green" stroke="green" stroke-width="0.376715" points="824.01,-36.8789 833.433,-32.034 823.046,-29.9457 824.01,-36.8789"/>
</g>
<!-- &#45;51&#45;&gt;2 -->
<g id="edge187" class="edge"><title>&#45;51&#45;&gt;2</title>
<path fill="none" stroke="red" stroke-width="0.763495" stroke-dasharray="1,5" d="M302.555,-96.4279C305.634,-95.4528 308.892,-94.5652 312,-93.9828 634.772,-33.4971 722.862,-86.6359 1050,-57.9828 1121.47,-51.7233 1205.39,-39.8388 1246.21,-33.7672"/>
<polygon fill="red" stroke="red" stroke-width="0.763495" points="1246.93,-37.1977 1256.3,-32.2526 1245.89,-30.2752 1246.93,-37.1977"/>
</g>
<!-- &#45;51&#45;&gt;3 -->
<g id="edge92" class="edge"><title>&#45;51&#45;&gt;3</title>
<path fill="none" stroke="green" stroke-width="0.364292" d="M302.644,-96.8117C305.715,-95.8088 308.949,-94.8129 312,-93.9828 413.55,-66.3569 537.042,-43.3566 588.579,-34.2208"/>
<polygon fill="green" stroke="green" stroke-width="0.364292" points="589.208,-37.664 598.451,-32.4851 587.996,-30.7698 589.208,-37.664"/>
</g>
<!-- &#45;51&#45;&gt;4 -->
<g id="edge84" class="edge"><title>&#45;51&#45;&gt;4</title>
<path fill="none" stroke="red" stroke-width="0.686348" d="M302.55,-96.3971C305.628,-95.4243 308.888,-94.5453 312,-93.9828 750.076,-14.7869 873.305,-127.625 1313,-57.9828 1339.07,-53.8531 1368.04,-45.0305 1387.67,-38.3871"/>
<polygon fill="red" stroke="red" stroke-width="0.686348" points="1388.98,-41.6382 1397.28,-35.0562 1386.69,-35.0242 1388.98,-41.6382"/>
</g>
<!-- &#45;52 -->
<g id="node52" class="node"><title>&#45;52</title>
<polygon fill="lightgray" stroke="black" points="768.5,-111.983 739.5,-111.983 739.5,-93.9828 768.5,-93.9828 768.5,-111.983"/>
<text text-anchor="middle" x="754" y="-100.783" font-family="Times New Roman,serif" font-size="9.00">&#45;52</text>
</g>
<!-- &#45;52&#45;&gt;1 -->
<g id="edge16" class="edge"><title>&#45;52&#45;&gt;1</title>
<path fill="none" stroke="green" stroke-width="0.427196" d="M764.783,-93.7244C780.256,-81.8741 809.017,-59.8468 828.335,-45.0519"/>
<polygon fill="green" stroke="green" stroke-width="0.427196" points="830.654,-47.6847 836.465,-38.8257 826.398,-42.1273 830.654,-47.6847"/>
</g>
<!-- &#45;52&#45;&gt;3 -->
<g id="edge99" class="edge"><title>&#45;52&#45;&gt;3</title>
<path fill="none" stroke="red" stroke-width="0.561782" d="M739.442,-94.5496C714.661,-81.8972 664.145,-56.1047 635.023,-41.2361"/>
<polygon fill="red" stroke="red" stroke-width="0.561782" points="636.534,-38.0774 626.036,-36.6472 633.351,-44.3118 636.534,-38.0774"/>
</g>
<!-- &#45;52&#45;&gt;4 -->
<g id="edge130" class="edge"><title>&#45;52&#45;&gt;4</title>
<path fill="none" stroke="red" stroke-width="0.23527" stroke-dasharray="1,5" d="M768.564,-96.4723C771.641,-95.494 774.897,-94.5939 778,-93.9828 1011.82,-47.9292 1078.23,-98.9364 1313,-57.9828 1339,-53.4464 1367.98,-44.6911 1387.64,-38.1747"/>
<polygon fill="red" stroke="red" stroke-width="0.23527" points="1388.91,-41.4388 1397.26,-34.9157 1386.66,-34.8087 1388.91,-41.4388"/>
</g>
<!-- &#45;52&#45;&gt;5 -->
<g id="edge58" class="edge"><title>&#45;52&#45;&gt;5</title>
<path fill="none" stroke="green" stroke-width="0.282561" d="M768.558,-96.4389C771.635,-95.463 774.893,-94.5723 778,-93.9828 1073.16,-37.9774 1154.78,-94.351 1453,-57.9828 1496.16,-52.719 1545.75,-42.2602 1574.61,-35.7239"/>
<polygon fill="green" stroke="green" stroke-width="0.282561" points="1575.63,-39.0793 1584.6,-33.4299 1574.07,-32.2569 1575.63,-39.0793"/>
</g>
<!-- &#45;53 -->
<g id="node53" class="node"><title>&#45;53</title>
<polygon fill="lightgray" stroke="black" points="1100.5,-111.983 1071.5,-111.983 1071.5,-93.9828 1100.5,-93.9828 1100.5,-111.983"/>
<text text-anchor="middle" x="1086" y="-100.783" font-family="Times New Roman,serif" font-size="9.00">&#45;53</text>
</g>
<!-- &#45;53&#45;&gt;3 -->
<g id="edge115" class="edge"><title>&#45;53&#45;&gt;3</title>
<path fill="none" stroke="red" stroke-width="0.408848" d="M1071.03,-96.3092C1068.38,-95.4396 1065.63,-94.6206 1063,-93.9828 1021.36,-83.8805 726.42,-44.8531 637.996,-33.2579"/>
<polygon fill="red" stroke="red" stroke-width="0.408848" points="638.189,-29.7535 627.82,-31.9251 637.28,-36.6942 638.189,-29.7535"/>
</g>
<!-- &#45;53&#45;&gt;6 -->
<g id="edge62" class="edge"><title>&#45;53&#45;&gt;6</title>
<path fill="none" stroke="red" stroke-width="0.39379" stroke-dasharray="1,5" d="M1100.56,-96.4735C1103.64,-95.4951 1106.9,-94.5946 1110,-93.9828 1342.07,-48.2134 1410.12,-109.428 1641,-57.9828 1658.28,-54.1335 1676.87,-46.8143 1690.84,-40.6256"/>
<polygon fill="red" stroke="red" stroke-width="0.39379" points="1692.47,-43.7291 1700.1,-36.3849 1689.56,-37.3641 1692.47,-43.7291"/>
</g>
<!-- output&#45;&gt;output -->
<g id="edge110" class="edge"><title>output&#45;&gt;output</title>
<path fill="none" stroke="red" stroke-width="0.296993" d="M1020.09,-42.3299C1031.35,-43.4219 1040.99,-38.9758 1040.99,-28.9914 1040.99,-22.2831 1036.64,-18.0749 1030.37,-16.3667"/>
<polygon fill="red" stroke="red" stroke-width="0.296993" points="1030.31,-12.8544 1020.09,-15.6529 1029.83,-19.8376 1030.31,-12.8544"/>
</g>
<!-- 1&#45;&gt;1 -->
<g id="edge117" class="edge"><title>1&#45;&gt;1</title>
<path fill="none" stroke="red" stroke-width="0.649093" d="M858.767,-39.7195C869.289,-45.6456 880.849,-42.0695 880.849,-28.9914 880.849,-20.0002 875.385,-15.5002 868.551,-15.4914"/>
<polygon fill="red" stroke="red" stroke-width="0.649093" points="867.434,-12.17 858.767,-18.2632 869.342,-18.9049 867.434,-12.17"/>
</g>
<!-- 2&#45;&gt;2 -->
<g id="edge80" class="edge"><title>2&#45;&gt;2</title>
<path fill="none" stroke="red" stroke-width="0.225569" d="M1281.77,-39.7195C1292.29,-45.6456 1303.85,-42.0695 1303.85,-28.9914 1303.85,-20.0002 1298.39,-15.5002 1291.55,-15.4914"/>
<polygon fill="red" stroke="red" stroke-width="0.225569" points="1290.43,-12.17 1281.77,-18.2632 1292.34,-18.9049 1290.43,-12.17"/>
</g>
<!-- 4&#45;&gt;4 -->
<g id="edge35" class="edge"><title>4&#45;&gt;4</title>
<path fill="none" stroke="green" stroke-width="0.176904" d="M1421.77,-39.7195C1432.29,-45.6456 1443.85,-42.0695 1443.85,-28.9914 1443.85,-20.0002 1438.39,-15.5002 1431.55,-15.4914"/>
<polygon fill="green" stroke="green" stroke-width="0.176904" points="1430.43,-12.17 1421.77,-18.2632 1432.34,-18.9049 1430.43,-12.17"/>
</g>
<!-- 5&#45;&gt;5 -->
<g id="edge22" class="edge"><title>5&#45;&gt;5</title>
<path fill="none" stroke="red" stroke-width="0.195584" d="M1609.77,-39.7195C1620.29,-45.6456 1631.85,-42.0695 1631.85,-28.9914 1631.85,-20.0002 1626.39,-15.5002 1619.55,-15.4914"/>
<polygon fill="red" stroke="red" stroke-width="0.195584" points="1618.43,-12.17 1609.77,-18.2632 1620.34,-18.9049 1618.43,-12.17"/>
</g>
<!-- 6&#45;&gt;6 -->
<g id="edge118" class="edge"><title>6&#45;&gt;6</title>
<path fill="none" stroke="red" stroke-width="0.346023" d="M1723.77,-39.7195C1734.29,-45.6456 1745.85,-42.0695 1745.85,-28.9914 1745.85,-20.0002 1740.39,-15.5002 1733.55,-15.4914"/>
<polygon fill="red" stroke="red" stroke-width="0.346023" points="1732.43,-12.17 1723.77,-18.2632 1734.34,-18.9049 1732.43,-12.17"/>
</g>
</g>
</svg>
