<?xml version="1.0" encoding="utf-8" standalone="no"?>
<!DOCTYPE svg PUBLIC "-//W3C//DTD SVG 1.1//EN"
  "http://www.w3.org/Graphics/SVG/1.1/DTD/svg11.dtd">
<!-- Created with matplotlib (https://matplotlib.org/) -->
<svg height="345.6pt" version="1.1" viewBox="0 0 460.8 345.6" width="460.8pt" xmlns="http://www.w3.org/2000/svg" xmlns:xlink="http://www.w3.org/1999/xlink">
 <defs>
  <style type="text/css">
*{stroke-linecap:butt;stroke-linejoin:round;}
  </style>
 </defs>
 <g id="figure_1">
  <g id="patch_1">
   <path d="M 0 345.6 
L 460.8 345.6 
L 460.8 0 
L 0 0 
z
" style="fill:#ffffff;"/>
  </g>
  <g id="axes_1">
   <g id="patch_2">
    <path d="M 57.6 307.584 
L 414.72 307.584 
L 414.72 41.472 
L 57.6 41.472 
z
" style="fill:#ffffff;"/>
   </g>
   <g id="matplotlib.axis_1">
    <g id="xtick_1">
     <g id="line2d_1">
      <path clip-path="url(#pdbc1ed595c)" d="M 73.832727 307.584 
L 73.832727 41.472 
" style="fill:none;stroke:#b0b0b0;stroke-linecap:square;stroke-width:0.8;"/>
     </g>
     <g id="line2d_2">
      <defs>
       <path d="M 0 0 
L 0 3.5 
" id="md97a1db028" style="stroke:#000000;stroke-width:0.8;"/>
      </defs>
      <g>
       <use style="stroke:#000000;stroke-width:0.8;" x="73.832727" xlink:href="#md97a1db028" y="307.584"/>
      </g>
     </g>
     <g id="text_1">
      <!-- 0 -->
      <defs>
       <path d="M 31.78125 66.40625 
Q 24.171875 66.40625 20.328125 58.90625 
Q 16.5 51.421875 16.5 36.375 
Q 16.5 21.390625 20.328125 13.890625 
Q 24.171875 6.390625 31.78125 6.390625 
Q 39.453125 6.390625 43.28125 13.890625 
Q 47.125 21.390625 47.125 36.375 
Q 47.125 51.421875 43.28125 58.90625 
Q 39.453125 66.40625 31.78125 66.40625 
z
M 31.78125 74.21875 
Q 44.046875 74.21875 50.515625 64.515625 
Q 56.984375 54.828125 56.984375 36.375 
Q 56.984375 17.96875 50.515625 8.265625 
Q 44.046875 -1.421875 31.78125 -1.421875 
Q 19.53125 -1.421875 13.0625 8.265625 
Q 6.59375 17.96875 6.59375 36.375 
Q 6.59375 54.828125 13.0625 64.515625 
Q 19.53125 74.21875 31.78125 74.21875 
z
" id="DejaVuSans-48"/>
      </defs>
      <g transform="translate(70.651477 322.182437)scale(0.1 -0.1)">
       <use xlink:href="#DejaVuSans-48"/>
      </g>
     </g>
    </g>
    <g id="xtick_2">
     <g id="line2d_3">
      <path clip-path="url(#pdbc1ed595c)" d="M 135.789702 307.584 
L 135.789702 41.472 
" style="fill:none;stroke:#b0b0b0;stroke-linecap:square;stroke-width:0.8;"/>
     </g>
     <g id="line2d_4">
      <g>
       <use style="stroke:#000000;stroke-width:0.8;" x="135.789702" xlink:href="#md97a1db028" y="307.584"/>
      </g>
     </g>
     <g id="text_2">
      <!-- 50 -->
      <defs>
       <path d="M 10.796875 72.90625 
L 49.515625 72.90625 
L 49.515625 64.59375 
L 19.828125 64.59375 
L 19.828125 46.734375 
Q 21.96875 47.46875 24.109375 47.828125 
Q 26.265625 48.1875 28.421875 48.1875 
Q 40.625 48.1875 47.75 41.5 
Q 54.890625 34.8125 54.890625 23.390625 
Q 54.890625 11.625 47.5625 5.09375 
Q 40.234375 -1.421875 26.90625 -1.421875 
Q 22.3125 -1.421875 17.546875 -0.640625 
Q 12.796875 0.140625 7.71875 1.703125 
L 7.71875 11.625 
Q 12.109375 9.234375 16.796875 8.0625 
Q 21.484375 6.890625 26.703125 6.890625 
Q 35.15625 6.890625 40.078125 11.328125 
Q 45.015625 15.765625 45.015625 23.390625 
Q 45.015625 31 40.078125 35.4375 
Q 35.15625 39.890625 26.703125 39.890625 
Q 22.75 39.890625 18.8125 39.015625 
Q 14.890625 38.140625 10.796875 36.28125 
z
" id="DejaVuSans-53"/>
      </defs>
      <g transform="translate(129.427202 322.182437)scale(0.1 -0.1)">
       <use xlink:href="#DejaVuSans-53"/>
       <use x="63.623047" xlink:href="#DejaVuSans-48"/>
      </g>
     </g>
    </g>
    <g id="xtick_3">
     <g id="line2d_5">
      <path clip-path="url(#pdbc1ed595c)" d="M 197.746676 307.584 
L 197.746676 41.472 
" style="fill:none;stroke:#b0b0b0;stroke-linecap:square;stroke-width:0.8;"/>
     </g>
     <g id="line2d_6">
      <g>
       <use style="stroke:#000000;stroke-width:0.8;" x="197.746676" xlink:href="#md97a1db028" y="307.584"/>
      </g>
     </g>
     <g id="text_3">
      <!-- 100 -->
      <defs>
       <path d="M 12.40625 8.296875 
L 28.515625 8.296875 
L 28.515625 63.921875 
L 10.984375 60.40625 
L 10.984375 69.390625 
L 28.421875 72.90625 
L 38.28125 72.90625 
L 38.28125 8.296875 
L 54.390625 8.296875 
L 54.390625 0 
L 12.40625 0 
z
" id="DejaVuSans-49"/>
      </defs>
      <g transform="translate(188.202926 322.182437)scale(0.1 -0.1)">
       <use xlink:href="#DejaVuSans-49"/>
       <use x="63.623047" xlink:href="#DejaVuSans-48"/>
       <use x="127.246094" xlink:href="#DejaVuSans-48"/>
      </g>
     </g>
    </g>
    <g id="xtick_4">
     <g id="line2d_7">
      <path clip-path="url(#pdbc1ed595c)" d="M 259.70365 307.584 
L 259.70365 41.472 
" style="fill:none;stroke:#b0b0b0;stroke-linecap:square;stroke-width:0.8;"/>
     </g>
     <g id="line2d_8">
      <g>
       <use style="stroke:#000000;stroke-width:0.8;" x="259.70365" xlink:href="#md97a1db028" y="307.584"/>
      </g>
     </g>
     <g id="text_4">
      <!-- 150 -->
      <g transform="translate(250.1599 322.182437)scale(0.1 -0.1)">
       <use xlink:href="#DejaVuSans-49"/>
       <use x="63.623047" xlink:href="#DejaVuSans-53"/>
       <use x="127.246094" xlink:href="#DejaVuSans-48"/>
      </g>
     </g>
    </g>
    <g id="xtick_5">
     <g id="line2d_9">
      <path clip-path="url(#pdbc1ed595c)" d="M 321.660625 307.584 
L 321.660625 41.472 
" style="fill:none;stroke:#b0b0b0;stroke-linecap:square;stroke-width:0.8;"/>
     </g>
     <g id="line2d_10">
      <g>
       <use style="stroke:#000000;stroke-width:0.8;" x="321.660625" xlink:href="#md97a1db028" y="307.584"/>
      </g>
     </g>
     <g id="text_5">
      <!-- 200 -->
      <defs>
       <path d="M 19.1875 8.296875 
L 53.609375 8.296875 
L 53.609375 0 
L 7.328125 0 
L 7.328125 8.296875 
Q 12.9375 14.109375 22.625 23.890625 
Q 32.328125 33.6875 34.8125 36.53125 
Q 39.546875 41.84375 41.421875 45.53125 
Q 43.3125 49.21875 43.3125 52.78125 
Q 43.3125 58.59375 39.234375 62.25 
Q 35.15625 65.921875 28.609375 65.921875 
Q 23.96875 65.921875 18.8125 64.3125 
Q 13.671875 62.703125 7.8125 59.421875 
L 7.8125 69.390625 
Q 13.765625 71.78125 18.9375 73 
Q 24.125 74.21875 28.421875 74.21875 
Q 39.75 74.21875 46.484375 68.546875 
Q 53.21875 62.890625 53.21875 53.421875 
Q 53.21875 48.921875 51.53125 44.890625 
Q 49.859375 40.875 45.40625 35.40625 
Q 44.1875 33.984375 37.640625 27.21875 
Q 31.109375 20.453125 19.1875 8.296875 
z
" id="DejaVuSans-50"/>
      </defs>
      <g transform="translate(312.116875 322.182437)scale(0.1 -0.1)">
       <use xlink:href="#DejaVuSans-50"/>
       <use x="63.623047" xlink:href="#DejaVuSans-48"/>
       <use x="127.246094" xlink:href="#DejaVuSans-48"/>
      </g>
     </g>
    </g>
    <g id="xtick_6">
     <g id="line2d_11">
      <path clip-path="url(#pdbc1ed595c)" d="M 383.617599 307.584 
L 383.617599 41.472 
" style="fill:none;stroke:#b0b0b0;stroke-linecap:square;stroke-width:0.8;"/>
     </g>
     <g id="line2d_12">
      <g>
       <use style="stroke:#000000;stroke-width:0.8;" x="383.617599" xlink:href="#md97a1db028" y="307.584"/>
      </g>
     </g>
     <g id="text_6">
      <!-- 250 -->
      <g transform="translate(374.073849 322.182437)scale(0.1 -0.1)">
       <use xlink:href="#DejaVuSans-50"/>
       <use x="63.623047" xlink:href="#DejaVuSans-53"/>
       <use x="127.246094" xlink:href="#DejaVuSans-48"/>
      </g>
     </g>
    </g>
    <g id="text_7">
     <!-- Generations -->
     <defs>
      <path d="M 59.515625 10.40625 
L 59.515625 29.984375 
L 43.40625 29.984375 
L 43.40625 38.09375 
L 69.28125 38.09375 
L 69.28125 6.78125 
Q 63.578125 2.734375 56.6875 0.65625 
Q 49.8125 -1.421875 42 -1.421875 
Q 24.90625 -1.421875 15.25 8.5625 
Q 5.609375 18.5625 5.609375 36.375 
Q 5.609375 54.25 15.25 64.234375 
Q 24.90625 74.21875 42 74.21875 
Q 49.125 74.21875 55.546875 72.453125 
Q 61.96875 70.703125 67.390625 67.28125 
L 67.390625 56.78125 
Q 61.921875 61.421875 55.765625 63.765625 
Q 49.609375 66.109375 42.828125 66.109375 
Q 29.4375 66.109375 22.71875 58.640625 
Q 16.015625 51.171875 16.015625 36.375 
Q 16.015625 21.625 22.71875 14.15625 
Q 29.4375 6.6875 42.828125 6.6875 
Q 48.046875 6.6875 52.140625 7.59375 
Q 56.25 8.5 59.515625 10.40625 
z
" id="DejaVuSans-71"/>
      <path d="M 56.203125 29.59375 
L 56.203125 25.203125 
L 14.890625 25.203125 
Q 15.484375 15.921875 20.484375 11.0625 
Q 25.484375 6.203125 34.421875 6.203125 
Q 39.59375 6.203125 44.453125 7.46875 
Q 49.3125 8.734375 54.109375 11.28125 
L 54.109375 2.78125 
Q 49.265625 0.734375 44.1875 -0.34375 
Q 39.109375 -1.421875 33.890625 -1.421875 
Q 20.796875 -1.421875 13.15625 6.1875 
Q 5.515625 13.8125 5.515625 26.8125 
Q 5.515625 40.234375 12.765625 48.109375 
Q 20.015625 56 32.328125 56 
Q 43.359375 56 49.78125 48.890625 
Q 56.203125 41.796875 56.203125 29.59375 
z
M 47.21875 32.234375 
Q 47.125 39.59375 43.09375 43.984375 
Q 39.0625 48.390625 32.421875 48.390625 
Q 24.90625 48.390625 20.390625 44.140625 
Q 15.875 39.890625 15.1875 32.171875 
z
" id="DejaVuSans-101"/>
      <path d="M 54.890625 33.015625 
L 54.890625 0 
L 45.90625 0 
L 45.90625 32.71875 
Q 45.90625 40.484375 42.875 44.328125 
Q 39.84375 48.1875 33.796875 48.1875 
Q 26.515625 48.1875 22.3125 43.546875 
Q 18.109375 38.921875 18.109375 30.90625 
L 18.109375 0 
L 9.078125 0 
L 9.078125 54.6875 
L 18.109375 54.6875 
L 18.109375 46.1875 
Q 21.34375 51.125 25.703125 53.5625 
Q 30.078125 56 35.796875 56 
Q 45.21875 56 50.046875 50.171875 
Q 54.890625 44.34375 54.890625 33.015625 
z
" id="DejaVuSans-110"/>
      <path d="M 41.109375 46.296875 
Q 39.59375 47.171875 37.8125 47.578125 
Q 36.03125 48 33.890625 48 
Q 26.265625 48 22.1875 43.046875 
Q 18.109375 38.09375 18.109375 28.8125 
L 18.109375 0 
L 9.078125 0 
L 9.078125 54.6875 
L 18.109375 54.6875 
L 18.109375 46.1875 
Q 20.953125 51.171875 25.484375 53.578125 
Q 30.03125 56 36.53125 56 
Q 37.453125 56 38.578125 55.875 
Q 39.703125 55.765625 41.0625 55.515625 
z
" id="DejaVuSans-114"/>
      <path d="M 34.28125 27.484375 
Q 23.390625 27.484375 19.1875 25 
Q 14.984375 22.515625 14.984375 16.5 
Q 14.984375 11.71875 18.140625 8.90625 
Q 21.296875 6.109375 26.703125 6.109375 
Q 34.1875 6.109375 38.703125 11.40625 
Q 43.21875 16.703125 43.21875 25.484375 
L 43.21875 27.484375 
z
M 52.203125 31.203125 
L 52.203125 0 
L 43.21875 0 
L 43.21875 8.296875 
Q 40.140625 3.328125 35.546875 0.953125 
Q 30.953125 -1.421875 24.3125 -1.421875 
Q 15.921875 -1.421875 10.953125 3.296875 
Q 6 8.015625 6 15.921875 
Q 6 25.140625 12.171875 29.828125 
Q 18.359375 34.515625 30.609375 34.515625 
L 43.21875 34.515625 
L 43.21875 35.40625 
Q 43.21875 41.609375 39.140625 45 
Q 35.0625 48.390625 27.6875 48.390625 
Q 23 48.390625 18.546875 47.265625 
Q 14.109375 46.140625 10.015625 43.890625 
L 10.015625 52.203125 
Q 14.9375 54.109375 19.578125 55.046875 
Q 24.21875 56 28.609375 56 
Q 40.484375 56 46.34375 49.84375 
Q 52.203125 43.703125 52.203125 31.203125 
z
" id="DejaVuSans-97"/>
      <path d="M 18.3125 70.21875 
L 18.3125 54.6875 
L 36.8125 54.6875 
L 36.8125 47.703125 
L 18.3125 47.703125 
L 18.3125 18.015625 
Q 18.3125 11.328125 20.140625 9.421875 
Q 21.96875 7.515625 27.59375 7.515625 
L 36.8125 7.515625 
L 36.8125 0 
L 27.59375 0 
Q 17.1875 0 13.234375 3.875 
Q 9.28125 7.765625 9.28125 18.015625 
L 9.28125 47.703125 
L 2.6875 47.703125 
L 2.6875 54.6875 
L 9.28125 54.6875 
L 9.28125 70.21875 
z
" id="DejaVuSans-116"/>
      <path d="M 9.421875 54.6875 
L 18.40625 54.6875 
L 18.40625 0 
L 9.421875 0 
z
M 9.421875 75.984375 
L 18.40625 75.984375 
L 18.40625 64.59375 
L 9.421875 64.59375 
z
" id="DejaVuSans-105"/>
      <path d="M 30.609375 48.390625 
Q 23.390625 48.390625 19.1875 42.75 
Q 14.984375 37.109375 14.984375 27.296875 
Q 14.984375 17.484375 19.15625 11.84375 
Q 23.34375 6.203125 30.609375 6.203125 
Q 37.796875 6.203125 41.984375 11.859375 
Q 46.1875 17.53125 46.1875 27.296875 
Q 46.1875 37.015625 41.984375 42.703125 
Q 37.796875 48.390625 30.609375 48.390625 
z
M 30.609375 56 
Q 42.328125 56 49.015625 48.375 
Q 55.71875 40.765625 55.71875 27.296875 
Q 55.71875 13.875 49.015625 6.21875 
Q 42.328125 -1.421875 30.609375 -1.421875 
Q 18.84375 -1.421875 12.171875 6.21875 
Q 5.515625 13.875 5.515625 27.296875 
Q 5.515625 40.765625 12.171875 48.375 
Q 18.84375 56 30.609375 56 
z
" id="DejaVuSans-111"/>
      <path d="M 44.28125 53.078125 
L 44.28125 44.578125 
Q 40.484375 46.53125 36.375 47.5 
Q 32.28125 48.484375 27.875 48.484375 
Q 21.1875 48.484375 17.84375 46.4375 
Q 14.5 44.390625 14.5 40.28125 
Q 14.5 37.15625 16.890625 35.375 
Q 19.28125 33.59375 26.515625 31.984375 
L 29.59375 31.296875 
Q 39.15625 29.25 43.1875 25.515625 
Q 47.21875 21.78125 47.21875 15.09375 
Q 47.21875 7.46875 41.1875 3.015625 
Q 35.15625 -1.421875 24.609375 -1.421875 
Q 20.21875 -1.421875 15.453125 -0.5625 
Q 10.6875 0.296875 5.421875 2 
L 5.421875 11.28125 
Q 10.40625 8.6875 15.234375 7.390625 
Q 20.0625 6.109375 24.8125 6.109375 
Q 31.15625 6.109375 34.5625 8.28125 
Q 37.984375 10.453125 37.984375 14.40625 
Q 37.984375 18.0625 35.515625 20.015625 
Q 33.0625 21.96875 24.703125 23.78125 
L 21.578125 24.515625 
Q 13.234375 26.265625 9.515625 29.90625 
Q 5.8125 33.546875 5.8125 39.890625 
Q 5.8125 47.609375 11.28125 51.796875 
Q 16.75 56 26.8125 56 
Q 31.78125 56 36.171875 55.265625 
Q 40.578125 54.546875 44.28125 53.078125 
z
" id="DejaVuSans-115"/>
     </defs>
     <g transform="translate(205.662344 335.860562)scale(0.1 -0.1)">
      <use xlink:href="#DejaVuSans-71"/>
      <use x="77.490234" xlink:href="#DejaVuSans-101"/>
      <use x="139.013672" xlink:href="#DejaVuSans-110"/>
      <use x="202.392578" xlink:href="#DejaVuSans-101"/>
      <use x="263.916016" xlink:href="#DejaVuSans-114"/>
      <use x="305.029297" xlink:href="#DejaVuSans-97"/>
      <use x="366.308594" xlink:href="#DejaVuSans-116"/>
      <use x="405.517578" xlink:href="#DejaVuSans-105"/>
      <use x="433.300781" xlink:href="#DejaVuSans-111"/>
      <use x="494.482422" xlink:href="#DejaVuSans-110"/>
      <use x="557.861328" xlink:href="#DejaVuSans-115"/>
     </g>
    </g>
   </g>
   <g id="matplotlib.axis_2">
    <g id="ytick_1">
     <g id="line2d_13">
      <path clip-path="url(#pdbc1ed595c)" d="M 57.6 307.198904 
L 414.72 307.198904 
" style="fill:none;stroke:#b0b0b0;stroke-linecap:square;stroke-width:0.8;"/>
     </g>
     <g id="line2d_14">
      <defs>
       <path d="M 0 0 
L -3.5 0 
" id="m9a32d0a11e" style="stroke:#000000;stroke-width:0.8;"/>
      </defs>
      <g>
       <use style="stroke:#000000;stroke-width:0.8;" x="57.6" xlink:href="#m9a32d0a11e" y="307.198904"/>
      </g>
     </g>
     <g id="text_8">
      <!-- 1.5 -->
      <defs>
       <path d="M 10.6875 12.40625 
L 21 12.40625 
L 21 0 
L 10.6875 0 
z
" id="DejaVuSans-46"/>
      </defs>
      <g transform="translate(34.696875 310.998122)scale(0.1 -0.1)">
       <use xlink:href="#DejaVuSans-49"/>
       <use x="63.623047" xlink:href="#DejaVuSans-46"/>
       <use x="95.410156" xlink:href="#DejaVuSans-53"/>
      </g>
     </g>
    </g>
    <g id="ytick_2">
     <g id="line2d_15">
      <path clip-path="url(#pdbc1ed595c)" d="M 57.6 256.472723 
L 414.72 256.472723 
" style="fill:none;stroke:#b0b0b0;stroke-linecap:square;stroke-width:0.8;"/>
     </g>
     <g id="line2d_16">
      <g>
       <use style="stroke:#000000;stroke-width:0.8;" x="57.6" xlink:href="#m9a32d0a11e" y="256.472723"/>
      </g>
     </g>
     <g id="text_9">
      <!-- 2.0 -->
      <g transform="translate(34.696875 260.271942)scale(0.1 -0.1)">
       <use xlink:href="#DejaVuSans-50"/>
       <use x="63.623047" xlink:href="#DejaVuSans-46"/>
       <use x="95.410156" xlink:href="#DejaVuSans-48"/>
      </g>
     </g>
    </g>
    <g id="ytick_3">
     <g id="line2d_17">
      <path clip-path="url(#pdbc1ed595c)" d="M 57.6 205.746542 
L 414.72 205.746542 
" style="fill:none;stroke:#b0b0b0;stroke-linecap:square;stroke-width:0.8;"/>
     </g>
     <g id="line2d_18">
      <g>
       <use style="stroke:#000000;stroke-width:0.8;" x="57.6" xlink:href="#m9a32d0a11e" y="205.746542"/>
      </g>
     </g>
     <g id="text_10">
      <!-- 2.5 -->
      <g transform="translate(34.696875 209.545761)scale(0.1 -0.1)">
       <use xlink:href="#DejaVuSans-50"/>
       <use x="63.623047" xlink:href="#DejaVuSans-46"/>
       <use x="95.410156" xlink:href="#DejaVuSans-53"/>
      </g>
     </g>
    </g>
    <g id="ytick_4">
     <g id="line2d_19">
      <path clip-path="url(#pdbc1ed595c)" d="M 57.6 155.020361 
L 414.72 155.020361 
" style="fill:none;stroke:#b0b0b0;stroke-linecap:square;stroke-width:0.8;"/>
     </g>
     <g id="line2d_20">
      <g>
       <use style="stroke:#000000;stroke-width:0.8;" x="57.6" xlink:href="#m9a32d0a11e" y="155.020361"/>
      </g>
     </g>
     <g id="text_11">
      <!-- 3.0 -->
      <defs>
       <path d="M 40.578125 39.3125 
Q 47.65625 37.796875 51.625 33 
Q 55.609375 28.21875 55.609375 21.1875 
Q 55.609375 10.40625 48.1875 4.484375 
Q 40.765625 -1.421875 27.09375 -1.421875 
Q 22.515625 -1.421875 17.65625 -0.515625 
Q 12.796875 0.390625 7.625 2.203125 
L 7.625 11.71875 
Q 11.71875 9.328125 16.59375 8.109375 
Q 21.484375 6.890625 26.8125 6.890625 
Q 36.078125 6.890625 40.9375 10.546875 
Q 45.796875 14.203125 45.796875 21.1875 
Q 45.796875 27.640625 41.28125 31.265625 
Q 36.765625 34.90625 28.71875 34.90625 
L 20.21875 34.90625 
L 20.21875 43.015625 
L 29.109375 43.015625 
Q 36.375 43.015625 40.234375 45.921875 
Q 44.09375 48.828125 44.09375 54.296875 
Q 44.09375 59.90625 40.109375 62.90625 
Q 36.140625 65.921875 28.71875 65.921875 
Q 24.65625 65.921875 20.015625 65.03125 
Q 15.375 64.15625 9.8125 62.3125 
L 9.8125 71.09375 
Q 15.4375 72.65625 20.34375 73.4375 
Q 25.25 74.21875 29.59375 74.21875 
Q 40.828125 74.21875 47.359375 69.109375 
Q 53.90625 64.015625 53.90625 55.328125 
Q 53.90625 49.265625 50.4375 45.09375 
Q 46.96875 40.921875 40.578125 39.3125 
z
" id="DejaVuSans-51"/>
      </defs>
      <g transform="translate(34.696875 158.81958)scale(0.1 -0.1)">
       <use xlink:href="#DejaVuSans-51"/>
       <use x="63.623047" xlink:href="#DejaVuSans-46"/>
       <use x="95.410156" xlink:href="#DejaVuSans-48"/>
      </g>
     </g>
    </g>
    <g id="ytick_5">
     <g id="line2d_21">
      <path clip-path="url(#pdbc1ed595c)" d="M 57.6 104.294181 
L 414.72 104.294181 
" style="fill:none;stroke:#b0b0b0;stroke-linecap:square;stroke-width:0.8;"/>
     </g>
     <g id="line2d_22">
      <g>
       <use style="stroke:#000000;stroke-width:0.8;" x="57.6" xlink:href="#m9a32d0a11e" y="104.294181"/>
      </g>
     </g>
     <g id="text_12">
      <!-- 3.5 -->
      <g transform="translate(34.696875 108.093399)scale(0.1 -0.1)">
       <use xlink:href="#DejaVuSans-51"/>
       <use x="63.623047" xlink:href="#DejaVuSans-46"/>
       <use x="95.410156" xlink:href="#DejaVuSans-53"/>
      </g>
     </g>
    </g>
    <g id="ytick_6">
     <g id="line2d_23">
      <path clip-path="url(#pdbc1ed595c)" d="M 57.6 53.568 
L 414.72 53.568 
" style="fill:none;stroke:#b0b0b0;stroke-linecap:square;stroke-width:0.8;"/>
     </g>
     <g id="line2d_24">
      <g>
       <use style="stroke:#000000;stroke-width:0.8;" x="57.6" xlink:href="#m9a32d0a11e" y="53.568"/>
      </g>
     </g>
     <g id="text_13">
      <!-- 4.0 -->
      <defs>
       <path d="M 37.796875 64.3125 
L 12.890625 25.390625 
L 37.796875 25.390625 
z
M 35.203125 72.90625 
L 47.609375 72.90625 
L 47.609375 25.390625 
L 58.015625 25.390625 
L 58.015625 17.1875 
L 47.609375 17.1875 
L 47.609375 0 
L 37.796875 0 
L 37.796875 17.1875 
L 4.890625 17.1875 
L 4.890625 26.703125 
z
" id="DejaVuSans-52"/>
      </defs>
      <g transform="translate(34.696875 57.367219)scale(0.1 -0.1)">
       <use xlink:href="#DejaVuSans-52"/>
       <use x="63.623047" xlink:href="#DejaVuSans-46"/>
       <use x="95.410156" xlink:href="#DejaVuSans-48"/>
      </g>
     </g>
    </g>
    <g id="text_14">
     <!-- Fitness -->
     <defs>
      <path d="M 9.8125 72.90625 
L 51.703125 72.90625 
L 51.703125 64.59375 
L 19.671875 64.59375 
L 19.671875 43.109375 
L 48.578125 43.109375 
L 48.578125 34.8125 
L 19.671875 34.8125 
L 19.671875 0 
L 9.8125 0 
z
" id="DejaVuSans-70"/>
     </defs>
     <g transform="translate(28.617187 192.202219)rotate(-90)scale(0.1 -0.1)">
      <use xlink:href="#DejaVuSans-70"/>
      <use x="57.410156" xlink:href="#DejaVuSans-105"/>
      <use x="85.193359" xlink:href="#DejaVuSans-116"/>
      <use x="124.402344" xlink:href="#DejaVuSans-110"/>
      <use x="187.78125" xlink:href="#DejaVuSans-101"/>
      <use x="249.304688" xlink:href="#DejaVuSans-115"/>
      <use x="301.404297" xlink:href="#DejaVuSans-115"/>
     </g>
    </g>
   </g>
   <g id="line2d_25">
    <path clip-path="url(#pdbc1ed595c)" d="M 73.832727 255.779465 
L 75.071867 254.562037 
L 76.311006 255.51738 
L 77.550146 254.012503 
L 78.789285 249.950544 
L 80.028425 248.633069 
L 81.267564 249.463837 
L 82.506704 245.816175 
L 83.745843 244.331177 
L 86.224122 235.831663 
L 87.463262 237.316209 
L 88.702401 237.454607 
L 89.941541 232.69588 
L 91.18068 231.278382 
L 92.41982 230.059191 
L 93.658959 231.617911 
L 94.898099 228.97078 
L 96.137238 231.168577 
L 97.376378 232.694826 
L 98.615517 230.70544 
L 99.854656 227.956291 
L 101.093796 232.646018 
L 102.332935 225.362373 
L 103.572075 224.734632 
L 104.811214 229.386504 
L 106.050354 231.202445 
L 107.289493 231.464716 
L 108.528633 231.869006 
L 109.767772 222.962081 
L 111.006912 226.924892 
L 112.246051 229.415371 
L 113.485191 230.169317 
L 114.72433 227.061064 
L 115.96347 231.381259 
L 117.202609 229.310109 
L 118.441749 230.091034 
L 119.680888 233.324271 
L 120.920028 232.785195 
L 122.159167 230.67846 
L 123.398307 228.793137 
L 124.637446 229.525498 
L 125.876586 226.721818 
L 127.115725 229.957535 
L 128.354865 229.08904 
L 129.594004 233.955991 
L 130.833144 231.396507 
L 132.072283 232.282443 
L 133.311423 230.003931 
L 134.550562 224.865891 
L 135.789702 230.141254 
L 137.028841 227.380263 
L 138.267981 221.716835 
L 141.985399 230.287916 
L 143.224539 224.43914 
L 144.463678 222.055009 
L 145.702817 223.712064 
L 146.941957 225.017766 
L 148.181096 219.012607 
L 149.420236 222.968707 
L 150.659375 217.396655 
L 151.898515 220.321865 
L 153.137654 218.191365 
L 154.376794 219.263399 
L 155.615933 214.55528 
L 156.855073 217.938713 
L 158.094212 214.801165 
L 160.572491 212.791845 
L 161.811631 213.070282 
L 163.05077 215.559341 
L 164.28991 215.66351 
L 165.529049 217.320566 
L 166.768189 222.806841 
L 168.007328 217.660276 
L 169.246468 217.339651 
L 170.485607 215.384516 
L 171.724747 220.760616 
L 172.963886 220.444647 
L 174.203026 219.899147 
L 175.442165 222.207188 
L 176.681305 222.257118 
L 177.920444 220.558587 
L 179.159584 215.251348 
L 180.398723 223.146605 
L 181.637863 219.719023 
L 182.877002 218.622927 
L 184.116142 224.188575 
L 185.355281 226.569639 
L 186.594421 226.730272 
L 187.83356 226.179332 
L 189.0727 221.316803 
L 190.311839 220.135869 
L 191.550978 221.260299 
L 192.790118 225.057463 
L 194.029257 216.835482 
L 195.268397 220.681455 
L 196.507536 221.249032 
L 197.746676 220.862944 
L 198.985815 219.865329 
L 200.224955 215.717269 
L 201.464094 219.766554 
L 202.703234 223.128713 
L 203.942373 229.396822 
L 205.181513 222.503394 
L 206.420652 224.705579 
L 207.659792 225.419846 
L 208.898931 222.138519 
L 210.138071 223.95985 
L 211.37721 218.614456 
L 212.61635 217.92828 
L 213.855489 221.752458 
L 215.094629 227.609526 
L 216.333768 227.964609 
L 217.572908 224.549046 
L 218.812047 227.49716 
L 220.051187 232.052749 
L 221.290326 228.497234 
L 222.529466 228.136204 
L 223.768605 231.702624 
L 225.007745 233.172497 
L 226.246884 230.528605 
L 227.486024 230.475555 
L 229.964303 223.37533 
L 231.203442 225.798124 
L 232.442582 225.279328 
L 233.681721 222.002978 
L 234.920861 226.570264 
L 236.16 226.772763 
L 237.399139 228.325261 
L 238.638279 228.93276 
L 239.877418 230.025305 
L 241.116558 234.829552 
L 242.355697 233.240132 
L 243.594837 229.262888 
L 244.833976 228.034548 
L 246.073116 227.085355 
L 247.312255 222.984989 
L 248.551395 228.190864 
L 249.790534 226.087741 
L 251.029674 228.382418 
L 252.268813 223.524568 
L 254.747092 226.721496 
L 255.986232 227.748259 
L 257.225371 222.95236 
L 258.464511 221.534811 
L 259.70365 227.083745 
L 260.94279 224.604983 
L 262.181929 225.100816 
L 263.421069 228.443386 
L 264.660208 226.669387 
L 265.899348 223.225131 
L 267.138487 225.235717 
L 268.377627 221.344843 
L 269.616766 227.466971 
L 270.855906 225.848951 
L 272.095045 222.40062 
L 273.334185 225.977834 
L 274.573324 227.657153 
L 275.812464 223.145622 
L 278.290743 224.726588 
L 279.529882 223.393753 
L 280.769022 234.633696 
L 282.008161 231.828253 
L 283.2473 231.799959 
L 284.48644 232.227356 
L 285.725579 228.339229 
L 286.964719 223.705711 
L 288.203858 225.149306 
L 289.442998 225.037252 
L 290.682137 228.221339 
L 291.921277 224.578255 
L 293.160416 219.724197 
L 294.399556 223.314709 
L 295.638695 226.072452 
L 296.877835 225.806595 
L 298.116974 227.550345 
L 299.356114 225.235717 
L 300.595253 224.887696 
L 301.834393 222.924195 
L 303.073532 218.293624 
L 304.312672 216.855576 
L 305.551811 221.330583 
L 306.790951 222.494957 
L 308.03009 219.060899 
L 309.26923 222.621384 
L 310.508369 221.833552 
L 311.747509 221.684958 
L 312.986648 223.019535 
L 314.225788 226.950086 
L 315.464927 225.787458 
L 316.704067 225.018763 
L 317.943206 225.53782 
L 319.182346 230.023365 
L 320.421485 232.387031 
L 321.660625 229.046768 
L 322.899764 229.655482 
L 324.138904 233.772757 
L 325.378043 232.832761 
L 326.617183 232.955303 
L 327.856322 233.694781 
L 329.095461 230.054946 
L 330.334601 231.80428 
L 331.57374 232.727652 
L 332.81288 228.507642 
L 334.052019 231.870525 
L 335.291159 227.315355 
L 336.530298 233.160443 
L 337.769438 227.880535 
L 339.008577 227.75646 
L 340.247717 233.054136 
L 341.486856 232.518693 
L 342.725996 230.419137 
L 343.965135 234.864315 
L 345.204275 230.124413 
L 346.443414 237.896701 
L 347.682554 237.298227 
L 348.921693 238.74719 
L 350.160833 238.843935 
L 351.399972 239.78425 
L 352.639112 235.835622 
L 353.878251 239.175871 
L 355.117391 233.681238 
L 356.35653 231.497757 
L 357.59567 236.678375 
L 358.834809 236.530174 
L 360.073949 235.673641 
L 361.313088 232.642939 
L 362.552228 238.239819 
L 363.791367 232.662994 
L 365.030507 238.534622 
L 366.269646 237.259801 
L 367.508786 237.859757 
L 368.747925 234.745009 
L 369.987065 234.023188 
L 371.226204 233.456184 
L 372.465344 230.029634 
L 373.704483 234.15421 
L 374.943622 233.50364 
L 376.182762 233.544489 
L 378.661041 232.707507 
L 379.90018 234.21013 
L 381.13932 236.404199 
L 382.378459 232.264044 
L 383.617599 230.771458 
L 384.856738 229.017051 
L 386.095878 230.37849 
L 387.335017 226.663948 
L 388.574157 227.823692 
L 389.813296 227.861199 
L 391.052436 228.725502 
L 392.291575 229.945259 
L 393.530715 224.549922 
L 394.769854 228.886135 
L 396.008994 231.389186 
L 397.248133 231.549259 
L 398.487273 231.970256 
L 398.487273 231.970256 
" style="fill:none;stroke:#0000ff;stroke-linecap:square;stroke-width:1.5;"/>
   </g>
   <g id="line2d_26">
    <path clip-path="url(#pdbc1ed595c)" d="M 73.832727 279.359829 
L 75.071867 277.969975 
L 76.311006 280.171282 
L 77.550146 279.677894 
L 78.789285 278.774736 
L 80.028425 280.671369 
L 81.267564 279.67206 
L 82.506704 280.795462 
L 83.745843 282.639659 
L 84.984983 279.986237 
L 86.224122 276.095735 
L 87.463262 277.977823 
L 88.702401 278.511293 
L 89.941541 277.410417 
L 91.18068 274.858521 
L 92.41982 274.309836 
L 93.658959 276.241504 
L 94.898099 274.102948 
L 96.137238 276.216047 
L 97.376378 276.666178 
L 98.615517 276.717861 
L 99.854656 274.541208 
L 101.093796 278.780603 
L 102.332935 271.732707 
L 103.572075 272.227097 
L 104.811214 277.195191 
L 106.050354 278.162362 
L 107.289493 278.374806 
L 108.528633 277.970833 
L 109.767772 271.528474 
L 111.006912 278.67939 
L 112.246051 276.868327 
L 113.485191 278.852411 
L 114.72433 276.165171 
L 115.96347 281.660521 
L 117.202609 279.92786 
L 118.441749 280.198421 
L 119.680888 281.484327 
L 120.920028 281.390634 
L 122.159167 276.74419 
L 123.398307 275.235168 
L 124.637446 276.62361 
L 125.876586 274.144044 
L 127.115725 279.62034 
L 128.354865 280.192418 
L 129.594004 285.037343 
L 130.833144 284.246552 
L 132.072283 282.756432 
L 133.311423 280.19929 
L 134.550562 276.436867 
L 135.789702 282.06471 
L 137.028841 280.521842 
L 138.267981 272.843845 
L 139.50712 276.961418 
L 140.74626 278.687499 
L 141.985399 280.899656 
L 143.224539 275.981629 
L 144.463678 271.761676 
L 145.702817 272.482 
L 146.941957 275.247045 
L 148.181096 267.651234 
L 149.420236 274.602467 
L 150.659375 266.955464 
L 151.898515 270.681651 
L 153.137654 268.156736 
L 154.376794 269.833046 
L 155.615933 263.357976 
L 156.855073 265.836579 
L 158.094212 263.435775 
L 159.333352 261.554286 
L 160.572491 260.683027 
L 161.811631 262.937052 
L 163.05077 265.483692 
L 164.28991 267.249381 
L 165.529049 270.9777 
L 166.768189 273.13688 
L 168.007328 269.907867 
L 169.246468 269.880408 
L 170.485607 265.192414 
L 171.724747 270.81933 
L 172.963886 269.547709 
L 174.203026 271.290776 
L 175.442165 274.911645 
L 176.681305 275.155757 
L 177.920444 274.640414 
L 179.159584 269.617768 
L 180.398723 280.920923 
L 181.637863 273.329765 
L 182.877002 275.720366 
L 184.116142 276.510276 
L 185.355281 281.798788 
L 186.594421 277.96586 
L 187.83356 277.701638 
L 189.0727 271.219514 
L 190.311839 273.424652 
L 191.550978 272.196892 
L 192.790118 273.098969 
L 194.029257 267.234167 
L 195.268397 267.868927 
L 196.507536 269.860896 
L 197.746676 270.170119 
L 198.985815 268.162689 
L 200.224955 264.600204 
L 201.464094 271.043895 
L 202.703234 272.16538 
L 203.942373 276.204585 
L 205.181513 273.275733 
L 206.420652 279.229593 
L 207.659792 276.013805 
L 208.898931 278.842497 
L 210.138071 281.137677 
L 211.37721 273.755181 
L 212.61635 276.564162 
L 213.855489 275.428316 
L 215.094629 279.691152 
L 216.333768 283.47162 
L 217.572908 278.025033 
L 218.812047 280.963383 
L 220.051187 286.729805 
L 221.290326 285.110558 
L 222.529466 282.460755 
L 223.768605 283.257233 
L 225.007745 286.646907 
L 227.486024 284.579436 
L 228.725163 282.623661 
L 229.964303 283.751716 
L 231.203442 284.367137 
L 232.442582 281.524964 
L 233.681721 282.09358 
L 234.920861 283.576878 
L 236.16 282.882125 
L 238.638279 287.369487 
L 239.877418 281.533698 
L 241.116558 285.339262 
L 242.355697 283.865815 
L 243.594837 284.61548 
L 244.833976 286.023446 
L 246.073116 284.294243 
L 247.312255 281.120637 
L 248.551395 285.78278 
L 249.790534 284.847795 
L 252.268813 285.860481 
L 253.507953 286.661861 
L 254.747092 283.56069 
L 255.986232 283.836834 
L 257.225371 286.361371 
L 258.464511 283.386787 
L 259.70365 286.310059 
L 260.94279 285.819444 
L 262.181929 287.035203 
L 263.421069 289.238973 
L 264.660208 289.74207 
L 265.899348 284.898115 
L 267.138487 287.594215 
L 268.377627 284.08082 
L 269.616766 287.375042 
L 270.855906 284.605675 
L 272.095045 285.74159 
L 274.573324 290.836869 
L 275.812464 285.838382 
L 277.051603 286.58636 
L 278.290743 286.586002 
L 280.769022 293.003671 
L 282.008161 289.850245 
L 283.2473 290.855507 
L 284.48644 289.24389 
L 285.725579 287.968989 
L 286.964719 284.928656 
L 288.203858 286.019241 
L 289.442998 285.260602 
L 290.682137 290.200728 
L 291.921277 285.699503 
L 293.160416 284.482296 
L 294.399556 284.319791 
L 295.638695 286.109116 
L 296.877835 286.554947 
L 298.116974 288.802345 
L 299.356114 287.161154 
L 300.595253 287.190838 
L 301.834393 286.018791 
L 303.073532 281.27425 
L 304.312672 281.310549 
L 305.551811 286.001145 
L 306.790951 289.373187 
L 308.03009 287.246163 
L 309.26923 289.117362 
L 310.508369 282.618873 
L 311.747509 284.469069 
L 312.986648 287.390834 
L 314.225788 291.084073 
L 315.464927 290.403605 
L 316.704067 287.102438 
L 317.943206 286.672175 
L 319.182346 288.352666 
L 320.421485 294.028602 
L 321.660625 288.040092 
L 322.899764 287.805535 
L 324.138904 292.445232 
L 325.378043 291.724071 
L 326.617183 293.412544 
L 327.856322 291.884596 
L 329.095461 289.538408 
L 330.334601 295.488 
L 331.57374 292.522772 
L 332.81288 290.33412 
L 334.052019 291.040138 
L 335.291159 289.42228 
L 336.530298 294.911211 
L 337.769438 285.670704 
L 339.008577 287.049899 
L 340.247717 290.219701 
L 341.486856 289.829526 
L 342.725996 286.184155 
L 343.965135 294.529758 
L 345.204275 288.288676 
L 346.443414 292.703447 
L 347.682554 291.741423 
L 348.921693 291.73051 
L 350.160833 295.029266 
L 351.399972 295.032549 
L 352.639112 290.518441 
L 353.878251 290.358358 
L 355.117391 287.186477 
L 356.35653 287.699568 
L 357.59567 287.291416 
L 358.834809 291.07765 
L 360.073949 290.105953 
L 361.313088 287.725937 
L 362.552228 289.719099 
L 363.791367 288.644197 
L 365.030507 292.26167 
L 366.269646 289.751095 
L 367.508786 289.105325 
L 368.747925 292.564511 
L 369.987065 289.796796 
L 371.226204 292.037446 
L 372.465344 287.185907 
L 373.704483 293.713233 
L 374.943622 288.461197 
L 376.182762 288.614175 
L 377.421901 286.415541 
L 378.661041 287.730268 
L 379.90018 291.810107 
L 381.13932 292.951546 
L 382.378459 288.394745 
L 383.617599 287.921579 
L 384.856738 290.367377 
L 386.095878 289.637604 
L 387.335017 289.816706 
L 388.574157 288.646353 
L 389.813296 290.597158 
L 391.052436 290.168705 
L 392.291575 289.360379 
L 393.530715 285.708786 
L 396.008994 291.830866 
L 397.248133 293.510744 
L 398.487273 293.993242 
L 398.487273 293.993242 
" style="fill:none;stroke:#008000;stroke-dasharray:9.6,2.4,1.5,2.4;stroke-dashoffset:0;stroke-width:1.5;"/>
   </g>
   <g id="line2d_27">
    <path clip-path="url(#pdbc1ed595c)" d="M 73.832727 232.199101 
L 75.071867 231.154098 
L 76.311006 230.863477 
L 77.550146 228.347112 
L 78.789285 221.126352 
L 80.028425 216.594769 
L 81.267564 219.255614 
L 82.506704 210.836888 
L 83.745843 206.022695 
L 84.984983 199.997256 
L 86.224122 195.56759 
L 87.463262 196.654594 
L 88.702401 196.397921 
L 89.941541 187.981343 
L 91.18068 187.698244 
L 92.41982 185.808545 
L 93.658959 186.994317 
L 94.898099 183.838611 
L 96.137238 186.121108 
L 97.376378 188.723473 
L 98.615517 184.693019 
L 99.854656 181.371375 
L 101.093796 186.511432 
L 102.332935 178.99204 
L 103.572075 177.242166 
L 104.811214 181.577817 
L 106.050354 184.242528 
L 107.289493 184.554626 
L 108.528633 185.767179 
L 109.767772 174.395687 
L 111.006912 175.170395 
L 112.246051 181.962416 
L 113.485191 181.486224 
L 114.72433 177.956957 
L 115.96347 181.101996 
L 117.202609 178.692359 
L 118.441749 179.983647 
L 119.680888 185.164216 
L 120.920028 184.179757 
L 122.159167 184.61273 
L 123.398307 182.351106 
L 124.637446 182.427386 
L 125.876586 179.299592 
L 127.115725 180.29473 
L 128.354865 177.985662 
L 129.594004 182.87464 
L 130.833144 178.546462 
L 132.072283 181.808455 
L 133.311423 179.808572 
L 134.550562 173.294915 
L 135.789702 178.217798 
L 138.267981 170.589825 
L 139.50712 172.305763 
L 140.74626 176.636123 
L 141.985399 179.676176 
L 143.224539 172.896651 
L 144.463678 172.348342 
L 145.702817 174.942129 
L 146.941957 174.788486 
L 148.181096 170.373981 
L 149.420236 171.334948 
L 150.659375 167.837846 
L 151.898515 169.962078 
L 153.137654 168.225994 
L 154.376794 168.693751 
L 155.615933 165.752584 
L 156.855073 170.040847 
L 158.094212 166.166556 
L 159.333352 166.154267 
L 160.572491 164.900663 
L 161.811631 163.203512 
L 163.05077 165.634991 
L 164.28991 164.07764 
L 165.529049 163.663432 
L 166.768189 172.476802 
L 168.007328 165.412685 
L 169.246468 164.798895 
L 170.485607 165.576619 
L 171.724747 170.701901 
L 172.963886 171.341586 
L 174.203026 168.507517 
L 175.442165 169.50273 
L 176.681305 169.358478 
L 177.920444 166.476759 
L 179.159584 160.884927 
L 180.398723 165.372286 
L 181.637863 166.108281 
L 182.877002 161.525489 
L 184.116142 171.866874 
L 185.355281 171.340491 
L 186.594421 175.494684 
L 187.83356 174.657027 
L 189.0727 171.414091 
L 190.311839 166.847086 
L 191.550978 170.323706 
L 192.790118 177.015956 
L 194.029257 166.436796 
L 195.268397 173.493982 
L 196.507536 172.637169 
L 197.746676 171.555768 
L 198.985815 171.56797 
L 200.224955 166.834335 
L 201.464094 168.489213 
L 202.703234 174.092047 
L 203.942373 182.58906 
L 205.181513 171.731056 
L 206.420652 170.181565 
L 207.659792 174.825887 
L 208.898931 165.434541 
L 210.138071 166.782023 
L 211.37721 163.473731 
L 212.61635 159.292399 
L 213.855489 168.076599 
L 215.094629 175.5279 
L 216.333768 172.457598 
L 217.572908 171.07306 
L 218.812047 174.030938 
L 220.051187 177.375692 
L 221.290326 171.883911 
L 222.529466 173.811653 
L 223.768605 180.148015 
L 225.007745 179.698088 
L 226.246884 175.393684 
L 227.486024 176.371675 
L 228.725163 171.513232 
L 229.964303 162.998944 
L 231.203442 167.22911 
L 232.442582 169.033692 
L 233.681721 161.912377 
L 234.920861 169.563649 
L 236.16 170.663402 
L 237.399139 171.612725 
L 238.638279 170.496033 
L 239.877418 178.516912 
L 241.116558 184.319843 
L 242.355697 182.614449 
L 243.594837 173.910295 
L 244.833976 170.045651 
L 246.073116 169.876468 
L 247.312255 164.849342 
L 248.551395 170.598948 
L 249.790534 167.327686 
L 251.029674 171.367398 
L 252.268813 161.188656 
L 253.507953 163.470041 
L 254.747092 169.882302 
L 255.986232 171.659684 
L 257.225371 159.54335 
L 258.464511 159.682836 
L 259.70365 167.857431 
L 260.94279 163.390522 
L 262.181929 163.166428 
L 263.421069 167.6478 
L 264.660208 163.596704 
L 265.899348 161.552146 
L 267.138487 162.87722 
L 268.377627 158.608866 
L 269.616766 167.558899 
L 270.855906 167.092228 
L 272.095045 159.059649 
L 273.334185 163.626659 
L 274.573324 164.477437 
L 275.812464 160.452862 
L 277.051603 161.175944 
L 278.290743 162.867174 
L 279.529882 157.008138 
L 280.769022 176.26372 
L 282.008161 173.806261 
L 283.2473 172.74441 
L 284.48644 175.210823 
L 286.964719 162.482766 
L 288.203858 164.279372 
L 289.442998 164.813903 
L 290.682137 166.24195 
L 291.921277 163.457008 
L 293.160416 154.966098 
L 294.399556 162.309628 
L 295.638695 166.035787 
L 296.877835 165.058243 
L 298.116974 166.298346 
L 299.356114 163.31028 
L 300.595253 162.584554 
L 301.834393 159.829599 
L 303.073532 155.312999 
L 304.312672 152.400602 
L 305.551811 156.660022 
L 306.790951 155.616727 
L 308.03009 150.875635 
L 310.508369 161.048232 
L 311.747509 158.900847 
L 312.986648 158.648236 
L 314.225788 162.816098 
L 315.464927 161.171311 
L 316.704067 162.935089 
L 317.943206 164.403465 
L 319.182346 171.694063 
L 320.421485 170.74546 
L 321.660625 170.053443 
L 322.899764 171.505429 
L 324.138904 175.100282 
L 325.378043 173.94145 
L 326.617183 172.498063 
L 327.856322 175.504967 
L 329.095461 170.571484 
L 330.334601 168.120559 
L 331.57374 172.932531 
L 332.81288 166.681164 
L 334.052019 172.700912 
L 335.291159 165.20843 
L 336.530298 171.409676 
L 337.769438 170.090367 
L 339.008577 168.463022 
L 340.247717 175.888571 
L 341.486856 175.20786 
L 342.725996 174.654118 
L 343.965135 175.198872 
L 345.204275 171.96015 
L 346.443414 183.089956 
L 347.682554 182.85503 
L 348.921693 185.76387 
L 350.160833 182.658604 
L 351.399972 184.53595 
L 352.639112 181.152802 
L 353.878251 187.993385 
L 355.117391 180.175999 
L 356.35653 175.295946 
L 357.59567 186.065334 
L 358.834809 181.982697 
L 360.073949 181.241329 
L 361.313088 177.55994 
L 362.552228 186.760538 
L 363.791367 176.681791 
L 365.030507 184.807575 
L 366.269646 184.768507 
L 367.508786 186.614188 
L 368.747925 176.925506 
L 369.987065 178.24958 
L 371.226204 174.874923 
L 372.465344 172.873361 
L 373.704483 174.595186 
L 374.943622 178.546084 
L 376.182762 178.474803 
L 377.421901 179.811968 
L 378.661041 177.684746 
L 379.90018 176.610154 
L 381.13932 179.856852 
L 382.378459 176.133342 
L 383.617599 173.621337 
L 384.856738 167.666726 
L 386.095878 171.119375 
L 387.335017 163.511191 
L 388.574157 167.001031 
L 389.813296 165.125241 
L 391.052436 167.282299 
L 392.291575 170.530139 
L 393.530715 163.391058 
L 394.769854 168.919524 
L 396.008994 170.947505 
L 397.248133 169.587775 
L 398.487273 169.947271 
L 398.487273 169.947271 
" style="fill:none;stroke:#008000;stroke-dasharray:9.6,2.4,1.5,2.4;stroke-dashoffset:0;stroke-width:1.5;"/>
   </g>
   <g id="line2d_28">
    <path clip-path="url(#pdbc1ed595c)" d="M 73.832727 112.748544 
L 75.071867 138.111635 
L 76.311006 146.565998 
L 77.550146 142.338816 
L 78.789285 133.884453 
L 80.028425 112.748544 
L 81.267564 121.202908 
L 82.506704 104.294181 
L 84.984983 78.93109 
L 87.463262 95.839817 
L 88.702401 78.93109 
L 89.941541 74.703909 
L 91.18068 91.612636 
L 93.658959 91.612636 
L 94.898099 87.385454 
L 96.137238 78.93109 
L 98.615517 104.294181 
L 99.854656 87.385454 
L 101.093796 83.158272 
L 102.332935 91.612636 
L 103.572075 83.158272 
L 104.811214 95.839817 
L 106.050354 70.476727 
L 107.289493 78.93109 
L 108.528633 62.022363 
L 109.767772 83.158272 
L 111.006912 91.612636 
L 112.246051 70.476727 
L 113.485191 95.839817 
L 114.72433 91.612636 
L 115.96347 70.476727 
L 117.202609 83.158272 
L 118.441749 78.93109 
L 119.680888 83.158272 
L 120.920028 66.249545 
L 122.159167 66.249545 
L 123.398307 95.839817 
L 124.637446 74.703909 
L 125.876586 83.158272 
L 127.115725 87.385454 
L 128.354865 74.703909 
L 129.594004 70.476727 
L 130.833144 74.703909 
L 132.072283 74.703909 
L 133.311423 83.158272 
L 134.550562 95.839817 
L 135.789702 78.93109 
L 137.028841 91.612636 
L 138.267981 83.158272 
L 139.50712 78.93109 
L 141.985399 87.385454 
L 143.224539 83.158272 
L 144.463678 74.703909 
L 145.702817 100.066999 
L 146.941957 95.839817 
L 148.181096 87.385454 
L 149.420236 95.839817 
L 150.659375 78.93109 
L 151.898515 87.385454 
L 153.137654 87.385454 
L 154.376794 83.158272 
L 155.615933 74.703909 
L 156.855073 74.703909 
L 158.094212 83.158272 
L 159.333352 74.703909 
L 160.572491 74.703909 
L 163.05077 83.158272 
L 164.28991 83.158272 
L 165.529049 78.93109 
L 166.768189 87.385454 
L 168.007328 74.703909 
L 169.246468 74.703909 
L 170.485607 83.158272 
L 171.724747 78.93109 
L 172.963886 70.476727 
L 174.203026 83.158272 
L 175.442165 83.158272 
L 176.681305 78.93109 
L 177.920444 62.022363 
L 179.159584 62.022363 
L 180.398723 70.476727 
L 181.637863 66.249545 
L 182.877002 83.158272 
L 185.355281 74.703909 
L 186.594421 78.93109 
L 187.83356 66.249545 
L 190.311839 74.703909 
L 194.029257 74.703909 
L 195.268397 83.158272 
L 196.507536 78.93109 
L 197.746676 70.476727 
L 198.985815 87.385454 
L 200.224955 87.385454 
L 201.464094 78.93109 
L 202.703234 78.93109 
L 203.942373 100.066999 
L 205.181513 104.294181 
L 206.420652 78.93109 
L 207.659792 87.385454 
L 208.898931 100.066999 
L 210.138071 91.612636 
L 211.37721 100.066999 
L 212.61635 95.839817 
L 213.855489 87.385454 
L 215.094629 95.839817 
L 216.333768 100.066999 
L 217.572908 74.703909 
L 218.812047 78.93109 
L 220.051187 66.249545 
L 221.290326 78.93109 
L 222.529466 78.93109 
L 223.768605 74.703909 
L 225.007745 83.158272 
L 226.246884 66.249545 
L 227.486024 87.385454 
L 228.725163 74.703909 
L 229.964303 70.476727 
L 231.203442 83.158272 
L 232.442582 78.93109 
L 237.399139 78.93109 
L 238.638279 83.158272 
L 239.877418 83.158272 
L 241.116558 78.93109 
L 242.355697 83.158272 
L 243.594837 70.476727 
L 246.073116 78.93109 
L 247.312255 66.249545 
L 248.551395 70.476727 
L 254.747092 70.476727 
L 255.986232 78.93109 
L 257.225371 66.249545 
L 258.464511 62.022363 
L 259.70365 74.703909 
L 262.181929 74.703909 
L 263.421069 70.476727 
L 264.660208 70.476727 
L 265.899348 66.249545 
L 267.138487 66.249545 
L 268.377627 70.476727 
L 269.616766 66.249545 
L 272.095045 74.703909 
L 273.334185 70.476727 
L 274.573324 74.703909 
L 275.812464 57.795182 
L 277.051603 66.249545 
L 279.529882 66.249545 
L 280.769022 74.703909 
L 282.008161 78.93109 
L 283.2473 66.249545 
L 284.48644 74.703909 
L 285.725579 70.476727 
L 286.964719 74.703909 
L 288.203858 74.703909 
L 289.442998 70.476727 
L 290.682137 70.476727 
L 291.921277 74.703909 
L 293.160416 66.249545 
L 294.399556 66.249545 
L 295.638695 78.93109 
L 298.116974 70.476727 
L 299.356114 70.476727 
L 300.595253 74.703909 
L 301.834393 57.795182 
L 303.073532 66.249545 
L 305.551811 66.249545 
L 306.790951 62.022363 
L 308.03009 62.022363 
L 309.26923 70.476727 
L 310.508369 66.249545 
L 311.747509 74.703909 
L 312.986648 66.249545 
L 314.225788 62.022363 
L 315.464927 70.476727 
L 316.704067 57.795182 
L 317.943206 74.703909 
L 319.182346 66.249545 
L 320.421485 66.249545 
L 321.660625 74.703909 
L 322.899764 62.022363 
L 324.138904 70.476727 
L 325.378043 70.476727 
L 326.617183 66.249545 
L 327.856322 66.249545 
L 329.095461 62.022363 
L 330.334601 70.476727 
L 331.57374 66.249545 
L 332.81288 78.93109 
L 334.052019 70.476727 
L 335.291159 70.476727 
L 336.530298 66.249545 
L 337.769438 70.476727 
L 339.008577 70.476727 
L 340.247717 74.703909 
L 341.486856 66.249545 
L 342.725996 74.703909 
L 343.965135 70.476727 
L 346.443414 70.476727 
L 347.682554 66.249545 
L 350.160833 66.249545 
L 352.639112 74.703909 
L 353.878251 62.022363 
L 355.117391 74.703909 
L 356.35653 70.476727 
L 357.59567 70.476727 
L 358.834809 66.249545 
L 360.073949 70.476727 
L 361.313088 66.249545 
L 362.552228 74.703909 
L 365.030507 74.703909 
L 366.269646 62.022363 
L 367.508786 66.249545 
L 369.987065 57.795182 
L 371.226204 74.703909 
L 372.465344 66.249545 
L 373.704483 70.476727 
L 374.943622 70.476727 
L 376.182762 62.022363 
L 377.421901 62.022363 
L 378.661041 66.249545 
L 381.13932 66.249545 
L 382.378459 78.93109 
L 383.617599 62.022363 
L 384.856738 70.476727 
L 388.574157 70.476727 
L 389.813296 66.249545 
L 391.052436 66.249545 
L 392.291575 74.703909 
L 393.530715 66.249545 
L 396.008994 74.703909 
L 397.248133 66.249545 
L 398.487273 53.568 
L 398.487273 53.568 
" style="fill:none;stroke:#ff0000;stroke-linecap:square;stroke-width:1.5;"/>
   </g>
   <g id="patch_3">
    <path d="M 57.6 307.584 
L 57.6 41.472 
" style="fill:none;stroke:#000000;stroke-linecap:square;stroke-linejoin:miter;stroke-width:0.8;"/>
   </g>
   <g id="patch_4">
    <path d="M 414.72 307.584 
L 414.72 41.472 
" style="fill:none;stroke:#000000;stroke-linecap:square;stroke-linejoin:miter;stroke-width:0.8;"/>
   </g>
   <g id="patch_5">
    <path d="M 57.6 307.584 
L 414.72 307.584 
" style="fill:none;stroke:#000000;stroke-linecap:square;stroke-linejoin:miter;stroke-width:0.8;"/>
   </g>
   <g id="patch_6">
    <path d="M 57.6 41.472 
L 414.72 41.472 
" style="fill:none;stroke:#000000;stroke-linecap:square;stroke-linejoin:miter;stroke-width:0.8;"/>
   </g>
   <g id="text_15">
    <!-- Population's average and best fitness -->
    <defs>
     <path d="M 19.671875 64.796875 
L 19.671875 37.40625 
L 32.078125 37.40625 
Q 38.96875 37.40625 42.71875 40.96875 
Q 46.484375 44.53125 46.484375 51.125 
Q 46.484375 57.671875 42.71875 61.234375 
Q 38.96875 64.796875 32.078125 64.796875 
z
M 9.8125 72.90625 
L 32.078125 72.90625 
Q 44.34375 72.90625 50.609375 67.359375 
Q 56.890625 61.8125 56.890625 51.125 
Q 56.890625 40.328125 50.609375 34.8125 
Q 44.34375 29.296875 32.078125 29.296875 
L 19.671875 29.296875 
L 19.671875 0 
L 9.8125 0 
z
" id="DejaVuSans-80"/>
     <path d="M 18.109375 8.203125 
L 18.109375 -20.796875 
L 9.078125 -20.796875 
L 9.078125 54.6875 
L 18.109375 54.6875 
L 18.109375 46.390625 
Q 20.953125 51.265625 25.265625 53.625 
Q 29.59375 56 35.59375 56 
Q 45.5625 56 51.78125 48.09375 
Q 58.015625 40.1875 58.015625 27.296875 
Q 58.015625 14.40625 51.78125 6.484375 
Q 45.5625 -1.421875 35.59375 -1.421875 
Q 29.59375 -1.421875 25.265625 0.953125 
Q 20.953125 3.328125 18.109375 8.203125 
z
M 48.6875 27.296875 
Q 48.6875 37.203125 44.609375 42.84375 
Q 40.53125 48.484375 33.40625 48.484375 
Q 26.265625 48.484375 22.1875 42.84375 
Q 18.109375 37.203125 18.109375 27.296875 
Q 18.109375 17.390625 22.1875 11.75 
Q 26.265625 6.109375 33.40625 6.109375 
Q 40.53125 6.109375 44.609375 11.75 
Q 48.6875 17.390625 48.6875 27.296875 
z
" id="DejaVuSans-112"/>
     <path d="M 8.5 21.578125 
L 8.5 54.6875 
L 17.484375 54.6875 
L 17.484375 21.921875 
Q 17.484375 14.15625 20.5 10.265625 
Q 23.53125 6.390625 29.59375 6.390625 
Q 36.859375 6.390625 41.078125 11.03125 
Q 45.3125 15.671875 45.3125 23.6875 
L 45.3125 54.6875 
L 54.296875 54.6875 
L 54.296875 0 
L 45.3125 0 
L 45.3125 8.40625 
Q 42.046875 3.421875 37.71875 1 
Q 33.40625 -1.421875 27.6875 -1.421875 
Q 18.265625 -1.421875 13.375 4.4375 
Q 8.5 10.296875 8.5 21.578125 
z
M 31.109375 56 
z
" id="DejaVuSans-117"/>
     <path d="M 9.421875 75.984375 
L 18.40625 75.984375 
L 18.40625 0 
L 9.421875 0 
z
" id="DejaVuSans-108"/>
     <path d="M 17.921875 72.90625 
L 17.921875 45.796875 
L 9.625 45.796875 
L 9.625 72.90625 
z
" id="DejaVuSans-39"/>
     <path id="DejaVuSans-32"/>
     <path d="M 2.984375 54.6875 
L 12.5 54.6875 
L 29.59375 8.796875 
L 46.6875 54.6875 
L 56.203125 54.6875 
L 35.6875 0 
L 23.484375 0 
z
" id="DejaVuSans-118"/>
     <path d="M 45.40625 27.984375 
Q 45.40625 37.75 41.375 43.109375 
Q 37.359375 48.484375 30.078125 48.484375 
Q 22.859375 48.484375 18.828125 43.109375 
Q 14.796875 37.75 14.796875 27.984375 
Q 14.796875 18.265625 18.828125 12.890625 
Q 22.859375 7.515625 30.078125 7.515625 
Q 37.359375 7.515625 41.375 12.890625 
Q 45.40625 18.265625 45.40625 27.984375 
z
M 54.390625 6.78125 
Q 54.390625 -7.171875 48.1875 -13.984375 
Q 42 -20.796875 29.203125 -20.796875 
Q 24.46875 -20.796875 20.265625 -20.09375 
Q 16.0625 -19.390625 12.109375 -17.921875 
L 12.109375 -9.1875 
Q 16.0625 -11.328125 19.921875 -12.34375 
Q 23.78125 -13.375 27.78125 -13.375 
Q 36.625 -13.375 41.015625 -8.765625 
Q 45.40625 -4.15625 45.40625 5.171875 
L 45.40625 9.625 
Q 42.625 4.78125 38.28125 2.390625 
Q 33.9375 0 27.875 0 
Q 17.828125 0 11.671875 7.65625 
Q 5.515625 15.328125 5.515625 27.984375 
Q 5.515625 40.671875 11.671875 48.328125 
Q 17.828125 56 27.875 56 
Q 33.9375 56 38.28125 53.609375 
Q 42.625 51.21875 45.40625 46.390625 
L 45.40625 54.6875 
L 54.390625 54.6875 
z
" id="DejaVuSans-103"/>
     <path d="M 45.40625 46.390625 
L 45.40625 75.984375 
L 54.390625 75.984375 
L 54.390625 0 
L 45.40625 0 
L 45.40625 8.203125 
Q 42.578125 3.328125 38.25 0.953125 
Q 33.9375 -1.421875 27.875 -1.421875 
Q 17.96875 -1.421875 11.734375 6.484375 
Q 5.515625 14.40625 5.515625 27.296875 
Q 5.515625 40.1875 11.734375 48.09375 
Q 17.96875 56 27.875 56 
Q 33.9375 56 38.25 53.625 
Q 42.578125 51.265625 45.40625 46.390625 
z
M 14.796875 27.296875 
Q 14.796875 17.390625 18.875 11.75 
Q 22.953125 6.109375 30.078125 6.109375 
Q 37.203125 6.109375 41.296875 11.75 
Q 45.40625 17.390625 45.40625 27.296875 
Q 45.40625 37.203125 41.296875 42.84375 
Q 37.203125 48.484375 30.078125 48.484375 
Q 22.953125 48.484375 18.875 42.84375 
Q 14.796875 37.203125 14.796875 27.296875 
z
" id="DejaVuSans-100"/>
     <path d="M 48.6875 27.296875 
Q 48.6875 37.203125 44.609375 42.84375 
Q 40.53125 48.484375 33.40625 48.484375 
Q 26.265625 48.484375 22.1875 42.84375 
Q 18.109375 37.203125 18.109375 27.296875 
Q 18.109375 17.390625 22.1875 11.75 
Q 26.265625 6.109375 33.40625 6.109375 
Q 40.53125 6.109375 44.609375 11.75 
Q 48.6875 17.390625 48.6875 27.296875 
z
M 18.109375 46.390625 
Q 20.953125 51.265625 25.265625 53.625 
Q 29.59375 56 35.59375 56 
Q 45.5625 56 51.78125 48.09375 
Q 58.015625 40.1875 58.015625 27.296875 
Q 58.015625 14.40625 51.78125 6.484375 
Q 45.5625 -1.421875 35.59375 -1.421875 
Q 29.59375 -1.421875 25.265625 0.953125 
Q 20.953125 3.328125 18.109375 8.203125 
L 18.109375 0 
L 9.078125 0 
L 9.078125 75.984375 
L 18.109375 75.984375 
z
" id="DejaVuSans-98"/>
     <path d="M 37.109375 75.984375 
L 37.109375 68.5 
L 28.515625 68.5 
Q 23.6875 68.5 21.796875 66.546875 
Q 19.921875 64.59375 19.921875 59.515625 
L 19.921875 54.6875 
L 34.71875 54.6875 
L 34.71875 47.703125 
L 19.921875 47.703125 
L 19.921875 0 
L 10.890625 0 
L 10.890625 47.703125 
L 2.296875 47.703125 
L 2.296875 54.6875 
L 10.890625 54.6875 
L 10.890625 58.5 
Q 10.890625 67.625 15.140625 71.796875 
Q 19.390625 75.984375 28.609375 75.984375 
z
" id="DejaVuSans-102"/>
    </defs>
    <g transform="translate(123.315 35.472)scale(0.12 -0.12)">
     <use xlink:href="#DejaVuSans-80"/>
     <use x="60.255859" xlink:href="#DejaVuSans-111"/>
     <use x="121.4375" xlink:href="#DejaVuSans-112"/>
     <use x="184.914062" xlink:href="#DejaVuSans-117"/>
     <use x="248.292969" xlink:href="#DejaVuSans-108"/>
     <use x="276.076172" xlink:href="#DejaVuSans-97"/>
     <use x="337.355469" xlink:href="#DejaVuSans-116"/>
     <use x="376.564453" xlink:href="#DejaVuSans-105"/>
     <use x="404.347656" xlink:href="#DejaVuSans-111"/>
     <use x="465.529297" xlink:href="#DejaVuSans-110"/>
     <use x="528.908203" xlink:href="#DejaVuSans-39"/>
     <use x="556.398438" xlink:href="#DejaVuSans-115"/>
     <use x="608.498047" xlink:href="#DejaVuSans-32"/>
     <use x="640.285156" xlink:href="#DejaVuSans-97"/>
     <use x="701.564453" xlink:href="#DejaVuSans-118"/>
     <use x="760.744141" xlink:href="#DejaVuSans-101"/>
     <use x="822.267578" xlink:href="#DejaVuSans-114"/>
     <use x="863.380859" xlink:href="#DejaVuSans-97"/>
     <use x="924.660156" xlink:href="#DejaVuSans-103"/>
     <use x="988.136719" xlink:href="#DejaVuSans-101"/>
     <use x="1049.660156" xlink:href="#DejaVuSans-32"/>
     <use x="1081.447266" xlink:href="#DejaVuSans-97"/>
     <use x="1142.726562" xlink:href="#DejaVuSans-110"/>
     <use x="1206.105469" xlink:href="#DejaVuSans-100"/>
     <use x="1269.582031" xlink:href="#DejaVuSans-32"/>
     <use x="1301.369141" xlink:href="#DejaVuSans-98"/>
     <use x="1364.845703" xlink:href="#DejaVuSans-101"/>
     <use x="1426.369141" xlink:href="#DejaVuSans-115"/>
     <use x="1478.46875" xlink:href="#DejaVuSans-116"/>
     <use x="1517.677734" xlink:href="#DejaVuSans-32"/>
     <use x="1549.464844" xlink:href="#DejaVuSans-102"/>
     <use x="1584.669922" xlink:href="#DejaVuSans-105"/>
     <use x="1612.453125" xlink:href="#DejaVuSans-116"/>
     <use x="1651.662109" xlink:href="#DejaVuSans-110"/>
     <use x="1715.041016" xlink:href="#DejaVuSans-101"/>
     <use x="1776.564453" xlink:href="#DejaVuSans-115"/>
     <use x="1828.664062" xlink:href="#DejaVuSans-115"/>
    </g>
   </g>
   <g id="legend_1">
    <g id="patch_7">
     <path d="M 64.6 108.1845 
L 137.540625 108.1845 
Q 139.540625 108.1845 139.540625 106.1845 
L 139.540625 48.472 
Q 139.540625 46.472 137.540625 46.472 
L 64.6 46.472 
Q 62.6 46.472 62.6 48.472 
L 62.6 106.1845 
Q 62.6 108.1845 64.6 108.1845 
z
" style="fill:#ffffff;opacity:0.8;stroke:#cccccc;stroke-linejoin:miter;"/>
    </g>
    <g id="line2d_29">
     <path d="M 66.6 54.570438 
L 86.6 54.570438 
" style="fill:none;stroke:#0000ff;stroke-linecap:square;stroke-width:1.5;"/>
    </g>
    <g id="line2d_30"/>
    <g id="text_16">
     <!-- average -->
     <g transform="translate(94.6 58.070438)scale(0.1 -0.1)">
      <use xlink:href="#DejaVuSans-97"/>
      <use x="61.279297" xlink:href="#DejaVuSans-118"/>
      <use x="120.458984" xlink:href="#DejaVuSans-101"/>
      <use x="181.982422" xlink:href="#DejaVuSans-114"/>
      <use x="223.095703" xlink:href="#DejaVuSans-97"/>
      <use x="284.375" xlink:href="#DejaVuSans-103"/>
      <use x="347.851562" xlink:href="#DejaVuSans-101"/>
     </g>
    </g>
    <g id="line2d_31">
     <path d="M 66.6 69.248563 
L 86.6 69.248563 
" style="fill:none;stroke:#008000;stroke-dasharray:9.6,2.4,1.5,2.4;stroke-dashoffset:0;stroke-width:1.5;"/>
    </g>
    <g id="line2d_32"/>
    <g id="text_17">
     <!-- -1 sd -->
     <defs>
      <path d="M 4.890625 31.390625 
L 31.203125 31.390625 
L 31.203125 23.390625 
L 4.890625 23.390625 
z
" id="DejaVuSans-45"/>
     </defs>
     <g transform="translate(94.6 72.748563)scale(0.1 -0.1)">
      <use xlink:href="#DejaVuSans-45"/>
      <use x="36.083984" xlink:href="#DejaVuSans-49"/>
      <use x="99.707031" xlink:href="#DejaVuSans-32"/>
      <use x="131.494141" xlink:href="#DejaVuSans-115"/>
      <use x="183.59375" xlink:href="#DejaVuSans-100"/>
     </g>
    </g>
    <g id="line2d_33">
     <path d="M 66.6 83.926688 
L 86.6 83.926688 
" style="fill:none;stroke:#008000;stroke-dasharray:9.6,2.4,1.5,2.4;stroke-dashoffset:0;stroke-width:1.5;"/>
    </g>
    <g id="line2d_34"/>
    <g id="text_18">
     <!-- +1 sd -->
     <defs>
      <path d="M 46 62.703125 
L 46 35.5 
L 73.1875 35.5 
L 73.1875 27.203125 
L 46 27.203125 
L 46 0 
L 37.796875 0 
L 37.796875 27.203125 
L 10.59375 27.203125 
L 10.59375 35.5 
L 37.796875 35.5 
L 37.796875 62.703125 
z
" id="DejaVuSans-43"/>
     </defs>
     <g transform="translate(94.6 87.426688)scale(0.1 -0.1)">
      <use xlink:href="#DejaVuSans-43"/>
      <use x="83.789062" xlink:href="#DejaVuSans-49"/>
      <use x="147.412109" xlink:href="#DejaVuSans-32"/>
      <use x="179.199219" xlink:href="#DejaVuSans-115"/>
      <use x="231.298828" xlink:href="#DejaVuSans-100"/>
     </g>
    </g>
    <g id="line2d_35">
     <path d="M 66.6 98.604813 
L 86.6 98.604813 
" style="fill:none;stroke:#ff0000;stroke-linecap:square;stroke-width:1.5;"/>
    </g>
    <g id="line2d_36"/>
    <g id="text_19">
     <!-- best -->
     <g transform="translate(94.6 102.104813)scale(0.1 -0.1)">
      <use xlink:href="#DejaVuSans-98"/>
      <use x="63.476562" xlink:href="#DejaVuSans-101"/>
      <use x="125" xlink:href="#DejaVuSans-115"/>
      <use x="177.099609" xlink:href="#DejaVuSans-116"/>
     </g>
    </g>
   </g>
  </g>
 </g>
 <defs>
  <clipPath id="pdbc1ed595c">
   <rect height="266.112" width="357.12" x="57.6" y="41.472"/>
  </clipPath>
 </defs>
</svg>
