<?xml version="1.0" encoding="UTF-8" standalone="no"?>
<!DOCTYPE svg PUBLIC "-//W3C//DTD SVG 1.1//EN"
 "http://www.w3.org/Graphics/SVG/1.1/DTD/svg11.dtd">
<!-- Generated by graphviz version 2.38.0 (20140413.2041)
 -->
<!-- Title: %3 Pages: 1 -->
<svg width="104pt" height="198pt"
 viewBox="0.00 0.00 104.49 198.41" xmlns="http://www.w3.org/2000/svg" xmlns:xlink="http://www.w3.org/1999/xlink">
<g id="graph0" class="graph" transform="scale(1 1) rotate(0) translate(4 194.409)">
<title>%3</title>
<polygon fill="white" stroke="none" points="-4,4 -4,-194.409 100.491,-194.409 100.491,4 -4,4"/>
<!-- input -->
<g id="node1" class="node"><title>input</title>
<polygon fill="lightgray" stroke="black" points="46.9914,-190.409 10.9914,-190.409 10.9914,-172.409 46.9914,-172.409 46.9914,-190.409"/>
<text text-anchor="middle" x="28.9914" y="-179.209" font-family="Times New Roman,serif" font-size="9.00">input</text>
</g>
<!-- 160 -->
<g id="node4" class="node"><title>160</title>
<ellipse fill="white" stroke="black" cx="28.9914" cy="-115.196" rx="21.4286" ry="21.4286"/>
<text text-anchor="middle" x="28.9914" y="-112.996" font-family="Times New Roman,serif" font-size="9.00">160</text>
</g>
<!-- input&#45;&gt;160 -->
<g id="edge2" class="edge"><title>input&#45;&gt;160</title>
<path fill="none" stroke="green" stroke-width="0.283991" d="M28.9914,-172.277C28.9914,-165.734 28.9914,-156.105 28.9914,-146.665"/>
<polygon fill="green" stroke="green" stroke-width="0.283991" points="32.4915,-146.651 28.9914,-136.651 25.4915,-146.651 32.4915,-146.651"/>
</g>
<!-- gate -->
<g id="node2" class="node"><title>gate</title>
<polygon fill="lightgray" stroke="black" points="96.4914,-190.409 65.4914,-190.409 65.4914,-172.409 96.4914,-172.409 96.4914,-190.409"/>
<text text-anchor="middle" x="80.9914" y="-179.209" font-family="Times New Roman,serif" font-size="9.00">gate</text>
</g>
<!-- output -->
<g id="node3" class="node"><title>output</title>
<ellipse fill="lightblue" stroke="black" cx="28.9914" cy="-28.9914" rx="28.9828" ry="28.9828"/>
<text text-anchor="middle" x="28.9914" y="-26.7914" font-family="Times New Roman,serif" font-size="9.00">output</text>
</g>
<!-- output&#45;&gt;160 -->
<g id="edge3" class="edge"><title>output&#45;&gt;160</title>
<path fill="none" stroke="green" stroke-width="0.771253" d="M35.3613,-57.3884C35.8261,-66.0361 35.8646,-75.6305 35.4767,-84.435"/>
<polygon fill="green" stroke="green" stroke-width="0.771253" points="31.9677,-84.4547 34.7922,-94.6661 38.9521,-84.9221 31.9677,-84.4547"/>
</g>
<!-- 160&#45;&gt;output -->
<g id="edge1" class="edge"><title>160&#45;&gt;output</title>
<path fill="none" stroke="red" stroke-width="2.51685" d="M23.1906,-94.6661C22.4318,-86.5313 22.1279,-76.8004 22.279,-67.3873"/>
<polygon fill="red" stroke="red" stroke-width="2.51685" points="25.777,-67.5024 22.6215,-57.3884 18.7811,-67.2627 25.777,-67.5024"/>
</g>
</g>
</svg>
